<svg width="306" height="138" viewBox="0 0 306 138" fill="none" xmlns="http://www.w3.org/2000/svg">
<path d="M5.248 1.2C6.01067 1.2 6.648 1.30667 7.16 1.52C7.67733 1.728 8.06933 2.04267 8.336 2.464C8.60267 2.88 8.736 3.4 8.736 4.024C8.736 4.62133 8.61333 5.12533 8.368 5.536C8.128 5.94133 7.81867 6.25067 7.44 6.464C7.06667 6.67733 6.68267 6.79733 6.288 6.824C6.71467 6.83467 7.136 6.936 7.552 7.128C7.97333 7.31467 8.32 7.61867 8.592 8.04C8.864 8.456 9 9.01333 9 9.712C9 10.384 8.864 10.968 8.592 11.464C8.32533 11.9547 7.912 12.3333 7.352 12.6C6.792 12.8667 6.072 13 5.192 13H1.08V1.2H5.248ZM2.752 6.704L2.168 6.16H4.568C5.34667 6.16 5.94667 6 6.368 5.68C6.78933 5.36 7 4.90133 7 4.304C7 3.89867 6.912 3.576 6.736 3.336C6.56 3.09067 6.30667 2.91467 5.976 2.808C5.65067 2.696 5.264 2.64 4.816 2.64H1.968L2.752 1.728V6.704ZM4.856 11.56C5.60267 11.56 6.184 11.3947 6.6 11.064C7.02133 10.728 7.232 10.2453 7.232 9.616C7.232 9.23733 7.16267 8.92 7.024 8.664C6.89067 8.40267 6.70667 8.19467 6.472 8.04C6.23733 7.88533 5.96533 7.77333 5.656 7.704C5.34667 7.62933 5.016 7.592 4.664 7.592H2.168L2.752 7.048V12.472L1.968 11.56H4.856ZM11.0506 13V4.504H12.7626V13H11.0506ZM11.9146 2.744C11.616 2.744 11.3573 2.664 11.1386 2.504C10.9253 2.33867 10.8186 2.112 10.8186 1.824C10.8186 1.54133 10.9253 1.32 11.1386 1.16C11.3573 0.994666 11.616 0.912 11.9146 0.912C12.208 0.912 12.4613 0.994666 12.6746 1.16C12.8933 1.32 13.0026 1.54133 13.0026 1.824C13.0026 2.112 12.8933 2.33867 12.6746 2.504C12.4613 2.664 12.208 2.744 11.9146 2.744ZM16.3935 11.52H21.2895V13H14.4975V11.584L19.3215 5.928L19.3455 5.984H14.6815V4.504H21.2095V5.92L16.4175 11.56L16.3935 11.52ZM23.0038 13V4.504H24.7158V13H23.0038ZM23.8678 2.744C23.5691 2.744 23.3104 2.664 23.0918 2.504C22.8784 2.33867 22.7718 2.112 22.7718 1.824C22.7718 1.54133 22.8784 1.32 23.0918 1.16C23.3104 0.994666 23.5691 0.912 23.8678 0.912C24.1611 0.912 24.4144 0.994666 24.6278 1.16C24.8464 1.32 24.9558 1.54133 24.9558 1.824C24.9558 2.112 24.8464 2.33867 24.6278 2.504C24.4144 2.664 24.1611 2.744 23.8678 2.744ZM38.2746 2.64H34.6986L35.2426 1.728V13H33.5066V1.728L34.1066 2.64H30.4826V1.2H38.2746V2.64ZM41.6581 13.168C41.0181 13.168 40.4555 13.0667 39.9701 12.864C39.4901 12.6613 39.1168 12.3707 38.8501 11.992C38.5835 11.6133 38.4501 11.1573 38.4501 10.624C38.4501 10.0533 38.5995 9.58133 38.8981 9.208C39.2021 8.83467 39.6181 8.54667 40.1461 8.344C40.6795 8.136 41.2848 8 41.9621 7.936C42.9701 7.83467 43.6795 7.736 44.0901 7.64C44.5061 7.544 44.7141 7.38667 44.7141 7.168C44.7141 7.16267 44.7141 7.15733 44.7141 7.152C44.7141 6.72 44.5301 6.392 44.1621 6.168C43.7941 5.944 43.2688 5.832 42.5861 5.832C41.8661 5.832 41.3088 5.96 40.9141 6.216C40.5248 6.46667 40.3301 6.86667 40.3301 7.416H38.6261C38.6261 6.76533 38.7941 6.21333 39.1301 5.76C39.4715 5.30667 39.9408 4.96267 40.5381 4.728C41.1355 4.488 41.8208 4.368 42.5941 4.368C43.3035 4.368 43.9488 4.47733 44.5301 4.696C45.1168 4.90933 45.5835 5.22933 45.9301 5.656C46.2768 6.08267 46.4501 6.61333 46.4501 7.248C46.4501 7.36 46.4501 7.472 46.4501 7.584C46.4501 7.69067 46.4501 7.8 46.4501 7.912V11.304C46.4501 11.5013 46.4581 11.6933 46.4741 11.88C46.4901 12.0613 46.5195 12.224 46.5621 12.368C46.6101 12.5333 46.6661 12.6693 46.7301 12.776C46.7995 12.8827 46.8555 12.9573 46.8981 13H45.1701C45.1381 12.968 45.0901 12.9013 45.0261 12.8C44.9675 12.6933 44.9141 12.5707 44.8661 12.432C44.8181 12.2987 44.7808 12.1467 44.7541 11.976C44.7328 11.8 44.7221 11.6107 44.7221 11.408L45.0421 11.632C44.8821 11.9413 44.6395 12.2107 44.3141 12.44C43.9941 12.6693 43.6075 12.848 43.1541 12.976C42.7061 13.104 42.2075 13.168 41.6581 13.168ZM42.0181 11.728C42.5141 11.728 42.9648 11.6507 43.3701 11.496C43.7808 11.336 44.1088 11.096 44.3541 10.776C44.5995 10.4507 44.7221 10.0427 44.7221 9.552V8.144L45.1301 8.68C44.7888 8.81333 44.3701 8.92267 43.8741 9.008C43.3835 9.088 42.8768 9.15467 42.3541 9.208C41.6341 9.272 41.0928 9.39733 40.7301 9.584C40.3675 9.76533 40.1861 10.0693 40.1861 10.496C40.1861 10.9067 40.3355 11.216 40.6341 11.424C40.9381 11.6267 41.3995 11.728 42.0181 11.728ZM48.5579 13V0.495999H50.2059V7.992L49.7819 7.792L53.5739 4.504H55.7579L51.6459 8.144L52.0619 7.368L55.7579 13H53.9099L50.9339 8.304L51.3259 8.424L49.9899 9.608L50.2059 8.816V13H48.5579ZM57.1131 13V4.504H58.8251V13H57.1131ZM57.9771 2.744C57.6785 2.744 57.4198 2.664 57.2011 2.504C56.9878 2.33867 56.8811 2.112 56.8811 1.824C56.8811 1.54133 56.9878 1.32 57.2011 1.16C57.4198 0.994666 57.6785 0.912 57.9771 0.912C58.2705 0.912 58.5238 0.994666 58.7371 1.16C58.9558 1.32 59.0651 1.54133 59.0651 1.824C59.0651 2.112 58.9558 2.33867 58.7371 2.504C58.5238 2.664 58.2705 2.744 57.9771 2.744ZM61.136 16.496V4.504H62.872V16.496H61.136ZM65.608 13.168C64.9467 13.168 64.3333 13.0027 63.768 12.672C63.2027 12.336 62.744 11.8773 62.392 11.296C62.0453 10.7147 61.872 10.056 61.872 9.32C61.872 9.29867 61.872 9.28267 61.872 9.272C61.872 9.256 61.872 9.24 61.872 9.224L62.88 9.2C62.88 9.21067 62.88 9.224 62.88 9.24C62.88 9.25067 62.88 9.264 62.88 9.28C62.88 9.71733 62.992 10.112 63.216 10.464C63.4453 10.8107 63.7413 11.0853 64.104 11.288C64.4667 11.4907 64.856 11.592 65.272 11.592C65.9547 11.592 66.528 11.36 66.992 10.896C67.4613 10.4267 67.696 9.70667 67.696 8.736C67.696 7.76 67.464 7.04267 67 6.584C66.536 6.12 65.96 5.888 65.272 5.888C64.856 5.888 64.4667 5.98933 64.104 6.192C63.7413 6.38933 63.4453 6.66133 63.216 7.008C62.992 7.34933 62.88 7.74133 62.88 8.184L61.872 8.144C61.872 7.40267 62.0453 6.74933 62.392 6.184C62.744 5.61333 63.2027 5.168 63.768 4.848C64.3333 4.528 64.9467 4.368 65.608 4.368C66.296 4.368 66.9333 4.53867 67.52 4.88C68.1067 5.216 68.5787 5.70933 68.936 6.36C69.2987 7.01067 69.48 7.80267 69.48 8.736C69.48 9.69067 69.304 10.4987 68.952 11.16C68.6 11.8213 68.1307 12.3227 67.544 12.664C66.9573 13 66.312 13.168 65.608 13.168ZM76.3056 2.64L77.0896 1.728V6.912L76.6736 6.36H81.1456V7.8H76.6736L77.0896 7.248V12.472L76.3056 11.56H82.0336V13H75.3456V1.2H82.0336V2.64H76.3056ZM87.1248 13.168C86.4261 13.168 85.7834 13 85.1968 12.664C84.6101 12.3227 84.1408 11.8213 83.7888 11.16C83.4368 10.4987 83.2608 9.69067 83.2608 8.736C83.2608 7.80267 83.4394 7.01067 83.7968 6.36C84.1541 5.70933 84.6261 5.216 85.2128 4.88C85.7994 4.53867 86.4368 4.368 87.1248 4.368C87.7861 4.368 88.3994 4.528 88.9648 4.848C89.5354 5.168 89.9941 5.61333 90.3408 6.184C90.6874 6.74933 90.8608 7.40267 90.8608 8.144C90.8608 8.16533 90.8608 8.18667 90.8608 8.208C90.8608 8.224 90.8608 8.24 90.8608 8.256L89.8528 8.288C89.8528 8.272 89.8528 8.256 89.8528 8.24C89.8528 8.21867 89.8528 8.2 89.8528 8.184C89.8528 7.74133 89.7408 7.34933 89.5168 7.008C89.2928 6.66133 88.9968 6.38933 88.6288 6.192C88.2661 5.98933 87.8794 5.888 87.4688 5.888C86.7808 5.888 86.2048 6.12 85.7408 6.584C85.2768 7.04267 85.0448 7.76 85.0448 8.736C85.0448 9.70667 85.2768 10.4267 85.7408 10.896C86.2101 11.36 86.7861 11.592 87.4688 11.592C87.8954 11.592 88.2901 11.4907 88.6528 11.288C89.0154 11.08 89.3061 10.7973 89.5248 10.44C89.7434 10.0827 89.8528 9.67467 89.8528 9.216L90.8608 9.256C90.8608 9.992 90.6928 10.656 90.3568 11.248C90.0261 11.84 89.5781 12.3093 89.0128 12.656C88.4528 12.9973 87.8234 13.168 87.1248 13.168ZM89.8528 13V0.495999H91.5968V13H89.8528ZM93.8475 13V4.504H95.5595V13H93.8475ZM94.7115 2.744C94.4128 2.744 94.1542 2.664 93.9355 2.504C93.7222 2.33867 93.6155 2.112 93.6155 1.824C93.6155 1.54133 93.7222 1.32 93.9355 1.16C94.1542 0.994666 94.4128 0.912 94.7115 0.912C95.0048 0.912 95.2582 0.994666 95.4715 1.16C95.6902 1.32 95.7995 1.54133 95.7995 1.824C95.7995 2.112 95.6902 2.33867 95.4715 2.504C95.2582 2.664 95.0048 2.744 94.7115 2.744ZM103.918 13V9.08C103.918 8.85067 103.918 8.656 103.918 8.496C103.918 8.336 103.918 8.18667 103.918 8.048C103.918 7.632 103.854 7.26667 103.726 6.952C103.598 6.632 103.388 6.384 103.094 6.208C102.801 6.02667 102.409 5.936 101.918 5.936C101.486 5.936 101.094 6.04267 100.742 6.256C100.396 6.46933 100.118 6.76 99.9104 7.128C99.7077 7.49067 99.6064 7.904 99.6064 8.368L98.8624 8C98.8624 7.312 99.025 6.696 99.3504 6.152C99.6757 5.60267 100.11 5.168 100.654 4.848C101.204 4.528 101.804 4.368 102.454 4.368C103.126 4.368 103.7 4.49867 104.174 4.76C104.654 5.016 105.02 5.384 105.27 5.864C105.526 6.33867 105.654 6.90667 105.654 7.568C105.654 7.81333 105.654 8.08533 105.654 8.384C105.654 8.68267 105.654 8.97067 105.654 9.248V13H103.918ZM97.8704 13V4.504H99.6064V13H97.8704Z" fill="white"/>
<rect x="1" y="38" width="46" height="46" rx="23" stroke="white" stroke-opacity="0.16" stroke-width="2"/>
<path d="M24.001 58C23.2054 58 22.4423 58.3161 21.8797 58.8787C21.3171 59.4413 21.001 60.2044 21.001 61C21.001 61.7956 21.3171 62.5587 21.8797 63.1213C22.4423 63.6839 23.2054 64 24.001 64C24.7966 64 25.5597 63.6839 26.1223 63.1213C26.6849 62.5587 27.001 61.7956 27.001 61C27.001 60.2044 26.6849 59.4413 26.1223 58.8787C25.5597 58.3161 24.7966 58 24.001 58ZM24.001 56C25.3271 56 26.5989 56.5268 27.5365 57.4645C28.4742 58.4021 29.001 59.6739 29.001 61C29.001 62.3261 28.4742 63.5979 27.5365 64.5355C26.5989 65.4732 25.3271 66 24.001 66C22.6749 66 21.4031 65.4732 20.4655 64.5355C19.5278 63.5979 19.001 62.3261 19.001 61C19.001 59.6739 19.5278 58.4021 20.4655 57.4645C21.4031 56.5268 22.6749 56 24.001 56ZM30.501 55.75C30.501 56.0815 30.3693 56.3995 30.1349 56.6339C29.9005 56.8683 29.5825 57 29.251 57C28.9195 57 28.6015 56.8683 28.3671 56.6339C28.1327 56.3995 28.001 56.0815 28.001 55.75C28.001 55.4185 28.1327 55.1005 28.3671 54.8661C28.6015 54.6317 28.9195 54.5 29.251 54.5C29.5825 54.5 29.9005 54.6317 30.1349 54.8661C30.3693 55.1005 30.501 55.4185 30.501 55.75ZM24.001 53C21.527 53 21.123 53.007 19.972 53.058C19.188 53.095 18.662 53.2 18.174 53.39C17.7658 53.5404 17.3967 53.7806 17.094 54.093C16.7813 54.3956 16.5407 54.7647 16.39 55.173C16.2 55.663 16.095 56.188 16.059 56.971C16.007 58.075 16 58.461 16 61C16 63.475 16.007 63.878 16.058 65.029C16.095 65.812 16.2 66.339 16.389 66.826C16.559 67.261 16.759 67.574 17.091 67.906C17.428 68.242 17.741 68.443 18.171 68.609C18.665 68.8 19.191 68.906 19.971 68.942C21.075 68.994 21.461 69 24 69C26.475 69 26.878 68.993 28.029 68.942C28.811 68.905 29.337 68.8 29.826 68.611C30.2342 68.4606 30.6033 68.2204 30.906 67.908C31.243 67.572 31.444 67.259 31.61 66.828C31.8 66.336 31.906 65.81 31.942 65.028C31.994 63.925 32 63.538 32 61C32 58.526 31.993 58.122 31.942 56.971C31.905 56.189 31.799 55.661 31.61 55.173C31.4596 54.7648 31.2194 54.3957 30.907 54.093C30.6044 53.7803 30.2353 53.5397 29.827 53.389C29.337 53.199 28.811 53.094 28.029 53.058C26.926 53.006 26.54 53 24 53M24 51C26.717 51 27.056 51.01 28.123 51.06C29.187 51.11 29.913 51.277 30.55 51.525C31.21 51.779 31.766 52.123 32.322 52.678C32.8307 53.1777 33.2242 53.7825 33.475 54.45C33.722 55.087 33.89 55.813 33.94 56.878C33.987 57.944 34 58.283 34 61C34 63.717 33.99 64.056 33.94 65.122C33.89 66.188 33.722 66.912 33.475 67.55C33.2242 68.2175 32.8307 68.8223 32.322 69.322C31.8223 69.8307 31.2175 70.2242 30.55 70.475C29.913 70.722 29.187 70.89 28.123 70.94C27.056 70.987 26.717 71 24 71C21.283 71 20.944 70.99 19.877 70.94C18.813 70.89 18.088 70.722 17.45 70.475C16.7825 70.2242 16.1777 69.8307 15.678 69.322C15.1693 68.8223 14.7758 68.2175 14.525 67.55C14.277 66.913 14.11 66.187 14.06 65.122C14.012 64.056 14 63.717 14 61C14 58.283 14.01 57.944 14.06 56.878C14.11 55.812 14.277 55.088 14.525 54.45C14.7758 53.7825 15.1693 53.1777 15.678 52.678C16.1777 52.1693 16.7825 51.7758 17.45 51.525C18.087 51.277 18.812 51.11 19.877 51.06C20.945 51.013 21.284 51 24.001 51" fill="white"/>
<rect x="65.5" y="38" width="46" height="46" rx="23" stroke="white" stroke-opacity="0.16" stroke-width="2"/>
<path d="M86.988 63.651L91.75 70H98.75L90.892 59.522L97.43 52H94.78L89.663 57.886L85.25 52H78.25L85.76 62.015L78.82 70H81.47L86.988 63.651ZM92.75 68L82.25 54H84.25L94.75 68H92.75Z" fill="white"/>
<rect x="130" y="38" width="46" height="46" rx="23" stroke="white" stroke-opacity="0.16" stroke-width="2"/>
<path d="M148.5 60C149.03 60 149.539 59.7893 149.914 59.4142C150.289 59.0391 150.5 58.5304 150.5 58C150.5 57.4696 150.289 56.9609 149.914 56.5858C149.539 56.2107 149.03 56 148.5 56H144V60H148.5ZM149.5 62H144V66H149.5C150.03 66 150.539 65.7893 150.914 65.4142C151.289 65.0391 151.5 64.5304 151.5 64C151.5 63.4696 151.289 62.9609 150.914 62.5858C150.539 62.2107 150.03 62 149.5 62ZM151.563 60.572C152.313 61.0227 152.894 61.7066 153.217 62.5191C153.541 63.3315 153.59 64.2277 153.356 65.0704C153.122 65.9131 152.618 66.6559 151.922 67.185C151.225 67.7141 150.375 68.0004 149.5 68H142V54H148.5C149.262 53.9999 150.008 54.2173 150.65 54.6266C151.292 55.0359 151.804 55.6201 152.126 56.3105C152.448 57.0008 152.566 57.7687 152.466 58.5238C152.366 59.2789 152.053 59.9898 151.563 60.573M156.5 55H162V56.5H156.5V55ZM164 63.5H156.5V63.75C156.5 64.3677 156.708 64.9676 157.09 65.4528C157.472 65.938 158.007 66.2804 158.607 66.4248C159.208 66.5692 159.84 66.5072 160.401 66.2487C160.962 65.9902 161.419 65.5503 161.7 65H163.834C163.529 66.1083 162.833 67.0686 161.875 67.703C160.916 68.3374 159.76 68.6029 158.621 68.4503C157.482 68.2978 156.437 67.7375 155.679 66.8732C154.921 66.009 154.502 64.8994 154.5 63.75V62.25C154.5 60.9902 155 59.782 155.891 58.8912C156.782 58.0004 157.99 57.5 159.25 57.5C160.51 57.5 161.718 58.0004 162.609 58.8912C163.5 59.782 164 60.9902 164 62.25V63.5ZM161.896 61.5C161.732 60.9245 161.385 60.4181 160.908 60.0575C160.43 59.6969 159.848 59.5018 159.25 59.5018C158.652 59.5018 158.07 59.6969 157.592 60.0575C157.115 60.4181 156.768 60.9245 156.604 61.5H161.896Z" fill="white"/>
<rect x="194.5" y="38" width="46" height="46" rx="23" stroke="white" stroke-opacity="0.16" stroke-width="2"/>
<path d="M218.501 68.938C220.518 68.6813 222.362 67.6661 223.658 66.0988C224.953 64.5314 225.604 62.5295 225.476 60.5C225.349 58.4704 224.454 56.5655 222.972 55.1724C221.491 53.7793 219.535 53.0025 217.501 53C215.465 52.9985 213.505 53.7733 212.02 55.1667C210.536 56.56 209.638 58.467 209.511 60.499C209.383 62.5311 210.035 64.5353 211.334 66.1033C212.633 67.6712 214.481 68.685 216.501 68.938V63H214.501V61H216.501V59.346C216.501 58.009 216.641 57.524 216.901 57.035C217.157 56.5513 217.553 56.1559 218.037 55.9C218.419 55.695 218.894 55.572 219.724 55.519C220.053 55.4977 220.479 55.5243 221.002 55.599V57.499H220.502C219.585 57.499 219.206 57.542 218.98 57.663C218.845 57.7325 218.735 57.8423 218.666 57.977C218.546 58.203 218.502 58.427 218.502 59.345V61H221.002L220.502 63H218.502L218.501 68.938ZM217.501 71C211.978 71 207.501 66.523 207.501 61C207.501 55.477 211.978 51 217.501 51C223.024 51 227.501 55.477 227.501 61C227.501 66.523 223.024 71 217.501 71Z" fill="white"/>
<rect x="259" y="38" width="46" height="46" rx="23" stroke="white" stroke-opacity="0.16" stroke-width="2"/>
<path d="M289.989 60.572C289.907 58.9979 289.36 57.4836 288.416 56.221C288.128 56.5301 287.821 56.8207 287.496 57.091C286.497 57.9203 285.38 58.5976 284.183 59.101C284.35 59.451 284.503 59.79 284.638 60.11V60.113C284.665 60.174 284.688 60.231 284.732 60.342L284.749 60.382C286.262 60.212 287.858 60.275 289.405 60.485C289.61 60.5117 289.805 60.5407 289.989 60.572ZM280.604 53.122C281.579 54.495 282.477 55.9205 283.296 57.392C284.519 56.91 285.53 56.302 286.344 55.625C286.674 55.351 286.938 55.093 287.14 54.87C285.701 53.6599 283.88 52.9975 282 53C281.524 53.0007 281.059 53.041 280.604 53.121M274.253 58.997C274.934 58.98 275.615 58.939 276.293 58.874C277.933 58.7275 279.558 58.4526 281.155 58.052C280.321 56.6019 279.42 55.1914 278.455 53.825C277.425 54.3355 276.516 55.0616 275.791 55.9539C275.066 56.8463 274.542 57.8841 274.253 58.997ZM275.783 66.035C276.251 65.3569 276.778 64.7214 277.358 64.136C278.812 62.646 280.528 61.486 282.514 60.846L282.576 60.828C282.411 60.464 282.256 60.139 282.1 59.833C280.264 60.368 278.33 60.702 276.403 60.875C275.463 60.96 274.62 60.997 274 61.003C273.998 62.8356 274.628 64.6126 275.783 66.035ZM285.005 68.415C284.619 66.4703 284.073 64.5608 283.373 62.706C281.373 63.433 279.777 64.496 278.544 65.764C278.047 66.2665 277.605 66.8214 277.227 67.419C278.605 68.4478 280.28 69.0025 282 69C283.03 69.0009 284.05 68.8029 285.005 68.417M286.879 67.342C288.44 66.1416 289.504 64.4076 289.866 62.472C289.526 62.387 289.095 62.302 288.621 62.236C287.567 62.084 286.498 62.0729 285.441 62.203C286.037 63.8815 286.518 65.5988 286.879 67.343M282 71C276.477 71 272 66.523 272 61C272 55.477 276.477 51 282 51C287.523 51 292 55.477 292 61C292 66.523 287.523 71 282 71Z" fill="white"/>
<g opacity="0.64">
<path d="M46.844 114.922C46.844 115.278 46.778 115.644 46.646 116.02C46.514 116.392 46.314 116.738 46.046 117.058C45.782 117.374 45.448 117.63 45.044 117.826C44.64 118.022 44.166 118.12 43.622 118.12C42.874 118.12 42.238 117.926 41.714 117.538C41.19 117.146 40.79 116.608 40.514 115.924C40.242 115.24 40.106 114.458 40.106 113.578C40.106 112.694 40.242 111.912 40.514 111.232C40.79 110.548 41.19 110.012 41.714 109.624C42.238 109.236 42.874 109.042 43.622 109.042C44.246 109.042 44.778 109.17 45.218 109.426C45.658 109.682 46.008 110.008 46.268 110.404C46.528 110.8 46.698 111.208 46.778 111.628C46.822 111.84 46.844 112.04 46.844 112.228H45.818C45.818 112.12 45.808 111.996 45.788 111.856C45.74 111.52 45.624 111.21 45.44 110.926C45.26 110.638 45.018 110.408 44.714 110.236C44.41 110.06 44.046 109.972 43.622 109.972C43.126 109.972 42.692 110.108 42.32 110.38C41.952 110.652 41.664 111.056 41.456 111.592C41.252 112.128 41.15 112.79 41.15 113.578C41.15 114.366 41.252 115.03 41.456 115.57C41.664 116.106 41.952 116.512 42.32 116.788C42.692 117.06 43.126 117.196 43.622 117.196C43.978 117.196 44.292 117.132 44.564 117.004C44.836 116.872 45.064 116.698 45.248 116.482C45.436 116.262 45.578 116.018 45.674 115.75C45.77 115.478 45.818 115.202 45.818 114.922H46.844ZM51.3813 118.114C50.7413 118.114 50.1753 117.972 49.6833 117.688C49.1953 117.4 48.8113 117.008 48.5313 116.512C48.2553 116.012 48.1173 115.444 48.1173 114.808C48.1173 114.172 48.2553 113.608 48.5313 113.116C48.8113 112.624 49.1953 112.238 49.6833 111.958C50.1753 111.678 50.7413 111.538 51.3813 111.538C52.0213 111.538 52.5853 111.678 53.0733 111.958C53.5653 112.238 53.9493 112.624 54.2253 113.116C54.5053 113.608 54.6453 114.172 54.6453 114.808C54.6453 115.444 54.5053 116.012 54.2253 116.512C53.9493 117.008 53.5653 117.4 53.0733 117.688C52.5853 117.972 52.0213 118.114 51.3813 118.114ZM51.3813 117.178C51.8213 117.178 52.2093 117.08 52.5453 116.884C52.8813 116.688 53.1433 116.412 53.3313 116.056C53.5233 115.7 53.6193 115.284 53.6193 114.808C53.6193 114.332 53.5233 113.92 53.3313 113.572C53.1433 113.22 52.8813 112.95 52.5453 112.762C52.2093 112.57 51.8213 112.474 51.3813 112.474C50.9453 112.474 50.5573 112.57 50.2173 112.762C49.8813 112.95 49.6173 113.22 49.4253 113.572C49.2373 113.92 49.1433 114.332 49.1433 114.808C49.1433 115.284 49.2373 115.7 49.4253 116.056C49.6173 116.412 49.8813 116.688 50.2173 116.884C50.5573 117.08 50.9453 117.178 51.3813 117.178ZM56.2383 120.622V111.628H57.2583V120.622H56.2383ZM59.3523 118.12C58.8603 118.12 58.4003 118 57.9723 117.76C57.5443 117.516 57.1963 117.182 56.9283 116.758C56.6643 116.334 56.5323 115.85 56.5323 115.306C56.5323 115.294 56.5323 115.284 56.5323 115.276C56.5323 115.268 56.5323 115.258 56.5323 115.246L57.2643 115.228C57.2643 115.236 57.2643 115.246 57.2643 115.258C57.2643 115.266 57.2643 115.274 57.2643 115.282C57.2643 115.626 57.3543 115.94 57.5343 116.224C57.7183 116.508 57.9583 116.734 58.2543 116.902C58.5503 117.07 58.8683 117.154 59.2083 117.154C59.7723 117.154 60.2403 116.962 60.6123 116.578C60.9883 116.19 61.1763 115.6 61.1763 114.808C61.1763 114.012 60.9903 113.424 60.6183 113.044C60.2463 112.66 59.7763 112.468 59.2083 112.468C58.8683 112.468 58.5503 112.552 58.2543 112.72C57.9583 112.884 57.7183 113.106 57.5343 113.386C57.3543 113.666 57.2643 113.98 57.2643 114.328L56.5323 114.304C56.5323 113.756 56.6643 113.274 56.9283 112.858C57.1963 112.442 57.5443 112.118 57.9723 111.886C58.4003 111.65 58.8603 111.532 59.3523 111.532C59.8683 111.532 60.3443 111.66 60.7803 111.916C61.2163 112.168 61.5663 112.538 61.8303 113.026C62.0943 113.514 62.2263 114.108 62.2263 114.808C62.2263 115.52 62.0963 116.124 61.8363 116.62C61.5763 117.112 61.2283 117.486 60.7923 117.742C60.3563 117.994 59.8763 118.12 59.3523 118.12ZM63.6256 120.688C63.4656 120.688 63.3196 120.678 63.1876 120.658C63.0556 120.642 62.9736 120.626 62.9416 120.61V119.722C62.9936 119.746 63.0796 119.766 63.1996 119.782C63.3196 119.798 63.4396 119.806 63.5596 119.806C63.8156 119.806 64.0316 119.752 64.2076 119.644C64.3836 119.54 64.5316 119.396 64.6516 119.212C64.7716 119.032 64.8696 118.828 64.9456 118.6L65.1376 118.036L62.9416 111.628H64.0096L65.7736 117.118H65.6296L67.3576 111.628H68.4076L66.0736 118.546C65.9416 118.934 65.7816 119.29 65.5936 119.614C65.4096 119.938 65.1616 120.198 64.8496 120.394C64.5416 120.59 64.1336 120.688 63.6256 120.688ZM69.6797 118V111.628H70.6997V113.584L70.3637 113.464C70.3877 113.228 70.4477 112.996 70.5437 112.768C70.6397 112.536 70.7717 112.328 70.9397 112.144C71.1117 111.956 71.3257 111.808 71.5817 111.7C71.8377 111.588 72.1377 111.532 72.4817 111.532C72.7377 111.532 72.9457 111.554 73.1057 111.598C73.2697 111.638 73.3717 111.67 73.4117 111.694L73.1477 112.696C73.1077 112.668 73.0257 112.632 72.9017 112.588C72.7817 112.544 72.6097 112.522 72.3857 112.522C72.0537 112.522 71.7777 112.582 71.5577 112.702C71.3417 112.822 71.1697 112.982 71.0417 113.182C70.9177 113.378 70.8297 113.592 70.7777 113.824C70.7257 114.056 70.6997 114.286 70.6997 114.514V118H69.6797ZM74.5678 118V111.628H75.5758V118H74.5678ZM75.0778 110.164C74.8898 110.164 74.7258 110.112 74.5858 110.008C74.4498 109.9 74.3818 109.754 74.3818 109.57C74.3818 109.39 74.4498 109.248 74.5858 109.144C74.7258 109.036 74.8898 108.982 75.0778 108.982C75.2658 108.982 75.4278 109.036 75.5638 109.144C75.6998 109.248 75.7678 109.39 75.7678 109.57C75.7678 109.754 75.6998 109.9 75.5638 110.008C75.4278 110.112 75.2658 110.164 75.0778 110.164ZM81.5407 117.61C81.8847 117.638 82.1867 117.702 82.4467 117.802C82.7107 117.898 82.9167 118.04 83.0647 118.228C83.2127 118.42 83.2867 118.67 83.2867 118.978C83.2867 119.318 83.1707 119.618 82.9387 119.878C82.7067 120.142 82.3547 120.348 81.8827 120.496C81.4107 120.644 80.8167 120.718 80.1007 120.718C79.0887 120.718 78.3247 120.57 77.8087 120.274C77.2927 119.982 77.0347 119.582 77.0347 119.074C77.0347 118.914 77.0527 118.772 77.0887 118.648C77.1287 118.528 77.1727 118.43 77.2207 118.354L78.1927 118.498C78.1607 118.542 78.1287 118.608 78.0967 118.696C78.0687 118.788 78.0547 118.894 78.0547 119.014C78.0547 119.334 78.2367 119.558 78.6007 119.686C78.9647 119.818 79.4807 119.884 80.1487 119.884C80.6487 119.884 81.0587 119.85 81.3787 119.782C81.6987 119.714 81.9367 119.616 82.0927 119.488C82.2487 119.36 82.3267 119.21 82.3267 119.038C82.3267 118.778 82.2167 118.616 81.9967 118.552C81.7807 118.492 81.5127 118.45 81.1927 118.426L78.7687 118.246C78.3647 118.214 78.0347 118.09 77.7787 117.874C77.5267 117.654 77.4007 117.388 77.4007 117.076C77.4007 116.884 77.4467 116.702 77.5387 116.53C77.6347 116.358 77.7447 116.214 77.8687 116.098C77.9967 115.978 78.1107 115.906 78.2107 115.882L79.0147 116.248C78.9147 116.264 78.7907 116.334 78.6427 116.458C78.4987 116.578 78.4267 116.72 78.4267 116.884C78.4267 117.032 78.4847 117.154 78.6007 117.25C78.7167 117.342 78.9467 117.402 79.2907 117.43L81.5407 117.61ZM82.4227 111.628H83.3827L82.9867 114.136C82.9147 114.604 82.7647 115.028 82.5367 115.408C82.3087 115.784 81.9967 116.084 81.6007 116.308C81.2087 116.528 80.7227 116.638 80.1427 116.638C79.5387 116.638 79.0227 116.528 78.5947 116.308C78.1667 116.088 77.8387 115.788 77.6107 115.408C77.3827 115.024 77.2687 114.592 77.2687 114.112C77.2687 113.624 77.3867 113.186 77.6227 112.798C77.8627 112.406 78.1947 112.098 78.6187 111.874C79.0427 111.646 79.5287 111.532 80.0767 111.532C80.5687 111.532 80.9987 111.618 81.3667 111.79C81.7347 111.958 82.0247 112.17 82.2367 112.426C82.4527 112.682 82.5727 112.94 82.5967 113.2L82.2127 113.224L82.4227 111.628ZM80.1367 115.726C80.5247 115.726 80.8567 115.662 81.1327 115.534C81.4127 115.406 81.6267 115.22 81.7747 114.976C81.9267 114.732 82.0027 114.436 82.0027 114.088C82.0027 113.752 81.9267 113.462 81.7747 113.218C81.6267 112.97 81.4127 112.78 81.1327 112.648C80.8567 112.512 80.5267 112.444 80.1427 112.444C79.7747 112.444 79.4487 112.514 79.1647 112.654C78.8847 112.79 78.6647 112.982 78.5047 113.23C78.3487 113.478 78.2707 113.77 78.2707 114.106C78.2707 114.446 78.3447 114.738 78.4927 114.982C78.6447 115.222 78.8587 115.406 79.1347 115.534C79.4147 115.662 79.7487 115.726 80.1367 115.726ZM89.3512 118V115.63C89.3512 115.518 89.3512 115.386 89.3512 115.234C89.3512 115.078 89.3512 114.922 89.3512 114.766C89.3512 114.606 89.3512 114.47 89.3512 114.358C89.3512 113.746 89.2192 113.284 88.9552 112.972C88.6952 112.66 88.2812 112.504 87.7132 112.504C87.3332 112.504 86.9992 112.578 86.7112 112.726C86.4272 112.874 86.2052 113.076 86.0452 113.332C85.8852 113.588 85.8052 113.878 85.8052 114.202L85.1572 114.004C85.1572 113.548 85.2752 113.134 85.5112 112.762C85.7512 112.386 86.0772 112.088 86.4892 111.868C86.9052 111.644 87.3752 111.532 87.8992 111.532C88.6632 111.532 89.2652 111.762 89.7052 112.222C90.1492 112.682 90.3712 113.318 90.3712 114.13C90.3712 114.342 90.3712 114.586 90.3712 114.862C90.3712 115.138 90.3712 115.428 90.3712 115.732V118H89.3512ZM84.7852 118V108.622H85.8052V118H84.7852ZM94.4888 118.096C94.2928 118.096 94.1008 118.074 93.9128 118.03C93.7248 117.986 93.5548 117.908 93.4028 117.796C93.2548 117.68 93.1368 117.518 93.0488 117.31C92.9608 117.098 92.9168 116.826 92.9168 116.494C92.9168 116.41 92.9168 116.324 92.9168 116.236C92.9168 116.144 92.9168 116.048 92.9168 115.948V112.528H91.3628V111.628H92.3588C92.4948 111.628 92.6008 111.624 92.6768 111.616C92.7528 111.604 92.8068 111.578 92.8388 111.538C92.8748 111.494 92.8968 111.428 92.9048 111.34C92.9128 111.248 92.9168 111.122 92.9168 110.962V109.516H93.9428V111.628H95.9348V112.528H93.9428V115.618C93.9428 115.706 93.9428 115.792 93.9428 115.876C93.9428 115.96 93.9428 116.038 93.9428 116.11C93.9428 116.45 93.9828 116.716 94.0628 116.908C94.1468 117.1 94.3328 117.196 94.6208 117.196C94.7368 117.196 94.8468 117.186 94.9508 117.166C95.0548 117.146 95.1328 117.126 95.1848 117.106V117.994C95.1168 118.018 95.0208 118.04 94.8968 118.06C94.7768 118.084 94.6408 118.096 94.4888 118.096ZM104.286 117.832C103.466 117.832 102.728 117.658 102.072 117.31C101.42 116.962 100.904 116.468 100.524 115.828C100.148 115.184 99.9602 114.426 99.9602 113.554C99.9602 112.682 100.148 111.928 100.524 111.292C100.904 110.656 101.42 110.164 102.072 109.816C102.728 109.468 103.466 109.294 104.286 109.294C105.102 109.294 105.834 109.468 106.482 109.816C107.134 110.164 107.648 110.656 108.024 111.292C108.404 111.928 108.594 112.682 108.594 113.554C108.594 114.426 108.404 115.184 108.024 115.828C107.648 116.468 107.134 116.962 106.482 117.31C105.834 117.658 105.102 117.832 104.286 117.832ZM104.286 117.424C105.014 117.424 105.67 117.266 106.254 116.95C106.842 116.634 107.308 116.186 107.652 115.606C107.996 115.026 108.168 114.342 108.168 113.554C108.168 112.77 107.996 112.09 107.652 111.514C107.308 110.934 106.842 110.486 106.254 110.17C105.67 109.854 105.014 109.696 104.286 109.696C103.554 109.696 102.892 109.854 102.3 110.17C101.712 110.486 101.246 110.934 100.902 111.514C100.558 112.09 100.386 112.77 100.386 113.554C100.386 114.342 100.558 115.026 100.902 115.606C101.246 116.186 101.712 116.634 102.3 116.95C102.892 117.266 103.554 117.424 104.286 117.424ZM104.298 116.428C103.818 116.428 103.38 116.32 102.984 116.104C102.592 115.888 102.28 115.566 102.048 115.138C101.816 114.706 101.7 114.172 101.7 113.536C101.7 112.932 101.804 112.418 102.012 111.994C102.224 111.57 102.524 111.246 102.912 111.022C103.3 110.794 103.762 110.68 104.298 110.68C104.734 110.68 105.102 110.754 105.402 110.902C105.706 111.046 105.95 111.228 106.134 111.448C106.322 111.668 106.458 111.894 106.542 112.126C106.626 112.358 106.668 112.558 106.668 112.726C106.668 112.738 106.668 112.752 106.668 112.768C106.668 112.78 106.668 112.794 106.668 112.81H105.9C105.9 112.798 105.9 112.79 105.9 112.786C105.9 112.778 105.9 112.768 105.9 112.756C105.9 112.652 105.874 112.518 105.822 112.354C105.774 112.19 105.69 112.028 105.57 111.868C105.454 111.704 105.292 111.568 105.084 111.46C104.876 111.348 104.614 111.292 104.298 111.292C103.714 111.292 103.264 111.484 102.948 111.868C102.636 112.252 102.48 112.804 102.48 113.524C102.48 114.02 102.556 114.438 102.708 114.778C102.864 115.118 103.078 115.376 103.35 115.552C103.626 115.724 103.942 115.81 104.298 115.81C104.614 115.81 104.892 115.742 105.132 115.606C105.372 115.466 105.56 115.282 105.696 115.054C105.832 114.822 105.9 114.57 105.9 114.298H106.668C106.668 114.722 106.564 115.094 106.356 115.414C106.148 115.734 105.864 115.984 105.504 116.164C105.148 116.34 104.746 116.428 104.298 116.428ZM113.604 118V117.118C113.636 116.938 113.73 116.732 113.886 116.5C114.042 116.264 114.234 116.018 114.462 115.762C114.69 115.506 114.93 115.254 115.182 115.006C115.438 114.754 115.678 114.522 115.902 114.31C116.182 114.046 116.456 113.772 116.724 113.488C116.996 113.2 117.222 112.896 117.402 112.576C117.582 112.256 117.672 111.92 117.672 111.568C117.672 111.044 117.55 110.644 117.306 110.368C117.062 110.092 116.696 109.954 116.208 109.954C115.816 109.954 115.502 110.036 115.266 110.2C115.03 110.364 114.86 110.594 114.756 110.89C114.652 111.186 114.6 111.532 114.6 111.928H113.574C113.574 111.356 113.67 110.854 113.862 110.422C114.054 109.986 114.346 109.648 114.738 109.408C115.13 109.164 115.624 109.042 116.22 109.042C116.768 109.042 117.226 109.15 117.594 109.366C117.962 109.578 118.238 109.874 118.422 110.254C118.61 110.634 118.704 111.074 118.704 111.574C118.704 111.902 118.642 112.22 118.518 112.528C118.398 112.832 118.24 113.122 118.044 113.398C117.848 113.67 117.636 113.924 117.408 114.16C117.184 114.392 116.97 114.602 116.766 114.79C116.438 115.09 116.128 115.382 115.836 115.666C115.548 115.95 115.306 116.212 115.11 116.452C114.918 116.692 114.802 116.898 114.762 117.07H118.764V118H113.604ZM123.034 118.12C122.55 118.12 122.136 118.004 121.792 117.772C121.452 117.536 121.174 117.212 120.958 116.8C120.746 116.384 120.59 115.902 120.49 115.354C120.394 114.806 120.346 114.22 120.346 113.596C120.346 112.972 120.394 112.386 120.49 111.838C120.59 111.286 120.746 110.802 120.958 110.386C121.174 109.966 121.452 109.638 121.792 109.402C122.136 109.162 122.55 109.042 123.034 109.042C123.518 109.042 123.93 109.162 124.27 109.402C124.614 109.638 124.892 109.966 125.104 110.386C125.316 110.802 125.472 111.286 125.572 111.838C125.672 112.386 125.722 112.972 125.722 113.596C125.722 114.22 125.672 114.806 125.572 115.354C125.472 115.902 125.316 116.384 125.104 116.8C124.892 117.212 124.614 117.536 124.27 117.772C123.93 118.004 123.518 118.12 123.034 118.12ZM123.034 117.22C123.41 117.22 123.718 117.082 123.958 116.806C124.202 116.53 124.384 116.122 124.504 115.582C124.624 115.042 124.684 114.38 124.684 113.596C124.684 112.808 124.624 112.144 124.504 111.604C124.384 111.064 124.202 110.656 123.958 110.38C123.718 110.1 123.41 109.96 123.034 109.96C122.662 109.96 122.352 110.1 122.104 110.38C121.86 110.656 121.678 111.064 121.558 111.604C121.438 112.144 121.378 112.808 121.378 113.596C121.378 114.384 121.438 115.048 121.558 115.588C121.678 116.124 121.86 116.53 122.104 116.806C122.352 117.082 122.662 117.22 123.034 117.22ZM127.244 118V117.118C127.276 116.938 127.37 116.732 127.526 116.5C127.682 116.264 127.874 116.018 128.102 115.762C128.33 115.506 128.57 115.254 128.822 115.006C129.078 114.754 129.318 114.522 129.542 114.31C129.822 114.046 130.096 113.772 130.364 113.488C130.636 113.2 130.862 112.896 131.042 112.576C131.222 112.256 131.312 111.92 131.312 111.568C131.312 111.044 131.19 110.644 130.946 110.368C130.702 110.092 130.336 109.954 129.848 109.954C129.456 109.954 129.142 110.036 128.906 110.2C128.67 110.364 128.5 110.594 128.396 110.89C128.292 111.186 128.24 111.532 128.24 111.928H127.214C127.214 111.356 127.31 110.854 127.502 110.422C127.694 109.986 127.986 109.648 128.378 109.408C128.77 109.164 129.264 109.042 129.86 109.042C130.408 109.042 130.866 109.15 131.234 109.366C131.602 109.578 131.878 109.874 132.062 110.254C132.25 110.634 132.344 111.074 132.344 111.574C132.344 111.902 132.282 112.22 132.158 112.528C132.038 112.832 131.88 113.122 131.684 113.398C131.488 113.67 131.276 113.924 131.048 114.16C130.824 114.392 130.61 114.602 130.406 114.79C130.078 115.09 129.768 115.382 129.476 115.666C129.188 115.95 128.946 116.212 128.75 116.452C128.558 116.692 128.442 116.898 128.402 117.07H132.404V118H127.244ZM136.717 118.12C136.137 118.12 135.657 117.956 135.277 117.628C134.897 117.296 134.613 116.836 134.425 116.248C134.241 115.656 134.149 114.968 134.149 114.184C134.149 113.236 134.217 112.434 134.353 111.778C134.489 111.122 134.677 110.594 134.917 110.194C135.161 109.79 135.443 109.498 135.763 109.318C136.087 109.134 136.435 109.042 136.807 109.042C137.247 109.042 137.607 109.12 137.887 109.276C138.171 109.428 138.391 109.622 138.547 109.858C138.703 110.094 138.811 110.338 138.871 110.59C138.935 110.842 138.967 111.066 138.967 111.262C138.967 111.266 138.967 111.27 138.967 111.274C138.967 111.274 138.967 111.278 138.967 111.286H138.007C138.007 111.278 138.007 111.274 138.007 111.274C138.007 111.27 138.007 111.266 138.007 111.262C138.007 111.118 137.989 110.97 137.953 110.818C137.921 110.662 137.861 110.518 137.773 110.386C137.685 110.254 137.563 110.148 137.407 110.068C137.251 109.988 137.049 109.948 136.801 109.948C136.481 109.948 136.193 110.082 135.937 110.35C135.685 110.614 135.485 111.068 135.337 111.712C135.193 112.356 135.121 113.248 135.121 114.388H134.629C134.629 113.964 134.733 113.596 134.941 113.284C135.153 112.968 135.433 112.724 135.781 112.552C136.129 112.376 136.505 112.288 136.909 112.288C137.413 112.288 137.843 112.412 138.199 112.66C138.555 112.904 138.825 113.242 139.009 113.674C139.197 114.102 139.291 114.594 139.291 115.15C139.291 115.73 139.193 116.244 138.997 116.692C138.801 117.14 138.511 117.49 138.127 117.742C137.747 117.994 137.277 118.12 136.717 118.12ZM136.723 117.22C137.063 117.22 137.345 117.14 137.569 116.98C137.797 116.82 137.969 116.59 138.085 116.29C138.201 115.99 138.259 115.632 138.259 115.216C138.259 114.824 138.203 114.476 138.091 114.172C137.983 113.864 137.821 113.624 137.605 113.452C137.393 113.276 137.131 113.188 136.819 113.188C136.503 113.188 136.219 113.264 135.967 113.416C135.719 113.568 135.523 113.782 135.379 114.058C135.239 114.334 135.169 114.66 135.169 115.036C135.169 115.436 135.231 115.802 135.355 116.134C135.483 116.466 135.663 116.73 135.895 116.926C136.131 117.122 136.407 117.22 136.723 117.22Z" fill="white"/>
<circle cx="146" cy="113.5" r="1.5" fill="white"/>
<path d="M154.968 118L157.404 109.126H159L161.418 118H160.362L158.196 109.792H158.208L156.024 118H154.968ZM156.228 115.654V114.754H160.176V115.654H156.228ZM163.899 108.622V118H162.891V108.622H163.899ZM166.864 108.622V118H165.856V108.622H166.864ZM171.659 118V109.15H174.731C175.543 109.15 176.161 109.342 176.585 109.726C177.009 110.11 177.221 110.696 177.221 111.484C177.221 111.956 177.131 112.358 176.951 112.69C176.775 113.018 176.561 113.272 176.309 113.452C176.061 113.632 175.831 113.734 175.619 113.758C175.835 113.774 176.047 113.834 176.255 113.938C176.467 114.038 176.643 114.194 176.783 114.406C176.923 114.618 176.993 114.902 176.993 115.258C176.993 115.586 176.993 115.922 176.993 116.266C176.993 116.606 176.993 116.942 176.993 117.274C176.993 117.446 177.007 117.6 177.035 117.736C177.063 117.868 177.095 117.956 177.131 118H176.099C176.071 117.948 176.043 117.858 176.015 117.73C175.987 117.602 175.973 117.45 175.973 117.274C175.973 116.966 175.973 116.652 175.973 116.332C175.973 116.012 175.973 115.696 175.973 115.384C175.973 114.992 175.849 114.7 175.601 114.508C175.353 114.316 175.003 114.22 174.551 114.22H172.373L172.661 113.83V118H171.659ZM172.661 113.746L172.373 113.32H174.562C174.859 113.32 175.127 113.248 175.367 113.104C175.611 112.956 175.805 112.752 175.949 112.492C176.097 112.228 176.171 111.92 176.171 111.568C176.171 111.02 176.027 110.63 175.739 110.398C175.451 110.166 175.035 110.05 174.491 110.05H172.349L172.661 109.606V113.746ZM178.927 118V111.628H179.935V118H178.927ZM179.437 110.164C179.249 110.164 179.085 110.112 178.945 110.008C178.809 109.9 178.741 109.754 178.741 109.57C178.741 109.39 178.809 109.248 178.945 109.144C179.085 109.036 179.249 108.982 179.437 108.982C179.625 108.982 179.787 109.036 179.923 109.144C180.059 109.248 180.127 109.39 180.127 109.57C180.127 109.754 180.059 109.9 179.923 110.008C179.787 110.112 179.625 110.164 179.437 110.164ZM185.9 117.61C186.244 117.638 186.546 117.702 186.806 117.802C187.07 117.898 187.276 118.04 187.424 118.228C187.572 118.42 187.646 118.67 187.646 118.978C187.646 119.318 187.53 119.618 187.298 119.878C187.066 120.142 186.714 120.348 186.242 120.496C185.77 120.644 185.176 120.718 184.46 120.718C183.448 120.718 182.684 120.57 182.168 120.274C181.652 119.982 181.394 119.582 181.394 119.074C181.394 118.914 181.412 118.772 181.448 118.648C181.488 118.528 181.532 118.43 181.58 118.354L182.552 118.498C182.52 118.542 182.488 118.608 182.456 118.696C182.428 118.788 182.414 118.894 182.414 119.014C182.414 119.334 182.596 119.558 182.96 119.686C183.324 119.818 183.84 119.884 184.508 119.884C185.008 119.884 185.418 119.85 185.738 119.782C186.058 119.714 186.296 119.616 186.452 119.488C186.608 119.36 186.686 119.21 186.686 119.038C186.686 118.778 186.576 118.616 186.356 118.552C186.14 118.492 185.872 118.45 185.552 118.426L183.128 118.246C182.724 118.214 182.394 118.09 182.138 117.874C181.886 117.654 181.76 117.388 181.76 117.076C181.76 116.884 181.806 116.702 181.898 116.53C181.994 116.358 182.104 116.214 182.228 116.098C182.356 115.978 182.47 115.906 182.57 115.882L183.374 116.248C183.274 116.264 183.15 116.334 183.002 116.458C182.858 116.578 182.786 116.72 182.786 116.884C182.786 117.032 182.844 117.154 182.96 117.25C183.076 117.342 183.306 117.402 183.65 117.43L185.9 117.61ZM186.782 111.628H187.742L187.346 114.136C187.274 114.604 187.124 115.028 186.896 115.408C186.668 115.784 186.356 116.084 185.96 116.308C185.568 116.528 185.082 116.638 184.502 116.638C183.898 116.638 183.382 116.528 182.954 116.308C182.526 116.088 182.198 115.788 181.97 115.408C181.742 115.024 181.628 114.592 181.628 114.112C181.628 113.624 181.746 113.186 181.982 112.798C182.222 112.406 182.554 112.098 182.978 111.874C183.402 111.646 183.888 111.532 184.436 111.532C184.928 111.532 185.358 111.618 185.726 111.79C186.094 111.958 186.384 112.17 186.596 112.426C186.812 112.682 186.932 112.94 186.956 113.2L186.572 113.224L186.782 111.628ZM184.496 115.726C184.884 115.726 185.216 115.662 185.492 115.534C185.772 115.406 185.986 115.22 186.134 114.976C186.286 114.732 186.362 114.436 186.362 114.088C186.362 113.752 186.286 113.462 186.134 113.218C185.986 112.97 185.772 112.78 185.492 112.648C185.216 112.512 184.886 112.444 184.502 112.444C184.134 112.444 183.808 112.514 183.524 112.654C183.244 112.79 183.024 112.982 182.864 113.23C182.708 113.478 182.63 113.77 182.63 114.106C182.63 114.446 182.704 114.738 182.852 114.982C183.004 115.222 183.218 115.406 183.494 115.534C183.774 115.662 184.108 115.726 184.496 115.726ZM193.711 118V115.63C193.711 115.518 193.711 115.386 193.711 115.234C193.711 115.078 193.711 114.922 193.711 114.766C193.711 114.606 193.711 114.47 193.711 114.358C193.711 113.746 193.579 113.284 193.315 112.972C193.055 112.66 192.641 112.504 192.073 112.504C191.693 112.504 191.359 112.578 191.071 112.726C190.787 112.874 190.565 113.076 190.405 113.332C190.245 113.588 190.165 113.878 190.165 114.202L189.517 114.004C189.517 113.548 189.635 113.134 189.871 112.762C190.111 112.386 190.437 112.088 190.849 111.868C191.265 111.644 191.735 111.532 192.259 111.532C193.023 111.532 193.625 111.762 194.065 112.222C194.509 112.682 194.731 113.318 194.731 114.13C194.731 114.342 194.731 114.586 194.731 114.862C194.731 115.138 194.731 115.428 194.731 115.732V118H193.711ZM189.145 118V108.622H190.165V118H189.145ZM198.848 118.096C198.652 118.096 198.46 118.074 198.272 118.03C198.084 117.986 197.914 117.908 197.762 117.796C197.614 117.68 197.496 117.518 197.408 117.31C197.32 117.098 197.276 116.826 197.276 116.494C197.276 116.41 197.276 116.324 197.276 116.236C197.276 116.144 197.276 116.048 197.276 115.948V112.528H195.722V111.628H196.718C196.854 111.628 196.96 111.624 197.036 111.616C197.112 111.604 197.166 111.578 197.198 111.538C197.234 111.494 197.256 111.428 197.264 111.34C197.272 111.248 197.276 111.122 197.276 110.962V109.516H198.302V111.628H200.294V112.528H198.302V115.618C198.302 115.706 198.302 115.792 198.302 115.876C198.302 115.96 198.302 116.038 198.302 116.11C198.302 116.45 198.342 116.716 198.422 116.908C198.506 117.1 198.692 117.196 198.98 117.196C199.096 117.196 199.206 117.186 199.31 117.166C199.414 117.146 199.492 117.126 199.544 117.106V117.994C199.476 118.018 199.38 118.04 199.256 118.06C199.136 118.084 199 118.096 198.848 118.096ZM203.827 118.12C203.443 118.12 203.087 118.08 202.759 118C202.435 117.916 202.151 117.796 201.907 117.64C201.667 117.48 201.479 117.284 201.343 117.052C201.211 116.82 201.145 116.554 201.145 116.254C201.145 116.222 201.145 116.19 201.145 116.158C201.145 116.122 201.145 116.092 201.145 116.068H202.171C202.171 116.092 202.171 116.112 202.171 116.128C202.171 116.144 202.171 116.168 202.171 116.2C202.171 116.524 202.321 116.772 202.621 116.944C202.921 117.112 203.331 117.196 203.851 117.196C204.171 117.196 204.457 117.164 204.709 117.1C204.961 117.036 205.159 116.938 205.303 116.806C205.451 116.674 205.525 116.508 205.525 116.308C205.525 115.976 205.369 115.74 205.057 115.6C204.749 115.456 204.287 115.332 203.671 115.228C203.347 115.172 203.039 115.1 202.747 115.012C202.455 114.92 202.195 114.802 201.967 114.658C201.743 114.514 201.565 114.336 201.433 114.124C201.305 113.908 201.241 113.65 201.241 113.35C201.241 112.962 201.355 112.634 201.583 112.366C201.815 112.094 202.127 111.888 202.519 111.748C202.911 111.604 203.347 111.532 203.827 111.532C204.291 111.532 204.719 111.606 205.111 111.754C205.503 111.902 205.817 112.118 206.053 112.402C206.293 112.682 206.413 113.028 206.413 113.44C206.413 113.456 206.413 113.476 206.413 113.5C206.413 113.52 206.413 113.54 206.413 113.56H205.393C205.393 113.54 205.393 113.524 205.393 113.512C205.393 113.5 205.393 113.486 205.393 113.47C205.393 113.238 205.319 113.048 205.171 112.9C205.023 112.748 204.831 112.636 204.595 112.564C204.359 112.488 204.107 112.45 203.839 112.45C203.587 112.45 203.339 112.478 203.095 112.534C202.851 112.586 202.649 112.674 202.489 112.798C202.329 112.922 202.249 113.092 202.249 113.308C202.249 113.524 202.323 113.698 202.471 113.83C202.623 113.958 202.835 114.064 203.107 114.148C203.383 114.228 203.707 114.302 204.079 114.37C204.411 114.43 204.725 114.506 205.021 114.598C205.317 114.686 205.577 114.8 205.801 114.94C206.029 115.08 206.207 115.258 206.335 115.474C206.467 115.686 206.533 115.946 206.533 116.254C206.533 116.566 206.461 116.838 206.317 117.07C206.177 117.302 205.981 117.496 205.729 117.652C205.481 117.808 205.193 117.924 204.865 118C204.541 118.08 204.195 118.12 203.827 118.12ZM211.045 118V109.15H214.117C214.929 109.15 215.547 109.342 215.971 109.726C216.395 110.11 216.607 110.696 216.607 111.484C216.607 111.956 216.517 112.358 216.337 112.69C216.161 113.018 215.947 113.272 215.695 113.452C215.447 113.632 215.217 113.734 215.005 113.758C215.221 113.774 215.433 113.834 215.641 113.938C215.853 114.038 216.029 114.194 216.169 114.406C216.309 114.618 216.379 114.902 216.379 115.258C216.379 115.586 216.379 115.922 216.379 116.266C216.379 116.606 216.379 116.942 216.379 117.274C216.379 117.446 216.393 117.6 216.421 117.736C216.449 117.868 216.481 117.956 216.517 118H215.485C215.457 117.948 215.429 117.858 215.401 117.73C215.373 117.602 215.359 117.45 215.359 117.274C215.359 116.966 215.359 116.652 215.359 116.332C215.359 116.012 215.359 115.696 215.359 115.384C215.359 114.992 215.235 114.7 214.987 114.508C214.739 114.316 214.389 114.22 213.937 114.22H211.759L212.047 113.83V118H211.045ZM212.047 113.746L211.759 113.32H213.949C214.245 113.32 214.513 113.248 214.753 113.104C214.997 112.956 215.191 112.752 215.335 112.492C215.483 112.228 215.557 111.92 215.557 111.568C215.557 111.02 215.413 110.63 215.125 110.398C214.837 110.166 214.421 110.05 213.877 110.05H211.735L212.047 109.606V113.746ZM218.584 115.222V114.31H223.51L223.33 114.61C223.33 114.586 223.33 114.564 223.33 114.544C223.33 114.52 223.33 114.498 223.33 114.478C223.33 114.11 223.252 113.774 223.096 113.47C222.944 113.162 222.716 112.916 222.412 112.732C222.108 112.548 221.732 112.456 221.284 112.456C220.832 112.456 220.434 112.552 220.09 112.744C219.746 112.936 219.478 113.208 219.286 113.56C219.094 113.908 218.998 114.324 218.998 114.808C218.998 115.3 219.09 115.724 219.274 116.08C219.462 116.436 219.728 116.71 220.072 116.902C220.416 117.094 220.824 117.19 221.296 117.19C221.632 117.19 221.924 117.156 222.172 117.088C222.42 117.016 222.624 116.922 222.784 116.806C222.948 116.686 223.072 116.556 223.156 116.416C223.24 116.276 223.29 116.136 223.306 115.996H224.326C224.306 116.252 224.226 116.506 224.086 116.758C223.946 117.01 223.748 117.24 223.492 117.448C223.236 117.652 222.922 117.816 222.55 117.94C222.178 118.064 221.75 118.126 221.266 118.126C220.626 118.126 220.062 117.986 219.574 117.706C219.086 117.426 218.702 117.038 218.422 116.542C218.146 116.046 218.008 115.476 218.008 114.832C218.008 114.18 218.148 113.608 218.428 113.116C218.708 112.62 219.094 112.232 219.586 111.952C220.078 111.672 220.64 111.532 221.272 111.532C221.916 111.532 222.474 111.672 222.946 111.952C223.418 112.232 223.782 112.616 224.038 113.104C224.294 113.588 224.422 114.14 224.422 114.76C224.422 114.824 224.42 114.908 224.416 115.012C224.412 115.116 224.406 115.186 224.398 115.222H218.584ZM228.448 118.12C228.064 118.12 227.708 118.08 227.38 118C227.056 117.916 226.772 117.796 226.528 117.64C226.288 117.48 226.1 117.284 225.964 117.052C225.832 116.82 225.766 116.554 225.766 116.254C225.766 116.222 225.766 116.19 225.766 116.158C225.766 116.122 225.766 116.092 225.766 116.068H226.792C226.792 116.092 226.792 116.112 226.792 116.128C226.792 116.144 226.792 116.168 226.792 116.2C226.792 116.524 226.942 116.772 227.242 116.944C227.542 117.112 227.952 117.196 228.472 117.196C228.792 117.196 229.078 117.164 229.33 117.1C229.582 117.036 229.78 116.938 229.924 116.806C230.072 116.674 230.146 116.508 230.146 116.308C230.146 115.976 229.99 115.74 229.678 115.6C229.37 115.456 228.908 115.332 228.292 115.228C227.968 115.172 227.66 115.1 227.368 115.012C227.076 114.92 226.816 114.802 226.588 114.658C226.364 114.514 226.186 114.336 226.054 114.124C225.926 113.908 225.862 113.65 225.862 113.35C225.862 112.962 225.976 112.634 226.204 112.366C226.436 112.094 226.748 111.888 227.14 111.748C227.532 111.604 227.968 111.532 228.448 111.532C228.912 111.532 229.34 111.606 229.732 111.754C230.124 111.902 230.438 112.118 230.674 112.402C230.914 112.682 231.034 113.028 231.034 113.44C231.034 113.456 231.034 113.476 231.034 113.5C231.034 113.52 231.034 113.54 231.034 113.56H230.014C230.014 113.54 230.014 113.524 230.014 113.512C230.014 113.5 230.014 113.486 230.014 113.47C230.014 113.238 229.94 113.048 229.792 112.9C229.644 112.748 229.452 112.636 229.216 112.564C228.98 112.488 228.728 112.45 228.46 112.45C228.208 112.45 227.96 112.478 227.716 112.534C227.472 112.586 227.27 112.674 227.11 112.798C226.95 112.922 226.87 113.092 226.87 113.308C226.87 113.524 226.944 113.698 227.092 113.83C227.244 113.958 227.456 114.064 227.728 114.148C228.004 114.228 228.328 114.302 228.7 114.37C229.032 114.43 229.346 114.506 229.642 114.598C229.938 114.686 230.198 114.8 230.422 114.94C230.65 115.08 230.828 115.258 230.956 115.474C231.088 115.686 231.154 115.946 231.154 116.254C231.154 116.566 231.082 116.838 230.938 117.07C230.798 117.302 230.602 117.496 230.35 117.652C230.102 117.808 229.814 117.924 229.486 118C229.162 118.08 228.816 118.12 228.448 118.12ZM233.068 115.222V114.31H237.994L237.814 114.61C237.814 114.586 237.814 114.564 237.814 114.544C237.814 114.52 237.814 114.498 237.814 114.478C237.814 114.11 237.736 113.774 237.58 113.47C237.428 113.162 237.2 112.916 236.896 112.732C236.592 112.548 236.216 112.456 235.768 112.456C235.316 112.456 234.918 112.552 234.574 112.744C234.23 112.936 233.962 113.208 233.77 113.56C233.578 113.908 233.482 114.324 233.482 114.808C233.482 115.3 233.574 115.724 233.758 116.08C233.946 116.436 234.212 116.71 234.556 116.902C234.9 117.094 235.308 117.19 235.78 117.19C236.116 117.19 236.408 117.156 236.656 117.088C236.904 117.016 237.108 116.922 237.268 116.806C237.432 116.686 237.556 116.556 237.64 116.416C237.724 116.276 237.774 116.136 237.79 115.996H238.81C238.79 116.252 238.71 116.506 238.57 116.758C238.43 117.01 238.232 117.24 237.976 117.448C237.72 117.652 237.406 117.816 237.034 117.94C236.662 118.064 236.234 118.126 235.75 118.126C235.11 118.126 234.546 117.986 234.058 117.706C233.57 117.426 233.186 117.038 232.906 116.542C232.63 116.046 232.492 115.476 232.492 114.832C232.492 114.18 232.632 113.608 232.912 113.116C233.192 112.62 233.578 112.232 234.07 111.952C234.562 111.672 235.124 111.532 235.756 111.532C236.4 111.532 236.958 111.672 237.43 111.952C237.902 112.232 238.266 112.616 238.522 113.104C238.778 113.588 238.906 114.14 238.906 114.76C238.906 114.824 238.904 114.908 238.9 115.012C238.896 115.116 238.89 115.186 238.882 115.222H233.068ZM240.496 118V111.628H241.516V113.584L241.18 113.464C241.204 113.228 241.264 112.996 241.36 112.768C241.456 112.536 241.588 112.328 241.756 112.144C241.928 111.956 242.142 111.808 242.398 111.7C242.654 111.588 242.954 111.532 243.298 111.532C243.554 111.532 243.762 111.554 243.922 111.598C244.086 111.638 244.188 111.67 244.228 111.694L243.964 112.696C243.924 112.668 243.842 112.632 243.718 112.588C243.598 112.544 243.426 112.522 243.202 112.522C242.87 112.522 242.594 112.582 242.374 112.702C242.158 112.822 241.986 112.982 241.858 113.182C241.734 113.378 241.646 113.592 241.594 113.824C241.542 114.056 241.516 114.286 241.516 114.514V118H240.496ZM250.418 111.628L248.282 118H246.944L244.76 111.628H245.816L247.694 117.46H247.532L249.362 111.628H250.418ZM251.666 115.222V114.31H256.592L256.412 114.61C256.412 114.586 256.412 114.564 256.412 114.544C256.412 114.52 256.412 114.498 256.412 114.478C256.412 114.11 256.334 113.774 256.178 113.47C256.026 113.162 255.798 112.916 255.494 112.732C255.19 112.548 254.814 112.456 254.366 112.456C253.914 112.456 253.516 112.552 253.172 112.744C252.828 112.936 252.56 113.208 252.368 113.56C252.176 113.908 252.08 114.324 252.08 114.808C252.08 115.3 252.172 115.724 252.356 116.08C252.544 116.436 252.81 116.71 253.154 116.902C253.498 117.094 253.906 117.19 254.378 117.19C254.714 117.19 255.006 117.156 255.254 117.088C255.502 117.016 255.706 116.922 255.866 116.806C256.03 116.686 256.154 116.556 256.238 116.416C256.322 116.276 256.372 116.136 256.388 115.996H257.408C257.388 116.252 257.308 116.506 257.168 116.758C257.028 117.01 256.83 117.24 256.574 117.448C256.318 117.652 256.004 117.816 255.632 117.94C255.26 118.064 254.832 118.126 254.348 118.126C253.708 118.126 253.144 117.986 252.656 117.706C252.168 117.426 251.784 117.038 251.504 116.542C251.228 116.046 251.09 115.476 251.09 114.832C251.09 114.18 251.23 113.608 251.51 113.116C251.79 112.62 252.176 112.232 252.668 111.952C253.16 111.672 253.722 111.532 254.354 111.532C254.998 111.532 255.556 111.672 256.028 111.952C256.5 112.232 256.864 112.616 257.12 113.104C257.376 113.588 257.504 114.14 257.504 114.76C257.504 114.824 257.502 114.908 257.498 115.012C257.494 115.116 257.488 115.186 257.48 115.222H251.666ZM261.722 118.12C261.198 118.12 260.718 117.994 260.282 117.742C259.846 117.486 259.498 117.112 259.238 116.62C258.978 116.124 258.848 115.52 258.848 114.808C258.848 114.108 258.98 113.514 259.244 113.026C259.508 112.538 259.858 112.168 260.294 111.916C260.73 111.66 261.206 111.532 261.722 111.532C262.214 111.532 262.674 111.65 263.102 111.886C263.534 112.118 263.882 112.442 264.146 112.858C264.41 113.274 264.542 113.756 264.542 114.304C264.542 114.316 264.542 114.328 264.542 114.34C264.542 114.352 264.542 114.364 264.542 114.376L263.81 114.406C263.81 114.394 263.81 114.382 263.81 114.37C263.81 114.354 263.81 114.34 263.81 114.328C263.81 113.98 263.718 113.666 263.534 113.386C263.354 113.106 263.116 112.884 262.82 112.72C262.524 112.552 262.206 112.468 261.866 112.468C261.298 112.468 260.828 112.66 260.456 113.044C260.084 113.424 259.898 114.012 259.898 114.808C259.898 115.6 260.084 116.19 260.456 116.578C260.832 116.962 261.302 117.154 261.866 117.154C262.222 117.154 262.546 117.068 262.838 116.896C263.134 116.724 263.37 116.494 263.546 116.206C263.722 115.914 263.81 115.588 263.81 115.228L264.542 115.246C264.542 115.79 264.416 116.28 264.164 116.716C263.912 117.148 263.572 117.49 263.144 117.742C262.72 117.994 262.246 118.12 261.722 118.12ZM263.81 118V108.622H264.836V118H263.81Z" fill="white"/>
<path d="M45.126 127.05H42.57L42.804 126.468V135H41.784V126.468L42.072 127.05H39.468V126.15H45.126V127.05ZM51.0817 135V132.63C51.0817 132.518 51.0817 132.386 51.0817 132.234C51.0817 132.078 51.0817 131.922 51.0817 131.766C51.0817 131.606 51.0817 131.47 51.0817 131.358C51.0817 130.746 50.9497 130.284 50.6857 129.972C50.4257 129.66 50.0117 129.504 49.4437 129.504C49.0637 129.504 48.7297 129.578 48.4417 129.726C48.1577 129.874 47.9357 130.076 47.7757 130.332C47.6157 130.588 47.5357 130.878 47.5357 131.202L46.8877 131.004C46.8877 130.548 47.0057 130.134 47.2417 129.762C47.4817 129.386 47.8077 129.088 48.2197 128.868C48.6357 128.644 49.1057 128.532 49.6297 128.532C50.3937 128.532 50.9957 128.762 51.4357 129.222C51.8797 129.682 52.1017 130.318 52.1017 131.13C52.1017 131.342 52.1017 131.586 52.1017 131.862C52.1017 132.138 52.1017 132.428 52.1017 132.732V135H51.0817ZM46.5157 135V125.622H47.5357V135H46.5157ZM53.935 135V128.628H54.943V135H53.935ZM54.445 127.164C54.257 127.164 54.093 127.112 53.953 127.008C53.817 126.9 53.749 126.754 53.749 126.57C53.749 126.39 53.817 126.248 53.953 126.144C54.093 126.036 54.257 125.982 54.445 125.982C54.633 125.982 54.795 126.036 54.931 126.144C55.067 126.248 55.135 126.39 55.135 126.57C55.135 126.754 55.067 126.9 54.931 127.008C54.795 127.112 54.633 127.164 54.445 127.164ZM59.2759 135.12C58.8919 135.12 58.5359 135.08 58.2079 135C57.8839 134.916 57.5999 134.796 57.3559 134.64C57.1159 134.48 56.9279 134.284 56.7919 134.052C56.6599 133.82 56.5939 133.554 56.5939 133.254C56.5939 133.222 56.5939 133.19 56.5939 133.158C56.5939 133.122 56.5939 133.092 56.5939 133.068H57.6199C57.6199 133.092 57.6199 133.112 57.6199 133.128C57.6199 133.144 57.6199 133.168 57.6199 133.2C57.6199 133.524 57.7699 133.772 58.0699 133.944C58.3699 134.112 58.7799 134.196 59.2999 134.196C59.6199 134.196 59.9059 134.164 60.1579 134.1C60.4099 134.036 60.6079 133.938 60.7519 133.806C60.8999 133.674 60.9739 133.508 60.9739 133.308C60.9739 132.976 60.8179 132.74 60.5059 132.6C60.1979 132.456 59.7359 132.332 59.1199 132.228C58.7959 132.172 58.4879 132.1 58.1959 132.012C57.9039 131.92 57.6439 131.802 57.4159 131.658C57.1919 131.514 57.0139 131.336 56.8819 131.124C56.7539 130.908 56.6899 130.65 56.6899 130.35C56.6899 129.962 56.8039 129.634 57.0319 129.366C57.2639 129.094 57.5759 128.888 57.9679 128.748C58.3599 128.604 58.7959 128.532 59.2759 128.532C59.7399 128.532 60.1679 128.606 60.5599 128.754C60.9519 128.902 61.2659 129.118 61.5019 129.402C61.7419 129.682 61.8619 130.028 61.8619 130.44C61.8619 130.456 61.8619 130.476 61.8619 130.5C61.8619 130.52 61.8619 130.54 61.8619 130.56H60.8419C60.8419 130.54 60.8419 130.524 60.8419 130.512C60.8419 130.5 60.8419 130.486 60.8419 130.47C60.8419 130.238 60.7679 130.048 60.6199 129.9C60.4719 129.748 60.2799 129.636 60.0439 129.564C59.8079 129.488 59.5559 129.45 59.2879 129.45C59.0359 129.45 58.7879 129.478 58.5439 129.534C58.2999 129.586 58.0979 129.674 57.9379 129.798C57.7779 129.922 57.6979 130.092 57.6979 130.308C57.6979 130.524 57.7719 130.698 57.9199 130.83C58.0719 130.958 58.2839 131.064 58.5559 131.148C58.8319 131.228 59.1559 131.302 59.5279 131.37C59.8599 131.43 60.1739 131.506 60.4699 131.598C60.7659 131.686 61.0259 131.8 61.2499 131.94C61.4779 132.08 61.6559 132.258 61.7839 132.474C61.9159 132.686 61.9819 132.946 61.9819 133.254C61.9819 133.566 61.9099 133.838 61.7659 134.07C61.6259 134.302 61.4299 134.496 61.1779 134.652C60.9299 134.808 60.6419 134.924 60.3139 135C59.9899 135.08 59.6439 135.12 59.2759 135.12ZM66.5664 137.622V128.628H67.5864V137.622H66.5664ZM69.6804 135.12C69.1884 135.12 68.7284 135 68.3004 134.76C67.8724 134.516 67.5244 134.182 67.2564 133.758C66.9924 133.334 66.8604 132.85 66.8604 132.306C66.8604 132.294 66.8604 132.284 66.8604 132.276C66.8604 132.268 66.8604 132.258 66.8604 132.246L67.5924 132.228C67.5924 132.236 67.5924 132.246 67.5924 132.258C67.5924 132.266 67.5924 132.274 67.5924 132.282C67.5924 132.626 67.6824 132.94 67.8624 133.224C68.0464 133.508 68.2864 133.734 68.5824 133.902C68.8784 134.07 69.1964 134.154 69.5364 134.154C70.1004 134.154 70.5684 133.962 70.9404 133.578C71.3164 133.19 71.5044 132.6 71.5044 131.808C71.5044 131.012 71.3184 130.424 70.9464 130.044C70.5744 129.66 70.1044 129.468 69.5364 129.468C69.1964 129.468 68.8784 129.552 68.5824 129.72C68.2864 129.884 68.0464 130.106 67.8624 130.386C67.6824 130.666 67.5924 130.98 67.5924 131.328L66.8604 131.304C66.8604 130.756 66.9924 130.274 67.2564 129.858C67.5244 129.442 67.8724 129.118 68.3004 128.886C68.7284 128.65 69.1884 128.532 69.6804 128.532C70.1964 128.532 70.6724 128.66 71.1084 128.916C71.5444 129.168 71.8944 129.538 72.1584 130.026C72.4224 130.514 72.5544 131.108 72.5544 131.808C72.5544 132.52 72.4244 133.124 72.1644 133.62C71.9044 134.112 71.5564 134.486 71.1204 134.742C70.6844 134.994 70.2044 135.12 69.6804 135.12ZM74.1485 135V128.628H75.1685V130.584L74.8325 130.464C74.8565 130.228 74.9165 129.996 75.0125 129.768C75.1085 129.536 75.2405 129.328 75.4085 129.144C75.5805 128.956 75.7945 128.808 76.0505 128.7C76.3065 128.588 76.6065 128.532 76.9505 128.532C77.2065 128.532 77.4145 128.554 77.5745 128.598C77.7385 128.638 77.8405 128.67 77.8805 128.694L77.6165 129.696C77.5765 129.668 77.4945 129.632 77.3705 129.588C77.2505 129.544 77.0785 129.522 76.8545 129.522C76.5225 129.522 76.2465 129.582 76.0265 129.702C75.8105 129.822 75.6385 129.982 75.5105 130.182C75.3865 130.378 75.2985 130.592 75.2465 130.824C75.1945 131.056 75.1685 131.286 75.1685 131.514V135H74.1485ZM81.8774 135.114C81.2374 135.114 80.6714 134.972 80.1794 134.688C79.6914 134.4 79.3074 134.008 79.0274 133.512C78.7514 133.012 78.6134 132.444 78.6134 131.808C78.6134 131.172 78.7514 130.608 79.0274 130.116C79.3074 129.624 79.6914 129.238 80.1794 128.958C80.6714 128.678 81.2374 128.538 81.8774 128.538C82.5174 128.538 83.0814 128.678 83.5694 128.958C84.0614 129.238 84.4454 129.624 84.7214 130.116C85.0014 130.608 85.1414 131.172 85.1414 131.808C85.1414 132.444 85.0014 133.012 84.7214 133.512C84.4454 134.008 84.0614 134.4 83.5694 134.688C83.0814 134.972 82.5174 135.114 81.8774 135.114ZM81.8774 134.178C82.3174 134.178 82.7054 134.08 83.0414 133.884C83.3774 133.688 83.6394 133.412 83.8274 133.056C84.0194 132.7 84.1154 132.284 84.1154 131.808C84.1154 131.332 84.0194 130.92 83.8274 130.572C83.6394 130.22 83.3774 129.95 83.0414 129.762C82.7054 129.57 82.3174 129.474 81.8774 129.474C81.4414 129.474 81.0534 129.57 80.7134 129.762C80.3774 129.95 80.1134 130.22 79.9214 130.572C79.7334 130.92 79.6394 131.332 79.6394 131.808C79.6394 132.284 79.7334 132.7 79.9214 133.056C80.1134 133.412 80.3774 133.688 80.7134 133.884C81.0534 134.08 81.4414 134.178 81.8774 134.178ZM89.3624 135.12C88.8384 135.12 88.3584 134.994 87.9224 134.742C87.4864 134.486 87.1384 134.112 86.8784 133.62C86.6184 133.124 86.4884 132.52 86.4884 131.808C86.4884 131.108 86.6204 130.514 86.8844 130.026C87.1484 129.538 87.4984 129.168 87.9344 128.916C88.3704 128.66 88.8464 128.532 89.3624 128.532C89.8544 128.532 90.3144 128.65 90.7424 128.886C91.1744 129.118 91.5224 129.442 91.7864 129.858C92.0504 130.274 92.1824 130.756 92.1824 131.304C92.1824 131.316 92.1824 131.328 92.1824 131.34C92.1824 131.352 92.1824 131.364 92.1824 131.376L91.4504 131.406C91.4504 131.394 91.4504 131.382 91.4504 131.37C91.4504 131.354 91.4504 131.34 91.4504 131.328C91.4504 130.98 91.3584 130.666 91.1744 130.386C90.9944 130.106 90.7564 129.884 90.4604 129.72C90.1644 129.552 89.8464 129.468 89.5064 129.468C88.9384 129.468 88.4684 129.66 88.0964 130.044C87.7244 130.424 87.5384 131.012 87.5384 131.808C87.5384 132.6 87.7244 133.19 88.0964 133.578C88.4724 133.962 88.9424 134.154 89.5064 134.154C89.8624 134.154 90.1864 134.068 90.4784 133.896C90.7744 133.724 91.0104 133.494 91.1864 133.206C91.3624 132.914 91.4504 132.588 91.4504 132.228L92.1824 132.246C92.1824 132.79 92.0564 133.28 91.8044 133.716C91.5524 134.148 91.2124 134.49 90.7844 134.742C90.3604 134.994 89.8864 135.12 89.3624 135.12ZM91.4504 135V125.622H92.4764V135H91.4504ZM96.6216 135.114C96.1656 135.114 95.7856 135.036 95.4816 134.88C95.1776 134.72 94.9356 134.514 94.7556 134.262C94.5796 134.01 94.4536 133.738 94.3776 133.446C94.3056 133.15 94.2696 132.866 94.2696 132.594C94.2696 132.442 94.2696 132.286 94.2696 132.126C94.2696 131.962 94.2696 131.798 94.2696 131.634V128.628H95.2956V131.502C95.2956 131.65 95.2956 131.796 95.2956 131.94C95.2956 132.084 95.2956 132.22 95.2956 132.348C95.2956 132.672 95.3396 132.972 95.4276 133.248C95.5196 133.524 95.6776 133.748 95.9016 133.92C96.1256 134.088 96.4336 134.172 96.8256 134.172C97.1936 134.172 97.5156 134.062 97.7916 133.842C98.0676 133.618 98.2836 133.34 98.4396 133.008C98.5956 132.672 98.6736 132.338 98.6736 132.006L99.2676 132.252C99.2676 132.604 99.2056 132.95 99.0816 133.29C98.9576 133.626 98.7796 133.932 98.5476 134.208C98.3196 134.484 98.0416 134.704 97.7136 134.868C97.3896 135.032 97.0256 135.114 96.6216 135.114ZM98.6736 135V128.628H99.6936V135H98.6736ZM104.489 135.12C103.881 135.12 103.329 134.988 102.833 134.724C102.337 134.456 101.943 134.074 101.651 133.578C101.363 133.082 101.219 132.492 101.219 131.808C101.219 131.124 101.363 130.538 101.651 130.05C101.943 129.558 102.337 129.182 102.833 128.922C103.329 128.662 103.881 128.532 104.489 128.532C104.953 128.532 105.367 128.604 105.731 128.748C106.095 128.888 106.403 129.076 106.655 129.312C106.907 129.548 107.099 129.808 107.231 130.092C107.367 130.372 107.435 130.652 107.435 130.932C107.435 130.936 107.435 130.942 107.435 130.95C107.435 130.958 107.435 130.966 107.435 130.974H106.421C106.421 130.954 106.419 130.932 106.415 130.908C106.411 130.88 106.407 130.852 106.403 130.824C106.371 130.556 106.269 130.322 106.097 130.122C105.925 129.918 105.701 129.758 105.425 129.642C105.149 129.526 104.835 129.468 104.483 129.468C104.087 129.468 103.719 129.554 103.379 129.726C103.043 129.894 102.771 130.152 102.563 130.5C102.359 130.844 102.257 131.28 102.257 131.808C102.257 132.332 102.359 132.77 102.563 133.122C102.767 133.474 103.037 133.74 103.373 133.92C103.713 134.096 104.083 134.184 104.483 134.184C104.915 134.184 105.271 134.116 105.551 133.98C105.831 133.844 106.041 133.664 106.181 133.44C106.325 133.212 106.405 132.968 106.421 132.708H107.435C107.435 132.996 107.371 133.284 107.243 133.572C107.115 133.856 106.927 134.116 106.679 134.352C106.431 134.584 106.123 134.77 105.755 134.91C105.391 135.05 104.969 135.12 104.489 135.12ZM111.415 135.096C111.219 135.096 111.027 135.074 110.839 135.03C110.651 134.986 110.481 134.908 110.329 134.796C110.181 134.68 110.063 134.518 109.975 134.31C109.887 134.098 109.843 133.826 109.843 133.494C109.843 133.41 109.843 133.324 109.843 133.236C109.843 133.144 109.843 133.048 109.843 132.948V129.528H108.289V128.628H109.285C109.421 128.628 109.527 128.624 109.603 128.616C109.679 128.604 109.733 128.578 109.765 128.538C109.801 128.494 109.823 128.428 109.831 128.34C109.839 128.248 109.843 128.122 109.843 127.962V126.516H110.869V128.628H112.861V129.528H110.869V132.618C110.869 132.706 110.869 132.792 110.869 132.876C110.869 132.96 110.869 133.038 110.869 133.11C110.869 133.45 110.909 133.716 110.989 133.908C111.073 134.1 111.259 134.196 111.547 134.196C111.663 134.196 111.773 134.186 111.877 134.166C111.981 134.146 112.059 134.126 112.111 134.106V134.994C112.043 135.018 111.947 135.04 111.823 135.06C111.703 135.084 111.567 135.096 111.415 135.096ZM120.192 135.12C119.584 135.12 119.032 134.988 118.536 134.724C118.04 134.456 117.646 134.074 117.354 133.578C117.066 133.082 116.922 132.492 116.922 131.808C116.922 131.124 117.066 130.538 117.354 130.05C117.646 129.558 118.04 129.182 118.536 128.922C119.032 128.662 119.584 128.532 120.192 128.532C120.656 128.532 121.07 128.604 121.434 128.748C121.798 128.888 122.106 129.076 122.358 129.312C122.61 129.548 122.802 129.808 122.934 130.092C123.07 130.372 123.138 130.652 123.138 130.932C123.138 130.936 123.138 130.942 123.138 130.95C123.138 130.958 123.138 130.966 123.138 130.974H122.124C122.124 130.954 122.122 130.932 122.118 130.908C122.114 130.88 122.11 130.852 122.106 130.824C122.074 130.556 121.972 130.322 121.8 130.122C121.628 129.918 121.404 129.758 121.128 129.642C120.852 129.526 120.538 129.468 120.186 129.468C119.79 129.468 119.422 129.554 119.082 129.726C118.746 129.894 118.474 130.152 118.266 130.5C118.062 130.844 117.96 131.28 117.96 131.808C117.96 132.332 118.062 132.77 118.266 133.122C118.47 133.474 118.74 133.74 119.076 133.92C119.416 134.096 119.786 134.184 120.186 134.184C120.618 134.184 120.974 134.116 121.254 133.98C121.534 133.844 121.744 133.664 121.884 133.44C122.028 133.212 122.108 132.968 122.124 132.708H123.138C123.138 132.996 123.074 133.284 122.946 133.572C122.818 133.856 122.63 134.116 122.382 134.352C122.134 134.584 121.826 134.77 121.458 134.91C121.094 135.05 120.672 135.12 120.192 135.12ZM124.727 135V128.628H125.747V130.584L125.411 130.464C125.435 130.228 125.495 129.996 125.591 129.768C125.687 129.536 125.819 129.328 125.987 129.144C126.159 128.956 126.373 128.808 126.629 128.7C126.885 128.588 127.185 128.532 127.529 128.532C127.785 128.532 127.993 128.554 128.153 128.598C128.317 128.638 128.419 128.67 128.459 128.694L128.195 129.696C128.155 129.668 128.073 129.632 127.949 129.588C127.829 129.544 127.657 129.522 127.433 129.522C127.101 129.522 126.825 129.582 126.605 129.702C126.389 129.822 126.217 129.982 126.089 130.182C125.965 130.378 125.877 130.592 125.825 130.824C125.773 131.056 125.747 131.286 125.747 131.514V135H124.727ZM129.768 132.222V131.31H134.694L134.514 131.61C134.514 131.586 134.514 131.564 134.514 131.544C134.514 131.52 134.514 131.498 134.514 131.478C134.514 131.11 134.436 130.774 134.28 130.47C134.128 130.162 133.9 129.916 133.596 129.732C133.292 129.548 132.916 129.456 132.468 129.456C132.016 129.456 131.618 129.552 131.274 129.744C130.93 129.936 130.662 130.208 130.47 130.56C130.278 130.908 130.182 131.324 130.182 131.808C130.182 132.3 130.274 132.724 130.458 133.08C130.646 133.436 130.912 133.71 131.256 133.902C131.6 134.094 132.008 134.19 132.48 134.19C132.816 134.19 133.108 134.156 133.356 134.088C133.604 134.016 133.808 133.922 133.968 133.806C134.132 133.686 134.256 133.556 134.34 133.416C134.424 133.276 134.474 133.136 134.49 132.996H135.51C135.49 133.252 135.41 133.506 135.27 133.758C135.13 134.01 134.932 134.24 134.676 134.448C134.42 134.652 134.106 134.816 133.734 134.94C133.362 135.064 132.934 135.126 132.45 135.126C131.81 135.126 131.246 134.986 130.758 134.706C130.27 134.426 129.886 134.038 129.606 133.542C129.33 133.046 129.192 132.476 129.192 131.832C129.192 131.18 129.332 130.608 129.612 130.116C129.892 129.62 130.278 129.232 130.77 128.952C131.262 128.672 131.824 128.532 132.456 128.532C133.1 128.532 133.658 128.672 134.13 128.952C134.602 129.232 134.966 129.616 135.222 130.104C135.478 130.588 135.606 131.14 135.606 131.76C135.606 131.824 135.604 131.908 135.6 132.012C135.596 132.116 135.59 132.186 135.582 132.222H129.768ZM139.421 135.12C138.937 135.12 138.513 135.044 138.149 134.892C137.789 134.74 137.509 134.522 137.309 134.238C137.109 133.95 137.009 133.606 137.009 133.206C137.009 132.79 137.117 132.444 137.333 132.168C137.549 131.888 137.853 131.67 138.245 131.514C138.637 131.358 139.093 131.254 139.613 131.202C140.397 131.122 140.955 131.044 141.287 130.968C141.619 130.888 141.785 130.76 141.785 130.584C141.785 130.58 141.785 130.578 141.785 130.578C141.785 130.574 141.785 130.57 141.785 130.566C141.785 130.198 141.635 129.924 141.335 129.744C141.035 129.56 140.601 129.468 140.033 129.468C139.441 129.468 138.981 129.572 138.653 129.78C138.325 129.984 138.161 130.316 138.161 130.776H137.153C137.153 130.3 137.275 129.896 137.519 129.564C137.763 129.228 138.101 128.972 138.533 128.796C138.969 128.62 139.471 128.532 140.039 128.532C140.559 128.532 141.027 128.612 141.443 128.772C141.863 128.928 142.195 129.162 142.439 129.474C142.687 129.782 142.811 130.164 142.811 130.62C142.811 130.704 142.811 130.788 142.811 130.872C142.811 130.952 142.811 131.034 142.811 131.118V133.8C142.811 133.94 142.817 134.076 142.829 134.208C142.841 134.34 142.861 134.456 142.889 134.556C142.925 134.676 142.965 134.774 143.009 134.85C143.053 134.922 143.089 134.972 143.117 135H142.091C142.071 134.98 142.041 134.934 142.001 134.862C141.961 134.786 141.923 134.698 141.887 134.598C141.859 134.518 141.837 134.418 141.821 134.298C141.805 134.174 141.797 134.046 141.797 133.914L141.965 134.028C141.841 134.244 141.659 134.434 141.419 134.598C141.183 134.762 140.897 134.89 140.561 134.982C140.225 135.074 139.845 135.12 139.421 135.12ZM139.583 134.202C139.995 134.202 140.367 134.14 140.699 134.016C141.031 133.888 141.295 133.7 141.491 133.452C141.687 133.204 141.785 132.896 141.785 132.528V131.262L142.013 131.646C141.757 131.746 141.437 131.828 141.053 131.892C140.673 131.952 140.275 132.002 139.859 132.042C139.255 132.098 138.799 132.204 138.491 132.36C138.187 132.516 138.035 132.778 138.035 133.146C138.035 133.494 138.161 133.758 138.413 133.938C138.665 134.114 139.055 134.202 139.583 134.202ZM146.852 135.096C146.656 135.096 146.464 135.074 146.276 135.03C146.088 134.986 145.918 134.908 145.766 134.796C145.618 134.68 145.5 134.518 145.412 134.31C145.324 134.098 145.28 133.826 145.28 133.494C145.28 133.41 145.28 133.324 145.28 133.236C145.28 133.144 145.28 133.048 145.28 132.948V129.528H143.726V128.628H144.722C144.858 128.628 144.964 128.624 145.04 128.616C145.116 128.604 145.17 128.578 145.202 128.538C145.238 128.494 145.26 128.428 145.268 128.34C145.276 128.248 145.28 128.122 145.28 127.962V126.516H146.306V128.628H148.298V129.528H146.306V132.618C146.306 132.706 146.306 132.792 146.306 132.876C146.306 132.96 146.306 133.038 146.306 133.11C146.306 133.45 146.346 133.716 146.426 133.908C146.51 134.1 146.696 134.196 146.984 134.196C147.1 134.196 147.21 134.186 147.314 134.166C147.418 134.146 147.496 134.126 147.548 134.106V134.994C147.48 135.018 147.384 135.04 147.26 135.06C147.14 135.084 147.004 135.096 146.852 135.096ZM149.725 132.222V131.31H154.651L154.471 131.61C154.471 131.586 154.471 131.564 154.471 131.544C154.471 131.52 154.471 131.498 154.471 131.478C154.471 131.11 154.393 130.774 154.237 130.47C154.085 130.162 153.857 129.916 153.553 129.732C153.249 129.548 152.873 129.456 152.425 129.456C151.973 129.456 151.575 129.552 151.231 129.744C150.887 129.936 150.619 130.208 150.427 130.56C150.235 130.908 150.139 131.324 150.139 131.808C150.139 132.3 150.231 132.724 150.415 133.08C150.603 133.436 150.869 133.71 151.213 133.902C151.557 134.094 151.965 134.19 152.437 134.19C152.773 134.19 153.065 134.156 153.313 134.088C153.561 134.016 153.765 133.922 153.925 133.806C154.089 133.686 154.213 133.556 154.297 133.416C154.381 133.276 154.431 133.136 154.447 132.996H155.467C155.447 133.252 155.367 133.506 155.227 133.758C155.087 134.01 154.889 134.24 154.633 134.448C154.377 134.652 154.063 134.816 153.691 134.94C153.319 135.064 152.891 135.126 152.407 135.126C151.767 135.126 151.203 134.986 150.715 134.706C150.227 134.426 149.843 134.038 149.563 133.542C149.287 133.046 149.149 132.476 149.149 131.832C149.149 131.18 149.289 130.608 149.569 130.116C149.849 129.62 150.235 129.232 150.727 128.952C151.219 128.672 151.781 128.532 152.413 128.532C153.057 128.532 153.615 128.672 154.087 128.952C154.559 129.232 154.923 129.616 155.179 130.104C155.435 130.588 155.563 131.14 155.563 131.76C155.563 131.824 155.561 131.908 155.557 132.012C155.553 132.116 155.547 132.186 155.539 132.222H149.725ZM159.78 135.12C159.256 135.12 158.776 134.994 158.34 134.742C157.904 134.486 157.556 134.112 157.296 133.62C157.036 133.124 156.906 132.52 156.906 131.808C156.906 131.108 157.038 130.514 157.302 130.026C157.566 129.538 157.916 129.168 158.352 128.916C158.788 128.66 159.264 128.532 159.78 128.532C160.272 128.532 160.732 128.65 161.16 128.886C161.592 129.118 161.94 129.442 162.204 129.858C162.468 130.274 162.6 130.756 162.6 131.304C162.6 131.316 162.6 131.328 162.6 131.34C162.6 131.352 162.6 131.364 162.6 131.376L161.868 131.406C161.868 131.394 161.868 131.382 161.868 131.37C161.868 131.354 161.868 131.34 161.868 131.328C161.868 130.98 161.776 130.666 161.592 130.386C161.412 130.106 161.174 129.884 160.878 129.72C160.582 129.552 160.264 129.468 159.924 129.468C159.356 129.468 158.886 129.66 158.514 130.044C158.142 130.424 157.956 131.012 157.956 131.808C157.956 132.6 158.142 133.19 158.514 133.578C158.89 133.962 159.36 134.154 159.924 134.154C160.28 134.154 160.604 134.068 160.896 133.896C161.192 133.724 161.428 133.494 161.604 133.206C161.78 132.914 161.868 132.588 161.868 132.228L162.6 132.246C162.6 132.79 162.474 133.28 162.222 133.716C161.97 134.148 161.63 134.49 161.202 134.742C160.778 134.994 160.304 135.12 159.78 135.12ZM161.868 135V125.622H162.894V135H161.868ZM170.802 135.12C170.31 135.12 169.85 135 169.422 134.76C168.994 134.516 168.646 134.182 168.378 133.758C168.114 133.334 167.982 132.85 167.982 132.306C167.982 132.294 167.982 132.284 167.982 132.276C167.982 132.268 167.982 132.258 167.982 132.246L168.714 132.228C168.714 132.236 168.714 132.246 168.714 132.258C168.714 132.266 168.714 132.274 168.714 132.282C168.714 132.626 168.804 132.94 168.984 133.224C169.168 133.508 169.408 133.734 169.704 133.902C170 134.07 170.318 134.154 170.658 134.154C171.222 134.154 171.69 133.962 172.062 133.578C172.438 133.19 172.626 132.6 172.626 131.808C172.626 131.012 172.44 130.424 172.068 130.044C171.696 129.66 171.226 129.468 170.658 129.468C170.318 129.468 170 129.552 169.704 129.72C169.408 129.884 169.168 130.106 168.984 130.386C168.804 130.666 168.714 130.98 168.714 131.328L167.982 131.304C167.982 130.756 168.114 130.274 168.378 129.858C168.646 129.442 168.994 129.118 169.422 128.886C169.85 128.65 170.31 128.532 170.802 128.532C171.318 128.532 171.794 128.66 172.23 128.916C172.666 129.168 173.016 129.538 173.28 130.026C173.544 130.514 173.676 131.108 173.676 131.808C173.676 132.52 173.546 133.124 173.286 133.62C173.026 134.112 172.678 134.486 172.242 134.742C171.806 134.994 171.326 135.12 170.802 135.12ZM167.688 135V125.622H168.714V135H167.688ZM175.075 137.688C174.915 137.688 174.769 137.678 174.637 137.658C174.505 137.642 174.423 137.626 174.391 137.61V136.722C174.443 136.746 174.529 136.766 174.649 136.782C174.769 136.798 174.889 136.806 175.009 136.806C175.265 136.806 175.481 136.752 175.657 136.644C175.833 136.54 175.981 136.396 176.101 136.212C176.221 136.032 176.319 135.828 176.395 135.6L176.587 135.036L174.391 128.628H175.459L177.223 134.118H177.079L178.807 128.628H179.857L177.523 135.546C177.391 135.934 177.231 136.29 177.043 136.614C176.859 136.938 176.611 137.198 176.299 137.394C175.991 137.59 175.583 137.688 175.075 137.688ZM189.337 127.05H186.781L187.015 126.468V135H185.995V126.468L186.283 127.05H183.679V126.15H189.337V127.05ZM190.037 132.222V131.31H194.963L194.783 131.61C194.783 131.586 194.783 131.564 194.783 131.544C194.783 131.52 194.783 131.498 194.783 131.478C194.783 131.11 194.705 130.774 194.549 130.47C194.397 130.162 194.169 129.916 193.865 129.732C193.561 129.548 193.185 129.456 192.737 129.456C192.285 129.456 191.887 129.552 191.543 129.744C191.199 129.936 190.931 130.208 190.739 130.56C190.547 130.908 190.451 131.324 190.451 131.808C190.451 132.3 190.543 132.724 190.727 133.08C190.915 133.436 191.181 133.71 191.525 133.902C191.869 134.094 192.277 134.19 192.749 134.19C193.085 134.19 193.377 134.156 193.625 134.088C193.873 134.016 194.077 133.922 194.237 133.806C194.401 133.686 194.525 133.556 194.609 133.416C194.693 133.276 194.743 133.136 194.759 132.996H195.779C195.759 133.252 195.679 133.506 195.539 133.758C195.399 134.01 195.201 134.24 194.945 134.448C194.689 134.652 194.375 134.816 194.003 134.94C193.631 135.064 193.203 135.126 192.719 135.126C192.079 135.126 191.515 134.986 191.027 134.706C190.539 134.426 190.155 134.038 189.875 133.542C189.599 133.046 189.461 132.476 189.461 131.832C189.461 131.18 189.601 130.608 189.881 130.116C190.161 129.62 190.547 129.232 191.039 128.952C191.531 128.672 192.093 128.532 192.725 128.532C193.369 128.532 193.927 128.672 194.399 128.952C194.871 129.232 195.235 129.616 195.491 130.104C195.747 130.588 195.875 131.14 195.875 131.76C195.875 131.824 195.873 131.908 195.869 132.012C195.865 132.116 195.859 132.186 195.851 132.222H190.037ZM199.691 135.12C199.207 135.12 198.783 135.044 198.419 134.892C198.059 134.74 197.779 134.522 197.579 134.238C197.379 133.95 197.279 133.606 197.279 133.206C197.279 132.79 197.387 132.444 197.603 132.168C197.819 131.888 198.123 131.67 198.515 131.514C198.907 131.358 199.363 131.254 199.883 131.202C200.667 131.122 201.225 131.044 201.557 130.968C201.889 130.888 202.055 130.76 202.055 130.584C202.055 130.58 202.055 130.578 202.055 130.578C202.055 130.574 202.055 130.57 202.055 130.566C202.055 130.198 201.905 129.924 201.605 129.744C201.305 129.56 200.871 129.468 200.303 129.468C199.711 129.468 199.251 129.572 198.923 129.78C198.595 129.984 198.431 130.316 198.431 130.776H197.423C197.423 130.3 197.545 129.896 197.789 129.564C198.033 129.228 198.371 128.972 198.803 128.796C199.239 128.62 199.741 128.532 200.309 128.532C200.829 128.532 201.297 128.612 201.713 128.772C202.133 128.928 202.465 129.162 202.709 129.474C202.957 129.782 203.081 130.164 203.081 130.62C203.081 130.704 203.081 130.788 203.081 130.872C203.081 130.952 203.081 131.034 203.081 131.118V133.8C203.081 133.94 203.087 134.076 203.099 134.208C203.111 134.34 203.131 134.456 203.159 134.556C203.195 134.676 203.235 134.774 203.279 134.85C203.323 134.922 203.359 134.972 203.387 135H202.361C202.341 134.98 202.311 134.934 202.271 134.862C202.231 134.786 202.193 134.698 202.157 134.598C202.129 134.518 202.107 134.418 202.091 134.298C202.075 134.174 202.067 134.046 202.067 133.914L202.235 134.028C202.111 134.244 201.929 134.434 201.689 134.598C201.453 134.762 201.167 134.89 200.831 134.982C200.495 135.074 200.115 135.12 199.691 135.12ZM199.853 134.202C200.265 134.202 200.637 134.14 200.969 134.016C201.301 133.888 201.565 133.7 201.761 133.452C201.957 133.204 202.055 132.896 202.055 132.528V131.262L202.283 131.646C202.027 131.746 201.707 131.828 201.323 131.892C200.943 131.952 200.545 132.002 200.129 132.042C199.525 132.098 199.069 132.204 198.761 132.36C198.457 132.516 198.305 132.778 198.305 133.146C198.305 133.494 198.431 133.758 198.683 133.938C198.935 134.114 199.325 134.202 199.853 134.202ZM208.695 135V132.186C208.695 131.938 208.695 131.724 208.695 131.544C208.695 131.36 208.695 131.206 208.695 131.082C208.695 130.926 208.683 130.758 208.659 130.578C208.639 130.394 208.589 130.222 208.509 130.062C208.429 129.898 208.303 129.764 208.131 129.66C207.963 129.556 207.729 129.504 207.429 129.504C207.125 129.504 206.869 129.564 206.661 129.684C206.453 129.8 206.285 129.954 206.157 130.146C206.029 130.338 205.937 130.55 205.881 130.782C205.825 131.01 205.797 131.236 205.797 131.46L205.221 131.226C205.221 130.746 205.321 130.302 205.521 129.894C205.721 129.486 206.001 129.158 206.361 128.91C206.725 128.658 207.151 128.532 207.639 128.532C208.123 128.532 208.517 128.63 208.821 128.826C209.125 129.022 209.349 129.292 209.493 129.636C209.637 129.98 209.709 130.376 209.709 130.824C209.709 130.984 209.709 131.19 209.709 131.442C209.709 131.69 209.709 131.974 209.709 132.294V135H208.695ZM204.777 135V128.628H205.797V135H204.777ZM212.601 135V132.186C212.601 131.914 212.601 131.69 212.601 131.514C212.601 131.334 212.601 131.182 212.601 131.058C212.601 130.902 212.591 130.734 212.571 130.554C212.551 130.374 212.501 130.206 212.421 130.05C212.341 129.89 212.213 129.76 212.037 129.66C211.865 129.556 211.623 129.504 211.311 129.504C211.003 129.504 210.745 129.562 210.537 129.678C210.333 129.794 210.169 129.946 210.045 130.134C209.925 130.322 209.839 130.526 209.787 130.746C209.735 130.962 209.709 131.17 209.709 131.37L209.133 131.148C209.133 130.692 209.229 130.266 209.421 129.87C209.617 129.47 209.893 129.148 210.249 128.904C210.609 128.656 211.035 128.532 211.527 128.532C211.987 128.532 212.371 128.622 212.679 128.802C212.991 128.982 213.225 129.236 213.381 129.564C213.541 129.888 213.621 130.274 213.621 130.722C213.621 130.89 213.621 131.098 213.621 131.346C213.621 131.594 213.621 131.874 213.621 132.186V135H212.601ZM218.323 135V126.15H219.349V134.682L218.887 134.1H222.841V135H218.323ZM226.629 135.114C226.173 135.114 225.793 135.036 225.489 134.88C225.185 134.72 224.943 134.514 224.763 134.262C224.587 134.01 224.461 133.738 224.385 133.446C224.313 133.15 224.277 132.866 224.277 132.594C224.277 132.442 224.277 132.286 224.277 132.126C224.277 131.962 224.277 131.798 224.277 131.634V128.628H225.303V131.502C225.303 131.65 225.303 131.796 225.303 131.94C225.303 132.084 225.303 132.22 225.303 132.348C225.303 132.672 225.347 132.972 225.435 133.248C225.527 133.524 225.685 133.748 225.909 133.92C226.133 134.088 226.441 134.172 226.833 134.172C227.201 134.172 227.523 134.062 227.799 133.842C228.075 133.618 228.291 133.34 228.447 133.008C228.603 132.672 228.681 132.338 228.681 132.006L229.275 132.252C229.275 132.604 229.213 132.95 229.089 133.29C228.965 133.626 228.787 133.932 228.555 134.208C228.327 134.484 228.049 134.704 227.721 134.868C227.397 135.032 227.033 135.114 226.629 135.114ZM228.681 135V128.628H229.701V135H228.681ZM235.391 135V132.186C235.391 131.938 235.391 131.724 235.391 131.544C235.391 131.36 235.391 131.206 235.391 131.082C235.391 130.926 235.379 130.758 235.355 130.578C235.335 130.394 235.285 130.222 235.205 130.062C235.125 129.898 234.999 129.764 234.827 129.66C234.659 129.556 234.425 129.504 234.125 129.504C233.821 129.504 233.565 129.564 233.357 129.684C233.149 129.8 232.981 129.954 232.853 130.146C232.725 130.338 232.633 130.55 232.577 130.782C232.521 131.01 232.493 131.236 232.493 131.46L231.917 131.226C231.917 130.746 232.017 130.302 232.217 129.894C232.417 129.486 232.697 129.158 233.057 128.91C233.421 128.658 233.847 128.532 234.335 128.532C234.819 128.532 235.213 128.63 235.517 128.826C235.821 129.022 236.045 129.292 236.189 129.636C236.333 129.98 236.405 130.376 236.405 130.824C236.405 130.984 236.405 131.19 236.405 131.442C236.405 131.69 236.405 131.974 236.405 132.294V135H235.391ZM231.473 135V128.628H232.493V135H231.473ZM239.297 135V132.186C239.297 131.914 239.297 131.69 239.297 131.514C239.297 131.334 239.297 131.182 239.297 131.058C239.297 130.902 239.287 130.734 239.267 130.554C239.247 130.374 239.197 130.206 239.117 130.05C239.037 129.89 238.909 129.76 238.733 129.66C238.561 129.556 238.319 129.504 238.007 129.504C237.699 129.504 237.441 129.562 237.233 129.678C237.029 129.794 236.865 129.946 236.741 130.134C236.621 130.322 236.535 130.526 236.483 130.746C236.431 130.962 236.405 131.17 236.405 131.37L235.829 131.148C235.829 130.692 235.925 130.266 236.117 129.87C236.313 129.47 236.589 129.148 236.945 128.904C237.305 128.656 237.731 128.532 238.223 128.532C238.683 128.532 239.067 128.622 239.375 128.802C239.687 128.982 239.921 129.236 240.077 129.564C240.237 129.888 240.317 130.274 240.317 130.722C240.317 130.89 240.317 131.098 240.317 131.346C240.317 131.594 240.317 131.874 240.317 132.186V135H239.297ZM242.15 135V128.628H243.158V135H242.15ZM242.66 127.164C242.472 127.164 242.308 127.112 242.168 127.008C242.032 126.9 241.964 126.754 241.964 126.57C241.964 126.39 242.032 126.248 242.168 126.144C242.308 126.036 242.472 125.982 242.66 125.982C242.848 125.982 243.01 126.036 243.146 126.144C243.282 126.248 243.35 126.39 243.35 126.57C243.35 126.754 243.282 126.9 243.146 127.008C243.01 127.112 242.848 127.164 242.66 127.164ZM245.055 137.622V128.628H246.075V137.622H245.055ZM248.169 135.12C247.677 135.12 247.217 135 246.789 134.76C246.361 134.516 246.013 134.182 245.745 133.758C245.481 133.334 245.349 132.85 245.349 132.306C245.349 132.294 245.349 132.284 245.349 132.276C245.349 132.268 245.349 132.258 245.349 132.246L246.081 132.228C246.081 132.236 246.081 132.246 246.081 132.258C246.081 132.266 246.081 132.274 246.081 132.282C246.081 132.626 246.171 132.94 246.351 133.224C246.535 133.508 246.775 133.734 247.071 133.902C247.367 134.07 247.685 134.154 248.025 134.154C248.589 134.154 249.057 133.962 249.429 133.578C249.805 133.19 249.993 132.6 249.993 131.808C249.993 131.012 249.807 130.424 249.435 130.044C249.063 129.66 248.593 129.468 248.025 129.468C247.685 129.468 247.367 129.552 247.071 129.72C246.775 129.884 246.535 130.106 246.351 130.386C246.171 130.666 246.081 130.98 246.081 131.328L245.349 131.304C245.349 130.756 245.481 130.274 245.745 129.858C246.013 129.442 246.361 129.118 246.789 128.886C247.217 128.65 247.677 128.532 248.169 128.532C248.685 128.532 249.161 128.66 249.597 128.916C250.033 129.168 250.383 129.538 250.647 130.026C250.911 130.514 251.043 131.108 251.043 131.808C251.043 132.52 250.913 133.124 250.653 133.62C250.393 134.112 250.045 134.486 249.609 134.742C249.173 134.994 248.693 135.12 248.169 135.12ZM257.203 135V132.63C257.203 132.518 257.203 132.386 257.203 132.234C257.203 132.078 257.203 131.922 257.203 131.766C257.203 131.606 257.203 131.47 257.203 131.358C257.203 130.746 257.071 130.284 256.807 129.972C256.547 129.66 256.133 129.504 255.565 129.504C255.185 129.504 254.851 129.578 254.563 129.726C254.279 129.874 254.057 130.076 253.897 130.332C253.737 130.588 253.657 130.878 253.657 131.202L253.009 131.004C253.009 130.548 253.127 130.134 253.363 129.762C253.603 129.386 253.929 129.088 254.341 128.868C254.757 128.644 255.227 128.532 255.751 128.532C256.515 128.532 257.117 128.762 257.557 129.222C258.001 129.682 258.223 130.318 258.223 131.13C258.223 131.342 258.223 131.586 258.223 131.862C258.223 132.138 258.223 132.428 258.223 132.732V135H257.203ZM252.637 135V125.622H253.657V135H252.637ZM262.222 135.12C261.738 135.12 261.314 135.044 260.95 134.892C260.59 134.74 260.31 134.522 260.11 134.238C259.91 133.95 259.81 133.606 259.81 133.206C259.81 132.79 259.918 132.444 260.134 132.168C260.35 131.888 260.654 131.67 261.046 131.514C261.438 131.358 261.894 131.254 262.414 131.202C263.198 131.122 263.756 131.044 264.088 130.968C264.42 130.888 264.586 130.76 264.586 130.584C264.586 130.58 264.586 130.578 264.586 130.578C264.586 130.574 264.586 130.57 264.586 130.566C264.586 130.198 264.436 129.924 264.136 129.744C263.836 129.56 263.402 129.468 262.834 129.468C262.242 129.468 261.782 129.572 261.454 129.78C261.126 129.984 260.962 130.316 260.962 130.776H259.954C259.954 130.3 260.076 129.896 260.32 129.564C260.564 129.228 260.902 128.972 261.334 128.796C261.77 128.62 262.272 128.532 262.84 128.532C263.36 128.532 263.828 128.612 264.244 128.772C264.664 128.928 264.996 129.162 265.24 129.474C265.488 129.782 265.612 130.164 265.612 130.62C265.612 130.704 265.612 130.788 265.612 130.872C265.612 130.952 265.612 131.034 265.612 131.118V133.8C265.612 133.94 265.618 134.076 265.63 134.208C265.642 134.34 265.662 134.456 265.69 134.556C265.726 134.676 265.766 134.774 265.81 134.85C265.854 134.922 265.89 134.972 265.918 135H264.892C264.872 134.98 264.842 134.934 264.802 134.862C264.762 134.786 264.724 134.698 264.688 134.598C264.66 134.518 264.638 134.418 264.622 134.298C264.606 134.174 264.598 134.046 264.598 133.914L264.766 134.028C264.642 134.244 264.46 134.434 264.22 134.598C263.984 134.762 263.698 134.89 263.362 134.982C263.026 135.074 262.646 135.12 262.222 135.12ZM262.384 134.202C262.796 134.202 263.168 134.14 263.5 134.016C263.832 133.888 264.096 133.7 264.292 133.452C264.488 133.204 264.586 132.896 264.586 132.528V131.262L264.814 131.646C264.558 131.746 264.238 131.828 263.854 131.892C263.474 131.952 263.076 132.002 262.66 132.042C262.056 132.098 261.6 132.204 261.292 132.36C260.988 132.516 260.836 132.778 260.836 133.146C260.836 133.494 260.962 133.758 261.214 133.938C261.466 134.114 261.856 134.202 262.384 134.202Z" fill="white"/>
</g>
</svg>
