<svg width="28" height="28" viewBox="0 0 28 28" fill="none" xmlns="http://www.w3.org/2000/svg">
<path d="M8.16667 6.99992V3.49992C8.16667 3.1905 8.28958 2.89375 8.50838 2.67496C8.72717 2.45617 9.02391 2.33325 9.33333 2.33325H23.3333C23.6428 2.33325 23.9395 2.45617 24.1583 2.67496C24.3771 2.89375 24.5 3.1905 24.5 3.49992V19.8333C24.5 20.1427 24.3771 20.4394 24.1583 20.6582C23.9395 20.877 23.6428 20.9999 23.3333 20.9999H19.8333V24.4999C19.8333 25.1439 19.3083 25.6666 18.6585 25.6666H4.67483C4.52094 25.6677 4.36835 25.6383 4.22586 25.5801C4.08337 25.522 3.95379 25.4362 3.84459 25.3278C3.73539 25.2193 3.64872 25.0904 3.58958 24.9483C3.53044 24.8062 3.5 24.6538 3.5 24.4999L3.5035 8.16658C3.5035 7.52258 4.0285 6.99992 4.67717 6.99992H8.16667ZM5.83567 9.33325L5.83333 23.3333H17.5V9.33325H5.83567ZM10.5 6.99992H19.8333V18.6666H22.1667V4.66659H10.5V6.99992ZM8.16667 12.8333H15.1667V15.1666H8.16667V12.8333ZM8.16667 17.4999H15.1667V19.8333H8.16667V17.4999Z" fill="black"/>
</svg>
