<svg width="56" height="56" viewBox="0 0 56 56" fill="none" xmlns="http://www.w3.org/2000/svg">
<rect width="56" height="56" rx="28" fill="black"/>
<path d="M23.1 27C21.9065 27 20.7619 26.5259 19.918 25.682C19.0741 24.8381 18.6 23.6935 18.6 22.5C18.6 21.3065 19.0741 20.1619 19.918 19.318C20.7619 18.4741 21.9065 18 23.1 18C24.2935 18 25.4381 18.4741 26.282 19.318C27.1259 20.1619 27.6 21.3065 27.6 22.5C27.6 23.6935 27.1259 24.8381 26.282 25.682C25.4381 26.5259 24.2935 27 23.1 27ZM24 43.496V36.8C24 35.824 24.288 34.926 24.808 34.124C23.0253 33.87 21.2093 33.9909 19.476 34.4789C17.7427 34.9669 16.1303 35.8112 14.742 36.958C16.9265 40.1947 20.2193 42.5208 24 43.498M12.906 33.32C15.8269 31.1581 19.3661 29.994 23 30C25.0256 29.9983 27.0352 30.3586 28.934 31.064C30.69 30.38 32.784 30 35 30C38.32 30 41.37 30.848 43.412 32.312C44.0871 29.8917 44.1827 27.3465 43.691 24.8824C43.1994 22.4184 42.1343 20.1047 40.582 18.1289C39.0298 16.153 37.034 14.5705 34.7564 13.5096C32.4787 12.4486 29.9832 11.939 27.4719 12.0219C24.9606 12.1049 22.5042 12.7782 20.3015 13.9872C18.0989 15.1962 16.2119 16.907 14.7935 18.981C13.3751 21.055 12.4651 23.4339 12.1372 25.9251C11.8092 28.4162 12.0726 30.9496 12.906 33.32ZM41.758 36.172C40.972 35.106 38.342 34 35 34C30.988 34 28 35.594 28 36.8V44C30.7755 44.0008 33.5035 43.2795 35.916 41.907C38.3284 40.5346 40.3404 38.5582 41.758 36.172ZM28 48C16.954 48 8 39.046 8 28C8 16.954 16.954 8 28 8C39.046 8 48 16.954 48 28C48 39.046 39.046 48 28 48ZM35 29C33.9391 29 32.9217 28.5786 32.1716 27.8284C31.4214 27.0783 31 26.0609 31 25C31 23.9391 31.4214 22.9217 32.1716 22.1716C32.9217 21.4214 33.9391 21 35 21C36.0609 21 37.0783 21.4214 37.8284 22.1716C38.5786 22.9217 39 23.9391 39 25C39 26.0609 38.5786 27.0783 37.8284 27.8284C37.0783 28.5786 36.0609 29 35 29Z" fill="white"/>
</svg>
