<svg width="32" height="32" viewBox="0 0 32 32" fill="none" xmlns="http://www.w3.org/2000/svg">
<path d="M26.6668 2.6665C27.0205 2.6665 27.3596 2.80698 27.6096 3.05703C27.8597 3.30708 28.0002 3.64622 28.0002 3.99984V10.6665C28.0002 11.0201 27.8597 11.3593 27.6096 11.6093C27.3596 11.8594 27.0205 11.9998 26.6668 11.9998H20.0002V29.3332C20.0002 29.6868 19.8597 30.0259 19.6096 30.276C19.3596 30.526 19.0205 30.6665 18.6668 30.6665H13.3335C12.9799 30.6665 12.6407 30.526 12.3907 30.276C12.1406 30.0259 12.0002 29.6868 12.0002 29.3332V11.9998H4.66683C4.31321 11.9998 3.97407 11.8594 3.72402 11.6093C3.47397 11.3593 3.3335 11.0201 3.3335 10.6665V7.4905C3.33363 7.24296 3.40267 7.00033 3.5329 6.7898C3.66312 6.57928 3.84939 6.40916 4.07083 6.2985L11.3335 2.6665H26.6668ZM20.0002 5.33317H11.9628L6.00016 8.3145V9.33317H14.6668V27.9998H17.3335V9.33317H20.0002V5.33317ZM25.3335 5.33317H22.6668V9.33317H25.3335V5.33317Z" fill="black"/>
</svg>
