<svg width="40" height="40" viewBox="0 0 40 40" fill="none" xmlns="http://www.w3.org/2000/svg">
<rect x="1" y="1" width="38" height="38" rx="19" stroke="black" stroke-width="2"/>
<path d="M27.5 23.6833V26.63C27.5001 26.841 27.4202 27.0441 27.2763 27.1985C27.1325 27.3528 26.9355 27.4469 26.725 27.4617C26.3611 27.4872 26.0639 27.5 25.8333 27.5C18.4692 27.5 12.5 21.5308 12.5 14.1667C12.5 13.9367 12.5128 13.6394 12.5383 13.275C12.5531 13.0645 12.6472 12.8675 12.8015 12.7237C12.9559 12.5798 13.159 12.4999 13.37 12.5H16.3167C16.42 12.4999 16.5197 12.5382 16.5964 12.6075C16.6731 12.6768 16.7213 12.7722 16.7317 12.875C16.7506 13.0661 16.7683 13.2194 16.785 13.335C16.9506 14.4908 17.29 15.6149 17.7917 16.6692C17.8708 16.8358 17.8192 17.035 17.6692 17.1417L15.8708 18.4267C16.9706 20.9886 19.0123 23.0302 21.5742 24.13L22.8575 22.335C22.9097 22.2614 22.9863 22.2086 23.0736 22.1859C23.161 22.1632 23.2535 22.172 23.335 22.2108C24.3892 22.7116 25.513 23.0501 26.6683 23.215C26.7839 23.2317 26.9367 23.2494 27.1267 23.2683C27.2294 23.2789 27.3245 23.3271 27.3936 23.4038C27.4628 23.4805 27.5001 23.5801 27.5 23.6833Z" fill="black"/>
</svg>
