<svg width="56" height="56" viewBox="0 0 56 56" fill="none" xmlns="http://www.w3.org/2000/svg">
<rect width="56" height="56" rx="28" fill="black"/>
<path d="M28 48C16.954 48 8 39.046 8 28C8 16.954 16.954 8 28 8C39.046 8 48 16.954 48 28C48 39.046 39.046 48 28 48ZM28 44C32.2435 44 36.3131 42.3143 39.3137 39.3137C42.3143 36.3131 44 32.2435 44 28C44 23.7565 42.3143 19.6869 39.3137 16.6863C36.3131 13.6857 32.2435 12 28 12C23.7565 12 19.6869 13.6857 16.6863 16.6863C13.6857 19.6869 12 23.7565 12 28C12 32.2435 13.6857 36.3131 16.6863 39.3137C19.6869 42.3143 23.7565 44 28 44ZM26 34H30V38H26V34ZM30 30.71V32H26V29C26 28.4696 26.2107 27.9609 26.5858 27.5858C26.9609 27.2107 27.4696 27 28 27C28.5682 27 29.1246 26.8386 29.6047 26.5347C30.0847 26.2307 30.4685 25.7967 30.7115 25.2832C30.9546 24.7696 31.0467 24.1976 30.9774 23.6337C30.908 23.0698 30.6799 22.5372 30.3197 22.0978C29.9594 21.6585 29.4818 21.3305 28.9424 21.1519C28.4031 20.9734 27.8241 20.9517 27.2729 21.0894C26.7216 21.2271 26.2208 21.5185 25.8287 21.9296C25.4366 22.3408 25.1694 22.8549 25.058 23.412L21.134 22.626C21.3773 21.4102 21.939 20.2807 22.7618 19.3532C23.5847 18.4256 24.639 17.7332 25.8172 17.3466C26.9953 16.9601 28.255 16.8934 29.4674 17.1532C30.6798 17.4131 31.8014 17.9902 32.7176 18.8256C33.6339 19.6611 34.3118 20.7248 34.6822 21.9081C35.0526 23.0914 35.1021 24.3519 34.8257 25.5606C34.5493 26.7693 33.9569 27.883 33.109 28.7877C32.2612 29.6925 31.1883 30.3558 30 30.71Z" fill="white"/>
</svg>
