<svg width="32" height="32" viewBox="0 0 32 32" fill="none" xmlns="http://www.w3.org/2000/svg">
<path d="M15.9998 29.3333C8.63584 29.3333 2.6665 23.364 2.6665 16C2.6665 8.63596 8.63584 2.66663 15.9998 2.66663C23.3638 2.66663 29.3332 8.63596 29.3332 16C29.3332 23.364 23.3638 29.3333 15.9998 29.3333ZM15.9998 26.6666C18.8288 26.6666 21.5419 25.5428 23.5423 23.5424C25.5427 21.542 26.6665 18.8289 26.6665 16C26.6665 13.171 25.5427 10.4579 23.5423 8.45749C21.5419 6.4571 18.8288 5.33329 15.9998 5.33329C13.1709 5.33329 10.4578 6.4571 8.45736 8.45749C6.45698 10.4579 5.33317 13.171 5.33317 16C5.33317 18.8289 6.45698 21.542 8.45736 23.5424C10.4578 25.5428 13.1709 26.6666 15.9998 26.6666ZM17.3332 14V20H18.6665V22.6666H13.3332V20H14.6665V16.6666H13.3332V14H17.3332ZM17.9998 10.6666C17.9998 11.1971 17.7891 11.7058 17.4141 12.0808C17.039 12.4559 16.5303 12.6666 15.9998 12.6666C15.4694 12.6666 14.9607 12.4559 14.5856 12.0808C14.2105 11.7058 13.9998 11.1971 13.9998 10.6666C13.9998 10.1362 14.2105 9.62748 14.5856 9.25241C14.9607 8.87734 15.4694 8.66663 15.9998 8.66663C16.5303 8.66663 17.039 8.87734 17.4141 9.25241C17.7891 9.62748 17.9998 10.1362 17.9998 10.6666Z" fill="black"/>
</svg>
