<svg width="24" height="24" viewBox="0 0 24 24" fill="none" xmlns="http://www.w3.org/2000/svg">
<g clip-path="url(#clip0_535_5312)">
<path d="M20.467 8.6941L20.713 8.1281C21.1455 7.12683 21.9376 6.32402 22.933 5.8781L23.692 5.5391C23.7841 5.49675 23.8621 5.42887 23.9168 5.34353C23.9714 5.25819 24.0005 5.15896 24.0005 5.0576C24.0005 4.95625 23.9714 4.85702 23.9168 4.77168C23.8621 4.68633 23.7841 4.61846 23.692 4.5761L22.975 4.2571C21.9546 3.79848 21.1489 2.96599 20.724 1.9311L20.471 1.3201C20.4338 1.22546 20.369 1.1442 20.285 1.08693C20.201 1.02966 20.1017 0.999023 20 0.999023C19.8983 0.999023 19.799 1.02966 19.715 1.08693C19.631 1.1442 19.5662 1.22546 19.529 1.3201L19.276 1.9301C18.8515 2.96518 18.0462 3.79804 17.026 4.2571L16.308 4.5771C16.2162 4.61958 16.1385 4.68745 16.084 4.77268C16.0295 4.85791 16.0006 4.95695 16.0006 5.0581C16.0006 5.15926 16.0295 5.2583 16.084 5.34353C16.1385 5.42876 16.2162 5.49662 16.308 5.5391L17.068 5.8771C18.0632 6.32347 18.8549 7.12663 19.287 8.1281L19.533 8.6941C19.713 9.1081 20.286 9.1081 20.467 8.6941ZM12 4.0001C10.3573 3.99998 8.75439 4.50554 7.40903 5.4481C6.06366 6.39067 5.04107 7.72454 4.48017 9.26851C3.91927 10.8125 3.84727 12.4917 4.27394 14.078C4.7006 15.6643 5.60526 17.0808 6.865 18.1351L14.293 10.7071C14.4805 10.5196 14.7348 10.4143 15 10.4143C15.2652 10.4143 15.5195 10.5196 15.707 10.7071L19.577 14.5771C19.577 14.5731 19.578 14.5694 19.58 14.5661C19.9626 13.4347 20.087 12.2319 19.944 11.0461L21.93 10.8091C21.9767 11.2004 22 11.5974 22 12.0001C22 17.5231 17.523 22.0001 12 22.0001C6.477 22.0001 2 17.5231 2 12.0001C2 6.47711 6.477 2.0001 12 2.0001C12.861 2.0001 13.699 2.1101 14.498 2.3151L14 4.2521C13.3466 4.08411 12.6746 3.99944 12 4.0001ZM10.813 19.9131C11.1997 19.9704 11.5953 19.9994 12 20.0001C14.761 20.0001 17.2 18.6001 18.638 16.4671L15 12.8281L8.59 19.2381L8.593 19.2411C9.29643 19.5718 10.0443 19.7981 10.813 19.9131ZM11 10.0001C11 10.5305 10.7893 11.0392 10.4142 11.4143C10.0391 11.7894 9.53043 12.0001 9 12.0001C8.46957 12.0001 7.96086 11.7894 7.58579 11.4143C7.21071 11.0392 7 10.5305 7 10.0001C7 9.46967 7.21071 8.96096 7.58579 8.58589C7.96086 8.21082 8.46957 8.0001 9 8.0001C9.53043 8.0001 10.0391 8.21082 10.4142 8.58589C10.7893 8.96096 11 9.46967 11 10.0001Z" fill="black"/>
</g>
<defs>
<clipPath id="clip0_535_5312">
<rect width="24" height="24" fill="white"/>
</clipPath>
</defs>
</svg>
