<svg width="32" height="32" viewBox="0 0 32 32" fill="none" xmlns="http://www.w3.org/2000/svg">
<path d="M13.2973 24H18.7026C18.8786 22.3973 19.6959 21.076 21.0226 19.6306C21.1733 19.468 22.1319 18.4746 22.2453 18.3333C23.187 17.1568 23.7773 15.7383 23.9481 14.241C24.1189 12.7437 23.8634 11.2287 23.2109 9.87028C22.5585 8.51189 21.5356 7.36541 20.2601 6.56287C18.9846 5.76033 17.5084 5.33437 16.0014 5.33405C14.4944 5.33373 13.018 5.75906 11.7422 6.56105C10.4663 7.36304 9.44295 8.50909 8.7899 9.86721C8.13684 11.2253 7.88067 12.7403 8.05087 14.2376C8.22107 15.7349 8.81073 17.1537 9.75195 18.3306C9.86661 18.4733 10.8279 19.468 10.9759 19.6293C12.3039 21.0746 13.1213 22.3973 13.2973 24ZM18.6666 26.6666H13.3333V28H18.6666V26.6666ZM7.67195 20C6.4162 18.431 5.62921 16.5393 5.40163 14.5426C5.17405 12.5459 5.51515 10.5256 6.38562 8.71429C7.25609 6.90301 8.62053 5.37446 10.3218 4.30474C12.023 3.23502 13.9918 2.66765 16.0014 2.66797C18.011 2.66829 19.9796 3.2363 21.6805 4.30656C23.3814 5.37683 24.7453 6.90581 25.6152 8.71737C26.4851 10.5289 26.8256 12.5494 26.5973 14.546C26.3691 16.5426 25.5815 18.4341 24.3253 20.0026C23.4986 21.032 21.3333 22.6666 21.3333 24.6666V28C21.3333 28.7072 21.0523 29.3855 20.5522 29.8856C20.0521 30.3857 19.3739 30.6666 18.6666 30.6666H13.3333C12.626 30.6666 11.9478 30.3857 11.4477 29.8856C10.9476 29.3855 10.6666 28.7072 10.6666 28V24.6666C10.6666 22.6666 8.49995 21.032 7.67195 20ZM17.3333 13.3386H20.6666L14.6666 21.3386V16.0053H11.3333L17.3333 7.99997V13.3386Z" fill="black"/>
</svg>
