<svg width="64" height="64" viewBox="0 0 64 64" fill="none" xmlns="http://www.w3.org/2000/svg">
<rect x="1" y="1" width="62" height="62" rx="31" stroke="white" stroke-opacity="0.16" stroke-width="2"/>
<path d="M32.0014 27.9998C30.9405 27.9998 29.9231 28.4213 29.173 29.1714C28.4228 29.9216 28.0014 30.939 28.0014 31.9998C28.0014 33.0607 28.4228 34.0781 29.173 34.8283C29.9231 35.5784 30.9405 35.9998 32.0014 35.9998C33.0623 35.9998 34.0797 35.5784 34.8298 34.8283C35.58 34.0781 36.0014 33.0607 36.0014 31.9998C36.0014 30.939 35.58 29.9216 34.8298 29.1714C34.0797 28.4213 33.0623 27.9998 32.0014 27.9998ZM32.0014 25.3332C33.7695 25.3332 35.4652 26.0355 36.7155 27.2858C37.9657 28.536 38.6681 30.2317 38.6681 31.9998C38.6681 33.7679 37.9657 35.4636 36.7155 36.7139C35.4652 37.9641 33.7695 38.6665 32.0014 38.6665C30.2333 38.6665 28.5376 37.9641 27.2874 36.7139C26.0371 35.4636 25.3347 33.7679 25.3347 31.9998C25.3347 30.2317 26.0371 28.536 27.2874 27.2858C28.5376 26.0355 30.2333 25.3332 32.0014 25.3332ZM40.6681 24.9998C40.6681 25.4419 40.4925 25.8658 40.1799 26.1783C39.8674 26.4909 39.4434 26.6665 39.0014 26.6665C38.5594 26.6665 38.1355 26.4909 37.8229 26.1783C37.5103 25.8658 37.3347 25.4419 37.3347 24.9998C37.3347 24.5578 37.5103 24.1339 37.8229 23.8213C38.1355 23.5088 38.5594 23.3332 39.0014 23.3332C39.4434 23.3332 39.8674 23.5088 40.1799 23.8213C40.4925 24.1339 40.6681 24.5578 40.6681 24.9998ZM32.0014 21.3332C28.7027 21.3332 28.1641 21.3425 26.6294 21.4105C25.5841 21.4598 24.8827 21.5998 24.2321 21.8532C23.6879 22.0537 23.1957 22.374 22.7921 22.7905C22.3751 23.194 22.0543 23.6862 21.8534 24.2305C21.6001 24.8838 21.4601 25.5838 21.4121 26.6278C21.3427 28.0998 21.3334 28.6145 21.3334 31.9998C21.3334 35.2998 21.3427 35.8372 21.4107 37.3718C21.4601 38.4158 21.6001 39.1185 21.8521 39.7678C22.0787 40.3478 22.3454 40.7652 22.7881 41.2078C23.2374 41.6558 23.6547 41.9238 24.2281 42.1452C24.8867 42.3998 25.5881 42.5412 26.6281 42.5892C28.1001 42.6585 28.6147 42.6665 32.0001 42.6665C35.3001 42.6665 35.8374 42.6572 37.3721 42.5892C38.4147 42.5398 39.1161 42.3998 39.7681 42.1478C40.3123 41.9473 40.8045 41.627 41.2081 41.2105C41.6574 40.7625 41.9254 40.3452 42.1467 39.7705C42.4001 39.1145 42.5414 38.4132 42.5894 37.3705C42.6587 35.8998 42.6667 35.3838 42.6667 31.9998C42.6667 28.7012 42.6574 28.1625 42.5894 26.6278C42.5401 25.5852 42.3988 24.8812 42.1467 24.2305C41.9463 23.6863 41.6259 23.1941 41.2094 22.7905C40.8059 22.3735 40.3138 22.0527 39.7694 21.8518C39.1161 21.5985 38.4147 21.4585 37.3721 21.4105C35.9014 21.3412 35.3867 21.3332 32.0001 21.3332M32.0001 18.6665C35.6227 18.6665 36.0747 18.6798 37.4974 18.7465C38.9161 18.8132 39.8841 19.0358 40.7334 19.3665C41.6134 19.7052 42.3547 20.1638 43.0961 20.9038C43.7743 21.5701 44.299 22.3765 44.6334 23.2665C44.9627 24.1158 45.1868 25.0838 45.2534 26.5038C45.3161 27.9252 45.3334 28.3772 45.3334 31.9998C45.3334 35.6225 45.3201 36.0745 45.2534 37.4958C45.1868 38.9172 44.9627 39.8825 44.6334 40.7332C44.299 41.6232 43.7743 42.4295 43.0961 43.0958C42.4298 43.7741 41.6235 44.2987 40.7334 44.6332C39.8841 44.9625 38.9161 45.1865 37.4974 45.2532C36.0747 45.3158 35.6227 45.3332 32.0001 45.3332C28.3774 45.3332 27.9254 45.3198 26.5027 45.2532C25.0841 45.1865 24.1174 44.9625 23.2667 44.6332C22.3767 44.2987 21.5704 43.7741 20.9041 43.0958C20.2258 42.4295 19.7012 41.6232 19.3667 40.7332C19.0361 39.8838 18.8134 38.9158 18.7467 37.4958C18.6827 36.0745 18.6667 35.6225 18.6667 31.9998C18.6667 28.3772 18.6801 27.9252 18.7467 26.5038C18.8134 25.0825 19.0361 24.1172 19.3667 23.2665C19.7012 22.3765 20.2258 21.5701 20.9041 20.9038C21.5704 20.2256 22.3767 19.7009 23.2667 19.3665C24.1161 19.0358 25.0827 18.8132 26.5027 18.7465C27.9267 18.6838 28.3787 18.6665 32.0014 18.6665" fill="white"/>
</svg>
