<svg width="48" height="48" viewBox="0 0 48 48" fill="none" xmlns="http://www.w3.org/2000/svg">
<rect x="1" y="1" width="46" height="46" rx="23" stroke="#EEEEEE" stroke-width="2"/>
<path d="M19.5 23C20.0304 23 20.5391 22.7893 20.9142 22.4142C21.2893 22.0391 21.5 21.5304 21.5 21C21.5 20.4696 21.2893 19.9609 20.9142 19.5858C20.5391 19.2107 20.0304 19 19.5 19H15V23H19.5ZM20.5 25H15V29H20.5C21.0304 29 21.5391 28.7893 21.9142 28.4142C22.2893 28.0391 22.5 27.5304 22.5 27C22.5 26.4696 22.2893 25.9609 21.9142 25.5858C21.5391 25.2107 21.0304 25 20.5 25ZM22.563 23.572C23.3125 24.0227 23.8937 24.7066 24.2175 25.5191C24.5413 26.3315 24.5899 27.2277 24.3559 28.0704C24.1218 28.9131 23.618 29.6559 22.9216 30.185C22.2252 30.7141 21.3746 31.0004 20.5 31H13V17H19.5C20.2617 16.9999 21.0075 17.2173 21.6498 17.6266C22.2922 18.0359 22.8043 18.6201 23.126 19.3105C23.4478 20.0008 23.5657 20.7687 23.4659 21.5238C23.3662 22.2789 23.0529 22.9898 22.563 23.573M27.5 18H33V19.5H27.5V18ZM35 26.5H27.5V26.75C27.4998 27.3677 27.7075 27.9676 28.0898 28.4528C28.4721 28.938 29.0066 29.2804 29.6073 29.4248C30.2079 29.5692 30.8396 29.5072 31.4007 29.2487C31.9617 28.9902 32.4194 28.5503 32.7 28H34.834C34.5293 29.1083 33.8333 30.0686 32.8748 30.703C31.9164 31.3374 30.7605 31.6029 29.6212 31.4503C28.482 31.2978 27.4367 30.7375 26.6789 29.8732C25.9212 29.009 25.5023 27.8994 25.5 26.75V25.25C25.5 23.9902 26.0004 22.782 26.8912 21.8912C27.782 21.0004 28.9902 20.5 30.25 20.5C31.5098 20.5 32.718 21.0004 33.6088 21.8912C34.4996 22.782 35 23.9902 35 25.25V26.5ZM32.896 24.5C32.7323 23.9245 32.3854 23.4181 31.9079 23.0575C31.4304 22.6969 30.8483 22.5018 30.25 22.5018C29.6517 22.5018 29.0696 22.6969 28.5921 23.0575C28.1146 23.4181 27.7677 23.9245 27.604 24.5H32.896Z" fill="black"/>
</svg>
