<svg width="48" height="48" viewBox="0 0 48 48" fill="none" xmlns="http://www.w3.org/2000/svg">
<rect x="1" y="1" width="46" height="46" rx="23" stroke="#EEEEEE" stroke-width="2"/>
<path d="M25.001 31.938C27.0183 31.6813 28.8621 30.6661 30.1578 29.0988C31.4535 27.5314 32.1037 25.5295 31.9764 23.5C31.849 21.4704 30.9536 19.5655 29.4722 18.1724C27.9908 16.7793 26.0345 16.0025 24.001 16C21.9649 15.9985 20.0049 16.7733 18.5203 18.1667C17.0357 19.56 16.1382 21.467 16.0107 23.499C15.8832 25.5311 16.5353 27.5353 17.8341 29.1033C19.1329 30.6712 20.9807 31.685 23.001 31.938V26H21.001V24H23.001V22.346C23.001 21.009 23.141 20.524 23.401 20.035C23.6573 19.5513 24.0531 19.1559 24.537 18.9C24.919 18.695 25.394 18.572 26.224 18.519C26.5533 18.4977 26.9793 18.5243 27.502 18.599V20.499H27.002C26.085 20.499 25.706 20.542 25.48 20.663C25.3452 20.7325 25.2355 20.8423 25.166 20.977C25.046 21.203 25.002 21.427 25.002 22.345V24H27.502L27.002 26H25.002L25.001 31.938ZM24.001 34C18.478 34 14.001 29.523 14.001 24C14.001 18.477 18.478 14 24.001 14C29.524 14 34.001 18.477 34.001 24C34.001 29.523 29.524 34 24.001 34Z" fill="black"/>
</svg>
