<svg width="64" height="64" viewBox="0 0 64 64" fill="none" xmlns="http://www.w3.org/2000/svg">
<rect x="1" y="1" width="62" height="62" rx="31" stroke="white" stroke-opacity="0.16" stroke-width="2"/>
<path d="M25.9999 30.6665C26.7072 30.6665 27.3854 30.3856 27.8855 29.8855C28.3856 29.3854 28.6666 28.7071 28.6666 27.9998C28.6666 27.2926 28.3856 26.6143 27.8855 26.1142C27.3854 25.6141 26.7072 25.3332 25.9999 25.3332H19.9999V30.6665H25.9999ZM27.3333 33.3332H19.9999V38.6665H27.3333C28.0405 38.6665 28.7188 38.3856 29.2189 37.8855C29.719 37.3854 29.9999 36.7071 29.9999 35.9998C29.9999 35.2926 29.719 34.6143 29.2189 34.1142C28.7188 33.6141 28.0405 33.3332 27.3333 33.3332ZM30.0839 31.4292C31.0833 32.0301 31.8582 32.942 32.2899 34.0253C32.7217 35.1085 32.7864 36.3035 32.4744 37.4271C32.1623 38.5507 31.4906 39.541 30.5621 40.2465C29.6335 40.952 28.4994 41.3337 27.3333 41.3332H17.3333V22.6665H25.9999C27.0155 22.6664 28.0099 22.9563 28.8664 23.502C29.7228 24.0477 30.4057 24.8266 30.8346 25.7471C31.2636 26.6676 31.4208 27.6914 31.2878 28.6982C31.1548 29.705 30.7372 30.6529 30.0839 31.4305M36.6666 23.9998H43.9999V25.9998H36.6666V23.9998ZM46.6666 35.3332H36.6666V35.6665C36.6663 36.4902 36.9433 37.2899 37.453 37.9369C37.9627 38.5839 38.6754 39.0404 39.4763 39.2329C40.2771 39.4255 41.1194 39.3427 41.8675 38.9981C42.6156 38.6534 43.2258 38.067 43.5999 37.3332H46.4453C46.039 38.8109 45.111 40.0913 43.833 40.9371C42.5551 41.783 41.0139 42.137 39.4949 41.9336C37.9759 41.7302 36.5822 40.9831 35.5718 39.8308C34.5615 38.6785 34.003 37.199 33.9999 35.6665V33.6665C33.9999 31.9868 34.6672 30.3759 35.8549 29.1882C37.0426 28.0004 38.6535 27.3332 40.3333 27.3332C42.013 27.3332 43.6239 28.0004 44.8116 29.1882C45.9993 30.3759 46.6666 31.9868 46.6666 33.6665V35.3332ZM43.8613 32.6665C43.6429 31.8992 43.1804 31.2239 42.5438 30.7431C41.9071 30.2623 41.1311 30.0022 40.3333 30.0022C39.5355 30.0022 38.7594 30.2623 38.1228 30.7431C37.4861 31.2239 37.0236 31.8992 36.8053 32.6665H43.8613Z" fill="white"/>
</svg>
