<svg width="64" height="64" viewBox="0 0 64 64" fill="none" xmlns="http://www.w3.org/2000/svg">
<rect x="1" y="1" width="62" height="62" rx="31" stroke="white" stroke-opacity="0.16" stroke-width="2"/>
<path d="M42.6521 31.4292C42.5428 29.3304 41.8128 27.3113 40.5547 25.6278C40.1708 26.04 39.7611 26.4275 39.3281 26.7878C37.9955 27.8936 36.507 28.7967 34.9107 29.4678C35.1334 29.9345 35.3374 30.3865 35.5174 30.8132V30.8172C35.5534 30.8985 35.5841 30.9745 35.6427 31.1225L35.6654 31.1758C37.6827 30.9492 39.8107 31.0332 41.8734 31.3132C42.1472 31.3487 42.4067 31.3874 42.6521 31.4292ZM30.1387 21.4958C31.4385 23.3265 32.6367 25.2271 33.7281 27.1892C35.3587 26.5465 36.7067 25.7358 37.7921 24.8332C38.2321 24.4678 38.5841 24.1238 38.8534 23.8265C36.9346 22.213 34.5071 21.3298 32.0001 21.3332C31.3654 21.3341 30.745 21.3878 30.1387 21.4945M21.6707 29.3292C22.5791 29.3065 23.4863 29.2518 24.3907 29.1652C26.577 28.9698 28.7445 28.6033 30.8734 28.0692C29.7614 26.1358 28.5601 24.2551 27.2734 22.4332C25.8998 23.1138 24.6886 24.0819 23.7219 25.2717C22.7553 26.4615 22.0557 27.8453 21.6707 29.3292ZM23.7107 38.7132C24.3349 37.809 25.0376 36.9617 25.8107 36.1812C27.7494 34.1945 30.0374 32.6478 32.6854 31.7945L32.7681 31.7705C32.5481 31.2852 32.3414 30.8518 32.1334 30.4438C29.6854 31.1572 27.1067 31.6025 24.5374 31.8332C23.2841 31.9465 22.1601 31.9958 21.3334 32.0038C21.3314 34.4472 22.1701 36.8167 23.7107 38.7132ZM36.0067 41.8865C35.4923 39.2936 34.7644 36.7476 33.8307 34.2745C31.1641 35.2438 29.0361 36.6612 27.3921 38.3518C26.7289 39.0219 26.1401 39.7618 25.6361 40.5585C27.4739 41.9303 29.7067 42.6699 32.0001 42.6665C33.3732 42.6677 34.7337 42.4038 36.0067 41.8892M38.5054 40.4558C40.5869 38.8553 42.005 36.5434 42.4881 33.9625C42.0347 33.8492 41.4601 33.7358 40.8281 33.6478C39.423 33.4451 37.9971 33.4303 36.5881 33.6038C37.3829 35.8418 38.0236 38.1316 38.5054 40.4572M32.0001 45.3332C24.6361 45.3332 18.6667 39.3638 18.6667 31.9998C18.6667 24.6358 24.6361 18.6665 32.0001 18.6665C39.3641 18.6665 45.3334 24.6358 45.3334 31.9998C45.3334 39.3638 39.3641 45.3332 32.0001 45.3332Z" fill="white"/>
</svg>
