<svg width="64" height="64" viewBox="0 0 64 64" fill="none" xmlns="http://www.w3.org/2000/svg">
<rect x="1" y="1" width="62" height="62" rx="31" stroke="white" stroke-opacity="0.16" stroke-width="2"/>
<path d="M33.3346 42.5838C36.0244 42.2416 38.4828 40.888 40.2104 38.7982C41.9379 36.7084 42.8049 34.0392 42.6351 31.3331C42.4654 28.627 41.2715 26.0872 39.2963 24.2297C37.3211 22.3722 34.7127 21.3365 32.0013 21.3332C29.2866 21.3311 26.6732 22.3643 24.6938 24.2221C22.7143 26.0799 21.5176 28.6225 21.3476 31.3319C21.1776 34.0413 22.0471 36.7135 23.7788 38.8042C25.5106 40.8948 27.9743 42.2465 30.668 42.5838V34.6665H28.0013V31.9998H30.668V29.7945C30.668 28.0118 30.8546 27.3652 31.2013 26.7132C31.5431 26.0683 32.0708 25.541 32.716 25.1998C33.2253 24.9265 33.8586 24.7625 34.9653 24.6918C35.4044 24.6634 35.9724 24.6989 36.6693 24.7985V27.3318H36.0026C34.78 27.3318 34.2746 27.3892 33.9733 27.5505C33.7937 27.6432 33.6473 27.7895 33.5546 27.9692C33.3946 28.2705 33.336 28.5692 33.336 29.7932V31.9998H36.6693L36.0026 34.6665H33.336L33.3346 42.5838ZM32.0013 45.3332C24.6373 45.3332 18.668 39.3638 18.668 31.9998C18.668 24.6358 24.6373 18.6665 32.0013 18.6665C39.3653 18.6665 45.3346 24.6358 45.3346 31.9998C45.3346 39.3638 39.3653 45.3332 32.0013 45.3332Z" fill="white"/>
</svg>
