<svg width="32" height="32" viewBox="0 0 32 32" fill="none" xmlns="http://www.w3.org/2000/svg">
<path d="M28 1.3335V17.3335C27.9997 19.4317 27.4493 21.4931 26.4036 23.3121C25.358 25.1312 23.8536 26.6443 22.0407 27.7005C20.2278 28.7567 18.1696 29.3191 16.0714 29.3316C13.9733 29.3441 11.9086 28.8062 10.0832 27.7717C8.25778 26.7371 6.73555 25.242 5.66832 23.4356C4.60108 21.6291 4.02615 19.5744 4.00087 17.4764C3.97559 15.3783 4.50085 13.3104 5.52424 11.4787C6.54764 9.64704 8.0334 8.11572 9.83333 7.0375L18.6667 1.9375V5.63083L28 1.3335ZM25.3333 5.49616L16 9.79483V6.55483L11.4627 9.17483C10.0626 9.95359 8.8866 11.0796 8.0478 12.4445C7.209 13.8095 6.73566 15.3673 6.67333 16.9682L6.66667 17.3335C6.66547 19.7819 7.62644 22.1328 9.3424 23.8793C11.0584 25.6258 13.3919 26.628 15.84 26.67C18.288 26.712 20.6546 25.7903 22.4294 24.1037C24.2042 22.417 25.2452 20.1005 25.328 17.6535L25.3333 17.3335V5.49616ZM16 10.6668C17.7681 10.6668 19.4638 11.3692 20.714 12.6195C21.9643 13.8697 22.6667 15.5654 22.6667 17.3335C22.6667 19.1016 21.9643 20.7973 20.714 22.0475C19.4638 23.2978 17.7681 24.0002 16 24.0002C14.2319 24.0002 12.5362 23.2978 11.286 22.0475C10.0357 20.7973 9.33333 19.1016 9.33333 17.3335C9.33333 15.5654 10.0357 13.8697 11.286 12.6195C12.5362 11.3692 14.2319 10.6668 16 10.6668ZM16 13.3335C14.9391 13.3335 13.9217 13.7549 13.1716 14.5051C12.4214 15.2552 12 16.2726 12 17.3335C12 18.3944 12.4214 19.4118 13.1716 20.1619C13.9217 20.9121 14.9391 21.3335 16 21.3335C17.0609 21.3335 18.0783 20.9121 18.8284 20.1619C19.5786 19.4118 20 18.3944 20 17.3335C20 16.2726 19.5786 15.2552 18.8284 14.5051C18.0783 13.7549 17.0609 13.3335 16 13.3335Z" fill="black"/>
</svg>
