<svg width="24" height="24" viewBox="0 0 24 24" fill="none" xmlns="http://www.w3.org/2000/svg">
<path d="M7.04994 14.1209L4.92993 16.2429L7.75794 19.0709L19.0709 7.75695L16.2429 4.92995L14.1199 7.04995L15.5349 8.46395L14.1199 9.87995L12.7059 8.46495L11.2919 9.87995L12.7059 11.2939L11.2919 12.7079L9.87794 11.2939L8.46393 12.7079L9.87794 14.1219L8.46393 15.5369L7.04994 14.1209ZM16.9499 2.80795L21.1929 7.04995C21.3804 7.23747 21.4857 7.49178 21.4857 7.75695C21.4857 8.02211 21.3804 8.27642 21.1929 8.46395L8.46494 21.1919C8.37206 21.2849 8.26177 21.3587 8.14038 21.409C8.01898 21.4593 7.88885 21.4852 7.75744 21.4852C7.62602 21.4852 7.49589 21.4593 7.37449 21.409C7.2531 21.3587 7.14281 21.2849 7.04994 21.1919L2.80794 16.9499C2.62046 16.7624 2.51515 16.5081 2.51515 16.2429C2.51515 15.9778 2.62046 15.7235 2.80794 15.5359L15.5359 2.80795C15.7235 2.62048 15.9778 2.51516 16.2429 2.51516C16.5081 2.51516 16.7624 2.62048 16.9499 2.80795ZM14.1199 18.3629L15.5349 16.9489L17.7769 19.1919H19.1909V17.7779L16.9489 15.5349L18.3629 14.1209L20.9999 16.7559V20.9999H16.7579L14.1199 18.3629ZM5.63594 9.87795L2.80794 7.04995C2.71496 6.95707 2.6412 6.84679 2.59088 6.72539C2.54055 6.60399 2.51465 6.47386 2.51465 6.34245C2.51465 6.21103 2.54055 6.0809 2.59088 5.95951C2.6412 5.83811 2.71496 5.72782 2.80794 5.63495L5.63594 2.80695C5.82346 2.61948 6.07777 2.51416 6.34294 2.51416C6.6081 2.51416 6.86241 2.61948 7.04994 2.80695L9.87994 5.63495L8.46393 7.04995L6.34394 4.92795L4.92894 6.34295L7.04994 8.46295L5.63594 9.87795Z" fill="black"/>
</svg>
