<svg width="173" height="52" viewBox="0 0 173 52" fill="none" xmlns="http://www.w3.org/2000/svg">
<rect width="173" height="52" rx="26" fill="url(#paint0_linear_963_11688)"/>
<rect x="8" y="8" width="48" height="36" rx="18" fill="white" fill-opacity="0.12"/>
<rect x="9" y="9" width="46" height="34" rx="17" stroke="white" stroke-opacity="0.12" stroke-width="2"/>
<path d="M40 16C40.2652 16 40.5196 16.1054 40.7071 16.2929C40.8946 16.4804 41 16.7348 41 17V22C41 22.2652 40.8946 22.5196 40.7071 22.7071C40.5196 22.8946 40.2652 23 40 23H35V36C35 36.2652 34.8946 36.5196 34.7071 36.7071C34.5196 36.8946 34.2652 37 34 37H30C29.7348 37 29.4804 36.8946 29.2929 36.7071C29.1054 36.5196 29 36.2652 29 36V23H23.5C23.2348 23 22.9804 22.8946 22.7929 22.7071C22.6054 22.5196 22.5 22.2652 22.5 22V19.618C22.5001 19.4323 22.5519 19.2504 22.6496 19.0925C22.7472 18.9346 22.8869 18.807 23.053 18.724L28.5 16H40ZM35 18H28.972L24.5 20.236V21H31V35H33V21H35V18ZM39 18H37V21H39V18Z" fill="white"/>
<path d="M73.496 20.2V32H71.76V26.136L72.544 26.84H66.032L66.816 26.144V32H65.08V20.2H66.816V26.12L66.032 25.392H72.544L71.76 26.12V20.2H73.496ZM78.6581 32.168C78.0181 32.168 77.4555 32.0667 76.9701 31.864C76.4901 31.6613 76.1168 31.3707 75.8501 30.992C75.5835 30.6133 75.4501 30.1573 75.4501 29.624C75.4501 29.0533 75.5995 28.5813 75.8981 28.208C76.2021 27.8347 76.6181 27.5467 77.1461 27.344C77.6795 27.136 78.2848 27 78.9621 26.936C79.9701 26.8347 80.6795 26.736 81.0901 26.64C81.5061 26.544 81.7141 26.3867 81.7141 26.168C81.7141 26.1627 81.7141 26.1573 81.7141 26.152C81.7141 25.72 81.5301 25.392 81.1621 25.168C80.7941 24.944 80.2688 24.832 79.5861 24.832C78.8661 24.832 78.3088 24.96 77.9141 25.216C77.5248 25.4667 77.3301 25.8667 77.3301 26.416H75.6261C75.6261 25.7653 75.7941 25.2133 76.1301 24.76C76.4715 24.3067 76.9408 23.9627 77.5381 23.728C78.1355 23.488 78.8208 23.368 79.5941 23.368C80.3035 23.368 80.9488 23.4773 81.5301 23.696C82.1168 23.9093 82.5835 24.2293 82.9301 24.656C83.2768 25.0827 83.4501 25.6133 83.4501 26.248C83.4501 26.36 83.4501 26.472 83.4501 26.584C83.4501 26.6907 83.4501 26.8 83.4501 26.912V30.304C83.4501 30.5013 83.4581 30.6933 83.4741 30.88C83.4901 31.0613 83.5195 31.224 83.5621 31.368C83.6101 31.5333 83.6661 31.6693 83.7301 31.776C83.7995 31.8827 83.8555 31.9573 83.8981 32H82.1701C82.1381 31.968 82.0901 31.9013 82.0261 31.8C81.9675 31.6933 81.9141 31.5707 81.8661 31.432C81.8181 31.2987 81.7808 31.1467 81.7541 30.976C81.7328 30.8 81.7221 30.6107 81.7221 30.408L82.0421 30.632C81.8821 30.9413 81.6395 31.2107 81.3141 31.44C80.9941 31.6693 80.6075 31.848 80.1541 31.976C79.7061 32.104 79.2075 32.168 78.6581 32.168ZM79.0181 30.728C79.5141 30.728 79.9648 30.6507 80.3701 30.496C80.7808 30.336 81.1088 30.096 81.3541 29.776C81.5995 29.4507 81.7221 29.0427 81.7221 28.552V27.144L82.1301 27.68C81.7888 27.8133 81.3701 27.9227 80.8741 28.008C80.3835 28.088 79.8768 28.1547 79.3541 28.208C78.6341 28.272 78.0928 28.3973 77.7301 28.584C77.3675 28.7653 77.1861 29.0693 77.1861 29.496C77.1861 29.9067 77.3355 30.216 77.6341 30.424C77.9381 30.6267 78.3995 30.728 79.0181 30.728ZM86.8779 30.52H91.7739V32H84.9819V30.584L89.8059 24.928L89.8299 24.984H85.1659V23.504H91.6939V24.92L86.9019 30.56L86.8779 30.52ZM93.4881 32V23.504H95.2001V32H93.4881ZM97.4954 32V23.504H99.2314V26.216L98.7674 26.008C98.8047 25.6613 98.8927 25.3307 99.0314 25.016C99.17 24.7013 99.354 24.4213 99.5834 24.176C99.818 23.9253 100.106 23.728 100.447 23.584C100.789 23.44 101.183 23.368 101.631 23.368C101.973 23.368 102.247 23.3947 102.455 23.448C102.669 23.5013 102.799 23.544 102.847 23.576L102.479 25.208C102.426 25.1707 102.317 25.1227 102.151 25.064C101.991 25.0053 101.767 24.976 101.479 24.976C101.042 24.976 100.679 25.0533 100.391 25.208C100.103 25.3627 99.874 25.568 99.7034 25.824C99.5327 26.08 99.41 26.36 99.3354 26.664C99.266 26.9627 99.2314 27.264 99.2314 27.568V32H97.4954ZM106.077 19.496V32H104.365V19.496H106.077ZM111.346 32.168C110.706 32.168 110.143 32.0667 109.658 31.864C109.178 31.6613 108.804 31.3707 108.538 30.992C108.271 30.6133 108.138 30.1573 108.138 29.624C108.138 29.0533 108.287 28.5813 108.586 28.208C108.89 27.8347 109.306 27.5467 109.834 27.344C110.367 27.136 110.972 27 111.65 26.936C112.658 26.8347 113.367 26.736 113.778 26.64C114.194 26.544 114.402 26.3867 114.402 26.168C114.402 26.1627 114.402 26.1573 114.402 26.152C114.402 25.72 114.218 25.392 113.85 25.168C113.482 24.944 112.956 24.832 112.274 24.832C111.554 24.832 110.996 24.96 110.602 25.216C110.212 25.4667 110.018 25.8667 110.018 26.416H108.314C108.314 25.7653 108.482 25.2133 108.818 24.76C109.159 24.3067 109.628 23.9627 110.226 23.728C110.823 23.488 111.508 23.368 112.282 23.368C112.991 23.368 113.636 23.4773 114.218 23.696C114.804 23.9093 115.271 24.2293 115.618 24.656C115.964 25.0827 116.138 25.6133 116.138 26.248C116.138 26.36 116.138 26.472 116.138 26.584C116.138 26.6907 116.138 26.8 116.138 26.912V30.304C116.138 30.5013 116.146 30.6933 116.162 30.88C116.178 31.0613 116.207 31.224 116.25 31.368C116.298 31.5333 116.354 31.6693 116.418 31.776C116.487 31.8827 116.543 31.9573 116.586 32H114.858C114.826 31.968 114.778 31.9013 114.714 31.8C114.655 31.6933 114.602 31.5707 114.554 31.432C114.506 31.2987 114.468 31.1467 114.442 30.976C114.42 30.8 114.41 30.6107 114.41 30.408L114.73 30.632C114.57 30.9413 114.327 31.2107 114.002 31.44C113.682 31.6693 113.295 31.848 112.842 31.976C112.394 32.104 111.895 32.168 111.346 32.168ZM111.706 30.728C112.202 30.728 112.652 30.6507 113.058 30.496C113.468 30.336 113.796 30.096 114.042 29.776C114.287 29.4507 114.41 29.0427 114.41 28.552V27.144L114.818 27.68C114.476 27.8133 114.058 27.9227 113.562 28.008C113.071 28.088 112.564 28.1547 112.042 28.208C111.322 28.272 110.78 28.3973 110.418 28.584C110.055 28.7653 109.874 29.0693 109.874 29.496C109.874 29.9067 110.023 30.216 110.322 30.424C110.626 30.6267 111.087 30.728 111.706 30.728ZM124.293 32V28.08C124.293 27.8507 124.293 27.656 124.293 27.496C124.293 27.336 124.293 27.1867 124.293 27.048C124.293 26.632 124.229 26.2667 124.101 25.952C123.973 25.632 123.763 25.384 123.469 25.208C123.176 25.0267 122.784 24.936 122.293 24.936C121.861 24.936 121.469 25.0427 121.117 25.256C120.771 25.4693 120.493 25.76 120.285 26.128C120.083 26.4907 119.981 26.904 119.981 27.368L119.237 27C119.237 26.312 119.4 25.696 119.725 25.152C120.051 24.6027 120.485 24.168 121.029 23.848C121.579 23.528 122.179 23.368 122.829 23.368C123.501 23.368 124.075 23.4987 124.549 23.76C125.029 24.016 125.395 24.384 125.645 24.864C125.901 25.3387 126.029 25.9067 126.029 26.568C126.029 26.8133 126.029 27.0853 126.029 27.384C126.029 27.6827 126.029 27.9707 126.029 28.248V32H124.293ZM118.245 32V23.504H119.981V32H118.245ZM128.238 32V23.504H129.95V32H128.238ZM132.528 35.616C132.299 35.616 132.088 35.6027 131.896 35.576C131.71 35.5547 131.595 35.5333 131.552 35.512V34.096C131.622 34.128 131.736 34.1547 131.896 34.176C132.062 34.1973 132.232 34.208 132.408 34.208C132.723 34.208 132.992 34.144 133.216 34.016C133.446 33.888 133.638 33.7093 133.792 33.48C133.952 33.256 134.08 33 134.176 32.712L134.392 32.072L131.464 23.504H133.272L135.456 30.704H135.232L137.36 23.504H139.144L136.096 32.624C135.91 33.1947 135.68 33.704 135.408 34.152C135.136 34.6053 134.774 34.9627 134.32 35.224C133.867 35.4853 133.27 35.616 132.528 35.616ZM144.334 32.16C143.459 32.16 142.686 31.9707 142.014 31.592C141.347 31.2133 140.824 30.6933 140.446 30.032C140.072 29.3653 139.886 28.6027 139.886 27.744C139.886 26.8907 140.072 26.136 140.446 25.48C140.824 24.8187 141.347 24.304 142.014 23.936C142.686 23.5627 143.459 23.376 144.334 23.376C145.208 23.376 145.979 23.5627 146.646 23.936C147.318 24.304 147.84 24.8187 148.214 25.48C148.592 26.136 148.782 26.8907 148.782 27.744C148.782 28.6027 148.592 29.3653 148.214 30.032C147.84 30.6933 147.318 31.2133 146.646 31.592C145.979 31.9707 145.208 32.16 144.334 32.16ZM144.334 30.672C144.867 30.672 145.336 30.552 145.742 30.312C146.147 30.072 146.464 29.7333 146.694 29.296C146.923 28.8533 147.038 28.336 147.038 27.744C147.038 27.1573 146.923 26.648 146.694 26.216C146.464 25.784 146.147 25.4507 145.742 25.216C145.336 24.9813 144.867 24.864 144.334 24.864C143.806 24.864 143.336 24.9813 142.926 25.216C142.52 25.4507 142.203 25.784 141.974 26.216C141.744 26.648 141.63 27.1573 141.63 27.744C141.63 28.336 141.744 28.8533 141.974 29.296C142.203 29.7333 142.52 30.072 142.926 30.312C143.336 30.552 143.806 30.672 144.334 30.672ZM150.714 32V23.504H152.45V26.216L151.986 26.008C152.023 25.6613 152.111 25.3307 152.25 25.016C152.389 24.7013 152.573 24.4213 152.802 24.176C153.037 23.9253 153.325 23.728 153.666 23.584C154.007 23.44 154.402 23.368 154.85 23.368C155.191 23.368 155.466 23.3947 155.674 23.448C155.887 23.5013 156.018 23.544 156.066 23.576L155.698 25.208C155.645 25.1707 155.535 25.1227 155.37 25.064C155.21 25.0053 154.986 24.976 154.698 24.976C154.261 24.976 153.898 25.0533 153.61 25.208C153.322 25.3627 153.093 25.568 152.922 25.824C152.751 26.08 152.629 26.36 152.554 26.664C152.485 26.9627 152.45 27.264 152.45 27.568V32H150.714Z" fill="white"/>
<defs>
<linearGradient id="paint0_linear_963_11688" x1="0" y1="26" x2="173" y2="26" gradientUnits="userSpaceOnUse">
<stop stop-color="#2F3DDA"/>
<stop offset="1" stop-color="#1B2486"/>
</linearGradient>
</defs>
</svg>
