<svg width="175" height="52" viewBox="0 0 175 52" fill="none" xmlns="http://www.w3.org/2000/svg">
<rect width="175" height="52" rx="26" fill="#2F3DDA"/>
<rect x="8" y="8" width="48" height="36" rx="18" fill="white" fill-opacity="0.12"/>
<rect x="9" y="9" width="46" height="34" rx="17" stroke="white" stroke-opacity="0.12" stroke-width="2"/>
<path d="M29.9997 29.17L39.1917 19.979L40.6057 21.393L29.9997 31.999L23.6357 25.635L25.0497 24.221L29.9997 29.17Z" fill="white"/>
<path d="M72.384 21.64H68.808L69.352 20.728V32H67.616V20.728L68.216 21.64H64.592V20.2H72.384V21.64ZM75.7675 32.168C75.1275 32.168 74.5648 32.0667 74.0795 31.864C73.5995 31.6613 73.2262 31.3707 72.9595 30.992C72.6928 30.6133 72.5595 30.1573 72.5595 29.624C72.5595 29.0533 72.7088 28.5813 73.0075 28.208C73.3115 27.8347 73.7275 27.5467 74.2555 27.344C74.7888 27.136 75.3942 27 76.0715 26.936C77.0795 26.8347 77.7888 26.736 78.1995 26.64C78.6155 26.544 78.8235 26.3867 78.8235 26.168C78.8235 26.1627 78.8235 26.1573 78.8235 26.152C78.8235 25.72 78.6395 25.392 78.2715 25.168C77.9035 24.944 77.3782 24.832 76.6955 24.832C75.9755 24.832 75.4182 24.96 75.0235 25.216C74.6342 25.4667 74.4395 25.8667 74.4395 26.416H72.7355C72.7355 25.7653 72.9035 25.2133 73.2395 24.76C73.5808 24.3067 74.0502 23.9627 74.6475 23.728C75.2448 23.488 75.9302 23.368 76.7035 23.368C77.4128 23.368 78.0582 23.4773 78.6395 23.696C79.2262 23.9093 79.6928 24.2293 80.0395 24.656C80.3862 25.0827 80.5595 25.6133 80.5595 26.248C80.5595 26.36 80.5595 26.472 80.5595 26.584C80.5595 26.6907 80.5595 26.8 80.5595 26.912V30.304C80.5595 30.5013 80.5675 30.6933 80.5835 30.88C80.5995 31.0613 80.6288 31.224 80.6715 31.368C80.7195 31.5333 80.7755 31.6693 80.8395 31.776C80.9088 31.8827 80.9648 31.9573 81.0075 32H79.2795C79.2475 31.968 79.1995 31.9013 79.1355 31.8C79.0768 31.6933 79.0235 31.5707 78.9755 31.432C78.9275 31.2987 78.8902 31.1467 78.8635 30.976C78.8422 30.8 78.8315 30.6107 78.8315 30.408L79.1515 30.632C78.9915 30.9413 78.7488 31.2107 78.4235 31.44C78.1035 31.6693 77.7168 31.848 77.2635 31.976C76.8155 32.104 76.3168 32.168 75.7675 32.168ZM76.1275 30.728C76.6235 30.728 77.0742 30.6507 77.4795 30.496C77.8902 30.336 78.2182 30.096 78.4635 29.776C78.7088 29.4507 78.8315 29.0427 78.8315 28.552V27.144L79.2395 27.68C78.8982 27.8133 78.4795 27.9227 77.9835 28.008C77.4928 28.088 76.9862 28.1547 76.4635 28.208C75.7435 28.272 75.2022 28.3973 74.8395 28.584C74.4768 28.7653 74.2955 29.0693 74.2955 29.496C74.2955 29.9067 74.4448 30.216 74.7435 30.424C75.0475 30.6267 75.5088 30.728 76.1275 30.728ZM87.9233 32V28.4C87.9233 28.0747 87.9233 27.7947 87.9233 27.56C87.9233 27.32 87.9233 27.1173 87.9233 26.952C87.9233 26.744 87.9073 26.5227 87.8753 26.288C87.8486 26.0533 87.7846 25.8347 87.6833 25.632C87.5873 25.424 87.4353 25.256 87.2273 25.128C87.0193 25 86.7339 24.936 86.3713 24.936C86.0086 24.936 85.7019 25.008 85.4513 25.152C85.2006 25.296 84.9979 25.488 84.8433 25.728C84.6886 25.9627 84.5766 26.2267 84.5073 26.52C84.4379 26.808 84.4033 27.0987 84.4033 27.392L83.6673 26.992C83.6673 26.3253 83.7979 25.72 84.0593 25.176C84.3259 24.6267 84.6993 24.1893 85.1793 23.864C85.6646 23.5333 86.2353 23.368 86.8913 23.368C87.5579 23.368 88.0913 23.5067 88.4913 23.784C88.8966 24.056 89.1899 24.4293 89.3713 24.904C89.5526 25.3733 89.6433 25.9067 89.6433 26.504C89.6433 26.7227 89.6433 27.008 89.6433 27.36C89.6433 27.712 89.6433 28.12 89.6433 28.584V32H87.9233ZM82.6673 32V23.504H84.4033V32H82.6673ZM93.1553 32V28.408C93.1553 28.056 93.1553 27.7627 93.1553 27.528C93.1553 27.288 93.1553 27.088 93.1553 26.928C93.1553 26.7093 93.1419 26.4853 93.1153 26.256C93.0886 26.0213 93.0246 25.8053 92.9233 25.608C92.8219 25.4107 92.6646 25.2507 92.4513 25.128C92.2433 25 91.9526 24.936 91.5793 24.936C91.2113 24.936 90.9019 25.008 90.6513 25.152C90.4059 25.2907 90.2086 25.4773 90.0593 25.712C89.9099 25.9413 89.8033 26.1947 89.7393 26.472C89.6753 26.7493 89.6433 27.024 89.6433 27.296L88.9073 26.912C88.9073 26.272 89.0353 25.6827 89.2913 25.144C89.5526 24.6053 89.9206 24.176 90.3953 23.856C90.8753 23.5307 91.4433 23.368 92.0993 23.368C92.7393 23.368 93.2646 23.496 93.6753 23.752C94.0859 24.008 94.3899 24.3627 94.5873 24.816C94.7846 25.2693 94.8833 25.7947 94.8833 26.392C94.8833 26.6213 94.8833 26.9093 94.8833 27.256C94.8833 27.6027 94.8833 28.0053 94.8833 28.464V32H93.1553ZM100.033 32.168C99.3931 32.168 98.8305 32.0667 98.3451 31.864C97.8651 31.6613 97.4918 31.3707 97.2251 30.992C96.9585 30.6133 96.8251 30.1573 96.8251 29.624C96.8251 29.0533 96.9745 28.5813 97.2731 28.208C97.5771 27.8347 97.9931 27.5467 98.5211 27.344C99.0545 27.136 99.6598 27 100.337 26.936C101.345 26.8347 102.054 26.736 102.465 26.64C102.881 26.544 103.089 26.3867 103.089 26.168C103.089 26.1627 103.089 26.1573 103.089 26.152C103.089 25.72 102.905 25.392 102.537 25.168C102.169 24.944 101.644 24.832 100.961 24.832C100.241 24.832 99.6838 24.96 99.2891 25.216C98.8998 25.4667 98.7051 25.8667 98.7051 26.416H97.0011C97.0011 25.7653 97.1691 25.2133 97.5051 24.76C97.8465 24.3067 98.3158 23.9627 98.9131 23.728C99.5105 23.488 100.196 23.368 100.969 23.368C101.678 23.368 102.324 23.4773 102.905 23.696C103.492 23.9093 103.958 24.2293 104.305 24.656C104.652 25.0827 104.825 25.6133 104.825 26.248C104.825 26.36 104.825 26.472 104.825 26.584C104.825 26.6907 104.825 26.8 104.825 26.912V30.304C104.825 30.5013 104.833 30.6933 104.849 30.88C104.865 31.0613 104.894 31.224 104.937 31.368C104.985 31.5333 105.041 31.6693 105.105 31.776C105.174 31.8827 105.23 31.9573 105.273 32H103.545C103.513 31.968 103.465 31.9013 103.401 31.8C103.342 31.6933 103.289 31.5707 103.241 31.432C103.193 31.2987 103.156 31.1467 103.129 30.976C103.108 30.8 103.097 30.6107 103.097 30.408L103.417 30.632C103.257 30.9413 103.014 31.2107 102.689 31.44C102.369 31.6693 101.982 31.848 101.529 31.976C101.081 32.104 100.582 32.168 100.033 32.168ZM100.393 30.728C100.889 30.728 101.34 30.6507 101.745 30.496C102.156 30.336 102.484 30.096 102.729 29.776C102.974 29.4507 103.097 29.0427 103.097 28.552V27.144L103.505 27.68C103.164 27.8133 102.745 27.9227 102.249 28.008C101.758 28.088 101.252 28.1547 100.729 28.208C100.009 28.272 99.4678 28.3973 99.1051 28.584C98.7425 28.7653 98.5611 29.0693 98.5611 29.496C98.5611 29.9067 98.7105 30.216 99.0091 30.424C99.3131 30.6267 99.7745 30.728 100.393 30.728ZM112.189 32V28.4C112.189 28.0747 112.189 27.7947 112.189 27.56C112.189 27.32 112.189 27.1173 112.189 26.952C112.189 26.744 112.173 26.5227 112.141 26.288C112.114 26.0533 112.05 25.8347 111.949 25.632C111.853 25.424 111.701 25.256 111.493 25.128C111.285 25 111 24.936 110.637 24.936C110.274 24.936 109.968 25.008 109.717 25.152C109.466 25.296 109.264 25.488 109.109 25.728C108.954 25.9627 108.842 26.2267 108.773 26.52C108.704 26.808 108.669 27.0987 108.669 27.392L107.933 26.992C107.933 26.3253 108.064 25.72 108.325 25.176C108.592 24.6267 108.965 24.1893 109.445 23.864C109.93 23.5333 110.501 23.368 111.157 23.368C111.824 23.368 112.357 23.5067 112.757 23.784C113.162 24.056 113.456 24.4293 113.637 24.904C113.818 25.3733 113.909 25.9067 113.909 26.504C113.909 26.7227 113.909 27.008 113.909 27.36C113.909 27.712 113.909 28.12 113.909 28.584V32H112.189ZM106.933 32V23.504H108.669V32H106.933ZM117.421 32V28.408C117.421 28.056 117.421 27.7627 117.421 27.528C117.421 27.288 117.421 27.088 117.421 26.928C117.421 26.7093 117.408 26.4853 117.381 26.256C117.354 26.0213 117.29 25.8053 117.189 25.608C117.088 25.4107 116.93 25.2507 116.717 25.128C116.509 25 116.218 24.936 115.845 24.936C115.477 24.936 115.168 25.008 114.917 25.152C114.672 25.2907 114.474 25.4773 114.325 25.712C114.176 25.9413 114.069 26.1947 114.005 26.472C113.941 26.7493 113.909 27.024 113.909 27.296L113.173 26.912C113.173 26.272 113.301 25.6827 113.557 25.144C113.818 24.6053 114.186 24.176 114.661 23.856C115.141 23.5307 115.709 23.368 116.365 23.368C117.005 23.368 117.53 23.496 117.941 23.752C118.352 24.008 118.656 24.3627 118.853 24.816C119.05 25.2693 119.149 25.7947 119.149 26.392C119.149 26.6213 119.149 26.9093 119.149 27.256C119.149 27.6027 119.149 28.0053 119.149 28.464V32H117.421ZM123.187 19.496V32H121.475V19.496H123.187ZM128.455 32.168C127.815 32.168 127.252 32.0667 126.767 31.864C126.287 31.6613 125.914 31.3707 125.647 30.992C125.38 30.6133 125.247 30.1573 125.247 29.624C125.247 29.0533 125.396 28.5813 125.695 28.208C125.999 27.8347 126.415 27.5467 126.943 27.344C127.476 27.136 128.082 27 128.759 26.936C129.767 26.8347 130.476 26.736 130.887 26.64C131.303 26.544 131.511 26.3867 131.511 26.168C131.511 26.1627 131.511 26.1573 131.511 26.152C131.511 25.72 131.327 25.392 130.959 25.168C130.591 24.944 130.066 24.832 129.383 24.832C128.663 24.832 128.106 24.96 127.711 25.216C127.322 25.4667 127.127 25.8667 127.127 26.416H125.423C125.423 25.7653 125.591 25.2133 125.927 24.76C126.268 24.3067 126.738 23.9627 127.335 23.728C127.932 23.488 128.618 23.368 129.391 23.368C130.1 23.368 130.746 23.4773 131.327 23.696C131.914 23.9093 132.38 24.2293 132.727 24.656C133.074 25.0827 133.247 25.6133 133.247 26.248C133.247 26.36 133.247 26.472 133.247 26.584C133.247 26.6907 133.247 26.8 133.247 26.912V30.304C133.247 30.5013 133.255 30.6933 133.271 30.88C133.287 31.0613 133.316 31.224 133.359 31.368C133.407 31.5333 133.463 31.6693 133.527 31.776C133.596 31.8827 133.652 31.9573 133.695 32H131.967C131.935 31.968 131.887 31.9013 131.823 31.8C131.764 31.6933 131.711 31.5707 131.663 31.432C131.615 31.2987 131.578 31.1467 131.551 30.976C131.53 30.8 131.519 30.6107 131.519 30.408L131.839 30.632C131.679 30.9413 131.436 31.2107 131.111 31.44C130.791 31.6693 130.404 31.848 129.951 31.976C129.503 32.104 129.004 32.168 128.455 32.168ZM128.815 30.728C129.311 30.728 129.762 30.6507 130.167 30.496C130.578 30.336 130.906 30.096 131.151 29.776C131.396 29.4507 131.519 29.0427 131.519 28.552V27.144L131.927 27.68C131.586 27.8133 131.167 27.9227 130.671 28.008C130.18 28.088 129.674 28.1547 129.151 28.208C128.431 28.272 127.89 28.3973 127.527 28.584C127.164 28.7653 126.983 29.0693 126.983 29.496C126.983 29.9067 127.132 30.216 127.431 30.424C127.735 30.6267 128.196 30.728 128.815 30.728ZM141.403 32V28.08C141.403 27.8507 141.403 27.656 141.403 27.496C141.403 27.336 141.403 27.1867 141.403 27.048C141.403 26.632 141.339 26.2667 141.211 25.952C141.083 25.632 140.872 25.384 140.579 25.208C140.285 25.0267 139.893 24.936 139.403 24.936C138.971 24.936 138.579 25.0427 138.227 25.256C137.88 25.4693 137.603 25.76 137.395 26.128C137.192 26.4907 137.091 26.904 137.091 27.368L136.347 27C136.347 26.312 136.509 25.696 136.835 25.152C137.16 24.6027 137.595 24.168 138.139 23.848C138.688 23.528 139.288 23.368 139.939 23.368C140.611 23.368 141.184 23.4987 141.659 23.76C142.139 24.016 142.504 24.384 142.755 24.864C143.011 25.3387 143.139 25.9067 143.139 26.568C143.139 26.8133 143.139 27.0853 143.139 27.384C143.139 27.6827 143.139 27.9707 143.139 28.248V32H141.403ZM135.355 32V23.504H137.091V32H135.355ZM148.844 32.168C148.145 32.168 147.502 32 146.916 31.664C146.329 31.3227 145.86 30.8213 145.508 30.16C145.156 29.4987 144.98 28.6907 144.98 27.736C144.98 26.8027 145.158 26.0107 145.516 25.36C145.873 24.7093 146.345 24.216 146.932 23.88C147.518 23.5387 148.156 23.368 148.844 23.368C149.505 23.368 150.118 23.528 150.684 23.848C151.254 24.168 151.713 24.6133 152.06 25.184C152.406 25.7493 152.58 26.4027 152.58 27.144C152.58 27.1653 152.58 27.1867 152.58 27.208C152.58 27.224 152.58 27.24 152.58 27.256L151.572 27.288C151.572 27.272 151.572 27.256 151.572 27.24C151.572 27.2187 151.572 27.2 151.572 27.184C151.572 26.7413 151.46 26.3493 151.236 26.008C151.012 25.6613 150.716 25.3893 150.348 25.192C149.985 24.9893 149.598 24.888 149.188 24.888C148.5 24.888 147.924 25.12 147.46 25.584C146.996 26.0427 146.764 26.76 146.764 27.736C146.764 28.7067 146.996 29.4267 147.46 29.896C147.929 30.36 148.505 30.592 149.188 30.592C149.614 30.592 150.009 30.4907 150.372 30.288C150.734 30.08 151.025 29.7973 151.244 29.44C151.462 29.0827 151.572 28.6747 151.572 28.216L152.58 28.256C152.58 28.992 152.412 29.656 152.076 30.248C151.745 30.84 151.297 31.3093 150.732 31.656C150.172 31.9973 149.542 32.168 148.844 32.168ZM151.572 32V19.496H153.316V32H151.572ZM155.566 32V23.504H157.278V32H155.566Z" fill="white"/>
</svg>
