<svg width="189" height="60" viewBox="0 0 189 60" fill="none" xmlns="http://www.w3.org/2000/svg">
<rect x="2" y="2" width="185" height="56" rx="28" fill="#F7F7F7"/>
<rect x="2" y="2" width="185" height="56" rx="28" stroke="white" stroke-width="4"/>
<rect x="12" y="12" width="48" height="36" rx="18" fill="black" fill-opacity="0.04"/>
<rect x="13" y="13" width="46" height="34" rx="17" stroke="black" stroke-opacity="0.04" stroke-width="2"/>
<path d="M44.005 40H28.005C27.7398 40 27.4854 39.8946 27.2979 39.7071C27.1104 39.5196 27.005 39.2652 27.005 39V21C27.005 20.7348 27.1104 20.4804 27.2979 20.2929C27.4854 20.1054 27.7398 20 28.005 20H44.005C44.2702 20 44.5246 20.1054 44.7121 20.2929C44.8996 20.4804 45.005 20.7348 45.005 21V39C45.005 39.2652 44.8996 39.5196 44.7121 39.7071C44.5246 39.8946 44.2702 40 44.005 40ZM43.005 38V22H29.005V38H43.005ZM33.005 24V26C33.005 26.7956 33.3211 27.5587 33.8837 28.1213C34.4463 28.6839 35.2094 29 36.005 29C36.8007 29 37.5637 28.6839 38.1263 28.1213C38.6889 27.5587 39.005 26.7956 39.005 26V24H41.005V26C41.005 27.3261 40.4782 28.5979 39.5405 29.5355C38.6029 30.4732 37.3311 31 36.005 31C34.6789 31 33.4072 30.4732 32.4695 29.5355C31.5318 28.5979 31.005 27.3261 31.005 26V24H33.005Z" fill="black"/>
<path d="M72.792 36.168C71.96 36.168 71.2427 36.0373 70.64 35.776C70.0427 35.5147 69.5787 35.12 69.248 34.592C68.9227 34.0587 68.76 33.4 68.76 32.616C68.76 32.5147 68.76 32.4267 68.76 32.352C68.76 32.2773 68.76 32.192 68.76 32.096H70.496C70.496 32.1867 70.496 32.2667 70.496 32.336C70.496 32.4 70.496 32.4827 70.496 32.584C70.496 33.3093 70.6907 33.8427 71.08 34.184C71.4693 34.52 72.0373 34.688 72.784 34.688C73.5467 34.688 74.128 34.56 74.528 34.304C74.928 34.0427 75.128 33.624 75.128 33.048C75.128 32.6373 75.0027 32.2933 74.752 32.016C74.5067 31.7333 74.1653 31.4907 73.728 31.288C73.296 31.0853 72.7973 30.896 72.232 30.72C71.5973 30.5227 71.024 30.272 70.512 29.968C70 29.6587 69.592 29.2747 69.288 28.816C68.9893 28.352 68.84 27.7867 68.84 27.12C68.84 26.464 69.0053 25.9067 69.336 25.448C69.6667 24.9893 70.1253 24.6427 70.712 24.408C71.2987 24.168 71.9707 24.048 72.728 24.048C73.5333 24.048 74.2347 24.1733 74.832 24.424C75.4347 24.6693 75.9013 25.0427 76.232 25.544C76.568 26.04 76.736 26.6667 76.736 27.424C76.736 27.5307 76.736 27.624 76.736 27.704C76.736 27.7787 76.736 27.872 76.736 27.984H74.992C74.992 27.8933 74.992 27.8107 74.992 27.736C74.992 27.6613 74.992 27.5813 74.992 27.496C74.992 26.8027 74.8027 26.3013 74.424 25.992C74.0507 25.6827 73.496 25.528 72.76 25.528C72.0453 25.528 71.4933 25.6533 71.104 25.904C70.72 26.1547 70.528 26.56 70.528 27.12C70.528 27.536 70.6507 27.8827 70.896 28.16C71.1467 28.4373 71.488 28.6747 71.92 28.872C72.3573 29.0693 72.8533 29.2613 73.408 29.448C74.112 29.6827 74.7173 29.9467 75.224 30.24C75.736 30.5333 76.1307 30.8987 76.408 31.336C76.6853 31.7733 76.824 32.3253 76.824 32.992C76.824 33.664 76.6587 34.2373 76.328 34.712C75.9973 35.1867 75.5307 35.5493 74.928 35.8C74.3253 36.0453 73.6133 36.168 72.792 36.168ZM78.7381 36V27.504H80.4501V36H78.7381ZM79.6021 25.744C79.3035 25.744 79.0448 25.664 78.8261 25.504C78.6128 25.3387 78.5061 25.112 78.5061 24.824C78.5061 24.5413 78.6128 24.32 78.8261 24.16C79.0448 23.9947 79.3035 23.912 79.6021 23.912C79.8955 23.912 80.1488 23.9947 80.3621 24.16C80.5808 24.32 80.6901 24.5413 80.6901 24.824C80.6901 25.112 80.5808 25.3387 80.3621 25.504C80.1488 25.664 79.8955 25.744 79.6021 25.744ZM82.761 39.496V27.504H84.497V39.496H82.761ZM87.233 36.168C86.5717 36.168 85.9583 36.0027 85.393 35.672C84.8277 35.336 84.369 34.8773 84.017 34.296C83.6703 33.7147 83.497 33.056 83.497 32.32C83.497 32.2987 83.497 32.2827 83.497 32.272C83.497 32.256 83.497 32.24 83.497 32.224L84.505 32.2C84.505 32.2107 84.505 32.224 84.505 32.24C84.505 32.2507 84.505 32.264 84.505 32.28C84.505 32.7173 84.617 33.112 84.841 33.464C85.0703 33.8107 85.3663 34.0853 85.729 34.288C86.0917 34.4907 86.481 34.592 86.897 34.592C87.5797 34.592 88.153 34.36 88.617 33.896C89.0863 33.4267 89.321 32.7067 89.321 31.736C89.321 30.76 89.089 30.0427 88.625 29.584C88.161 29.12 87.585 28.888 86.897 28.888C86.481 28.888 86.0917 28.9893 85.729 29.192C85.3663 29.3893 85.0703 29.6613 84.841 30.008C84.617 30.3493 84.505 30.7413 84.505 31.184L83.497 31.144C83.497 30.4027 83.6703 29.7493 84.017 29.184C84.369 28.6133 84.8277 28.168 85.393 27.848C85.9583 27.528 86.5717 27.368 87.233 27.368C87.921 27.368 88.5583 27.5387 89.145 27.88C89.7317 28.216 90.2037 28.7093 90.561 29.36C90.9237 30.0107 91.105 30.8027 91.105 31.736C91.105 32.6907 90.929 33.4987 90.577 34.16C90.225 34.8213 89.7557 35.3227 89.169 35.664C88.5823 36 87.937 36.168 87.233 36.168ZM95.9706 36.168C95.3306 36.168 94.768 36.0667 94.2826 35.864C93.8026 35.6613 93.4293 35.3707 93.1626 34.992C92.896 34.6133 92.7626 34.1573 92.7626 33.624C92.7626 33.0533 92.912 32.5813 93.2106 32.208C93.5146 31.8347 93.9306 31.5467 94.4586 31.344C94.992 31.136 95.5973 31 96.2746 30.936C97.2826 30.8347 97.992 30.736 98.4026 30.64C98.8186 30.544 99.0266 30.3867 99.0266 30.168C99.0266 30.1627 99.0266 30.1573 99.0266 30.152C99.0266 29.72 98.8426 29.392 98.4746 29.168C98.1066 28.944 97.5813 28.832 96.8986 28.832C96.1786 28.832 95.6213 28.96 95.2266 29.216C94.8373 29.4667 94.6426 29.8667 94.6426 30.416H92.9386C92.9386 29.7653 93.1066 29.2133 93.4426 28.76C93.784 28.3067 94.2533 27.9627 94.8506 27.728C95.448 27.488 96.1333 27.368 96.9066 27.368C97.616 27.368 98.2613 27.4773 98.8426 27.696C99.4293 27.9093 99.896 28.2293 100.243 28.656C100.589 29.0827 100.763 29.6133 100.763 30.248C100.763 30.36 100.763 30.472 100.763 30.584C100.763 30.6907 100.763 30.8 100.763 30.912V34.304C100.763 34.5013 100.771 34.6933 100.787 34.88C100.803 35.0613 100.832 35.224 100.875 35.368C100.923 35.5333 100.979 35.6693 101.043 35.776C101.112 35.8827 101.168 35.9573 101.211 36H99.4826C99.4506 35.968 99.4026 35.9013 99.3386 35.8C99.28 35.6933 99.2266 35.5707 99.1786 35.432C99.1306 35.2987 99.0933 35.1467 99.0666 34.976C99.0453 34.8 99.0346 34.6107 99.0346 34.408L99.3546 34.632C99.1946 34.9413 98.952 35.2107 98.6266 35.44C98.3066 35.6693 97.92 35.848 97.4666 35.976C97.0186 36.104 96.52 36.168 95.9706 36.168ZM96.3306 34.728C96.8266 34.728 97.2773 34.6507 97.6826 34.496C98.0933 34.336 98.4213 34.096 98.6666 33.776C98.912 33.4507 99.0346 33.0427 99.0346 32.552V31.144L99.4426 31.68C99.1013 31.8133 98.6826 31.9227 98.1866 32.008C97.696 32.088 97.1893 32.1547 96.6666 32.208C95.9466 32.272 95.4053 32.3973 95.0426 32.584C94.68 32.7653 94.4986 33.0693 94.4986 33.496C94.4986 33.9067 94.648 34.216 94.9466 34.424C95.2506 34.6267 95.712 34.728 96.3306 34.728ZM102.87 36V27.504H104.606V30.216L104.142 30.008C104.18 29.6613 104.268 29.3307 104.406 29.016C104.545 28.7013 104.729 28.4213 104.958 28.176C105.193 27.9253 105.481 27.728 105.822 27.584C106.164 27.44 106.558 27.368 107.006 27.368C107.348 27.368 107.622 27.3947 107.83 27.448C108.044 27.5013 108.174 27.544 108.222 27.576L107.854 29.208C107.801 29.1707 107.692 29.1227 107.526 29.064C107.366 29.0053 107.142 28.976 106.854 28.976C106.417 28.976 106.054 29.0533 105.766 29.208C105.478 29.3627 105.249 29.568 105.078 29.824C104.908 30.08 104.785 30.36 104.71 30.664C104.641 30.9627 104.606 31.264 104.606 31.568V36H102.87ZM109.644 36V27.504H111.356V36H109.644ZM110.508 25.744C110.21 25.744 109.951 25.664 109.732 25.504C109.519 25.3387 109.412 25.112 109.412 24.824C109.412 24.5413 109.519 24.32 109.732 24.16C109.951 23.9947 110.21 23.912 110.508 23.912C110.802 23.912 111.055 23.9947 111.268 24.16C111.487 24.32 111.596 24.5413 111.596 24.824C111.596 25.112 111.487 25.3387 111.268 25.504C111.055 25.664 110.802 25.744 110.508 25.744ZM117.787 36.848C117.969 36.848 118.145 36.888 118.315 36.968C118.491 37.0533 118.635 37.1813 118.747 37.352C118.865 37.528 118.923 37.7547 118.923 38.032C118.923 38.368 118.827 38.6427 118.635 38.856C118.449 39.0693 118.203 39.2293 117.899 39.336C117.601 39.4427 117.281 39.496 116.939 39.496C116.63 39.496 116.331 39.4587 116.043 39.384C115.761 39.3093 115.566 39.2347 115.459 39.16L115.819 38.48C115.905 38.5333 116.054 38.6 116.267 38.68C116.486 38.76 116.731 38.8 117.003 38.8C117.318 38.8 117.582 38.7307 117.795 38.592C118.009 38.4587 118.115 38.2613 118.115 38C118.115 37.792 118.057 37.64 117.939 37.544C117.827 37.448 117.686 37.4 117.515 37.4C117.382 37.4 117.246 37.4267 117.107 37.48C116.969 37.5333 116.862 37.6053 116.787 37.696L116.067 37.488L116.627 36.12H117.459L116.971 37.328L116.771 37.288C116.825 37.1707 116.95 37.0667 117.147 36.976C117.35 36.8907 117.563 36.848 117.787 36.848ZM117.011 36.168C116.505 36.168 116.027 36.112 115.579 36C115.131 35.888 114.737 35.7253 114.395 35.512C114.059 35.2933 113.795 35.024 113.603 34.704C113.417 34.384 113.323 34.0133 113.323 33.592C113.323 33.5547 113.323 33.5173 113.323 33.48C113.323 33.4373 113.323 33.4027 113.323 33.376H115.051C115.051 33.4027 115.051 33.4267 115.051 33.448C115.051 33.4693 115.051 33.4987 115.051 33.536C115.051 33.9253 115.23 34.2213 115.587 34.424C115.95 34.6213 116.441 34.72 117.059 34.72C117.422 34.72 117.753 34.6827 118.051 34.608C118.355 34.5333 118.595 34.4187 118.771 34.264C118.953 34.1093 119.043 33.912 119.043 33.672C119.043 33.2827 118.851 33.0053 118.467 32.84C118.089 32.6747 117.513 32.528 116.739 32.4C116.318 32.3253 115.91 32.2293 115.515 32.112C115.126 31.9947 114.774 31.84 114.459 31.648C114.15 31.4507 113.902 31.208 113.715 30.92C113.534 30.6267 113.443 30.2747 113.443 29.864C113.443 29.3307 113.603 28.8773 113.923 28.504C114.243 28.1307 114.675 27.848 115.219 27.656C115.763 27.464 116.363 27.368 117.019 27.368C117.654 27.368 118.241 27.472 118.779 27.68C119.323 27.8827 119.761 28.1787 120.091 28.568C120.422 28.952 120.587 29.424 120.587 29.984C120.587 30.0053 120.587 30.0293 120.587 30.056C120.587 30.0827 120.587 30.1067 120.587 30.128H118.867C118.867 30.1067 118.867 30.088 118.867 30.072C118.867 30.056 118.867 30.0373 118.867 30.016C118.867 29.7387 118.779 29.512 118.603 29.336C118.427 29.16 118.198 29.0293 117.915 28.944C117.638 28.8533 117.342 28.808 117.027 28.808C116.739 28.808 116.449 28.84 116.155 28.904C115.867 28.9627 115.627 29.0667 115.435 29.216C115.243 29.36 115.147 29.5573 115.147 29.808C115.147 30.064 115.241 30.2693 115.427 30.424C115.614 30.5733 115.878 30.6987 116.219 30.8C116.561 30.896 116.958 30.984 117.411 31.064C117.827 31.1387 118.233 31.2347 118.627 31.352C119.022 31.464 119.377 31.6133 119.691 31.8C120.011 31.9867 120.265 32.2267 120.451 32.52C120.643 32.8133 120.739 33.1733 120.739 33.6C120.739 34.0427 120.638 34.424 120.435 34.744C120.233 35.064 119.955 35.3307 119.603 35.544C119.257 35.752 118.859 35.9067 118.411 36.008C117.969 36.1147 117.502 36.168 117.011 36.168ZM126.06 36L129.212 24.176H131.94L135.06 36H133.276L130.564 25.272H130.58L127.852 36H126.06ZM127.884 33V31.56H133.26V33H127.884ZM138.593 23.496V36H136.881V23.496H138.593ZM140.941 36V27.504H142.653V36H140.941ZM150.997 36V32.08C150.997 31.8507 150.997 31.656 150.997 31.496C150.997 31.336 150.997 31.1867 150.997 31.048C150.997 30.632 150.933 30.2667 150.805 29.952C150.677 29.632 150.466 29.384 150.173 29.208C149.879 29.0267 149.487 28.936 148.997 28.936C148.565 28.936 148.173 29.0427 147.821 29.256C147.474 29.4693 147.197 29.76 146.989 30.128C146.786 30.4907 146.685 30.904 146.685 31.368L145.941 31C145.941 30.312 146.103 29.696 146.429 29.152C146.754 28.6027 147.189 28.168 147.733 27.848C148.282 27.528 148.882 27.368 149.533 27.368C150.205 27.368 150.778 27.4987 151.253 27.76C151.733 28.016 152.098 28.384 152.349 28.864C152.605 29.3387 152.733 29.9067 152.733 30.568C152.733 30.8133 152.733 31.0853 152.733 31.384C152.733 31.6827 152.733 31.9707 152.733 32.248V36H150.997ZM144.949 36V27.504H146.685V36H144.949ZM158.437 36.168C157.739 36.168 157.096 36 156.509 35.664C155.923 35.3227 155.453 34.8213 155.101 34.16C154.749 33.4987 154.573 32.6907 154.573 31.736C154.573 30.8027 154.752 30.0107 155.109 29.36C155.467 28.7093 155.939 28.216 156.525 27.88C157.112 27.5387 157.749 27.368 158.437 27.368C159.099 27.368 159.712 27.528 160.277 27.848C160.848 28.168 161.307 28.6133 161.653 29.184C162 29.7493 162.173 30.4027 162.173 31.144C162.173 31.1653 162.173 31.1867 162.173 31.208C162.173 31.224 162.173 31.24 162.173 31.256L161.165 31.288C161.165 31.272 161.165 31.256 161.165 31.24C161.165 31.2187 161.165 31.2 161.165 31.184C161.165 30.7413 161.053 30.3493 160.829 30.008C160.605 29.6613 160.309 29.3893 159.941 29.192C159.579 28.9893 159.192 28.888 158.781 28.888C158.093 28.888 157.517 29.12 157.053 29.584C156.589 30.0427 156.357 30.76 156.357 31.736C156.357 32.7067 156.589 33.4267 157.053 33.896C157.523 34.36 158.099 34.592 158.781 34.592C159.208 34.592 159.603 34.4907 159.965 34.288C160.328 34.08 160.619 33.7973 160.837 33.44C161.056 33.0827 161.165 32.6747 161.165 32.216L162.173 32.256C162.173 32.992 162.005 33.656 161.669 34.248C161.339 34.84 160.891 35.3093 160.325 35.656C159.765 35.9973 159.136 36.168 158.437 36.168ZM161.165 36V23.496H162.909V36H161.165ZM165.16 36V27.504H166.872V36H165.16Z" fill="black"/>
</svg>
