<svg width="224" height="52" viewBox="0 0 224 52" fill="none" xmlns="http://www.w3.org/2000/svg">
<rect width="224" height="52" rx="26" fill="black"/>
<rect x="8" y="8" width="48" height="36" rx="18" fill="white" fill-opacity="0.12"/>
<rect x="9" y="9" width="46" height="34" rx="17" stroke="white" stroke-opacity="0.12" stroke-width="2"/>
<path d="M26 18H24V16H40V18H38V20C38 21.615 37.184 22.915 36.156 23.977C35.453 24.703 34.598 25.372 33.731 26C34.598 26.628 35.453 27.297 36.156 28.023C37.184 29.085 38 30.385 38 32V34H40V36H24V34H26V32C26 30.385 26.816 29.085 27.844 28.023C28.547 27.297 29.402 26.628 30.269 26C29.402 25.372 28.547 24.703 27.844 23.977C26.816 22.915 26 21.615 26 20V18ZM28 18V20C28 20.885 28.434 21.71 29.281 22.586C30.008 23.337 30.955 24.04 32 24.778C33.045 24.04 33.992 23.337 34.719 22.586C35.566 21.71 36 20.885 36 20V18H28ZM32 27.222C30.955 27.96 30.008 28.663 29.281 29.414C28.434 30.29 28 31.115 28 32V34H36V32C36 31.115 35.566 30.29 34.719 29.414C33.992 28.663 33.045 27.96 32 27.222Z" fill="white"/>
<path d="M69.672 32.168C68.968 32.168 68.3173 32.0347 67.72 31.768C67.128 31.496 66.608 31.1013 66.16 30.584C65.7173 30.0613 65.3733 29.424 65.128 28.672C64.8827 27.9147 64.76 27.0533 64.76 26.088C64.76 25.1173 64.8827 24.2587 65.128 23.512C65.3733 22.76 65.7173 22.128 66.16 21.616C66.608 21.0987 67.1307 20.7093 67.728 20.448C68.3253 20.1813 68.9733 20.048 69.672 20.048C70.376 20.048 71.0267 20.1813 71.624 20.448C72.2267 20.7093 72.7493 21.0987 73.192 21.616C73.6347 22.128 73.9787 22.76 74.224 23.512C74.4693 24.2587 74.592 25.1173 74.592 26.088C74.592 27.0533 74.4693 27.9147 74.224 28.672C73.9787 29.424 73.632 30.0613 73.184 30.584C72.7413 31.1013 72.2213 31.496 71.624 31.768C71.0267 32.0347 70.376 32.168 69.672 32.168ZM69.672 30.688C70.2747 30.688 70.8133 30.5227 71.288 30.192C71.768 29.8613 72.144 29.3573 72.416 28.68C72.688 27.9973 72.824 27.1333 72.824 26.088C72.824 25.0373 72.6853 24.176 72.408 23.504C72.136 22.832 71.7627 22.336 71.288 22.016C70.8133 21.696 70.2747 21.536 69.672 21.536C69.08 21.536 68.544 21.696 68.064 22.016C67.5893 22.336 67.2133 22.832 66.936 23.504C66.6587 24.176 66.52 25.0373 66.52 26.088C66.52 27.1387 66.6587 28.0053 66.936 28.688C67.2133 29.3653 67.5893 29.8693 68.064 30.2C68.544 30.5253 69.08 30.688 69.672 30.688ZM68 19.56C67.728 19.56 67.4907 19.4853 67.288 19.336C67.0853 19.1867 66.984 18.9787 66.984 18.712C66.984 18.4453 67.0853 18.2373 67.288 18.088C67.4907 17.9387 67.728 17.864 68 17.864C68.272 17.864 68.5067 17.9387 68.704 18.088C68.9067 18.2373 69.008 18.4453 69.008 18.712C69.008 18.9787 68.9067 19.1867 68.704 19.336C68.5067 19.4853 68.272 19.56 68 19.56ZM71.36 19.56C71.088 19.56 70.8507 19.4853 70.648 19.336C70.4507 19.1867 70.352 18.9787 70.352 18.712C70.352 18.4453 70.4507 18.2373 70.648 18.088C70.8507 17.9387 71.088 17.864 71.36 17.864C71.632 17.864 71.8693 17.9387 72.072 18.088C72.2747 18.2373 72.376 18.4453 72.376 18.712C72.376 18.9787 72.2747 19.1867 72.072 19.336C71.8693 19.4853 71.632 19.56 71.36 19.56ZM80.0154 32.168C79.3167 32.168 78.674 32 78.0874 31.664C77.5007 31.3227 77.0314 30.8213 76.6794 30.16C76.3274 29.4987 76.1514 28.6907 76.1514 27.736C76.1514 26.8027 76.33 26.0107 76.6874 25.36C77.0447 24.7093 77.5167 24.216 78.1034 23.88C78.69 23.5387 79.3274 23.368 80.0154 23.368C80.6767 23.368 81.29 23.528 81.8554 23.848C82.426 24.168 82.8847 24.6133 83.2314 25.184C83.578 25.7493 83.7514 26.4027 83.7514 27.144C83.7514 27.1653 83.7514 27.1867 83.7514 27.208C83.7514 27.224 83.7514 27.24 83.7514 27.256L82.7434 27.288C82.7434 27.272 82.7434 27.256 82.7434 27.24C82.7434 27.2187 82.7434 27.2 82.7434 27.184C82.7434 26.7413 82.6314 26.3493 82.4074 26.008C82.1834 25.6613 81.8874 25.3893 81.5194 25.192C81.1567 24.9893 80.77 24.888 80.3594 24.888C79.6714 24.888 79.0954 25.12 78.6314 25.584C78.1674 26.0427 77.9354 26.76 77.9354 27.736C77.9354 28.7067 78.1674 29.4267 78.6314 29.896C79.1007 30.36 79.6767 30.592 80.3594 30.592C80.786 30.592 81.1807 30.4907 81.5434 30.288C81.906 30.08 82.1967 29.7973 82.4154 29.44C82.634 29.0827 82.7434 28.6747 82.7434 28.216L83.7514 28.256C83.7514 28.992 83.5834 29.656 83.2474 30.248C82.9167 30.84 82.4687 31.3093 81.9034 31.656C81.3434 31.9973 80.714 32.168 80.0154 32.168ZM82.7434 32V19.496H84.4874V32H82.7434ZM87.3301 28.36V27.008H93.5861L93.3461 27.408C93.3461 27.376 93.3461 27.344 93.3461 27.312C93.3461 27.2747 93.3461 27.2427 93.3461 27.216C93.3461 26.784 93.2528 26.3867 93.0661 26.024C92.8795 25.656 92.5995 25.3627 92.2261 25.144C91.8581 24.92 91.3968 24.808 90.8421 24.808C90.2875 24.808 89.7995 24.928 89.3781 25.168C88.9621 25.4027 88.6368 25.7387 88.4021 26.176C88.1728 26.608 88.0581 27.128 88.0581 27.736C88.0581 28.3547 88.1701 28.888 88.3941 29.336C88.6181 29.7787 88.9408 30.12 89.3621 30.36C89.7835 30.6 90.2875 30.72 90.8741 30.72C91.2848 30.72 91.6395 30.68 91.9381 30.6C92.2421 30.5147 92.4901 30.4027 92.6821 30.264C92.8795 30.1253 93.0288 29.976 93.1301 29.816C93.2315 29.6507 93.2901 29.488 93.3061 29.328H95.0341C95.0021 29.6747 94.8875 30.0187 94.6901 30.36C94.4981 30.696 94.2235 31.0027 93.8661 31.28C93.5141 31.552 93.0821 31.7707 92.5701 31.936C92.0635 32.096 91.4795 32.176 90.8181 32.176C89.9328 32.176 89.1568 31.9893 88.4901 31.616C87.8235 31.2427 87.3035 30.7253 86.9301 30.064C86.5568 29.3973 86.3701 28.6347 86.3701 27.776C86.3701 26.9013 86.5595 26.1333 86.9381 25.472C87.3168 24.8107 87.8421 24.296 88.5141 23.928C89.1861 23.5547 89.9568 23.368 90.8261 23.368C91.7115 23.368 92.4768 23.5547 93.1221 23.928C93.7728 24.3013 94.2741 24.816 94.6261 25.472C94.9781 26.128 95.1541 26.8827 95.1541 27.736C95.1541 27.8373 95.1515 27.9547 95.1461 28.088C95.1408 28.2213 95.1328 28.312 95.1221 28.36H87.3301ZM102.345 32V28.4C102.345 28.0747 102.345 27.7947 102.345 27.56C102.345 27.32 102.345 27.1173 102.345 26.952C102.345 26.744 102.329 26.5227 102.297 26.288C102.27 26.0533 102.206 25.8347 102.105 25.632C102.009 25.424 101.857 25.256 101.649 25.128C101.441 25 101.156 24.936 100.793 24.936C100.43 24.936 100.124 25.008 99.8731 25.152C99.6225 25.296 99.4198 25.488 99.2651 25.728C99.1105 25.9627 98.9985 26.2267 98.9291 26.52C98.8598 26.808 98.8251 27.0987 98.8251 27.392L98.0891 26.992C98.0891 26.3253 98.2198 25.72 98.4811 25.176C98.7478 24.6267 99.1211 24.1893 99.6011 23.864C100.086 23.5333 100.657 23.368 101.313 23.368C101.98 23.368 102.513 23.5067 102.913 23.784C103.318 24.056 103.612 24.4293 103.793 24.904C103.974 25.3733 104.065 25.9067 104.065 26.504C104.065 26.7227 104.065 27.008 104.065 27.36C104.065 27.712 104.065 28.12 104.065 28.584V32H102.345ZM97.0891 32V23.504H98.8251V32H97.0891ZM107.577 32V28.408C107.577 28.056 107.577 27.7627 107.577 27.528C107.577 27.288 107.577 27.088 107.577 26.928C107.577 26.7093 107.564 26.4853 107.537 26.256C107.51 26.0213 107.446 25.8053 107.345 25.608C107.244 25.4107 107.086 25.2507 106.873 25.128C106.665 25 106.374 24.936 106.001 24.936C105.633 24.936 105.324 25.008 105.073 25.152C104.828 25.2907 104.63 25.4773 104.481 25.712C104.332 25.9413 104.225 26.1947 104.161 26.472C104.097 26.7493 104.065 27.024 104.065 27.296L103.329 26.912C103.329 26.272 103.457 25.6827 103.713 25.144C103.974 24.6053 104.342 24.176 104.817 23.856C105.297 23.5307 105.865 23.368 106.521 23.368C107.161 23.368 107.686 23.496 108.097 23.752C108.508 24.008 108.812 24.3627 109.009 24.816C109.206 25.2693 109.305 25.7947 109.305 26.392C109.305 26.6213 109.305 26.9093 109.305 27.256C109.305 27.6027 109.305 28.0053 109.305 28.464V32H107.577ZM112.127 28.36V27.008H118.383L118.143 27.408C118.143 27.376 118.143 27.344 118.143 27.312C118.143 27.2747 118.143 27.2427 118.143 27.216C118.143 26.784 118.05 26.3867 117.863 26.024C117.676 25.656 117.396 25.3627 117.023 25.144C116.655 24.92 116.194 24.808 115.639 24.808C115.084 24.808 114.596 24.928 114.175 25.168C113.759 25.4027 113.434 25.7387 113.199 26.176C112.97 26.608 112.855 27.128 112.855 27.736C112.855 28.3547 112.967 28.888 113.191 29.336C113.415 29.7787 113.738 30.12 114.159 30.36C114.58 30.6 115.084 30.72 115.671 30.72C116.082 30.72 116.436 30.68 116.735 30.6C117.039 30.5147 117.287 30.4027 117.479 30.264C117.676 30.1253 117.826 29.976 117.927 29.816C118.028 29.6507 118.087 29.488 118.103 29.328H119.831C119.799 29.6747 119.684 30.0187 119.487 30.36C119.295 30.696 119.02 31.0027 118.663 31.28C118.311 31.552 117.879 31.7707 117.367 31.936C116.86 32.096 116.276 32.176 115.615 32.176C114.73 32.176 113.954 31.9893 113.287 31.616C112.62 31.2427 112.1 30.7253 111.727 30.064C111.354 29.3973 111.167 28.6347 111.167 27.776C111.167 26.9013 111.356 26.1333 111.735 25.472C112.114 24.8107 112.639 24.296 113.311 23.928C113.983 23.5547 114.754 23.368 115.623 23.368C116.508 23.368 117.274 23.5547 117.919 23.928C118.57 24.3013 119.071 24.816 119.423 25.472C119.775 26.128 119.951 26.8827 119.951 27.736C119.951 27.8373 119.948 27.9547 119.943 28.088C119.938 28.2213 119.93 28.312 119.919 28.36H112.127ZM129.998 20.2C130.761 20.2 131.398 20.3067 131.91 20.52C132.427 20.728 132.819 21.0427 133.086 21.464C133.353 21.88 133.486 22.4 133.486 23.024C133.486 23.6213 133.363 24.1253 133.118 24.536C132.878 24.9413 132.569 25.2507 132.19 25.464C131.817 25.6773 131.433 25.7973 131.038 25.824C131.465 25.8347 131.886 25.936 132.302 26.128C132.723 26.3147 133.07 26.6187 133.342 27.04C133.614 27.456 133.75 28.0133 133.75 28.712C133.75 29.384 133.614 29.968 133.342 30.464C133.075 30.9547 132.662 31.3333 132.102 31.6C131.542 31.8667 130.822 32 129.942 32H125.83V20.2H129.998ZM127.502 25.704L126.918 25.16H129.318C130.097 25.16 130.697 25 131.118 24.68C131.539 24.36 131.75 23.9013 131.75 23.304C131.75 22.8987 131.662 22.576 131.486 22.336C131.31 22.0907 131.057 21.9147 130.726 21.808C130.401 21.696 130.014 21.64 129.566 21.64H126.718L127.502 20.728V25.704ZM129.606 30.56C130.353 30.56 130.934 30.3947 131.35 30.064C131.771 29.728 131.982 29.2453 131.982 28.616C131.982 28.2373 131.913 27.92 131.774 27.664C131.641 27.4027 131.457 27.1947 131.222 27.04C130.987 26.8853 130.715 26.7733 130.406 26.704C130.097 26.6293 129.766 26.592 129.414 26.592H126.918L127.502 26.048V31.472L126.718 30.56H129.606ZM136.393 28.36V27.008H142.649L142.409 27.408C142.409 27.376 142.409 27.344 142.409 27.312C142.409 27.2747 142.409 27.2427 142.409 27.216C142.409 26.784 142.315 26.3867 142.129 26.024C141.942 25.656 141.662 25.3627 141.289 25.144C140.921 24.92 140.459 24.808 139.905 24.808C139.35 24.808 138.862 24.928 138.441 25.168C138.025 25.4027 137.699 25.7387 137.465 26.176C137.235 26.608 137.121 27.128 137.121 27.736C137.121 28.3547 137.233 28.888 137.457 29.336C137.681 29.7787 138.003 30.12 138.425 30.36C138.846 30.6 139.35 30.72 139.937 30.72C140.347 30.72 140.702 30.68 141.001 30.6C141.305 30.5147 141.553 30.4027 141.745 30.264C141.942 30.1253 142.091 29.976 142.193 29.816C142.294 29.6507 142.353 29.488 142.369 29.328H144.097C144.065 29.6747 143.95 30.0187 143.753 30.36C143.561 30.696 143.286 31.0027 142.929 31.28C142.577 31.552 142.145 31.7707 141.633 31.936C141.126 32.096 140.542 32.176 139.881 32.176C138.995 32.176 138.219 31.9893 137.553 31.616C136.886 31.2427 136.366 30.7253 135.993 30.064C135.619 29.3973 135.433 28.6347 135.433 27.776C135.433 26.9013 135.622 26.1333 136.001 25.472C136.379 24.8107 136.905 24.296 137.577 23.928C138.249 23.5547 139.019 23.368 139.889 23.368C140.774 23.368 141.539 23.5547 142.185 23.928C142.835 24.3013 143.337 24.816 143.689 25.472C144.041 26.128 144.217 26.8827 144.217 27.736C144.217 27.8373 144.214 27.9547 144.209 28.088C144.203 28.2213 144.195 28.312 144.185 28.36H136.393ZM146.152 32V19.496H147.8V26.992L147.376 26.792L151.168 23.504H153.352L149.24 27.144L149.656 26.368L153.352 32H151.504L148.528 27.304L148.92 27.424L147.584 28.608L147.8 27.816V32H146.152ZM156.515 19.496V32H154.803V19.496H156.515ZM159.455 28.36V27.008H165.711L165.471 27.408C165.471 27.376 165.471 27.344 165.471 27.312C165.471 27.2747 165.471 27.2427 165.471 27.216C165.471 26.784 165.378 26.3867 165.191 26.024C165.004 25.656 164.724 25.3627 164.351 25.144C163.983 24.92 163.522 24.808 162.967 24.808C162.412 24.808 161.924 24.928 161.503 25.168C161.087 25.4027 160.762 25.7387 160.527 26.176C160.298 26.608 160.183 27.128 160.183 27.736C160.183 28.3547 160.295 28.888 160.519 29.336C160.743 29.7787 161.066 30.12 161.487 30.36C161.908 30.6 162.412 30.72 162.999 30.72C163.41 30.72 163.764 30.68 164.063 30.6C164.367 30.5147 164.615 30.4027 164.807 30.264C165.004 30.1253 165.154 29.976 165.255 29.816C165.356 29.6507 165.415 29.488 165.431 29.328H167.159C167.127 29.6747 167.012 30.0187 166.815 30.36C166.623 30.696 166.348 31.0027 165.991 31.28C165.639 31.552 165.207 31.7707 164.695 31.936C164.188 32.096 163.604 32.176 162.943 32.176C162.058 32.176 161.282 31.9893 160.615 31.616C159.948 31.2427 159.428 30.7253 159.055 30.064C158.682 29.3973 158.495 28.6347 158.495 27.776C158.495 26.9013 158.684 26.1333 159.063 25.472C159.442 24.8107 159.967 24.296 160.639 23.928C161.311 23.5547 162.082 23.368 162.951 23.368C163.836 23.368 164.602 23.5547 165.247 23.928C165.898 24.3013 166.399 24.816 166.751 25.472C167.103 26.128 167.279 26.8827 167.279 27.736C167.279 27.8373 167.276 27.9547 167.271 28.088C167.266 28.2213 167.258 28.312 167.247 28.36H159.455ZM175.262 32V28.08C175.262 27.8507 175.262 27.656 175.262 27.496C175.262 27.336 175.262 27.1867 175.262 27.048C175.262 26.632 175.198 26.2667 175.07 25.952C174.942 25.632 174.731 25.384 174.438 25.208C174.145 25.0267 173.753 24.936 173.262 24.936C172.83 24.936 172.438 25.0427 172.086 25.256C171.739 25.4693 171.462 25.76 171.254 26.128C171.051 26.4907 170.95 26.904 170.95 27.368L170.206 27C170.206 26.312 170.369 25.696 170.694 25.152C171.019 24.6027 171.454 24.168 171.998 23.848C172.547 23.528 173.147 23.368 173.798 23.368C174.47 23.368 175.043 23.4987 175.518 23.76C175.998 24.016 176.363 24.384 176.614 24.864C176.87 25.3387 176.998 25.9067 176.998 26.568C176.998 26.8133 176.998 27.0853 176.998 27.384C176.998 27.6827 176.998 27.9707 176.998 28.248V32H175.262ZM169.214 32V23.504H170.95V32H169.214ZM179.207 32V23.504H180.919V32H179.207ZM180.071 21.744C179.772 21.744 179.514 21.664 179.295 21.504C179.082 21.3387 178.975 21.112 178.975 20.824C178.975 20.5413 179.082 20.32 179.295 20.16C179.514 19.9947 179.772 19.912 180.071 19.912C180.364 19.912 180.618 19.9947 180.831 20.16C181.05 20.32 181.159 20.5413 181.159 20.824C181.159 21.112 181.05 21.3387 180.831 21.504C180.618 21.664 180.364 21.744 180.071 21.744ZM183.513 35.616C183.283 35.616 183.073 35.6027 182.881 35.576C182.694 35.5547 182.579 35.5333 182.537 35.512V34.096C182.606 34.128 182.721 34.1547 182.881 34.176C183.046 34.1973 183.217 34.208 183.393 34.208C183.707 34.208 183.977 34.144 184.201 34.016C184.43 33.888 184.622 33.7093 184.777 33.48C184.937 33.256 185.065 33 185.161 32.712L185.377 32.072L182.449 23.504H184.257L186.441 30.704H186.217L188.345 23.504H190.129L187.081 32.624C186.894 33.1947 186.665 33.704 186.393 34.152C186.121 34.6053 185.758 34.9627 185.305 35.224C184.851 35.4853 184.254 35.616 183.513 35.616ZM195.318 32.16C194.443 32.16 193.67 31.9707 192.998 31.592C192.331 31.2133 191.809 30.6933 191.43 30.032C191.057 29.3653 190.87 28.6027 190.87 27.744C190.87 26.8907 191.057 26.136 191.43 25.48C191.809 24.8187 192.331 24.304 192.998 23.936C193.67 23.5627 194.443 23.376 195.318 23.376C196.193 23.376 196.963 23.5627 197.63 23.936C198.302 24.304 198.825 24.8187 199.198 25.48C199.577 26.136 199.766 26.8907 199.766 27.744C199.766 28.6027 199.577 29.3653 199.198 30.032C198.825 30.6933 198.302 31.2133 197.63 31.592C196.963 31.9707 196.193 32.16 195.318 32.16ZM195.318 30.672C195.851 30.672 196.321 30.552 196.726 30.312C197.131 30.072 197.449 29.7333 197.678 29.296C197.907 28.8533 198.022 28.336 198.022 27.744C198.022 27.1573 197.907 26.648 197.678 26.216C197.449 25.784 197.131 25.4507 196.726 25.216C196.321 24.9813 195.851 24.864 195.318 24.864C194.79 24.864 194.321 24.9813 193.91 25.216C193.505 25.4507 193.187 25.784 192.958 26.216C192.729 26.648 192.614 27.1573 192.614 27.744C192.614 28.336 192.729 28.8533 192.958 29.296C193.187 29.7333 193.505 30.072 193.91 30.312C194.321 30.552 194.79 30.672 195.318 30.672ZM201.699 32V23.504H203.435V26.216L202.971 26.008C203.008 25.6613 203.096 25.3307 203.235 25.016C203.373 24.7013 203.557 24.4213 203.787 24.176C204.021 23.9253 204.309 23.728 204.651 23.584C204.992 23.44 205.387 23.368 205.835 23.368C206.176 23.368 206.451 23.3947 206.659 23.448C206.872 23.5013 207.003 23.544 207.051 23.576L206.683 25.208C206.629 25.1707 206.52 25.1227 206.355 25.064C206.195 25.0053 205.971 24.976 205.683 24.976C205.245 24.976 204.883 25.0533 204.595 25.208C204.307 25.3627 204.077 25.568 203.907 25.824C203.736 26.08 203.613 26.36 203.539 26.664C203.469 26.9627 203.435 27.264 203.435 27.568V32H201.699Z" fill="white"/>
</svg>
