<svg width="160" height="52" viewBox="0 0 160 52" fill="none" xmlns="http://www.w3.org/2000/svg">
<rect width="160" height="52" rx="26" fill="#DA3D2F"/>
<rect x="8" y="8" width="48" height="36" rx="18" fill="white" fill-opacity="0.12"/>
<rect x="9" y="9" width="46" height="34" rx="17" stroke="white" stroke-opacity="0.12" stroke-width="2"/>
<path d="M32 24.5002L37.2502 19.25L38.75 20.7498L33.4998 26L38.75 31.2502L37.2492 32.75L31.9989 27.4998L26.7498 32.75L25.25 31.2492L30.5002 25.9989L25.25 20.7487L26.7498 19.2511L32 24.5002Z" fill="white"/>
<path d="M65.112 32V20.2H66.824V32H65.112ZM66 19.456C65.7067 19.456 65.4507 19.376 65.232 19.216C65.0133 19.0507 64.904 18.8267 64.904 18.544C64.904 18.256 65.0133 18.032 65.232 17.872C65.4507 17.712 65.7067 17.632 66 17.632C66.2933 17.632 66.5467 17.712 66.76 17.872C66.9787 18.032 67.088 18.256 67.088 18.544C67.088 18.832 66.9787 19.056 66.76 19.216C66.5467 19.376 66.2933 19.456 66 19.456ZM69.0735 35.496V23.504H70.8095V35.496H69.0735ZM73.5455 32.168C72.8842 32.168 72.2708 32.0027 71.7055 31.672C71.1402 31.336 70.6815 30.8773 70.3295 30.296C69.9828 29.7147 69.8095 29.056 69.8095 28.32C69.8095 28.2987 69.8095 28.2827 69.8095 28.272C69.8095 28.256 69.8095 28.24 69.8095 28.224L70.8175 28.2C70.8175 28.2107 70.8175 28.224 70.8175 28.24C70.8175 28.2507 70.8175 28.264 70.8175 28.28C70.8175 28.7173 70.9295 29.112 71.1535 29.464C71.3828 29.8107 71.6788 30.0853 72.0415 30.288C72.4042 30.4907 72.7935 30.592 73.2095 30.592C73.8922 30.592 74.4655 30.36 74.9295 29.896C75.3988 29.4267 75.6335 28.7067 75.6335 27.736C75.6335 26.76 75.4015 26.0427 74.9375 25.584C74.4735 25.12 73.8975 24.888 73.2095 24.888C72.7935 24.888 72.4042 24.9893 72.0415 25.192C71.6788 25.3893 71.3828 25.6613 71.1535 26.008C70.9295 26.3493 70.8175 26.7413 70.8175 27.184L69.8095 27.144C69.8095 26.4027 69.9828 25.7493 70.3295 25.184C70.6815 24.6133 71.1402 24.168 71.7055 23.848C72.2708 23.528 72.8842 23.368 73.5455 23.368C74.2335 23.368 74.8708 23.5387 75.4575 23.88C76.0442 24.216 76.5162 24.7093 76.8735 25.36C77.2362 26.0107 77.4175 26.8027 77.4175 27.736C77.4175 28.6907 77.2415 29.4987 76.8895 30.16C76.5375 30.8213 76.0682 31.3227 75.4815 31.664C74.8948 32 74.2495 32.168 73.5455 32.168ZM82.8305 32.144C82.5478 32.144 82.2652 32.1147 81.9825 32.056C81.7052 31.9973 81.4492 31.8907 81.2145 31.736C80.9852 31.576 80.8012 31.3493 80.6625 31.056C80.5238 30.7627 80.4545 30.3787 80.4545 29.904C80.4545 29.792 80.4545 29.6747 80.4545 29.552C80.4545 29.4293 80.4545 29.304 80.4545 29.176V24.944H78.4145V23.504H79.4865C79.7158 23.504 79.8945 23.496 80.0225 23.48C80.1558 23.4587 80.2518 23.4133 80.3105 23.344C80.3745 23.2693 80.4145 23.152 80.4305 22.992C80.4465 22.832 80.4545 22.6133 80.4545 22.336V20.696H82.1905V23.504H84.7905V24.944H82.1905V28.712C82.1905 28.8187 82.1905 28.9253 82.1905 29.032C82.1905 29.1387 82.1905 29.2373 82.1905 29.328C82.1905 29.7547 82.2412 30.0907 82.3425 30.336C82.4492 30.5813 82.6892 30.704 83.0625 30.704C83.2225 30.704 83.3745 30.6907 83.5185 30.664C83.6625 30.6373 83.7718 30.608 83.8465 30.576V31.992C83.7505 32.0293 83.6145 32.064 83.4385 32.096C83.2625 32.128 83.0598 32.144 82.8305 32.144ZM89.1425 32.168C88.5025 32.168 87.9398 32.0667 87.4545 31.864C86.9745 31.6613 86.6012 31.3707 86.3345 30.992C86.0678 30.6133 85.9345 30.1573 85.9345 29.624C85.9345 29.0533 86.0838 28.5813 86.3825 28.208C86.6865 27.8347 87.1025 27.5467 87.6305 27.344C88.1638 27.136 88.7692 27 89.4465 26.936C90.4545 26.8347 91.1638 26.736 91.5745 26.64C91.9905 26.544 92.1985 26.3867 92.1985 26.168C92.1985 26.1627 92.1985 26.1573 92.1985 26.152C92.1985 25.72 92.0145 25.392 91.6465 25.168C91.2785 24.944 90.7532 24.832 90.0705 24.832C89.3505 24.832 88.7932 24.96 88.3985 25.216C88.0092 25.4667 87.8145 25.8667 87.8145 26.416H86.1105C86.1105 25.7653 86.2785 25.2133 86.6145 24.76C86.9558 24.3067 87.4252 23.9627 88.0225 23.728C88.6198 23.488 89.3052 23.368 90.0785 23.368C90.7878 23.368 91.4332 23.4773 92.0145 23.696C92.6012 23.9093 93.0678 24.2293 93.4145 24.656C93.7612 25.0827 93.9345 25.6133 93.9345 26.248C93.9345 26.36 93.9345 26.472 93.9345 26.584C93.9345 26.6907 93.9345 26.8 93.9345 26.912V30.304C93.9345 30.5013 93.9425 30.6933 93.9585 30.88C93.9745 31.0613 94.0038 31.224 94.0465 31.368C94.0945 31.5333 94.1505 31.6693 94.2145 31.776C94.2838 31.8827 94.3398 31.9573 94.3825 32H92.6545C92.6225 31.968 92.5745 31.9013 92.5105 31.8C92.4518 31.6933 92.3985 31.5707 92.3505 31.432C92.3025 31.2987 92.2652 31.1467 92.2385 30.976C92.2172 30.8 92.2065 30.6107 92.2065 30.408L92.5265 30.632C92.3665 30.9413 92.1238 31.2107 91.7985 31.44C91.4785 31.6693 91.0918 31.848 90.6385 31.976C90.1905 32.104 89.6918 32.168 89.1425 32.168ZM89.5025 30.728C89.9985 30.728 90.4492 30.6507 90.8545 30.496C91.2652 30.336 91.5932 30.096 91.8385 29.776C92.0838 29.4507 92.2065 29.0427 92.2065 28.552V27.144L92.6145 27.68C92.2732 27.8133 91.8545 27.9227 91.3585 28.008C90.8678 28.088 90.3612 28.1547 89.8385 28.208C89.1185 28.272 88.5772 28.3973 88.2145 28.584C87.8518 28.7653 87.6705 29.0693 87.6705 29.496C87.6705 29.9067 87.8198 30.216 88.1185 30.424C88.4225 30.6267 88.8838 30.728 89.5025 30.728ZM97.8743 19.496V32H96.1623V19.496H97.8743ZM105.103 21.64L105.887 20.728V25.912L105.471 25.36H109.943V26.8H105.471L105.887 26.248V31.472L105.103 30.56H110.831V32H104.143V20.2H110.831V21.64H105.103ZM115.922 32.168C115.223 32.168 114.58 32 113.994 31.664C113.407 31.3227 112.938 30.8213 112.586 30.16C112.234 29.4987 112.058 28.6907 112.058 27.736C112.058 26.8027 112.236 26.0107 112.594 25.36C112.951 24.7093 113.423 24.216 114.01 23.88C114.596 23.5387 115.234 23.368 115.922 23.368C116.583 23.368 117.196 23.528 117.762 23.848C118.332 24.168 118.791 24.6133 119.138 25.184C119.484 25.7493 119.658 26.4027 119.658 27.144C119.658 27.1653 119.658 27.1867 119.658 27.208C119.658 27.224 119.658 27.24 119.658 27.256L118.65 27.288C118.65 27.272 118.65 27.256 118.65 27.24C118.65 27.2187 118.65 27.2 118.65 27.184C118.65 26.7413 118.538 26.3493 118.314 26.008C118.09 25.6613 117.794 25.3893 117.426 25.192C117.063 24.9893 116.676 24.888 116.266 24.888C115.578 24.888 115.002 25.12 114.538 25.584C114.074 26.0427 113.842 26.76 113.842 27.736C113.842 28.7067 114.074 29.4267 114.538 29.896C115.007 30.36 115.583 30.592 116.266 30.592C116.692 30.592 117.087 30.4907 117.45 30.288C117.812 30.08 118.103 29.7973 118.322 29.44C118.54 29.0827 118.65 28.6747 118.65 28.216L119.658 28.256C119.658 28.992 119.49 29.656 119.154 30.248C118.823 30.84 118.375 31.3093 117.81 31.656C117.25 31.9973 116.62 32.168 115.922 32.168ZM118.65 32V19.496H120.394V32H118.65ZM122.644 32V23.504H124.356V32H122.644ZM123.508 21.744C123.21 21.744 122.951 21.664 122.732 21.504C122.519 21.3387 122.412 21.112 122.412 20.824C122.412 20.5413 122.519 20.32 122.732 20.16C122.951 19.9947 123.21 19.912 123.508 19.912C123.802 19.912 124.055 19.9947 124.268 20.16C124.487 20.32 124.596 20.5413 124.596 20.824C124.596 21.112 124.487 21.3387 124.268 21.504C124.055 21.664 123.802 21.744 123.508 21.744ZM128.499 19.496V32H126.787V19.496H128.499ZM134.344 32.168C133.645 32.168 133.002 32 132.416 31.664C131.829 31.3227 131.36 30.8213 131.008 30.16C130.656 29.4987 130.48 28.6907 130.48 27.736C130.48 26.8027 130.658 26.0107 131.016 25.36C131.373 24.7093 131.845 24.216 132.432 23.88C133.018 23.5387 133.656 23.368 134.344 23.368C135.005 23.368 135.618 23.528 136.184 23.848C136.754 24.168 137.213 24.6133 137.56 25.184C137.906 25.7493 138.08 26.4027 138.08 27.144C138.08 27.1653 138.08 27.1867 138.08 27.208C138.08 27.224 138.08 27.24 138.08 27.256L137.072 27.288C137.072 27.272 137.072 27.256 137.072 27.24C137.072 27.2187 137.072 27.2 137.072 27.184C137.072 26.7413 136.96 26.3493 136.736 26.008C136.512 25.6613 136.216 25.3893 135.848 25.192C135.485 24.9893 135.098 24.888 134.688 24.888C134 24.888 133.424 25.12 132.96 25.584C132.496 26.0427 132.264 26.76 132.264 27.736C132.264 28.7067 132.496 29.4267 132.96 29.896C133.429 30.36 134.005 30.592 134.688 30.592C135.114 30.592 135.509 30.4907 135.872 30.288C136.234 30.08 136.525 29.7973 136.744 29.44C136.962 29.0827 137.072 28.6747 137.072 28.216L138.08 28.256C138.08 28.992 137.912 29.656 137.576 30.248C137.245 30.84 136.797 31.3093 136.232 31.656C135.672 31.9973 135.042 32.168 134.344 32.168ZM137.072 32V19.496H138.816V32H137.072ZM141.066 32V23.504H142.778V32H141.066ZM141.93 21.744C141.632 21.744 141.373 21.664 141.154 21.504C140.941 21.3387 140.834 21.112 140.834 20.824C140.834 20.5413 140.941 20.32 141.154 20.16C141.373 19.9947 141.632 19.912 141.93 19.912C142.224 19.912 142.477 19.9947 142.69 20.16C142.909 20.32 143.018 20.5413 143.018 20.824C143.018 21.112 142.909 21.3387 142.69 21.504C142.477 21.664 142.224 21.744 141.93 21.744Z" fill="white"/>
</svg>
