<svg width="20" height="20" viewBox="0 0 20 20" fill="none" xmlns="http://www.w3.org/2000/svg">
<path d="M12.5 3.33329H4.16667V16.6666H15.8333V6.66663H12.5V3.33329ZM2.5 2.49329C2.5 2.03663 2.8725 1.66663 3.3325 1.66663H13.3333L17.5 5.83329V17.4941C17.5008 17.6036 17.48 17.7121 17.4388 17.8135C17.3976 17.9149 17.3369 18.0072 17.2601 18.0851C17.1832 18.163 17.0918 18.225 16.991 18.2676C16.8902 18.3102 16.7819 18.3325 16.6725 18.3333H3.3275C3.10865 18.3318 2.89918 18.2442 2.74435 18.0895C2.58951 17.9349 2.50175 17.7255 2.5 17.5066V2.49329ZM10 9.58329C9.44747 9.58329 8.91756 9.3638 8.52686 8.9731C8.13616 8.5824 7.91667 8.05249 7.91667 7.49996C7.91667 6.94742 8.13616 6.41752 8.52686 6.02682C8.91756 5.63612 9.44747 5.41663 10 5.41663C10.5525 5.41663 11.0824 5.63612 11.4731 6.02682C11.8638 6.41752 12.0833 6.94742 12.0833 7.49996C12.0833 8.05249 11.8638 8.5824 11.4731 8.9731C11.0824 9.3638 10.5525 9.58329 10 9.58329ZM6.2725 14.1666C6.37352 13.2486 6.80974 12.4002 7.49757 11.7839C8.1854 11.1676 9.07646 10.8268 10 10.8268C10.9235 10.8268 11.8146 11.1676 12.5024 11.7839C13.1903 12.4002 13.6265 13.2486 13.7275 14.1666H6.2725Z" fill="black"/>
</svg>
