<svg width="56" height="56" viewBox="0 0 56 56" fill="none" xmlns="http://www.w3.org/2000/svg">
<path d="M28.0003 51.3334C15.1133 51.3334 4.66699 40.8871 4.66699 28.0001C4.66699 15.1131 15.1133 4.66675 28.0003 4.66675C40.8873 4.66675 51.3337 15.1131 51.3337 28.0001C51.3337 40.8871 40.8873 51.3334 28.0003 51.3334ZM28.0003 46.6667C32.951 46.6667 37.699 44.7001 41.1997 41.1994C44.7003 37.6987 46.667 32.9508 46.667 28.0001C46.667 23.0494 44.7003 18.3014 41.1997 14.8008C37.699 11.3001 32.951 9.33341 28.0003 9.33341C23.0496 9.33341 18.3017 11.3001 14.801 14.8008C11.3003 18.3014 9.33366 23.0494 9.33366 28.0001C9.33366 32.9508 11.3003 37.6987 14.801 41.1994C18.3017 44.7001 23.0496 46.6667 28.0003 46.6667ZM25.667 35.0001H30.3337V39.6667H25.667V35.0001ZM30.3337 31.1617V32.6667H25.667V29.1667C25.667 28.5479 25.9128 27.9544 26.3504 27.5168C26.788 27.0792 27.3815 26.8334 28.0003 26.8334C28.6632 26.8334 29.3124 26.6451 29.8724 26.2905C30.4324 25.9359 30.8803 25.4296 31.1638 24.8304C31.4473 24.2313 31.5549 23.5639 31.4739 22.906C31.393 22.2482 31.1269 21.6268 30.7066 21.1142C30.2863 20.6016 29.7291 20.219 29.0998 20.0107C28.4706 19.8024 27.7951 19.7771 27.152 19.9377C26.5089 20.0983 25.9246 20.4383 25.4672 20.918C25.0097 21.3977 24.6979 21.9974 24.568 22.6474L19.99 21.7304C20.2738 20.3119 20.9292 18.9943 21.8891 17.9121C22.8491 16.83 24.0792 16.0221 25.4537 15.5712C26.8282 15.1202 28.2978 15.0423 29.7123 15.3455C31.1267 15.6487 32.4353 16.322 33.5042 17.2967C34.5732 18.2713 35.3641 19.5124 35.7963 20.8929C36.2284 22.2734 36.2861 23.7439 35.9637 25.1541C35.6412 26.5643 34.9501 27.8636 33.9609 28.9191C32.9717 29.9746 31.72 30.7485 30.3337 31.1617Z" fill="white"/>
</svg>
