<svg width="20" height="20" viewBox="0 0 20 20" fill="none" xmlns="http://www.w3.org/2000/svg">
<path d="M15.0258 13.8475L18.595 17.4158L17.4158 18.595L13.8475 15.0258C12.5198 16.0901 10.8683 16.669 9.16667 16.6666C5.02667 16.6666 1.66667 13.3066 1.66667 9.16663C1.66667 5.02663 5.02667 1.66663 9.16667 1.66663C13.3067 1.66663 16.6667 5.02663 16.6667 9.16663C16.6691 10.8683 16.0902 12.5197 15.0258 13.8475ZM13.3542 13.2291C14.4115 12.1414 15.0021 10.6836 15 9.16663C15 5.94413 12.3892 3.33329 9.16667 3.33329C5.94417 3.33329 3.33334 5.94413 3.33334 9.16663C3.33334 12.3891 5.94417 15 9.16667 15C10.6836 15.0021 12.1414 14.4115 13.2292 13.3541L13.3542 13.2291Z" fill="black"/>
</svg>
