<svg width="28" height="28" viewBox="0 0 28 28" fill="none" xmlns="http://www.w3.org/2000/svg">
<path d="M23.4302 17.7334L24.8325 18.5746C24.919 18.6264 24.9906 18.6997 25.0403 18.7874C25.0901 18.8752 25.1162 18.9743 25.1162 19.0751C25.1162 19.1759 25.0901 19.275 25.0403 19.3628C24.9906 19.4505 24.919 19.5238 24.8325 19.5756L14.6008 25.7146C14.4194 25.8236 14.2117 25.8812 14 25.8812C13.7883 25.8812 13.5806 25.8236 13.3992 25.7146L3.16749 19.5756C3.08098 19.5238 3.00937 19.4505 2.95965 19.3628C2.90993 19.275 2.88379 19.1759 2.88379 19.0751C2.88379 18.9743 2.90993 18.8752 2.95965 18.7874C3.00937 18.6997 3.08098 18.6264 3.16749 18.5746L4.56983 17.7334L14 23.3918L23.4302 17.7334ZM23.4302 12.2501L24.8325 13.0913C24.919 13.1431 24.9906 13.2164 25.0403 13.3041C25.0901 13.3918 25.1162 13.4909 25.1162 13.5918C25.1162 13.6926 25.0901 13.7917 25.0403 13.8794C24.9906 13.9671 24.919 14.0405 24.8325 14.0923L14 20.5906L3.16749 14.0923C3.08098 14.0405 3.00937 13.9671 2.95965 13.8794C2.90993 13.7917 2.88379 13.6926 2.88379 13.5918C2.88379 13.4909 2.90993 13.3918 2.95965 13.3041C3.00937 13.2164 3.08098 13.1431 3.16749 13.0913L4.56983 12.2501L14 17.9084L23.4302 12.2501ZM14.5997 1.52726L24.8325 7.66626C24.919 7.71805 24.9906 7.79138 25.0403 7.8791C25.0901 7.96682 25.1162 8.06593 25.1162 8.16676C25.1162 8.26759 25.0901 8.3667 25.0403 8.45442C24.9906 8.54214 24.919 8.61547 24.8325 8.66726L14 15.1656L3.16749 8.66843C3.08098 8.61664 3.00937 8.5433 2.95965 8.45559C2.90993 8.36787 2.88379 8.26876 2.88379 8.16793C2.88379 8.0671 2.90993 7.96799 2.95965 7.88027C3.00937 7.79255 3.08098 7.71922 3.16749 7.66743L13.3992 1.52843C13.5806 1.41941 13.7883 1.36182 14 1.36182C14.2117 1.36182 14.4194 1.41941 14.6008 1.52843M14 3.88743L6.86816 8.16676L14 12.4461L21.1318 8.16676L14 3.88743Z" fill="black"/>
</svg>
