<svg width="28" height="28" viewBox="0 0 28 28" fill="none" xmlns="http://www.w3.org/2000/svg">
<path d="M14.0002 25.6666C7.55666 25.6666 2.3335 20.4434 2.3335 13.9999C2.3335 7.55642 7.55666 2.33325 14.0002 2.33325C20.4437 2.33325 25.6668 7.55642 25.6668 13.9999C25.6668 20.4434 20.4437 25.6666 14.0002 25.6666ZM14.0002 23.3333C16.4755 23.3333 18.8495 22.3499 20.5998 20.5996C22.3502 18.8492 23.3335 16.4753 23.3335 13.9999C23.3335 11.5246 22.3502 9.15059 20.5998 7.40026C18.8495 5.64992 16.4755 4.66659 14.0002 4.66659C11.5248 4.66659 9.15084 5.64992 7.4005 7.40026C5.65016 9.15059 4.66683 11.5246 4.66683 13.9999C4.66683 16.4753 5.65016 18.8492 7.4005 20.5996C9.15084 22.3499 11.5248 23.3333 14.0002 23.3333ZM15.1668 13.9999H19.8335V16.3333H12.8335V8.16658H15.1668V13.9999Z" fill="black"/>
</svg>
