<svg width="64" height="64" viewBox="0 0 64 64" fill="none" xmlns="http://www.w3.org/2000/svg">
<path d="M31.9997 58.6667C17.2717 58.6667 5.33301 46.728 5.33301 32C5.33301 17.272 17.2717 5.33334 31.9997 5.33334C46.7277 5.33334 58.6663 17.272 58.6663 32C58.6663 46.728 46.7277 58.6667 31.9997 58.6667ZM31.9997 53.3333C37.6576 53.3333 43.0838 51.0857 47.0846 47.085C51.0854 43.0842 53.333 37.658 53.333 32C53.333 26.3421 51.0854 20.9158 47.0846 16.9151C43.0838 12.9143 37.6576 10.6667 31.9997 10.6667C26.3417 10.6667 20.9155 12.9143 16.9147 16.9151C12.914 20.9158 10.6663 26.3421 10.6663 32C10.6663 37.658 12.914 43.0842 16.9147 47.085C20.9155 51.0857 26.3417 53.3333 31.9997 53.3333ZM18.6663 45.3333C18.6663 41.7971 20.0711 38.4057 22.5716 35.9053C25.0721 33.4048 28.4635 32 31.9997 32C35.5359 32 38.9273 33.4048 41.4278 35.9053C43.9282 38.4057 45.333 41.7971 45.333 45.3333H39.9997C39.9997 43.2116 39.1568 41.1768 37.6565 39.6765C36.1562 38.1762 34.1214 37.3333 31.9997 37.3333C29.8779 37.3333 27.8431 38.1762 26.3428 39.6765C24.8425 41.1768 23.9997 43.2116 23.9997 45.3333H18.6663ZM21.333 29.3333C20.2721 29.3333 19.2547 28.9119 18.5046 28.1618C17.7544 27.4116 17.333 26.3942 17.333 25.3333C17.333 24.2725 17.7544 23.2551 18.5046 22.5049C19.2547 21.7548 20.2721 21.3333 21.333 21.3333C22.3939 21.3333 23.4113 21.7548 24.1614 22.5049C24.9116 23.2551 25.333 24.2725 25.333 25.3333C25.333 26.3942 24.9116 27.4116 24.1614 28.1618C23.4113 28.9119 22.3939 29.3333 21.333 29.3333ZM42.6663 29.3333C41.6055 29.3333 40.5881 28.9119 39.8379 28.1618C39.0878 27.4116 38.6663 26.3942 38.6663 25.3333C38.6663 24.2725 39.0878 23.2551 39.8379 22.5049C40.5881 21.7548 41.6055 21.3333 42.6663 21.3333C43.7272 21.3333 44.7446 21.7548 45.4948 22.5049C46.2449 23.2551 46.6663 24.2725 46.6663 25.3333C46.6663 26.3942 46.2449 27.4116 45.4948 28.1618C44.7446 28.9119 43.7272 29.3333 42.6663 29.3333Z" fill="black"/>
</svg>
