<svg width="64" height="64" viewBox="0 0 64 64" fill="none" xmlns="http://www.w3.org/2000/svg">
<path d="M25.4673 30.6666C23.876 30.6666 22.3499 30.0344 21.2247 28.9092C20.0995 27.784 19.4673 26.2579 19.4673 24.6666C19.4673 23.0753 20.0995 21.5492 21.2247 20.4239C22.3499 19.2987 23.876 18.6666 25.4673 18.6666C27.0586 18.6666 28.5847 19.2987 29.71 20.4239C30.8352 21.5492 31.4673 23.0753 31.4673 24.6666C31.4673 26.2579 30.8352 27.784 29.71 28.9092C28.5847 30.0344 27.0586 30.6666 25.4673 30.6666ZM26.6673 52.6612V43.7332C26.6673 42.4319 27.0513 41.2346 27.7446 40.1652C25.3677 39.8266 22.9463 39.9878 20.6353 40.6384C18.3242 41.2891 16.1744 42.4149 14.3233 43.9439C17.236 48.2595 21.6264 51.361 26.6673 52.6639M11.8753 39.0933C15.7698 36.2107 20.4888 34.6586 25.334 34.6666C28.0348 34.6643 30.7142 35.1448 33.246 36.0852C35.5873 35.1732 38.3793 34.6666 41.334 34.6666C45.7606 34.6666 49.8273 35.7973 52.55 37.7492C53.4501 34.5222 53.5775 31.1286 52.922 27.8432C52.2664 24.5577 50.8463 21.4729 48.7767 18.8384C46.707 16.204 44.046 14.094 41.0091 12.6793C37.9723 11.2647 34.6449 10.5852 31.2965 10.6958C27.9482 10.8065 24.6729 11.7042 21.736 13.3162C18.7992 14.9282 16.2832 17.2092 14.392 19.9746C12.5008 22.7399 11.2874 25.9118 10.8502 29.2333C10.413 32.5549 10.7641 35.9327 11.8753 39.0933ZM50.3446 42.8959C49.2966 41.4746 45.79 39.9999 41.334 39.9999C35.9846 39.9999 32.0006 42.1252 32.0006 43.7332V53.3332C35.7014 53.3343 39.3387 52.3726 42.5553 50.5426C45.7719 48.7127 48.4545 46.0775 50.3446 42.8959ZM32.0006 58.6666C17.2727 58.6666 5.33398 46.7279 5.33398 31.9999C5.33398 17.2719 17.2727 5.33325 32.0006 5.33325C46.7286 5.33325 58.6673 17.2719 58.6673 31.9999C58.6673 46.7279 46.7286 58.6666 32.0006 58.6666ZM41.334 33.3333C39.9195 33.3333 38.5629 32.7713 37.5627 31.7712C36.5626 30.771 36.0006 29.4144 36.0006 27.9999C36.0006 26.5854 36.5626 25.2289 37.5627 24.2287C38.5629 23.2285 39.9195 22.6666 41.334 22.6666C42.7485 22.6666 44.105 23.2285 45.1052 24.2287C46.1054 25.2289 46.6673 26.5854 46.6673 27.9999C46.6673 29.4144 46.1054 30.771 45.1052 31.7712C44.105 32.7713 42.7485 33.3333 41.334 33.3333Z" fill="black"/>
</svg>
