<svg width="280" height="48" viewBox="0 0 280 48" fill="none" xmlns="http://www.w3.org/2000/svg">
<g clip-path="url(#clip0_143_990)">
<g clip-path="url(#clip1_143_990)">
<path d="M30.8931 1.63203C29.0215 4.50673 28.0896 5.92337 26.8667 7.75423C22.4326 14.4149 20.6939 18.7642 20.8853 22.7325C21.0267 25.7397 22.3162 28.5481 24.6704 30.992C26.4175 32.8064 28.1395 33.933 30.0531 34.5129C30.7269 34.72 30.9265 34.7367 32.0495 34.7367C33.1727 34.7367 33.3723 34.72 34.0462 34.5129C38.4804 33.1708 42.3487 28.6226 43.0391 23.942C43.2138 22.7159 43.1641 20.885 42.9143 19.6175C42.4235 17.1571 41.1923 14.3155 39.1459 10.894C38.7048 10.165 36.908 7.41457 35.1526 4.78011L31.9581 0L30.8931 1.63203Z" fill="#DA3D2F"/>
<path d="M18.0942 4.99543C17.9611 5.36823 17.2373 8.4749 16.9295 9.98265C16.5884 11.6644 16.0976 14.7379 16.1558 14.7876C16.1724 14.7959 16.6882 15.0527 17.3039 15.351C17.9195 15.6492 18.8429 16.1711 19.3504 16.5025L20.2738 17.1073L20.5483 16.2788C21.1473 14.4397 22.0125 12.5011 23.2437 10.2395C23.6846 9.42761 24.0341 8.75657 24.0258 8.74827C24.0092 8.7317 23.3103 8.28434 22.4617 7.74587C21.6132 7.20738 20.2904 6.34581 19.5251 5.83216C18.6931 5.2771 18.1108 4.93744 18.0942 4.99543Z" fill="#DA3D2F"/>
<path d="M44.6324 5.78257C43.9669 6.22993 42.6772 7.07495 41.7621 7.65486C40.847 8.24305 40.0817 8.74012 40.0569 8.75669C40.0318 8.78154 40.1066 8.94723 40.2148 9.13777C41.5542 11.532 42.7688 14.1747 43.3927 16.0387C43.584 16.6269 43.7587 17.1157 43.767 17.1323C43.7753 17.1488 44.1082 16.9334 44.5159 16.66C45.2894 16.1547 46.3293 15.5665 47.3609 15.086C47.86 14.8457 47.9517 14.7712 47.9183 14.6304C47.9017 14.5309 47.8018 13.9262 47.7104 13.28C47.4857 11.648 47.0283 9.40286 46.5457 7.51402C46.138 5.90684 45.8802 4.9707 45.8468 4.9707C45.8385 4.9707 45.2894 5.33521 44.6324 5.78257Z" fill="#DA3D2F"/>
<path d="M4.45906 15.84C5.71526 21.0923 7.32085 24.8451 9.63358 27.9434C10.374 28.9377 11.9962 30.6111 12.9196 31.3402C15.0244 32.9971 17.1874 34.0161 19.7164 34.5544C20.9144 34.8031 23.7594 34.8694 25.0323 34.6787C25.5065 34.6042 25.9142 34.5297 25.9391 34.5048C25.9642 34.4799 25.8726 34.3804 25.7395 34.281C25.2735 33.9331 23.6098 32.2598 23.1024 31.6467C21.505 29.6751 20.3403 27.2394 19.8828 24.8865C19.5417 23.1302 19.5001 21.7468 19.7247 19.8165C19.8162 19.0046 19.9077 19.1289 18.5933 18.2425C15.5152 16.163 11.522 15.0529 6.07297 14.7464C5.22442 14.705 4.45073 14.6636 4.35922 14.6636C4.18453 14.6636 4.18453 14.6718 4.45906 15.84Z" fill="#DA3D2F"/>
<path d="M58.2342 14.7214C57.0362 14.7794 55.5637 14.9286 54.3657 15.1274C50.5722 15.7487 47.6521 16.8091 45.2146 18.4577L44.2581 19.1039L44.2664 19.427C44.2664 19.6093 44.3161 20.2886 44.3743 20.9348C44.7489 25.1929 43.1183 29.5671 39.8821 32.9223C39.4827 33.3365 38.9336 33.8585 38.6509 34.0905L38.1433 34.5047L38.6675 34.6123C38.9504 34.6704 39.9735 34.7367 40.9303 34.7698C42.3279 34.803 42.8687 34.7863 43.634 34.6786C46.5374 34.2562 48.9001 33.1874 51.4125 31.1744C54.7317 28.5067 57.2027 24.3397 58.8498 18.5985C59.2076 17.3642 59.7732 15.0031 59.7732 14.7546C59.7732 14.6635 59.4654 14.6635 58.2342 14.7214Z" fill="#DA3D2F"/>
<path d="M6.77335 28.7967C5.02134 29.6465 2.21872 31.3741 0.72909 32.5184L-0.0121714 33.0953L0.867672 33.6657C4.2678 35.8982 7.83304 37.5926 10.719 38.351C14.7463 39.4228 17.7407 39.318 20.4185 38.0166C21.424 37.534 23.195 36.4192 22.8673 36.4838C21.9887 36.6491 19.0407 36.225 17.3813 35.708C13.8383 34.5932 10.9667 32.5495 8.40576 29.3271L7.64519 28.3715L6.77335 28.7967Z" fill="#DA3D2F"/>
<path d="M55.0681 30.0024C52.3636 33.2809 48.9107 35.4223 45.0021 36.2497C43.3959 36.5894 40.9642 36.7645 40.1891 36.6032C39.9502 36.5504 40.8013 37.1705 41.8384 37.8151C43.8047 39.0227 45.7792 39.5056 48.6164 39.468C52.3965 39.418 56.8684 37.9061 61.8223 35.0105C63.3523 34.1202 63.3006 34.283 62.3598 33.5048C61.0555 32.4106 58.1236 30.4271 56.5318 29.5678L55.7751 29.155L55.0681 30.0024Z" fill="#DA3D2F"/>
<path d="M27.141 34.6372C26.118 35.1757 25.5189 35.772 25.053 36.7165C24.8034 37.2219 24.7535 37.4207 24.7203 38.042C24.6621 38.9201 24.8034 39.5499 25.2694 40.5108C26.0346 42.1096 28.6137 45.0342 31.2592 47.3288L32.0412 47.9999L32.3573 47.7515C35.0609 45.6223 37.9145 42.4742 38.8712 40.5771C39.3786 39.5663 39.5534 38.3734 39.3287 37.4125C39.0625 36.2525 38.0144 35.0513 36.858 34.5958C36.5999 34.4879 36.5668 34.4964 36.0925 34.8276C34.9362 35.6395 33.6219 36.0289 32.0578 36.0123C30.5271 36.004 29.3458 35.6395 28.1312 34.7944C27.84 34.5873 27.5904 34.4216 27.5736 34.4216C27.5571 34.4216 27.3657 34.5211 27.141 34.6372Z" fill="#DA3D2F"/>
<path d="M23.3892 37.9886C23.2896 38.1625 21.5757 39.2311 20.9102 39.5543C20.1199 39.9271 19.055 40.2668 18.4477 40.3495L18.0151 40.4076L17.5742 41.0787C17.0168 41.9319 16.2515 43.3568 16.318 43.4231C16.4511 43.5557 19.4544 43.0917 21.2513 42.6608C22.233 42.4206 24.4208 41.7744 24.6207 41.6585C24.6455 41.6419 24.5125 41.294 24.3044 40.8963C23.8969 40.0928 23.6222 39.1401 23.5891 38.3945C23.564 37.9139 23.5057 37.798 23.3892 37.9886Z" fill="#DA3D2F"/>
<path d="M40.4187 38.4731C40.3354 39.3181 40.1441 39.9476 39.7364 40.7926C39.5285 41.2235 39.3703 41.5796 39.3872 41.5963C39.4454 41.6543 41.6248 42.3087 42.5317 42.5407C44.1457 42.9631 47.4401 43.4852 47.5732 43.3526C47.6397 43.2945 46.9992 42.1016 46.3668 41.1073L45.9011 40.3702L45.2356 40.2209C43.8962 39.9311 42.4069 39.2683 41.2673 38.4564C40.9344 38.2244 40.6183 38.0008 40.5684 37.9677C40.5019 37.9345 40.4602 38.0918 40.4187 38.4731Z" fill="#DA3D2F"/>
</g>
<path d="M83.56 38V10H87.48V34.4H100.48V38H83.56ZM119.017 38.6C116.857 38.6 114.95 38.16 113.297 37.28C111.67 36.3733 110.403 35.12 109.497 33.52C108.59 31.8933 108.137 30.0267 108.137 27.92V10H112.057V27.92C112.057 29.3067 112.35 30.5333 112.937 31.6C113.55 32.6667 114.377 33.4933 115.417 34.08C116.483 34.6667 117.71 34.96 119.097 34.96C120.483 34.96 121.71 34.6667 122.777 34.08C123.843 33.4933 124.67 32.6667 125.257 31.6C125.843 30.5333 126.137 29.3067 126.137 27.92V10H130.097V27.92C130.097 30.0267 129.63 31.8933 128.697 33.52C127.79 35.12 126.497 36.3733 124.817 37.28C123.163 38.16 121.23 38.6 119.017 38.6ZM140.779 38V10H144.939L154.219 23.72L163.459 10H167.619V38H163.699V16.32L154.179 30.36L144.699 16.36V38H140.779ZM178.724 38V10H182.644V38H178.724ZM193.779 38V10H203.219C205.085 10 206.725 10.3867 208.139 11.16C209.579 11.9067 210.699 12.96 211.499 14.32C212.325 15.6533 212.739 17.2133 212.739 19C212.739 20.7333 212.365 22.28 211.619 23.64C210.872 25 209.832 26.0667 208.499 26.84C207.192 27.6133 205.685 28 203.979 28H197.699V38H193.779ZM197.699 24.36H203.939C205.352 24.36 206.512 23.8667 207.419 22.88C208.325 21.8667 208.779 20.5733 208.779 19C208.779 17.3733 208.245 16.0667 207.179 15.08C206.139 14.0933 204.805 13.6 203.179 13.6H197.699V24.36ZM240.216 38V10H244.136V38H240.216ZM221.216 38V10H225.136V38H221.216ZM224.496 25.4V21.8H241.456V25.4H224.496ZM274.615 38L263.535 10H267.535L278.815 38H274.615ZM252.055 38L263.335 10H267.335L256.255 38H252.055ZM257.375 30.52V27H273.495V30.52H257.375Z" fill="black"/>
</g>
<defs>
<clipPath id="clip0_143_990">
<rect width="280" height="48" fill="white"/>
</clipPath>
<clipPath id="clip1_143_990">
<rect width="64" height="48" fill="white"/>
</clipPath>
</defs>
</svg>
