<svg width="64" height="64" viewBox="0 0 64 64" fill="none" xmlns="http://www.w3.org/2000/svg">
<path d="M32.0006 58.6666C17.2727 58.6666 5.33398 46.7279 5.33398 31.9999C5.33398 17.2719 17.2727 5.33325 32.0006 5.33325C46.7286 5.33325 58.6673 17.2719 58.6673 31.9999C58.6673 46.7279 46.7286 58.6666 32.0006 58.6666ZM32.0006 53.3332C37.6586 53.3332 43.0848 51.0856 47.0856 47.0849C51.0864 43.0841 53.334 37.6579 53.334 31.9999C53.334 26.342 51.0864 20.9157 47.0856 16.915C43.0848 12.9142 37.6586 10.6666 32.0006 10.6666C26.3427 10.6666 20.9165 12.9142 16.9157 16.915C12.9149 20.9157 10.6673 26.342 10.6673 31.9999C10.6673 37.6579 12.9149 43.0841 16.9157 47.0849C20.9165 51.0856 26.3427 53.3332 32.0006 53.3332ZM34.6673 27.9999V39.9999H37.334V45.3332H26.6673V39.9999H29.334V33.3333H26.6673V27.9999H34.6673ZM36.0006 21.3333C36.0006 22.3941 35.5792 23.4115 34.8291 24.1617C34.0789 24.9118 33.0615 25.3333 32.0006 25.3333C30.9398 25.3333 29.9224 24.9118 29.1722 24.1617C28.4221 23.4115 28.0007 22.3941 28.0007 21.3333C28.0007 20.2724 28.4221 19.255 29.1722 18.5048C29.9224 17.7547 30.9398 17.3333 32.0006 17.3333C33.0615 17.3333 34.0789 17.7547 34.8291 18.5048C35.5792 19.255 36.0006 20.2724 36.0006 21.3333Z" fill="black"/>
</svg>
