<svg width="354" height="164" viewBox="0 0 354 164" fill="none" xmlns="http://www.w3.org/2000/svg">
<g clip-path="url(#clip0_551_7405)">
<rect width="354" height="164" rx="8" fill="black"/>
<g filter="url(#filter0_f_551_7405)">
<rect width="354" height="164" fill="#343655"/>
</g>
<rect x="68.25" y="33.25" width="43.5" height="33.5" rx="16.75" fill="white" fill-opacity="0.12"/>
<rect x="68.25" y="33.25" width="43.5" height="33.5" rx="16.75" stroke="white" stroke-width="2.5"/>
<path d="M83.675 55.5413C83.3992 56.2761 83.1466 57.0194 82.9175 57.7701C84.1175 56.8988 85.5437 56.3451 87.19 56.1401C90.3313 55.7476 93.1225 53.6738 94.535 51.0676L92.715 49.2488L94.4812 47.4801L95.7312 46.2276C96.2687 45.6913 96.875 44.6976 97.5163 43.2688C90.525 44.3526 86.245 48.6326 83.675 55.5413ZM96.25 49.2463L97.5 50.4963C96.25 54.2463 92.5 57.9963 87.5 58.6213C84.1642 59.038 82.08 61.3297 81.2475 65.4963H78.75C80 57.9963 82.5 40.4963 101.25 40.4963C100 44.243 98.7513 46.7418 97.5037 47.9926L96.25 49.2463Z" fill="white"/>
<path d="M137.888 43.82H132.284L133.448 42.248V59H130.28V42.248L131.504 43.82H125.852V41.3H137.888V43.82ZM149.342 59V54.404C149.342 54.212 149.342 53.972 149.342 53.684C149.342 53.396 149.342 53.104 149.342 52.808C149.342 52.512 149.342 52.268 149.342 52.076C149.342 51.02 149.134 50.212 148.718 49.652C148.31 49.084 147.61 48.8 146.618 48.8C145.954 48.8 145.386 48.932 144.914 49.196C144.45 49.452 144.094 49.812 143.846 50.276C143.598 50.74 143.474 51.276 143.474 51.884L142.322 51.272C142.322 50.256 142.55 49.356 143.006 48.572C143.47 47.78 144.11 47.16 144.926 46.712C145.742 46.264 146.678 46.04 147.734 46.04C149.278 46.04 150.458 46.5 151.274 47.42C152.09 48.332 152.498 49.604 152.498 51.236C152.498 51.652 152.498 52.148 152.498 52.724C152.498 53.292 152.498 53.932 152.498 54.644V59H149.342ZM140.318 59V40.244H143.474V59H140.318ZM156.729 53.648V51.404H165.645L165.285 52.004C165.285 51.956 165.285 51.904 165.285 51.848C165.285 51.784 165.285 51.732 165.285 51.692C165.285 51.14 165.161 50.624 164.913 50.144C164.665 49.656 164.289 49.264 163.785 48.968C163.281 48.664 162.641 48.512 161.865 48.512C161.097 48.512 160.429 48.676 159.861 49.004C159.301 49.324 158.865 49.788 158.553 50.396C158.249 51.004 158.097 51.732 158.097 52.58C158.097 53.452 158.245 54.204 158.541 54.836C158.837 55.46 159.269 55.94 159.837 56.276C160.413 56.604 161.113 56.768 161.937 56.768C162.497 56.768 162.981 56.716 163.389 56.612C163.797 56.508 164.129 56.368 164.385 56.192C164.649 56.008 164.845 55.812 164.973 55.604C165.109 55.396 165.189 55.188 165.213 54.98H168.357C168.309 55.516 168.129 56.04 167.817 56.552C167.513 57.056 167.085 57.516 166.533 57.932C165.981 58.34 165.309 58.668 164.517 58.916C163.733 59.156 162.837 59.276 161.829 59.276C160.461 59.276 159.265 58.996 158.241 58.436C157.217 57.876 156.417 57.096 155.841 56.096C155.273 55.096 154.989 53.952 154.989 52.664C154.989 51.344 155.277 50.188 155.853 49.196C156.437 48.204 157.245 47.432 158.277 46.88C159.309 46.32 160.493 46.04 161.829 46.04C163.205 46.04 164.393 46.32 165.393 46.88C166.401 47.44 167.177 48.22 167.721 49.22C168.265 50.212 168.537 51.368 168.537 52.688C168.537 52.856 168.533 53.036 168.525 53.228C168.517 53.42 168.505 53.56 168.489 53.648H156.729ZM183.727 41.3C184.911 41.3 185.895 41.468 186.679 41.804C187.463 42.132 188.051 42.612 188.443 43.244C188.843 43.876 189.043 44.648 189.043 45.56C189.043 46.44 188.863 47.188 188.503 47.804C188.151 48.412 187.703 48.88 187.159 49.208C186.615 49.536 186.055 49.72 185.479 49.76C186.087 49.776 186.695 49.924 187.303 50.204C187.919 50.484 188.431 50.932 188.839 51.548C189.247 52.164 189.451 52.992 189.451 54.032C189.451 55.016 189.255 55.884 188.863 56.636C188.471 57.38 187.847 57.96 186.991 58.376C186.143 58.792 185.035 59 183.667 59H177.103V41.3H183.727ZM180.127 49.52L179.083 48.596H182.647C183.703 48.596 184.503 48.376 185.047 47.936C185.599 47.488 185.875 46.868 185.875 46.076C185.875 45.54 185.759 45.108 185.527 44.78C185.303 44.452 184.967 44.212 184.519 44.06C184.079 43.9 183.547 43.82 182.923 43.82H178.699L180.127 42.248V49.52ZM183.043 56.48C184.067 56.48 184.855 56.248 185.407 55.784C185.959 55.32 186.235 54.672 186.235 53.84C186.235 53.36 186.147 52.948 185.971 52.604C185.803 52.252 185.563 51.968 185.251 51.752C184.947 51.528 184.587 51.364 184.171 51.26C183.763 51.156 183.315 51.104 182.827 51.104H179.083L180.127 50.168V58.052L178.699 56.48H183.043ZM195.544 40.244V59H192.436V40.244H195.544ZM203.355 59.24C202.452 59.24 201.7 59.088 201.1 58.784C200.508 58.48 200.04 58.08 199.696 57.584C199.36 57.088 199.12 56.54 198.976 55.94C198.84 55.34 198.771 54.74 198.771 54.14C198.771 53.844 198.771 53.536 198.771 53.216C198.771 52.896 198.771 52.572 198.771 52.244V46.256H201.94V51.752C201.94 52.04 201.94 52.316 201.94 52.58C201.94 52.844 201.94 53.092 201.94 53.324C201.94 53.892 202.008 54.42 202.144 54.908C202.28 55.388 202.528 55.776 202.888 56.072C203.256 56.368 203.772 56.516 204.436 56.516C205.068 56.516 205.612 56.332 206.068 55.964C206.524 55.588 206.876 55.116 207.124 54.548C207.38 53.98 207.508 53.404 207.508 52.82L208.588 53.54C208.588 54.316 208.468 55.048 208.228 55.736C207.988 56.416 207.64 57.02 207.184 57.548C206.728 58.076 206.176 58.492 205.528 58.796C204.888 59.092 204.164 59.24 203.355 59.24ZM207.508 59V46.256H210.664V59H207.508ZM214.877 53.648V51.404H223.793L223.433 52.004C223.433 51.956 223.433 51.904 223.433 51.848C223.433 51.784 223.433 51.732 223.433 51.692C223.433 51.14 223.309 50.624 223.061 50.144C222.813 49.656 222.437 49.264 221.933 48.968C221.429 48.664 220.789 48.512 220.013 48.512C219.245 48.512 218.577 48.676 218.009 49.004C217.449 49.324 217.013 49.788 216.701 50.396C216.397 51.004 216.245 51.732 216.245 52.58C216.245 53.452 216.393 54.204 216.689 54.836C216.985 55.46 217.417 55.94 217.985 56.276C218.561 56.604 219.261 56.768 220.085 56.768C220.645 56.768 221.129 56.716 221.537 56.612C221.945 56.508 222.277 56.368 222.533 56.192C222.797 56.008 222.993 55.812 223.121 55.604C223.257 55.396 223.337 55.188 223.361 54.98H226.505C226.457 55.516 226.277 56.04 225.965 56.552C225.661 57.056 225.233 57.516 224.681 57.932C224.129 58.34 223.457 58.668 222.665 58.916C221.881 59.156 220.985 59.276 219.977 59.276C218.609 59.276 217.413 58.996 216.389 58.436C215.365 57.876 214.565 57.096 213.989 56.096C213.421 55.096 213.137 53.952 213.137 52.664C213.137 51.344 213.425 50.188 214.001 49.196C214.585 48.204 215.393 47.432 216.425 46.88C217.457 46.32 218.641 46.04 219.977 46.04C221.353 46.04 222.541 46.32 223.541 46.88C224.549 47.44 225.325 48.22 225.869 49.22C226.413 50.212 226.685 51.368 226.685 52.688C226.685 52.856 226.681 53.036 226.673 53.228C226.665 53.42 226.653 53.56 226.637 53.648H214.877ZM229.287 64.244V46.256H232.443V64.244H229.287ZM236.463 59.264C235.471 59.264 234.551 59.008 233.703 58.496C232.863 57.976 232.183 57.268 231.663 56.372C231.151 55.476 230.895 54.468 230.895 53.348C230.895 53.316 230.895 53.288 230.895 53.264C230.895 53.232 230.895 53.204 230.895 53.18L232.455 53.144C232.455 53.16 232.455 53.18 232.455 53.204C232.455 53.228 232.455 53.248 232.455 53.264C232.455 53.888 232.611 54.444 232.923 54.932C233.235 55.412 233.639 55.792 234.135 56.072C234.639 56.344 235.175 56.48 235.743 56.48C236.663 56.48 237.447 56.164 238.095 55.532C238.743 54.9 239.067 53.92 239.067 52.592C239.067 51.256 238.743 50.28 238.095 49.664C237.455 49.04 236.671 48.728 235.743 48.728C235.183 48.728 234.651 48.864 234.147 49.136C233.651 49.4 233.243 49.768 232.923 50.24C232.611 50.712 232.455 51.264 232.455 51.896L230.895 51.824C230.895 50.696 231.151 49.696 231.663 48.824C232.183 47.952 232.863 47.272 233.703 46.784C234.551 46.288 235.471 46.04 236.463 46.04C237.495 46.04 238.455 46.292 239.343 46.796C240.239 47.3 240.959 48.04 241.503 49.016C242.055 49.992 242.331 51.184 242.331 52.592C242.331 54.04 242.063 55.26 241.527 56.252C240.991 57.244 240.279 57.996 239.391 58.508C238.503 59.012 237.527 59.264 236.463 59.264ZM244.943 59V46.256H248.099V50.492L247.367 50.084C247.447 49.532 247.595 49.012 247.811 48.524C248.027 48.028 248.315 47.596 248.675 47.228C249.035 46.852 249.471 46.56 249.983 46.352C250.495 46.144 251.079 46.04 251.735 46.04C252.255 46.04 252.663 46.08 252.959 46.16C253.263 46.232 253.451 46.292 253.523 46.34L252.947 49.232C252.867 49.176 252.703 49.108 252.455 49.028C252.215 48.94 251.891 48.896 251.483 48.896C250.835 48.896 250.291 49.008 249.851 49.232C249.419 49.448 249.075 49.744 248.819 50.12C248.563 50.488 248.379 50.896 248.267 51.344C248.155 51.784 248.099 52.224 248.099 52.664V59H244.943ZM255.454 59V46.256H258.574V59H255.454ZM257.026 43.904C256.514 43.904 256.066 43.768 255.682 43.496C255.306 43.216 255.118 42.828 255.118 42.332C255.118 41.844 255.306 41.464 255.682 41.192C256.066 40.92 256.514 40.784 257.026 40.784C257.53 40.784 257.97 40.92 258.346 41.192C258.722 41.464 258.91 41.844 258.91 42.332C258.91 42.828 258.722 43.216 258.346 43.496C257.97 43.768 257.53 43.904 257.026 43.904ZM270.713 59V53.348C270.713 53.028 270.713 52.748 270.713 52.508C270.713 52.26 270.713 52.036 270.713 51.836C270.713 51.26 270.629 50.744 270.461 50.288C270.301 49.824 270.021 49.46 269.621 49.196C269.229 48.932 268.685 48.8 267.989 48.8C267.381 48.8 266.841 48.948 266.369 49.244C265.897 49.532 265.525 49.932 265.253 50.444C264.989 50.948 264.857 51.532 264.857 52.196L263.789 51.536C263.789 50.472 264.029 49.528 264.509 48.704C264.997 47.872 265.649 47.22 266.465 46.748C267.281 46.276 268.185 46.04 269.177 46.04C270.201 46.04 271.061 46.24 271.757 46.64C272.461 47.04 272.989 47.608 273.341 48.344C273.701 49.08 273.881 49.944 273.881 50.936C273.881 51.32 273.881 51.752 273.881 52.232C273.881 52.712 273.881 53.184 273.881 53.648V59H270.713ZM261.701 59V46.256H264.857V59H261.701ZM282.463 59.24C282.007 59.24 281.543 59.196 281.071 59.108C280.599 59.02 280.167 58.856 279.775 58.616C279.383 58.376 279.067 58.024 278.827 57.56C278.587 57.096 278.467 56.484 278.467 55.724C278.467 55.548 278.467 55.372 278.467 55.196C278.467 55.012 278.467 54.824 278.467 54.632V48.776H275.455V46.256H276.679C277.095 46.256 277.423 46.24 277.663 46.208C277.903 46.168 278.079 46.08 278.191 45.944C278.303 45.808 278.375 45.596 278.407 45.308C278.447 45.012 278.467 44.604 278.467 44.084V42.056H281.635V46.256H285.427V48.776H281.635V53.888C281.635 54.04 281.635 54.192 281.635 54.344C281.635 54.488 281.635 54.628 281.635 54.764C281.635 55.356 281.707 55.832 281.851 56.192C281.995 56.552 282.335 56.732 282.871 56.732C283.127 56.732 283.367 56.708 283.591 56.66C283.823 56.612 283.995 56.564 284.107 56.516V58.988C283.955 59.044 283.735 59.1 283.447 59.156C283.159 59.212 282.831 59.24 282.463 59.24Z" fill="white"/>
<g clip-path="url(#clip1_551_7405)">
<path d="M145.626 118V106.2H149.154C149.938 106.2 150.65 106.341 151.29 106.624C151.93 106.901 152.479 107.299 152.938 107.816C153.396 108.333 153.751 108.955 154.002 109.68C154.252 110.4 154.378 111.203 154.378 112.088C154.378 112.973 154.252 113.779 154.002 114.504C153.751 115.224 153.396 115.845 152.938 116.368C152.479 116.891 151.93 117.293 151.29 117.576C150.65 117.859 149.938 118 149.154 118H145.626ZM147.738 117.368L146.786 116.32H148.882C149.522 116.32 150.092 116.149 150.594 115.808C151.1 115.461 151.5 114.973 151.794 114.344C152.087 113.709 152.234 112.957 152.234 112.088C152.234 111.213 152.087 110.461 151.794 109.832C151.5 109.203 151.1 108.72 150.594 108.384C150.092 108.048 149.522 107.88 148.882 107.88H146.786L147.738 106.832V117.368ZM156.918 114.432V112.936H162.862L162.622 113.336C162.622 113.304 162.622 113.269 162.622 113.232C162.622 113.189 162.622 113.155 162.622 113.128C162.622 112.76 162.539 112.416 162.374 112.096C162.209 111.771 161.958 111.509 161.622 111.312C161.286 111.109 160.859 111.008 160.342 111.008C159.83 111.008 159.385 111.117 159.006 111.336C158.633 111.549 158.342 111.859 158.134 112.264C157.931 112.669 157.83 113.155 157.83 113.72C157.83 114.301 157.929 114.803 158.126 115.224C158.323 115.64 158.611 115.96 158.99 116.184C159.374 116.403 159.841 116.512 160.39 116.512C160.763 116.512 161.086 116.477 161.358 116.408C161.63 116.339 161.851 116.245 162.022 116.128C162.198 116.005 162.329 115.875 162.414 115.736C162.505 115.597 162.558 115.459 162.574 115.32H164.67C164.638 115.677 164.518 116.027 164.31 116.368C164.107 116.704 163.822 117.011 163.454 117.288C163.086 117.56 162.638 117.779 162.11 117.944C161.587 118.104 160.99 118.184 160.318 118.184C159.406 118.184 158.609 117.997 157.926 117.624C157.243 117.251 156.71 116.731 156.326 116.064C155.947 115.397 155.758 114.635 155.758 113.776C155.758 112.896 155.95 112.125 156.334 111.464C156.723 110.803 157.262 110.288 157.95 109.92C158.638 109.547 159.427 109.36 160.318 109.36C161.235 109.36 162.027 109.547 162.694 109.92C163.366 110.293 163.883 110.813 164.246 111.48C164.609 112.141 164.79 112.912 164.79 113.792C164.79 113.904 164.787 114.024 164.782 114.152C164.777 114.28 164.769 114.373 164.758 114.432H156.918ZM172.533 118V114.232C172.533 114.019 172.533 113.832 172.533 113.672C172.533 113.507 172.533 113.357 172.533 113.224C172.533 112.84 172.477 112.496 172.365 112.192C172.258 111.883 172.071 111.64 171.805 111.464C171.543 111.288 171.181 111.2 170.717 111.2C170.311 111.2 169.951 111.299 169.637 111.496C169.322 111.688 169.074 111.955 168.893 112.296C168.717 112.632 168.629 113.021 168.629 113.464L167.917 113.024C167.917 112.315 168.077 111.685 168.397 111.136C168.722 110.581 169.157 110.147 169.701 109.832C170.245 109.517 170.847 109.36 171.509 109.36C172.191 109.36 172.765 109.493 173.229 109.76C173.698 110.027 174.05 110.405 174.285 110.896C174.525 111.387 174.645 111.963 174.645 112.624C174.645 112.88 174.645 113.168 174.645 113.488C174.645 113.808 174.645 114.123 174.645 114.432V118H172.533ZM166.525 118V109.504H168.629V118H166.525ZM177.449 114.432V112.936H183.393L183.153 113.336C183.153 113.304 183.153 113.269 183.153 113.232C183.153 113.189 183.153 113.155 183.153 113.128C183.153 112.76 183.071 112.416 182.905 112.096C182.74 111.771 182.489 111.509 182.153 111.312C181.817 111.109 181.391 111.008 180.873 111.008C180.361 111.008 179.916 111.117 179.537 111.336C179.164 111.549 178.873 111.859 178.665 112.264C178.463 112.669 178.361 113.155 178.361 113.72C178.361 114.301 178.46 114.803 178.657 115.224C178.855 115.64 179.143 115.96 179.521 116.184C179.905 116.403 180.372 116.512 180.921 116.512C181.295 116.512 181.617 116.477 181.889 116.408C182.161 116.339 182.383 116.245 182.553 116.128C182.729 116.005 182.86 115.875 182.945 115.736C183.036 115.597 183.089 115.459 183.105 115.32H185.201C185.169 115.677 185.049 116.027 184.841 116.368C184.639 116.704 184.353 117.011 183.985 117.288C183.617 117.56 183.169 117.779 182.641 117.944C182.119 118.104 181.521 118.184 180.849 118.184C179.937 118.184 179.14 117.997 178.457 117.624C177.775 117.251 177.241 116.731 176.857 116.064C176.479 115.397 176.289 114.635 176.289 113.776C176.289 112.896 176.481 112.125 176.865 111.464C177.255 110.803 177.793 110.288 178.481 109.92C179.169 109.547 179.959 109.36 180.849 109.36C181.767 109.36 182.559 109.547 183.225 109.92C183.897 110.293 184.415 110.813 184.777 111.48C185.14 112.141 185.321 112.912 185.321 113.792C185.321 113.904 185.319 114.024 185.313 114.152C185.308 114.28 185.3 114.373 185.289 114.432H177.449Z" fill="white"/>
<path d="M206.172 111L200.808 105.636L202.222 104.222L210 112L202.222 119.778L200.808 118.364L206.172 113H194V111H206.172Z" fill="white"/>
</g>
<rect x="33" y="93" width="288" height="38" rx="19" stroke="white" stroke-width="2"/>
</g>
<defs>
<filter id="filter0_f_551_7405" x="-256" y="-256" width="866" height="676" filterUnits="userSpaceOnUse" color-interpolation-filters="sRGB">
<feFlood flood-opacity="0" result="BackgroundImageFix"/>
<feBlend mode="normal" in="SourceGraphic" in2="BackgroundImageFix" result="shape"/>
<feGaussianBlur stdDeviation="128" result="effect1_foregroundBlur_551_7405"/>
</filter>
<clipPath id="clip0_551_7405">
<rect width="354" height="164" rx="8" fill="white"/>
</clipPath>
<clipPath id="clip1_551_7405">
<rect x="32" y="92" width="290" height="40" rx="20" fill="white"/>
</clipPath>
</defs>
</svg>
