<svg width="402" height="155" viewBox="0 0 402 155" fill="none" xmlns="http://www.w3.org/2000/svg">
<rect width="402" height="155" fill="black"/>
<g opacity="0.24">
<path d="M48.1069 107V48H51.1869V105.92L49.7869 104.24H75.3469V107H48.1069ZM101.834 107.72C98.7404 107.72 96.2338 107.173 94.3138 106.08C92.3938 104.96 90.9004 103.547 89.8338 101.84C88.7938 100.133 88.0738 98.3333 87.6738 96.44C87.3004 94.52 87.1138 92.7467 87.1138 91.12C87.1138 90.1067 87.1138 89.0533 87.1138 87.96C87.1138 86.84 87.1138 85.7467 87.1138 84.68V64.52H90.1938V84.52C90.1938 85.56 90.1938 86.6 90.1938 87.64C90.1938 88.6533 90.1938 89.6267 90.1938 90.56C90.1938 92.9867 90.5538 95.2933 91.2738 97.48C92.0204 99.6667 93.2738 101.453 95.0338 102.84C96.7938 104.2 99.1938 104.88 102.234 104.88C105.007 104.88 107.474 104.173 109.634 102.76C111.82 101.347 113.527 99.5333 114.754 97.32C116.007 95.08 116.634 92.7333 116.634 90.28L118.714 91.12C118.714 93.0133 118.34 94.9333 117.594 96.88C116.847 98.8267 115.754 100.627 114.314 102.28C112.874 103.907 111.1 105.227 108.994 106.24C106.914 107.227 104.527 107.72 101.834 107.72ZM116.634 107V64.52H119.714V107H116.634ZM160.219 107V86.72C160.219 84.9867 160.219 83.4933 160.219 82.24C160.219 80.9867 160.219 79.9467 160.219 79.12C160.219 78.08 160.139 76.8667 159.979 75.48C159.819 74.0933 159.433 72.7467 158.819 71.44C158.206 70.1333 157.233 69.0533 155.899 68.2C154.566 67.32 152.726 66.88 150.379 66.88C147.926 66.88 145.859 67.3867 144.179 68.4C142.526 69.3867 141.193 70.6533 140.179 72.2C139.193 73.72 138.486 75.32 138.059 77C137.633 78.6533 137.419 80.1467 137.419 81.48L135.419 80.72C135.419 77.8133 136.033 75.08 137.259 72.52C138.486 69.96 140.246 67.8933 142.539 66.32C144.859 64.7467 147.619 63.96 150.819 63.96C153.859 63.96 156.286 64.56 158.099 65.76C159.913 66.9333 161.219 68.6 162.019 70.76C162.846 72.92 163.259 75.48 163.259 78.44C163.259 79.4533 163.259 80.7067 163.259 82.2C163.259 83.6667 163.259 85.28 163.259 87.04V107H160.219ZM134.379 107V64.52H137.419V107H134.379ZM186.019 107V86.68C186.019 84.76 186.019 83.2 186.019 82C186.019 80.8 186.019 79.76 186.019 78.88C186.019 77.92 185.953 76.76 185.819 75.4C185.686 74.04 185.313 72.72 184.699 71.44C184.113 70.1333 183.126 69.0533 181.739 68.2C180.379 67.32 178.459 66.88 175.979 66.88C173.473 66.88 171.393 67.3733 169.739 68.36C168.113 69.3467 166.819 70.5867 165.859 72.08C164.926 73.5733 164.259 75.0933 163.859 76.64C163.459 78.16 163.259 79.48 163.259 80.6L161.259 80C161.259 77.28 161.846 74.7067 163.019 72.28C164.193 69.8267 165.913 67.8267 168.179 66.28C170.446 64.7333 173.193 63.96 176.419 63.96C179.219 63.96 181.553 64.48 183.419 65.52C185.313 66.5333 186.726 68.0533 187.659 70.08C188.619 72.08 189.099 74.5467 189.099 77.48C189.099 78.5467 189.099 79.8267 189.099 81.32C189.099 82.8133 189.099 84.3867 189.099 86.04V107H186.019ZM203.956 107V64.52H206.996V107H203.956ZM205.516 52.88C204.716 52.88 204.023 52.6267 203.436 52.12C202.876 51.6133 202.596 50.96 202.596 50.16C202.596 49.3867 202.876 48.7467 203.436 48.24C204.023 47.7333 204.716 47.48 205.516 47.48C206.316 47.48 206.996 47.7333 207.556 48.24C208.116 48.7467 208.396 49.3867 208.396 50.16C208.396 50.96 208.116 51.6133 207.556 52.12C206.996 52.6267 206.316 52.88 205.516 52.88ZM222.348 124.48V64.52H225.388V124.48H222.348ZM240.708 107.72C237.481 107.72 234.521 106.96 231.828 105.44C229.161 103.893 227.015 101.84 225.388 99.28C223.788 96.6933 222.988 93.8667 222.988 90.8C222.988 90.7467 222.988 90.6933 222.988 90.64C222.988 90.5867 222.988 90.5333 222.988 90.48L225.428 90.44C225.428 90.4667 225.428 90.52 225.428 90.6C225.428 90.6533 225.428 90.7067 225.428 90.76C225.428 93.2667 226.108 95.5867 227.468 97.72C228.855 99.8533 230.681 101.573 232.948 102.88C235.241 104.187 237.721 104.84 240.388 104.84C244.841 104.84 248.468 103.213 251.268 99.96C254.095 96.68 255.508 91.96 255.508 85.8C255.508 79.64 254.108 74.9333 251.308 71.68C248.508 68.4267 244.868 66.8 240.388 66.8C237.721 66.8 235.241 67.4533 232.948 68.76C230.681 70.04 228.855 71.7467 227.468 73.88C226.108 75.9867 225.428 78.3067 225.428 80.84L222.988 80.8C222.988 77.68 223.788 74.8533 225.388 72.32C227.015 69.7867 229.161 67.76 231.828 66.24C234.521 64.72 237.481 63.96 240.708 63.96C244.175 63.96 247.255 64.8133 249.948 66.52C252.668 68.2267 254.801 70.7067 256.348 73.96C257.895 77.2133 258.668 81.16 258.668 85.8C258.668 90.4667 257.895 94.44 256.348 97.72C254.801 100.973 252.681 103.453 249.988 105.16C247.295 106.867 244.201 107.72 240.708 107.72ZM302.209 107V90.72C302.209 89.8667 302.209 88.8933 302.209 87.8C302.209 86.7067 302.209 85.6133 302.209 84.52C302.209 83.4 302.209 82.4 302.209 81.52C302.209 76.88 301.155 73.28 299.049 70.72C296.942 68.16 293.769 66.88 289.529 66.88C286.675 66.88 284.115 67.5067 281.849 68.76C279.582 69.9867 277.795 71.6133 276.489 73.64C275.182 75.64 274.529 77.7867 274.529 80.08L272.289 79.48C272.289 76.7867 273.035 74.2667 274.529 71.92C276.022 69.5467 278.102 67.6267 280.769 66.16C283.435 64.6933 286.502 63.96 289.969 63.96C295.009 63.96 298.822 65.5067 301.409 68.6C303.995 71.6667 305.289 75.9067 305.289 81.32C305.289 82.7333 305.289 84.3333 305.289 86.12C305.289 87.88 305.289 89.6 305.289 91.28V107H302.209ZM271.489 107V44.48H274.529V107H271.489ZM334.286 107.72C330.953 107.72 328.073 107.24 325.646 106.28C323.246 105.32 321.393 103.92 320.086 102.08C318.78 100.213 318.126 97.9467 318.126 95.28C318.126 92.64 318.793 90.4533 320.126 88.72C321.46 86.9867 323.393 85.6267 325.926 84.64C328.46 83.6533 331.513 82.9867 335.086 82.64C340.686 82.08 344.74 81.48 347.246 80.84C349.753 80.2 351.006 79.2 351.006 77.84C351.006 77.6533 351.006 77.48 351.006 77.32C351.006 77.1333 351.006 76.96 351.006 76.8C351.006 73.76 349.766 71.3333 347.286 69.52C344.806 67.7067 341.313 66.8 336.806 66.8C332.14 66.8 328.486 67.8133 325.846 69.84C323.206 71.84 321.886 74.6933 321.886 78.4H318.806C318.806 75.3867 319.54 72.8133 321.006 70.68C322.5 68.52 324.593 66.8667 327.286 65.72C330.006 64.5467 333.18 63.96 336.806 63.96C340.113 63.96 343.06 64.4667 345.646 65.48C348.26 66.4933 350.313 67.9733 351.806 69.92C353.326 71.84 354.086 74.1733 354.086 76.92C354.086 77.4533 354.086 78 354.086 78.56C354.086 79.12 354.086 79.6667 354.086 80.2V99.96C354.086 100.813 354.126 101.64 354.206 102.44C354.286 103.213 354.42 103.893 354.606 104.48C354.82 105.173 355.033 105.733 355.246 106.16C355.486 106.56 355.673 106.84 355.806 107H352.726C352.593 106.893 352.42 106.64 352.206 106.24C351.993 105.813 351.793 105.28 351.606 104.64C351.366 103.867 351.206 103.053 351.126 102.2C351.046 101.32 351.006 100.16 351.006 98.72L351.486 99.16C350.66 100.867 349.406 102.373 347.726 103.68C346.046 104.96 344.06 105.96 341.766 106.68C339.473 107.373 336.98 107.72 334.286 107.72ZM334.726 104.92C337.74 104.92 340.473 104.4 342.926 103.36C345.38 102.32 347.34 100.853 348.806 98.96C350.273 97.04 351.006 94.8 351.006 92.24V80.76L351.606 81.92C350.246 82.8 348.153 83.4933 345.326 84C342.526 84.5067 339.393 84.9333 335.926 85.28C331.153 85.7333 327.5 86.7067 324.966 88.2C322.46 89.6667 321.206 92 321.206 95.2C321.206 98.2933 322.366 100.693 324.686 102.4C327.006 104.08 330.353 104.92 334.726 104.92Z" fill="white"/>
<path d="M41.5469 81.52H360.446V83.52H41.5469V81.52Z" fill="white"/>
</g>
<path d="M63.1515 90V72.3H68.8755C70.0595 72.3 71.1355 72.516 72.1035 72.948C73.0795 73.372 73.9155 73.976 74.6115 74.76C75.3155 75.536 75.8555 76.464 76.2315 77.544C76.6075 78.624 76.7955 79.816 76.7955 81.12C76.7955 82.424 76.6075 83.62 76.2315 84.708C75.8555 85.796 75.3155 86.736 74.6115 87.528C73.9155 88.312 73.0795 88.92 72.1035 89.352C71.1355 89.784 70.0595 90 68.8755 90H63.1515ZM66.8955 88.896L65.2155 87.12H68.3955C69.2595 87.12 70.0395 86.88 70.7355 86.4C71.4395 85.912 71.9955 85.22 72.4035 84.324C72.8115 83.42 73.0155 82.352 73.0155 81.12C73.0155 79.88 72.8115 78.82 72.4035 77.94C71.9955 77.052 71.4395 76.372 70.7355 75.9C70.0395 75.42 69.2595 75.18 68.3955 75.18H65.2155L66.8955 73.404V88.896ZM80.6691 84.744V82.284H89.1171L88.7571 82.908C88.7571 82.844 88.7571 82.784 88.7571 82.728C88.7571 82.664 88.7571 82.604 88.7571 82.548C88.7571 82.092 88.6491 81.656 88.4331 81.24C88.2171 80.816 87.8811 80.472 87.4251 80.208C86.9771 79.936 86.4011 79.8 85.6971 79.8C84.9931 79.8 84.3851 79.952 83.8731 80.256C83.3691 80.552 82.9811 80.98 82.7091 81.54C82.4451 82.1 82.3131 82.776 82.3131 83.568C82.3131 84.384 82.4411 85.084 82.6971 85.668C82.9611 86.244 83.3491 86.688 83.8611 87C84.3811 87.312 85.0251 87.468 85.7931 87.468C86.2891 87.468 86.7171 87.424 87.0771 87.336C87.4371 87.24 87.7291 87.12 87.9531 86.976C88.1851 86.832 88.3611 86.672 88.4811 86.496C88.6011 86.32 88.6731 86.148 88.6971 85.98H92.3691C92.3211 86.516 92.1371 87.044 91.8171 87.564C91.4971 88.076 91.0531 88.54 90.4851 88.956C89.9171 89.364 89.2251 89.688 88.4091 89.928C87.6011 90.168 86.6771 90.288 85.6371 90.288C84.2291 90.288 83.0011 90.008 81.9531 89.448C80.9051 88.88 80.0931 88.1 79.5171 87.108C78.9411 86.108 78.6531 84.956 78.6531 83.652C78.6531 82.332 78.9451 81.176 79.5291 80.184C80.1211 79.184 80.9411 78.408 81.9891 77.856C83.0451 77.296 84.2651 77.016 85.6491 77.016C87.0651 77.016 88.2891 77.3 89.3211 77.868C90.3531 78.428 91.1491 79.216 91.7091 80.232C92.2691 81.24 92.5491 82.416 92.5491 83.76C92.5491 83.96 92.5451 84.152 92.5371 84.336C92.5291 84.52 92.5171 84.656 92.5011 84.744H80.6691ZM103.85 90V84.588C103.85 84.284 103.85 84.008 103.85 83.76C103.85 83.512 103.85 83.288 103.85 83.088C103.85 82.56 103.782 82.08 103.646 81.648C103.51 81.208 103.266 80.856 102.914 80.592C102.562 80.328 102.054 80.196 101.39 80.196C100.814 80.196 100.314 80.328 99.8899 80.592C99.4739 80.856 99.1539 81.224 98.9299 81.696C98.7059 82.168 98.5939 82.712 98.5939 83.328L97.5619 82.584C97.5619 81.48 97.8019 80.512 98.2819 79.68C98.7619 78.848 99.4099 78.196 100.226 77.724C101.05 77.252 101.962 77.016 102.962 77.016C104.01 77.016 104.87 77.228 105.542 77.652C106.222 78.068 106.726 78.652 107.054 79.404C107.39 80.148 107.558 81.02 107.558 82.02C107.558 82.428 107.558 82.884 107.558 83.388C107.558 83.892 107.558 84.408 107.558 84.936V90H103.85ZM94.8739 90V77.256H98.5939V90H94.8739ZM111.771 84.744V82.284H120.219L119.859 82.908C119.859 82.844 119.859 82.784 119.859 82.728C119.859 82.664 119.859 82.604 119.859 82.548C119.859 82.092 119.751 81.656 119.535 81.24C119.319 80.816 118.983 80.472 118.527 80.208C118.079 79.936 117.503 79.8 116.799 79.8C116.095 79.8 115.487 79.952 114.975 80.256C114.471 80.552 114.083 80.98 113.811 81.54C113.547 82.1 113.415 82.776 113.415 83.568C113.415 84.384 113.543 85.084 113.799 85.668C114.063 86.244 114.451 86.688 114.963 87C115.483 87.312 116.127 87.468 116.895 87.468C117.391 87.468 117.819 87.424 118.179 87.336C118.539 87.24 118.831 87.12 119.055 86.976C119.287 86.832 119.463 86.672 119.583 86.496C119.703 86.32 119.775 86.148 119.799 85.98H123.471C123.423 86.516 123.239 87.044 122.919 87.564C122.599 88.076 122.155 88.54 121.587 88.956C121.019 89.364 120.327 89.688 119.511 89.928C118.703 90.168 117.779 90.288 116.739 90.288C115.331 90.288 114.103 90.008 113.055 89.448C112.007 88.88 111.195 88.1 110.619 87.108C110.043 86.108 109.755 84.956 109.755 83.652C109.755 82.332 110.047 81.176 110.631 80.184C111.223 79.184 112.043 78.408 113.091 77.856C114.147 77.296 115.367 77.016 116.751 77.016C118.167 77.016 119.391 77.3 120.423 77.868C121.455 78.428 122.251 79.216 122.811 80.232C123.371 81.24 123.651 82.416 123.651 83.76C123.651 83.96 123.647 84.152 123.639 84.336C123.631 84.52 123.619 84.656 123.603 84.744H111.771ZM126.446 95.508C126.046 95.508 125.686 95.492 125.366 95.46C125.054 95.436 124.858 95.408 124.778 95.376V92.556C124.882 92.604 125.062 92.64 125.318 92.664C125.582 92.696 125.862 92.712 126.158 92.712C126.55 92.712 126.902 92.632 127.214 92.472C127.534 92.32 127.806 92.1 128.03 91.812C128.262 91.532 128.442 91.2 128.57 90.816L128.786 90.168L124.394 77.256H128.27L131.042 87.708H130.61L133.274 77.256H137.102L132.722 90.636C132.394 91.644 131.99 92.512 131.51 93.24C131.03 93.968 130.39 94.528 129.59 94.92C128.79 95.312 127.742 95.508 126.446 95.508ZM138.722 90V77.256H142.406V90H138.722ZM140.558 75.18C139.982 75.18 139.478 75.028 139.046 74.724C138.622 74.42 138.41 73.992 138.41 73.44C138.41 72.88 138.622 72.448 139.046 72.144C139.478 71.84 139.982 71.688 140.558 71.688C141.142 71.688 141.646 71.84 142.07 72.144C142.502 72.448 142.718 72.88 142.718 73.44C142.718 74 142.502 74.432 142.07 74.736C141.646 75.032 141.142 75.18 140.558 75.18ZM153.103 90V85.068C153.103 84.596 153.103 84.188 153.103 83.844C153.103 83.492 153.103 83.2 153.103 82.968C153.103 82.64 153.083 82.316 153.043 81.996C153.011 81.676 152.931 81.38 152.803 81.108C152.683 80.828 152.495 80.608 152.239 80.448C151.983 80.28 151.635 80.196 151.195 80.196C150.787 80.196 150.435 80.284 150.139 80.46C149.843 80.628 149.599 80.864 149.407 81.168C149.223 81.464 149.087 81.808 148.999 82.2C148.911 82.584 148.867 82.988 148.867 83.412L147.847 82.572C147.847 81.492 148.043 80.536 148.435 79.704C148.827 78.864 149.383 78.208 150.103 77.736C150.831 77.256 151.691 77.016 152.683 77.016C153.747 77.016 154.575 77.244 155.167 77.7C155.767 78.148 156.187 78.748 156.427 79.5C156.675 80.244 156.799 81.068 156.799 81.972C156.799 82.316 156.799 82.78 156.799 83.364C156.799 83.948 156.799 84.648 156.799 85.464V90H153.103ZM145.147 90V77.256H148.867V90H145.147ZM161.023 90V85.08C161.023 84.592 161.023 84.172 161.023 83.82C161.023 83.468 161.023 83.176 161.023 82.944C161.023 82.592 161.003 82.256 160.963 81.936C160.923 81.608 160.839 81.312 160.711 81.048C160.583 80.784 160.391 80.576 160.135 80.424C159.879 80.272 159.531 80.196 159.091 80.196C158.683 80.196 158.331 80.284 158.035 80.46C157.747 80.628 157.511 80.86 157.327 81.156C157.143 81.452 157.007 81.788 156.919 82.164C156.839 82.54 156.799 82.932 156.799 83.34L155.779 82.512C155.779 81.448 155.971 80.504 156.355 79.68C156.747 78.856 157.299 78.208 158.011 77.736C158.731 77.256 159.591 77.016 160.591 77.016C161.631 77.016 162.451 77.236 163.051 77.676C163.659 78.116 164.091 78.704 164.347 79.44C164.611 80.168 164.743 80.984 164.743 81.888C164.743 82.248 164.743 82.712 164.743 83.28C164.743 83.848 164.743 84.54 164.743 85.356V90H161.023ZM173.386 90V77.256H177.07V90H173.386ZM175.222 75.18C174.646 75.18 174.142 75.028 173.71 74.724C173.286 74.42 173.074 73.992 173.074 73.44C173.074 72.88 173.286 72.448 173.71 72.144C174.142 71.84 174.646 71.688 175.222 71.688C175.806 71.688 176.31 71.84 176.734 72.144C177.166 72.448 177.382 72.88 177.382 73.44C177.382 74 177.166 74.432 176.734 74.736C176.31 75.032 175.806 75.18 175.222 75.18ZM188.787 90V84.588C188.787 84.284 188.787 84.008 188.787 83.76C188.787 83.512 188.787 83.288 188.787 83.088C188.787 82.56 188.719 82.08 188.583 81.648C188.447 81.208 188.203 80.856 187.851 80.592C187.499 80.328 186.991 80.196 186.327 80.196C185.751 80.196 185.251 80.328 184.827 80.592C184.411 80.856 184.091 81.224 183.867 81.696C183.643 82.168 183.531 82.712 183.531 83.328L182.499 82.584C182.499 81.48 182.739 80.512 183.219 79.68C183.699 78.848 184.347 78.196 185.163 77.724C185.987 77.252 186.899 77.016 187.899 77.016C188.947 77.016 189.807 77.228 190.479 77.652C191.159 78.068 191.663 78.652 191.991 79.404C192.327 80.148 192.495 81.02 192.495 82.02C192.495 82.428 192.495 82.884 192.495 83.388C192.495 83.892 192.495 84.408 192.495 84.936V90H188.787ZM179.811 90V77.256H183.531V90H179.811ZM201.94 91.068C202.228 91.068 202.512 91.128 202.792 91.248C203.072 91.376 203.308 91.568 203.5 91.824C203.692 92.088 203.788 92.436 203.788 92.868C203.788 93.404 203.624 93.84 203.296 94.176C202.976 94.52 202.56 94.772 202.048 94.932C201.544 95.1 201.012 95.184 200.452 95.184C199.956 95.184 199.452 95.12 198.94 94.992C198.436 94.864 198.08 94.728 197.872 94.584L198.592 93.228C198.744 93.324 199.008 93.44 199.384 93.576C199.768 93.72 200.168 93.792 200.584 93.792C201.032 93.792 201.404 93.708 201.7 93.54C202.004 93.372 202.156 93.124 202.156 92.796C202.156 92.532 202.08 92.34 201.928 92.22C201.776 92.108 201.588 92.052 201.364 92.052C201.172 92.052 200.976 92.084 200.776 92.148C200.584 92.22 200.44 92.324 200.344 92.46L198.928 92.076L199.792 90.192H201.412L200.692 91.74L200.488 91.704C200.568 91.528 200.74 91.376 201.004 91.248C201.268 91.128 201.58 91.068 201.94 91.068ZM200.584 90.288C199.824 90.288 199.092 90.2 198.388 90.024C197.684 89.848 197.052 89.588 196.492 89.244C195.94 88.9 195.5 88.472 195.172 87.96C194.852 87.44 194.692 86.836 194.692 86.148C194.692 86.116 194.692 86.08 194.692 86.04C194.692 85.992 194.692 85.956 194.692 85.932H198.388C198.388 85.956 198.388 85.984 198.388 86.016C198.388 86.04 198.388 86.068 198.388 86.1C198.388 86.564 198.592 86.904 199 87.12C199.416 87.336 199.976 87.444 200.68 87.444C201.048 87.444 201.4 87.408 201.736 87.336C202.08 87.256 202.36 87.132 202.576 86.964C202.8 86.788 202.912 86.568 202.912 86.304C202.912 85.88 202.676 85.58 202.204 85.404C201.74 85.228 200.992 85.052 199.96 84.876C199.376 84.78 198.784 84.644 198.184 84.468C197.584 84.292 197.032 84.06 196.528 83.772C196.024 83.476 195.62 83.104 195.316 82.656C195.012 82.2 194.86 81.648 194.86 81C194.86 80.136 195.12 79.408 195.64 78.816C196.168 78.224 196.868 77.776 197.74 77.472C198.612 77.168 199.572 77.016 200.62 77.016C201.62 77.016 202.552 77.184 203.416 77.52C204.28 77.848 204.98 78.324 205.516 78.948C206.052 79.564 206.32 80.308 206.32 81.18C206.32 81.196 206.32 81.22 206.32 81.252C206.32 81.284 206.32 81.316 206.32 81.348H202.66C202.66 81.316 202.66 81.288 202.66 81.264C202.66 81.24 202.66 81.22 202.66 81.204C202.66 80.884 202.556 80.624 202.348 80.424C202.148 80.224 201.892 80.076 201.58 79.98C201.268 79.876 200.944 79.824 200.608 79.824C200.304 79.824 199.988 79.86 199.66 79.932C199.34 79.996 199.068 80.108 198.844 80.268C198.62 80.42 198.508 80.636 198.508 80.916C198.508 81.188 198.628 81.412 198.868 81.588C199.108 81.756 199.444 81.896 199.876 82.008C200.308 82.112 200.808 82.212 201.376 82.308C201.912 82.396 202.476 82.52 203.068 82.68C203.668 82.832 204.228 83.052 204.748 83.34C205.276 83.62 205.7 83.992 206.02 84.456C206.348 84.912 206.512 85.492 206.512 86.196C206.512 86.924 206.344 87.548 206.008 88.068C205.672 88.588 205.216 89.012 204.64 89.34C204.072 89.66 203.436 89.896 202.732 90.048C202.036 90.208 201.32 90.288 200.584 90.288ZM213.053 90.264C212.125 90.264 211.297 90.116 210.569 89.82C209.849 89.524 209.285 89.096 208.877 88.536C208.469 87.976 208.265 87.296 208.265 86.496C208.265 85.592 208.513 84.856 209.009 84.288C209.505 83.72 210.161 83.288 210.977 82.992C211.801 82.688 212.693 82.488 213.653 82.392C215.053 82.256 216.017 82.132 216.545 82.02C217.081 81.908 217.349 81.712 217.349 81.432C217.349 81.424 217.349 81.416 217.349 81.408C217.349 80.936 217.121 80.564 216.665 80.292C216.217 80.02 215.589 79.884 214.781 79.884C213.925 79.884 213.269 80.04 212.813 80.352C212.365 80.656 212.141 81.124 212.141 81.756H208.481C208.481 80.732 208.757 79.868 209.309 79.164C209.869 78.46 210.625 77.928 211.577 77.568C212.529 77.2 213.605 77.016 214.805 77.016C215.925 77.016 216.961 77.188 217.913 77.532C218.865 77.868 219.629 78.376 220.205 79.056C220.789 79.736 221.081 80.6 221.081 81.648C221.081 81.816 221.081 81.984 221.081 82.152C221.081 82.312 221.081 82.476 221.081 82.644V87.156C221.081 87.484 221.089 87.8 221.105 88.104C221.129 88.4 221.177 88.672 221.249 88.92C221.329 89.2 221.429 89.432 221.549 89.616C221.669 89.8 221.769 89.928 221.849 90H218.189C218.133 89.944 218.045 89.828 217.925 89.652C217.813 89.476 217.717 89.272 217.637 89.04C217.541 88.76 217.469 88.48 217.421 88.2C217.381 87.912 217.361 87.576 217.361 87.192L218.129 87.72C217.905 88.248 217.541 88.704 217.037 89.088C216.541 89.464 215.949 89.756 215.261 89.964C214.581 90.164 213.845 90.264 213.053 90.264ZM214.049 87.48C214.633 87.48 215.177 87.376 215.681 87.168C216.193 86.952 216.609 86.616 216.929 86.16C217.249 85.704 217.409 85.108 217.409 84.372V83.088L218.333 83.988C217.805 84.18 217.193 84.34 216.497 84.468C215.809 84.588 215.121 84.684 214.433 84.756C213.617 84.836 213.005 84.976 212.597 85.176C212.197 85.368 211.997 85.696 211.997 86.16C211.997 86.6 212.169 86.932 212.513 87.156C212.857 87.372 213.369 87.48 214.049 87.48ZM231.302 84.744V82.284H239.75L239.39 82.908C239.39 82.844 239.39 82.784 239.39 82.728C239.39 82.664 239.39 82.604 239.39 82.548C239.39 82.092 239.282 81.656 239.066 81.24C238.85 80.816 238.514 80.472 238.058 80.208C237.61 79.936 237.034 79.8 236.33 79.8C235.626 79.8 235.018 79.952 234.506 80.256C234.002 80.552 233.614 80.98 233.342 81.54C233.078 82.1 232.946 82.776 232.946 83.568C232.946 84.384 233.074 85.084 233.33 85.668C233.594 86.244 233.982 86.688 234.494 87C235.014 87.312 235.658 87.468 236.426 87.468C236.922 87.468 237.35 87.424 237.71 87.336C238.07 87.24 238.362 87.12 238.586 86.976C238.818 86.832 238.994 86.672 239.114 86.496C239.234 86.32 239.306 86.148 239.33 85.98H243.002C242.954 86.516 242.77 87.044 242.45 87.564C242.13 88.076 241.686 88.54 241.118 88.956C240.55 89.364 239.858 89.688 239.042 89.928C238.234 90.168 237.31 90.288 236.27 90.288C234.862 90.288 233.634 90.008 232.586 89.448C231.538 88.88 230.726 88.1 230.15 87.108C229.574 86.108 229.286 84.956 229.286 83.652C229.286 82.332 229.578 81.176 230.162 80.184C230.754 79.184 231.574 78.408 232.622 77.856C233.678 77.296 234.898 77.016 236.282 77.016C237.698 77.016 238.922 77.3 239.954 77.868C240.986 78.428 241.782 79.216 242.342 80.232C242.902 81.24 243.182 82.416 243.182 83.76C243.182 83.96 243.178 84.152 243.17 84.336C243.162 84.52 243.15 84.656 243.134 84.744H231.302ZM250.835 90.288C249.771 90.288 248.791 90.036 247.895 89.532C246.999 89.02 246.279 88.264 245.735 87.264C245.191 86.264 244.919 85.032 244.919 83.568C244.919 82.168 245.195 80.98 245.747 80.004C246.307 79.028 247.035 78.288 247.931 77.784C248.835 77.272 249.803 77.016 250.835 77.016C251.843 77.016 252.763 77.272 253.595 77.784C254.435 78.296 255.107 78.996 255.611 79.884C256.115 80.764 256.367 81.78 256.367 82.932C256.367 82.972 256.367 83.012 256.367 83.052C256.367 83.084 256.367 83.12 256.367 83.16L254.759 83.184C254.759 83.16 254.759 83.136 254.759 83.112C254.759 83.08 254.759 83.052 254.759 83.028C254.759 82.428 254.615 81.912 254.327 81.48C254.039 81.048 253.667 80.716 253.211 80.484C252.755 80.244 252.279 80.124 251.783 80.124C250.959 80.124 250.247 80.4 249.647 80.952C249.047 81.496 248.747 82.368 248.747 83.568C248.747 84.768 249.047 85.652 249.647 86.22C250.255 86.78 250.967 87.06 251.783 87.06C252.295 87.06 252.779 86.94 253.235 86.7C253.691 86.452 254.059 86.104 254.339 85.656C254.619 85.208 254.759 84.68 254.759 84.072L256.367 84.156C256.367 85.3 256.119 86.336 255.623 87.264C255.135 88.184 254.471 88.92 253.631 89.472C252.799 90.016 251.867 90.288 250.835 90.288ZM254.759 90V71.244H258.491V90H254.759ZM261.183 90V77.256H264.867V90H261.183ZM263.019 75.18C262.443 75.18 261.939 75.028 261.507 74.724C261.083 74.42 260.871 73.992 260.871 73.44C260.871 72.88 261.083 72.448 261.507 72.144C261.939 71.84 262.443 71.688 263.019 71.688C263.603 71.688 264.107 71.84 264.531 72.144C264.963 72.448 265.179 72.88 265.179 73.44C265.179 74 264.963 74.432 264.531 74.736C264.107 75.032 263.603 75.18 263.019 75.18ZM268.571 95.508C268.171 95.508 267.811 95.492 267.491 95.46C267.179 95.436 266.983 95.408 266.903 95.376V92.556C267.007 92.604 267.187 92.64 267.443 92.664C267.707 92.696 267.987 92.712 268.283 92.712C268.675 92.712 269.027 92.632 269.339 92.472C269.659 92.32 269.931 92.1 270.155 91.812C270.387 91.532 270.567 91.2 270.695 90.816L270.911 90.168L266.519 77.256H270.395L273.167 87.708H272.735L275.399 77.256H279.227L274.847 90.636C274.519 91.644 274.115 92.512 273.635 93.24C273.155 93.968 272.515 94.528 271.715 94.92C270.915 95.312 269.867 95.508 268.571 95.508ZM286.883 90.276C285.507 90.276 284.295 89.992 283.247 89.424C282.199 88.856 281.379 88.076 280.787 87.084C280.203 86.084 279.911 84.932 279.911 83.628C279.911 82.332 280.203 81.188 280.787 80.196C281.379 79.196 282.199 78.42 283.247 77.868C284.295 77.308 285.507 77.028 286.883 77.028C288.259 77.028 289.471 77.308 290.519 77.868C291.567 78.42 292.383 79.196 292.967 80.196C293.559 81.188 293.855 82.332 293.855 83.628C293.855 84.932 293.559 86.084 292.967 87.084C292.383 88.076 291.567 88.856 290.519 89.424C289.471 89.992 288.259 90.276 286.883 90.276ZM286.883 87.324C287.531 87.324 288.095 87.172 288.575 86.868C289.055 86.564 289.427 86.136 289.691 85.584C289.955 85.024 290.087 84.372 290.087 83.628C290.087 82.884 289.955 82.24 289.691 81.696C289.427 81.144 289.055 80.72 288.575 80.424C288.095 80.128 287.531 79.98 286.883 79.98C286.243 79.98 285.679 80.128 285.191 80.424C284.711 80.72 284.339 81.144 284.075 81.696C283.811 82.24 283.679 82.884 283.679 83.628C283.679 84.372 283.811 85.024 284.075 85.584C284.339 86.136 284.711 86.564 285.191 86.868C285.679 87.172 286.243 87.324 286.883 87.324ZM296.179 90V77.256H299.911V81.648L299.143 81.168C299.231 80.568 299.391 80.016 299.623 79.512C299.855 79.008 300.155 78.572 300.523 78.204C300.891 77.828 301.327 77.536 301.831 77.328C302.343 77.12 302.927 77.016 303.583 77.016C304.095 77.016 304.495 77.056 304.783 77.136C305.079 77.208 305.263 77.264 305.335 77.304L304.723 80.64C304.651 80.6 304.491 80.536 304.243 80.448C303.995 80.36 303.675 80.316 303.283 80.316C302.643 80.316 302.107 80.424 301.675 80.64C301.243 80.856 300.895 81.144 300.631 81.504C300.375 81.856 300.191 82.248 300.079 82.68C299.967 83.112 299.911 83.548 299.911 83.988V90H296.179ZM311.742 90.24C310.838 90.24 310.094 90.096 309.51 89.808C308.926 89.512 308.466 89.116 308.13 88.62C307.794 88.124 307.558 87.572 307.422 86.964C307.286 86.356 307.218 85.74 307.218 85.116C307.218 84.828 307.218 84.524 307.218 84.204C307.218 83.884 307.218 83.556 307.218 83.22V77.256H310.938V82.632C310.938 82.904 310.938 83.168 310.938 83.424C310.938 83.68 310.938 83.916 310.938 84.132C310.938 84.668 310.998 85.16 311.118 85.608C311.238 86.056 311.458 86.416 311.778 86.688C312.106 86.96 312.57 87.096 313.17 87.096C313.754 87.096 314.25 86.932 314.658 86.604C315.066 86.268 315.378 85.84 315.594 85.32C315.81 84.8 315.918 84.264 315.918 83.712L316.962 84.564C316.962 85.364 316.838 86.108 316.59 86.796C316.35 87.484 316.006 88.088 315.558 88.608C315.11 89.12 314.562 89.52 313.914 89.808C313.274 90.096 312.55 90.24 311.742 90.24ZM315.918 90V77.256H319.638V90H315.918ZM325.681 87.084H332.593V90H321.697V87.24L328.441 80.028L328.525 80.16H321.937V77.256H332.449V80.016L325.765 87.204L325.681 87.084ZM336.832 90.36C336.28 90.36 335.812 90.168 335.428 89.784C335.044 89.4 334.852 88.932 334.852 88.38C334.852 87.836 335.044 87.372 335.428 86.988C335.812 86.604 336.28 86.412 336.832 86.412C337.376 86.412 337.84 86.604 338.224 86.988C338.608 87.372 338.8 87.836 338.8 88.38C338.8 88.932 338.608 89.4 338.224 89.784C337.84 90.168 337.376 90.36 336.832 90.36Z" fill="white"/>
</svg>
