<svg width="306" height="332" viewBox="0 0 306 332" fill="none" xmlns="http://www.w3.org/2000/svg">
<rect x="24" y="24" width="258" height="104" rx="8" fill="#FAE7E6"/>
<rect x="12" y="12" width="282" height="104" rx="8" fill="#DDDDDD"/>
<path d="M0 0H306V96C306 100.418 302.418 104 298 104H8C3.58172 104 0 100.418 0 96V0Z" fill="#EDEDED"/>
<rect x="24" y="24" width="56" height="56" rx="28" fill="black"/>
<g clip-path="url(#clip0_631_4519)">
<mask id="mask0_631_4519" style="mask-type:luminance" maskUnits="userSpaceOnUse" x="33" y="33" width="38" height="38">
<path d="M70.6663 33.3334H33.333V70.6667H70.6663V33.3334Z" fill="white"/>
</mask>
<g mask="url(#mask0_631_4519)">
<path fill-rule="evenodd" clip-rule="evenodd" d="M53.333 33.3334H50.6663V45.1406L46.2433 34.1931L43.7708 35.1921L48.3084 46.4232L39.7432 37.8579L37.8575 39.7435L46.067 47.9529L35.4282 43.3048L34.3605 45.7484L45.6176 50.6667H33.333V53.3334H45.6176L34.3605 58.2517L35.4282 60.6953L46.067 56.0472L37.8575 64.2566L39.7432 66.1421L48.3084 57.5769L43.7708 68.8081L46.2433 69.8069L50.6663 58.8595V70.6667H53.333V58.8595L57.7561 69.8069L60.2285 68.8081L55.691 57.5769L64.2562 66.1421L66.1417 64.2566L57.9323 56.0472L68.5712 60.6953L69.6387 58.2517L58.3818 53.3334H70.6663V50.6667H58.3816L69.6387 45.7484L68.5712 43.3048L57.9323 47.9529L66.1417 39.7435L64.2562 37.8579L55.691 46.4232L60.2285 35.1921L57.7561 34.1931L53.333 45.1406V33.3334Z" fill="url(#paint0_linear_631_4519)"/>
</g>
</g>
<rect x="96" y="27.5" width="87" height="22" rx="11" fill="#DA3D2F" fill-opacity="0.12"/>
<path d="M111.847 33.175L108.921 39.923V43.5H107.402V39.923L104.49 33.175H106.1L108.48 39.062H107.857L110.23 33.175H111.847ZM112.793 40.315V39.132H118.267L118.057 39.482C118.057 39.454 118.057 39.426 118.057 39.398C118.057 39.3653 118.057 39.3373 118.057 39.314C118.057 38.936 117.975 38.5883 117.812 38.271C117.648 37.949 117.403 37.6923 117.077 37.501C116.755 37.305 116.351 37.207 115.866 37.207C115.38 37.207 114.953 37.312 114.585 37.522C114.221 37.7273 113.936 38.0213 113.731 38.404C113.53 38.782 113.43 39.237 113.43 39.769C113.43 40.3103 113.528 40.777 113.724 41.169C113.92 41.5563 114.202 41.855 114.571 42.065C114.939 42.275 115.38 42.38 115.894 42.38C116.253 42.38 116.563 42.345 116.825 42.275C117.091 42.2003 117.308 42.1023 117.476 41.981C117.648 41.8597 117.779 41.729 117.868 41.589C117.956 41.4443 118.008 41.302 118.022 41.162H119.534C119.506 41.4653 119.405 41.7663 119.233 42.065C119.065 42.359 118.824 42.6273 118.512 42.87C118.204 43.108 117.826 43.2993 117.378 43.444C116.934 43.584 116.423 43.654 115.845 43.654C115.07 43.654 114.391 43.4907 113.808 43.164C113.224 42.8373 112.769 42.3847 112.443 41.806C112.116 41.2227 111.953 40.5553 111.953 39.804C111.953 39.0387 112.118 38.3667 112.45 37.788C112.781 37.2093 113.241 36.759 113.829 36.437C114.417 36.1103 115.091 35.947 115.852 35.947C116.626 35.947 117.296 36.1103 117.861 36.437C118.43 36.7637 118.869 37.214 119.177 37.788C119.485 38.362 119.639 39.0223 119.639 39.769C119.639 39.8577 119.636 39.9603 119.632 40.077C119.627 40.1937 119.62 40.273 119.611 40.315H112.793ZM126.624 43.5V40.07C126.624 39.8693 126.624 39.699 126.624 39.559C126.624 39.419 126.624 39.2883 126.624 39.167C126.624 38.803 126.568 38.4833 126.456 38.208C126.344 37.928 126.16 37.711 125.903 37.557C125.646 37.3983 125.303 37.319 124.874 37.319C124.496 37.319 124.153 37.4123 123.845 37.599C123.542 37.7857 123.299 38.04 123.117 38.362C122.94 38.6793 122.851 39.041 122.851 39.447L122.2 39.125C122.2 38.523 122.342 37.984 122.627 37.508C122.912 37.0273 123.292 36.647 123.768 36.367C124.249 36.087 124.774 35.947 125.343 35.947C125.931 35.947 126.433 36.0613 126.848 36.29C127.268 36.514 127.588 36.836 127.807 37.256C128.031 37.6713 128.143 38.1683 128.143 38.747C128.143 38.9617 128.143 39.1997 128.143 39.461C128.143 39.7223 128.143 39.9743 128.143 40.217V43.5H126.624ZM121.332 43.5V36.066H122.851V43.5H121.332ZM130.076 43.5V36.066H131.574V43.5H130.076ZM130.832 34.526C130.57 34.526 130.344 34.456 130.153 34.316C129.966 34.1713 129.873 33.973 129.873 33.721C129.873 33.4737 129.966 33.28 130.153 33.14C130.344 32.9953 130.57 32.923 130.832 32.923C131.088 32.923 131.31 32.9953 131.497 33.14C131.688 33.28 131.784 33.4737 131.784 33.721C131.784 33.973 131.688 34.1713 131.497 34.316C131.31 34.456 131.088 34.526 130.832 34.526ZM137.075 43.5V33.175H138.573V43.5H137.075ZM137.852 32.524C137.595 32.524 137.371 32.454 137.18 32.314C136.988 32.1693 136.893 31.9733 136.893 31.726C136.893 31.474 136.988 31.278 137.18 31.138C137.371 30.998 137.595 30.928 137.852 30.928C138.108 30.928 138.33 30.998 138.517 31.138C138.708 31.278 138.804 31.474 138.804 31.726C138.804 31.978 138.708 32.174 138.517 32.314C138.33 32.454 138.108 32.524 137.852 32.524ZM144.741 44.137C144.904 44.137 145.061 44.1743 145.21 44.249C145.359 44.3237 145.483 44.4357 145.581 44.585C145.684 44.739 145.735 44.9373 145.735 45.18C145.735 45.4693 145.651 45.7073 145.483 45.894C145.32 46.0807 145.105 46.2207 144.839 46.314C144.578 46.4073 144.298 46.454 143.999 46.454C143.728 46.454 143.469 46.4213 143.222 46.356C142.975 46.2907 142.804 46.2253 142.711 46.16L143.019 45.565C143.094 45.6117 143.227 45.67 143.418 45.74C143.609 45.81 143.822 45.845 144.055 45.845C144.33 45.845 144.561 45.7843 144.748 45.663C144.935 45.5463 145.028 45.376 145.028 45.152C145.028 44.9653 144.979 44.83 144.881 44.746C144.783 44.662 144.657 44.62 144.503 44.62C144.386 44.62 144.267 44.6433 144.146 44.69C144.025 44.7367 143.934 44.7997 143.873 44.879L143.236 44.697L143.726 43.5H144.454L144.027 44.557L143.859 44.522C143.901 44.424 144.008 44.3353 144.181 44.256C144.358 44.1767 144.545 44.137 144.741 44.137ZM144.146 43.647C143.399 43.647 142.73 43.4907 142.137 43.178C141.549 42.8607 141.085 42.4103 140.744 41.827C140.408 41.2437 140.24 40.5577 140.24 39.769C140.24 38.9803 140.408 38.3013 140.744 37.732C141.085 37.158 141.549 36.717 142.137 36.409C142.73 36.101 143.399 35.947 144.146 35.947C144.711 35.947 145.212 36.0333 145.651 36.206C146.09 36.374 146.461 36.598 146.764 36.878C147.067 37.158 147.298 37.466 147.457 37.802C147.616 38.138 147.695 38.474 147.695 38.81C147.695 38.8147 147.695 38.8217 147.695 38.831C147.695 38.8403 147.695 38.8497 147.695 38.859H146.19C146.19 38.8357 146.188 38.81 146.183 38.782C146.178 38.7493 146.174 38.719 146.169 38.691C146.132 38.4157 146.024 38.1707 145.847 37.956C145.67 37.7413 145.436 37.571 145.147 37.445C144.858 37.319 144.519 37.256 144.132 37.256C143.707 37.256 143.315 37.3493 142.956 37.536C142.601 37.718 142.317 37.9957 142.102 38.369C141.887 38.7423 141.78 39.209 141.78 39.769C141.78 40.329 141.885 40.8003 142.095 41.183C142.31 41.561 142.594 41.848 142.949 42.044C143.308 42.24 143.703 42.338 144.132 42.338C144.594 42.338 144.972 42.268 145.266 42.128C145.56 41.9833 145.782 41.792 145.931 41.554C146.08 41.3113 146.167 41.05 146.19 40.77H147.695C147.695 41.106 147.618 41.4467 147.464 41.792C147.31 42.1327 147.084 42.443 146.785 42.723C146.486 43.003 146.115 43.227 145.672 43.395C145.233 43.563 144.725 43.647 144.146 43.647ZM149.912 40.315V39.132H155.386L155.176 39.482C155.176 39.454 155.176 39.426 155.176 39.398C155.176 39.3653 155.176 39.3373 155.176 39.314C155.176 38.936 155.094 38.5883 154.931 38.271C154.768 37.949 154.523 37.6923 154.196 37.501C153.874 37.305 153.47 37.207 152.985 37.207C152.5 37.207 152.073 37.312 151.704 37.522C151.34 37.7273 151.055 38.0213 150.85 38.404C150.649 38.782 150.549 39.237 150.549 39.769C150.549 40.3103 150.647 40.777 150.843 41.169C151.039 41.5563 151.321 41.855 151.69 42.065C152.059 42.275 152.5 42.38 153.013 42.38C153.372 42.38 153.683 42.345 153.944 42.275C154.21 42.2003 154.427 42.1023 154.595 41.981C154.768 41.8597 154.898 41.729 154.987 41.589C155.076 41.4443 155.127 41.302 155.141 41.162H156.653C156.625 41.4653 156.525 41.7663 156.352 42.065C156.184 42.359 155.944 42.6273 155.631 42.87C155.323 43.108 154.945 43.2993 154.497 43.444C154.054 43.584 153.543 43.654 152.964 43.654C152.189 43.654 151.51 43.4907 150.927 43.164C150.344 42.8373 149.889 42.3847 149.562 41.806C149.235 41.2227 149.072 40.5553 149.072 39.804C149.072 39.0387 149.238 38.3667 149.569 37.788C149.9 37.2093 150.36 36.759 150.948 36.437C151.536 36.1103 152.21 35.947 152.971 35.947C153.746 35.947 154.415 36.1103 154.98 36.437C155.549 36.7637 155.988 37.214 156.296 37.788C156.604 38.362 156.758 39.0223 156.758 39.769C156.758 39.8577 156.756 39.9603 156.751 40.077C156.746 40.1937 156.739 40.273 156.73 40.315H149.912ZM158.451 43.5V36.066H159.97V38.439L159.564 38.257C159.597 37.9537 159.674 37.6643 159.795 37.389C159.916 37.1137 160.077 36.8687 160.278 36.654C160.483 36.4347 160.735 36.262 161.034 36.136C161.333 36.01 161.678 35.947 162.07 35.947C162.369 35.947 162.609 35.9703 162.791 36.017C162.978 36.0637 163.092 36.101 163.134 36.129L162.812 37.557C162.765 37.5243 162.67 37.4823 162.525 37.431C162.385 37.3797 162.189 37.354 161.937 37.354C161.554 37.354 161.237 37.4217 160.985 37.557C160.733 37.6923 160.532 37.872 160.383 38.096C160.234 38.32 160.126 38.565 160.061 38.831C160 39.0923 159.97 39.356 159.97 39.622V43.5H158.451ZM164.378 43.5V36.066H165.876V43.5H164.378ZM165.134 34.526C164.873 34.526 164.647 34.456 164.455 34.316C164.269 34.1713 164.175 33.973 164.175 33.721C164.175 33.4737 164.269 33.28 164.455 33.14C164.647 32.9953 164.873 32.923 165.134 32.923C165.391 32.923 165.613 32.9953 165.799 33.14C165.991 33.28 166.086 33.4737 166.086 33.721C166.086 33.973 165.991 34.1713 165.799 34.316C165.613 34.456 165.391 34.526 165.134 34.526ZM167.898 43.5V32.559H169.34V39.118L168.969 38.943L172.287 36.066H174.198L170.6 39.251L170.964 38.572L174.198 43.5H172.581L169.977 39.391L170.32 39.496L169.151 40.532L169.34 39.839V43.5H167.898Z" fill="#DA3D2F"/>
<path d="M107.01 64.15H102.14L103.38 62.67V76.5H100.29V62.67L101.57 64.15H96.67V61.75H107.01V64.15ZM111.083 76.72C110.31 76.72 109.62 76.5967 109.013 76.35C108.413 76.1033 107.943 75.7467 107.603 75.28C107.263 74.8133 107.093 74.2467 107.093 73.58C107.093 72.8267 107.3 72.2133 107.713 71.74C108.127 71.2667 108.673 70.9067 109.353 70.66C110.04 70.4067 110.783 70.24 111.583 70.16C112.75 70.0467 113.553 69.9433 113.993 69.85C114.44 69.7567 114.663 69.5933 114.663 69.36C114.663 69.3533 114.663 69.3467 114.663 69.34C114.663 68.9467 114.473 68.6367 114.093 68.41C113.72 68.1833 113.197 68.07 112.523 68.07C111.81 68.07 111.263 68.2 110.883 68.46C110.51 68.7133 110.323 69.1033 110.323 69.63H107.273C107.273 68.7767 107.503 68.0567 107.963 67.47C108.43 66.8833 109.06 66.44 109.853 66.14C110.647 65.8333 111.543 65.68 112.543 65.68C113.477 65.68 114.34 65.8233 115.133 66.11C115.927 66.39 116.563 66.8133 117.043 67.38C117.53 67.9467 117.773 68.6667 117.773 69.54C117.773 69.68 117.773 69.82 117.773 69.96C117.773 70.0933 117.773 70.23 117.773 70.37V74.13C117.773 74.4033 117.78 74.6667 117.793 74.92C117.813 75.1667 117.853 75.3933 117.913 75.6C117.98 75.8333 118.063 76.0267 118.163 76.18C118.263 76.3333 118.347 76.44 118.413 76.5H115.363C115.317 76.4533 115.243 76.3567 115.143 76.21C115.05 76.0633 114.97 75.8933 114.903 75.7C114.823 75.4667 114.763 75.2333 114.723 75C114.69 74.76 114.673 74.48 114.673 74.16L115.313 74.6C115.127 75.04 114.823 75.42 114.403 75.74C113.99 76.0533 113.497 76.2967 112.923 76.47C112.357 76.6367 111.743 76.72 111.083 76.72ZM111.913 74.4C112.4 74.4 112.853 74.3133 113.273 74.14C113.7 73.96 114.047 73.68 114.313 73.3C114.58 72.92 114.713 72.4233 114.713 71.81V70.74L115.483 71.49C115.043 71.65 114.533 71.7833 113.953 71.89C113.38 71.99 112.807 72.07 112.233 72.13C111.553 72.1967 111.043 72.3133 110.703 72.48C110.37 72.64 110.203 72.9133 110.203 73.3C110.203 73.6667 110.347 73.9433 110.633 74.13C110.92 74.31 111.347 74.4 111.913 74.4ZM124.462 76.74C123.829 76.74 123.219 76.6667 122.632 76.52C122.045 76.3733 121.519 76.1567 121.052 75.87C120.592 75.5833 120.225 75.2267 119.952 74.8C119.685 74.3667 119.552 73.8633 119.552 73.29C119.552 73.2633 119.552 73.2333 119.552 73.2C119.552 73.16 119.552 73.13 119.552 73.11H122.632C122.632 73.13 122.632 73.1533 122.632 73.18C122.632 73.2 122.632 73.2233 122.632 73.25C122.632 73.6367 122.802 73.92 123.142 74.1C123.489 74.28 123.955 74.37 124.542 74.37C124.849 74.37 125.142 74.34 125.422 74.28C125.709 74.2133 125.942 74.11 126.122 73.97C126.309 73.8233 126.402 73.64 126.402 73.42C126.402 73.0667 126.205 72.8167 125.812 72.67C125.425 72.5233 124.802 72.3767 123.942 72.23C123.455 72.15 122.962 72.0367 122.462 71.89C121.962 71.7433 121.502 71.55 121.082 71.31C120.662 71.0633 120.325 70.7533 120.072 70.38C119.819 70 119.692 69.54 119.692 69C119.692 68.28 119.909 67.6733 120.342 67.18C120.782 66.6867 121.365 66.3133 122.092 66.06C122.819 65.8067 123.619 65.68 124.492 65.68C125.325 65.68 126.102 65.82 126.822 66.1C127.542 66.3733 128.125 66.77 128.572 67.29C129.019 67.8033 129.242 68.4233 129.242 69.15C129.242 69.1633 129.242 69.1833 129.242 69.21C129.242 69.2367 129.242 69.2633 129.242 69.29H126.192C126.192 69.2633 126.192 69.24 126.192 69.22C126.192 69.2 126.192 69.1833 126.192 69.17C126.192 68.9033 126.105 68.6867 125.932 68.52C125.765 68.3533 125.552 68.23 125.292 68.15C125.032 68.0633 124.762 68.02 124.482 68.02C124.229 68.02 123.965 68.05 123.692 68.11C123.425 68.1633 123.199 68.2567 123.012 68.39C122.825 68.5167 122.732 68.6967 122.732 68.93C122.732 69.1567 122.832 69.3433 123.032 69.49C123.232 69.63 123.512 69.7467 123.872 69.84C124.232 69.9267 124.649 70.01 125.122 70.09C125.569 70.1633 126.039 70.2667 126.532 70.4C127.032 70.5267 127.499 70.71 127.932 70.95C128.372 71.1833 128.725 71.4933 128.992 71.88C129.265 72.26 129.402 72.7433 129.402 73.33C129.402 73.9367 129.262 74.4567 128.982 74.89C128.702 75.3233 128.322 75.6767 127.842 75.95C127.369 76.2167 126.839 76.4133 126.252 76.54C125.672 76.6733 125.075 76.74 124.462 76.74ZM134.931 76.72C134.158 76.72 133.468 76.5967 132.861 76.35C132.261 76.1033 131.791 75.7467 131.451 75.28C131.111 74.8133 130.941 74.2467 130.941 73.58C130.941 72.8267 131.148 72.2133 131.561 71.74C131.974 71.2667 132.521 70.9067 133.201 70.66C133.888 70.4067 134.631 70.24 135.431 70.16C136.598 70.0467 137.401 69.9433 137.841 69.85C138.288 69.7567 138.511 69.5933 138.511 69.36C138.511 69.3533 138.511 69.3467 138.511 69.34C138.511 68.9467 138.321 68.6367 137.941 68.41C137.568 68.1833 137.044 68.07 136.371 68.07C135.658 68.07 135.111 68.2 134.731 68.46C134.358 68.7133 134.171 69.1033 134.171 69.63H131.121C131.121 68.7767 131.351 68.0567 131.811 67.47C132.278 66.8833 132.908 66.44 133.701 66.14C134.494 65.8333 135.391 65.68 136.391 65.68C137.324 65.68 138.188 65.8233 138.981 66.11C139.774 66.39 140.411 66.8133 140.891 67.38C141.378 67.9467 141.621 68.6667 141.621 69.54C141.621 69.68 141.621 69.82 141.621 69.96C141.621 70.0933 141.621 70.23 141.621 70.37V74.13C141.621 74.4033 141.628 74.6667 141.641 74.92C141.661 75.1667 141.701 75.3933 141.761 75.6C141.828 75.8333 141.911 76.0267 142.011 76.18C142.111 76.3333 142.194 76.44 142.261 76.5H139.211C139.164 76.4533 139.091 76.3567 138.991 76.21C138.898 76.0633 138.818 75.8933 138.751 75.7C138.671 75.4667 138.611 75.2333 138.571 75C138.538 74.76 138.521 74.48 138.521 74.16L139.161 74.6C138.974 75.04 138.671 75.42 138.251 75.74C137.838 76.0533 137.344 76.2967 136.771 76.47C136.204 76.6367 135.591 76.72 134.931 76.72ZM135.761 74.4C136.248 74.4 136.701 74.3133 137.121 74.14C137.548 73.96 137.894 73.68 138.161 73.3C138.428 72.92 138.561 72.4233 138.561 71.81V70.74L139.331 71.49C138.891 71.65 138.381 71.7833 137.801 71.89C137.228 71.99 136.654 72.07 136.081 72.13C135.401 72.1967 134.891 72.3133 134.551 72.48C134.218 72.64 134.051 72.9133 134.051 73.3C134.051 73.6667 134.194 73.9433 134.481 74.13C134.768 74.31 135.194 74.4 135.761 74.4ZM143.89 76.5V65.88H147V69.54L146.36 69.14C146.433 68.64 146.566 68.18 146.76 67.76C146.953 67.34 147.203 66.9767 147.51 66.67C147.816 66.3567 148.18 66.1133 148.6 65.94C149.026 65.7667 149.513 65.68 150.06 65.68C150.486 65.68 150.82 65.7133 151.06 65.78C151.306 65.84 151.46 65.8867 151.52 65.92L151.01 68.7C150.95 68.6667 150.816 68.6133 150.61 68.54C150.403 68.4667 150.136 68.43 149.81 68.43C149.276 68.43 148.83 68.52 148.47 68.7C148.11 68.88 147.82 69.12 147.6 69.42C147.386 69.7133 147.233 70.04 147.14 70.4C147.046 70.76 147 71.1233 147 71.49V76.5H143.89ZM152.969 76.5V65.88H156.039V76.5H152.969ZM164.973 76.5V72.39C164.973 71.9967 164.973 71.6567 164.973 71.37C164.973 71.0767 164.973 70.8333 164.973 70.64C164.973 70.3667 164.956 70.0967 164.923 69.83C164.896 69.5633 164.829 69.3167 164.723 69.09C164.623 68.8567 164.466 68.6733 164.253 68.54C164.039 68.4 163.749 68.33 163.383 68.33C163.043 68.33 162.749 68.4033 162.503 68.55C162.256 68.69 162.053 68.8867 161.893 69.14C161.739 69.3867 161.626 69.6733 161.553 70C161.479 70.32 161.443 70.6567 161.443 71.01L160.593 70.31C160.593 69.41 160.756 68.6133 161.083 67.92C161.409 67.22 161.873 66.6733 162.473 66.28C163.079 65.88 163.796 65.68 164.623 65.68C165.509 65.68 166.199 65.87 166.693 66.25C167.193 66.6233 167.543 67.1233 167.743 67.75C167.949 68.37 168.053 69.0567 168.053 69.81C168.053 70.0967 168.053 70.4833 168.053 70.97C168.053 71.4567 168.053 72.04 168.053 72.72V76.5H164.973ZM158.343 76.5V65.88H161.443V76.5H158.343ZM171.573 76.5V72.4C171.573 71.9933 171.573 71.6433 171.573 71.35C171.573 71.0567 171.573 70.8133 171.573 70.62C171.573 70.3267 171.556 70.0467 171.523 69.78C171.489 69.5067 171.419 69.26 171.313 69.04C171.206 68.82 171.046 68.6467 170.833 68.52C170.619 68.3933 170.329 68.33 169.963 68.33C169.623 68.33 169.329 68.4033 169.083 68.55C168.843 68.69 168.646 68.8833 168.493 69.13C168.339 69.3767 168.226 69.6567 168.153 69.97C168.086 70.2833 168.053 70.61 168.053 70.95L167.203 70.26C167.203 69.3733 167.363 68.5867 167.683 67.9C168.009 67.2133 168.469 66.6733 169.063 66.28C169.663 65.88 170.379 65.68 171.213 65.68C172.079 65.68 172.763 65.8633 173.263 66.23C173.769 66.5967 174.129 67.0867 174.343 67.7C174.563 68.3067 174.673 68.9867 174.673 69.74C174.673 70.04 174.673 70.4267 174.673 70.9C174.673 71.3733 174.673 71.95 174.673 72.63V76.5H171.573ZM185.035 76.5H182.005V61.75H186.825L191.765 75.38L191.245 75.51V61.75H194.265V76.5H189.415L184.475 62.91L185.035 62.78V76.5ZM197.892 72.12V70.07H204.932L204.632 70.59C204.632 70.5367 204.632 70.4867 204.632 70.44C204.632 70.3867 204.632 70.3367 204.632 70.29C204.632 69.91 204.542 69.5467 204.362 69.2C204.182 68.8467 203.902 68.56 203.522 68.34C203.149 68.1133 202.669 68 202.082 68C201.496 68 200.989 68.1267 200.562 68.38C200.142 68.6267 199.819 68.9833 199.592 69.45C199.372 69.9167 199.262 70.48 199.262 71.14C199.262 71.82 199.369 72.4033 199.582 72.89C199.802 73.37 200.126 73.74 200.552 74C200.986 74.26 201.522 74.39 202.162 74.39C202.576 74.39 202.932 74.3533 203.232 74.28C203.532 74.2 203.776 74.1 203.962 73.98C204.156 73.86 204.302 73.7267 204.402 73.58C204.502 73.4333 204.562 73.29 204.582 73.15H207.642C207.602 73.5967 207.449 74.0367 207.182 74.47C206.916 74.8967 206.546 75.2833 206.072 75.63C205.599 75.97 205.022 76.24 204.342 76.44C203.669 76.64 202.899 76.74 202.032 76.74C200.859 76.74 199.836 76.5067 198.962 76.04C198.089 75.5667 197.412 74.9167 196.932 74.09C196.452 73.2567 196.212 72.2967 196.212 71.21C196.212 70.11 196.456 69.1467 196.942 68.32C197.436 67.4867 198.119 66.84 198.992 66.38C199.872 65.9133 200.889 65.68 202.042 65.68C203.222 65.68 204.242 65.9167 205.102 66.39C205.962 66.8567 206.626 67.5133 207.092 68.36C207.559 69.2 207.792 70.18 207.792 71.3C207.792 71.4667 207.789 71.6267 207.782 71.78C207.776 71.9333 207.766 72.0467 207.752 72.12H197.892ZM214.17 76.74C213.283 76.74 212.466 76.53 211.72 76.11C210.973 75.6833 210.373 75.0533 209.92 74.22C209.466 73.3867 209.24 72.36 209.24 71.14C209.24 69.9733 209.47 68.9833 209.93 68.17C210.396 67.3567 211.003 66.74 211.75 66.32C212.503 65.8933 213.31 65.68 214.17 65.68C215.01 65.68 215.776 65.8933 216.47 66.32C217.17 66.7467 217.73 67.33 218.15 68.07C218.57 68.8033 218.78 69.65 218.78 70.61C218.78 70.6433 218.78 70.6767 218.78 70.71C218.78 70.7367 218.78 70.7667 218.78 70.8L217.44 70.82C217.44 70.8 217.44 70.78 217.44 70.76C217.44 70.7333 217.44 70.71 217.44 70.69C217.44 70.19 217.32 69.76 217.08 69.4C216.84 69.04 216.53 68.7633 216.15 68.57C215.77 68.37 215.373 68.27 214.96 68.27C214.273 68.27 213.68 68.5 213.18 68.96C212.68 69.4133 212.43 70.14 212.43 71.14C212.43 72.14 212.68 72.8767 213.18 73.35C213.686 73.8167 214.28 74.05 214.96 74.05C215.386 74.05 215.79 73.95 216.17 73.75C216.55 73.5433 216.856 73.2533 217.09 72.88C217.323 72.5067 217.44 72.0667 217.44 71.56L218.78 71.63C218.78 72.5833 218.573 73.4467 218.16 74.22C217.753 74.9867 217.2 75.6 216.5 76.06C215.806 76.5133 215.03 76.74 214.17 76.74ZM217.44 76.5V60.87H220.55V76.5H217.44ZM222.793 76.5V65.88H225.863V76.5H222.793ZM224.323 64.15C223.843 64.15 223.423 64.0233 223.063 63.77C222.71 63.5167 222.533 63.16 222.533 62.7C222.533 62.2333 222.71 61.8733 223.063 61.62C223.423 61.3667 223.843 61.24 224.323 61.24C224.81 61.24 225.23 61.3667 225.583 61.62C225.943 61.8733 226.123 62.2333 226.123 62.7C226.123 63.1667 225.943 63.5267 225.583 63.78C225.23 64.0267 224.81 64.15 224.323 64.15ZM228.148 76.5V65.88H231.258V69.54L230.618 69.14C230.691 68.64 230.824 68.18 231.018 67.76C231.211 67.34 231.461 66.9767 231.768 66.67C232.074 66.3567 232.438 66.1133 232.858 65.94C233.284 65.7667 233.771 65.68 234.318 65.68C234.744 65.68 235.078 65.7133 235.318 65.78C235.564 65.84 235.718 65.8867 235.778 65.92L235.268 68.7C235.208 68.6667 235.074 68.6133 234.868 68.54C234.661 68.4667 234.394 68.43 234.068 68.43C233.534 68.43 233.088 68.52 232.728 68.7C232.368 68.88 232.078 69.12 231.858 69.42C231.644 69.7133 231.491 70.04 231.398 70.4C231.304 70.76 231.258 71.1233 231.258 71.49V76.5H228.148ZM240.487 72.45C240.487 71.83 240.58 71.2767 240.767 70.79C240.96 70.2967 241.203 69.8533 241.497 69.46C241.79 69.06 242.087 68.6833 242.387 68.33C242.627 68.05 242.85 67.7733 243.057 67.5C243.263 67.22 243.43 66.93 243.557 66.63C243.683 66.33 243.747 66.01 243.747 65.67C243.747 65.05 243.587 64.5833 243.267 64.27C242.947 63.9567 242.48 63.8 241.867 63.8C241.213 63.8 240.707 64.01 240.347 64.43C239.987 64.8433 239.807 65.4767 239.807 66.33H237.077C237.077 65.23 237.29 64.3367 237.717 63.65C238.143 62.9567 238.717 62.45 239.437 62.13C240.157 61.8033 240.953 61.64 241.827 61.64C242.707 61.64 243.493 61.7967 244.187 62.11C244.887 62.4233 245.437 62.89 245.837 63.51C246.243 64.13 246.447 64.91 246.447 65.85C246.447 66.43 246.35 66.9433 246.157 67.39C245.963 67.8367 245.713 68.2367 245.407 68.59C245.107 68.9433 244.797 69.28 244.477 69.6C244.043 70.0267 243.66 70.46 243.327 70.9C243 71.3333 242.837 71.85 242.837 72.45H240.487ZM241.807 76.8C241.347 76.8 240.957 76.64 240.637 76.32C240.317 76 240.157 75.61 240.157 75.15C240.157 74.6967 240.317 74.31 240.637 73.99C240.957 73.67 241.347 73.51 241.807 73.51C242.253 73.51 242.637 73.67 242.957 73.99C243.283 74.31 243.447 74.6967 243.447 75.15C243.447 75.61 243.283 76 242.957 76.32C242.637 76.64 242.253 76.8 241.807 76.8Z" fill="black"/>
<path d="M86.3114 184V160.4H91.2874V182.512L89.0474 179.952H100.071V184H86.3114ZM109.202 184.32C107.997 184.32 107.005 184.128 106.226 183.744C105.448 183.349 104.834 182.821 104.386 182.16C103.938 181.499 103.624 180.763 103.442 179.952C103.261 179.141 103.17 178.32 103.17 177.488C103.17 177.104 103.17 176.699 103.17 176.272C103.17 175.845 103.17 175.408 103.17 174.96V167.008H108.13V174.176C108.13 174.539 108.13 174.891 108.13 175.232C108.13 175.573 108.13 175.888 108.13 176.176C108.13 176.891 108.21 177.547 108.37 178.144C108.53 178.741 108.824 179.221 109.25 179.584C109.688 179.947 110.306 180.128 111.106 180.128C111.885 180.128 112.546 179.909 113.09 179.472C113.634 179.024 114.05 178.453 114.338 177.76C114.626 177.067 114.77 176.352 114.77 175.616L116.162 176.752C116.162 177.819 115.997 178.811 115.666 179.728C115.346 180.645 114.888 181.451 114.29 182.144C113.693 182.827 112.962 183.36 112.098 183.744C111.245 184.128 110.28 184.32 109.202 184.32ZM114.77 184V167.008H119.73V184H114.77ZM134.06 184V177.424C134.06 176.795 134.06 176.251 134.06 175.792C134.06 175.323 134.06 174.933 134.06 174.624C134.06 174.187 134.033 173.755 133.98 173.328C133.937 172.901 133.83 172.507 133.66 172.144C133.5 171.771 133.249 171.477 132.908 171.264C132.566 171.04 132.102 170.928 131.516 170.928C130.972 170.928 130.502 171.045 130.108 171.28C129.713 171.504 129.388 171.819 129.132 172.224C128.886 172.619 128.705 173.077 128.588 173.6C128.47 174.112 128.412 174.651 128.412 175.216L127.052 174.096C127.052 172.656 127.313 171.381 127.836 170.272C128.358 169.152 129.1 168.277 130.06 167.648C131.03 167.008 132.177 166.688 133.5 166.688C134.918 166.688 136.022 166.992 136.812 167.6C137.612 168.197 138.172 168.997 138.492 170C138.822 170.992 138.988 172.091 138.988 173.296C138.988 173.755 138.988 174.373 138.988 175.152C138.988 175.931 138.988 176.864 138.988 177.952V184H134.06ZM123.452 184V167.008H128.412V184H123.452ZM144.62 184V177.44C144.62 176.789 144.62 176.229 144.62 175.76C144.62 175.291 144.62 174.901 144.62 174.592C144.62 174.123 144.593 173.675 144.54 173.248C144.486 172.811 144.374 172.416 144.204 172.064C144.033 171.712 143.777 171.435 143.436 171.232C143.094 171.029 142.63 170.928 142.044 170.928C141.5 170.928 141.03 171.045 140.636 171.28C140.252 171.504 139.937 171.813 139.692 172.208C139.446 172.603 139.265 173.051 139.148 173.552C139.041 174.053 138.988 174.576 138.988 175.12L137.628 174.016C137.628 172.597 137.884 171.339 138.396 170.24C138.918 169.141 139.654 168.277 140.604 167.648C141.564 167.008 142.71 166.688 144.044 166.688C145.43 166.688 146.524 166.981 147.324 167.568C148.134 168.155 148.71 168.939 149.052 169.92C149.404 170.891 149.58 171.979 149.58 173.184C149.58 173.664 149.58 174.283 149.58 175.04C149.58 175.797 149.58 176.72 149.58 177.808V184H144.62ZM153.103 184V167.008H158.015V184H153.103ZM155.551 164.24C154.783 164.24 154.111 164.037 153.535 163.632C152.97 163.227 152.687 162.656 152.687 161.92C152.687 161.173 152.97 160.597 153.535 160.192C154.111 159.787 154.783 159.584 155.551 159.584C156.33 159.584 157.002 159.787 157.567 160.192C158.143 160.597 158.431 161.173 158.431 161.92C158.431 162.667 158.143 163.243 157.567 163.648C157.002 164.043 156.33 164.24 155.551 164.24ZM161.67 190.992V167.008H166.646V190.992H161.67ZM171.894 184.384C170.55 184.384 169.318 184.027 168.198 183.312C167.078 182.587 166.182 181.616 165.51 180.4C164.838 179.173 164.502 177.797 164.502 176.272C164.502 176.229 164.502 176.192 164.502 176.16C164.502 176.117 164.502 176.069 164.502 176.016L166.646 175.968C166.646 176 166.646 176.032 166.646 176.064C166.646 176.096 166.646 176.128 166.646 176.16C166.646 176.949 166.838 177.643 167.222 178.24C167.606 178.827 168.102 179.28 168.71 179.6C169.318 179.92 169.953 180.08 170.614 180.08C171.702 180.08 172.646 179.707 173.446 178.96C174.257 178.203 174.662 177.024 174.662 175.424C174.662 173.824 174.262 172.661 173.462 171.936C172.662 171.2 171.713 170.832 170.614 170.832C169.953 170.832 169.318 170.992 168.71 171.312C168.102 171.621 167.606 172.064 167.222 172.64C166.838 173.216 166.646 173.904 166.646 174.704L164.502 174.576C164.502 173.04 164.838 171.685 165.51 170.512C166.182 169.328 167.078 168.395 168.198 167.712C169.318 167.029 170.55 166.688 171.894 166.688C173.27 166.688 174.556 167.029 175.75 167.712C176.945 168.384 177.91 169.371 178.646 170.672C179.393 171.973 179.766 173.557 179.766 175.424C179.766 177.376 179.404 179.019 178.678 180.352C177.953 181.685 176.993 182.693 175.798 183.376C174.604 184.048 173.302 184.384 171.894 184.384ZM194.826 184V177.952C194.826 177.739 194.826 177.445 194.826 177.072C194.826 176.699 194.826 176.32 194.826 175.936C194.826 175.552 194.826 175.243 194.826 175.008C194.826 173.707 194.591 172.704 194.122 172C193.653 171.285 192.794 170.928 191.546 170.928C190.735 170.928 190.053 171.093 189.498 171.424C188.943 171.744 188.522 172.197 188.234 172.784C187.957 173.371 187.818 174.059 187.818 174.848L186.378 173.856C186.378 172.437 186.682 171.195 187.29 170.128C187.898 169.051 188.735 168.208 189.802 167.6C190.879 166.992 192.122 166.688 193.53 166.688C195.61 166.688 197.173 167.301 198.218 168.528C199.263 169.744 199.786 171.44 199.786 173.616C199.786 174.171 199.786 174.837 199.786 175.616C199.786 176.395 199.786 177.296 199.786 178.32V184H194.826ZM182.858 184V158.992H187.818V184H182.858ZM209.243 184.352C208.006 184.352 206.902 184.155 205.931 183.76C204.971 183.365 204.219 182.795 203.675 182.048C203.131 181.301 202.859 180.395 202.859 179.328C202.859 178.123 203.19 177.141 203.851 176.384C204.512 175.627 205.387 175.051 206.475 174.656C207.574 174.251 208.763 173.984 210.043 173.856C211.91 173.675 213.195 173.509 213.899 173.36C214.614 173.211 214.971 172.949 214.971 172.576C214.971 172.565 214.971 172.555 214.971 172.544C214.971 171.915 214.667 171.419 214.059 171.056C213.462 170.693 212.624 170.512 211.547 170.512C210.406 170.512 209.531 170.72 208.923 171.136C208.326 171.541 208.027 172.165 208.027 173.008H203.147C203.147 171.643 203.515 170.491 204.251 169.552C204.998 168.613 206.006 167.904 207.275 167.424C208.544 166.933 209.979 166.688 211.579 166.688C213.072 166.688 214.454 166.917 215.723 167.376C216.992 167.824 218.011 168.501 218.779 169.408C219.558 170.315 219.947 171.467 219.947 172.864C219.947 173.088 219.947 173.312 219.947 173.536C219.947 173.749 219.947 173.968 219.947 174.192V180.208C219.947 180.645 219.958 181.067 219.979 181.472C220.011 181.867 220.075 182.229 220.171 182.56C220.278 182.933 220.411 183.243 220.571 183.488C220.731 183.733 220.864 183.904 220.971 184H216.091C216.016 183.925 215.899 183.771 215.739 183.536C215.59 183.301 215.462 183.029 215.355 182.72C215.227 182.347 215.131 181.973 215.067 181.6C215.014 181.216 214.987 180.768 214.987 180.256L216.011 180.96C215.712 181.664 215.227 182.272 214.555 182.784C213.894 183.285 213.104 183.675 212.187 183.952C211.28 184.219 210.299 184.352 209.243 184.352ZM210.571 180.64C211.35 180.64 212.075 180.501 212.747 180.224C213.43 179.936 213.984 179.488 214.411 178.88C214.838 178.272 215.051 177.477 215.051 176.496V174.784L216.283 175.984C215.579 176.24 214.763 176.453 213.835 176.624C212.918 176.784 212 176.912 211.083 177.008C209.995 177.115 209.179 177.301 208.635 177.568C208.102 177.824 207.835 178.261 207.835 178.88C207.835 179.467 208.064 179.909 208.523 180.208C208.982 180.496 209.664 180.64 210.571 180.64ZM17.5988 226L23.4868 202.368H31.3428L37.1988 226H32.1108L27.4068 205.392H27.4388L22.6868 226H17.5988ZM21.8228 220.528V216.656H33.0228V220.528H21.8228ZM40.0298 226V200.992H44.7338V215.312L43.7578 214.8L50.2378 209.008H56.3178L47.9018 216.528L48.9578 214.64L56.1737 226H50.9578L45.7098 217.248L46.9738 217.344L44.2218 219.84L44.7338 217.712V226H40.0298ZM63.196 226.352C61.9587 226.352 60.8547 226.155 59.884 225.76C58.924 225.365 58.172 224.795 57.628 224.048C57.084 223.301 56.812 222.395 56.812 221.328C56.812 220.123 57.1427 219.141 57.804 218.384C58.4653 217.627 59.34 217.051 60.428 216.656C61.5267 216.251 62.716 215.984 63.996 215.856C65.8627 215.675 67.148 215.509 67.852 215.36C68.5667 215.211 68.924 214.949 68.924 214.576C68.924 214.565 68.924 214.555 68.924 214.544C68.924 213.915 68.62 213.419 68.012 213.056C67.4147 212.693 66.5773 212.512 65.5 212.512C64.3587 212.512 63.484 212.72 62.876 213.136C62.2787 213.541 61.98 214.165 61.98 215.008H57.1C57.1 213.643 57.468 212.491 58.204 211.552C58.9507 210.613 59.9587 209.904 61.228 209.424C62.4973 208.933 63.932 208.688 65.532 208.688C67.0253 208.688 68.4067 208.917 69.676 209.376C70.9453 209.824 71.964 210.501 72.732 211.408C73.5107 212.315 73.9 213.467 73.9 214.864C73.9 215.088 73.9 215.312 73.9 215.536C73.9 215.749 73.9 215.968 73.9 216.192V222.208C73.9 222.645 73.9107 223.067 73.932 223.472C73.964 223.867 74.028 224.229 74.124 224.56C74.2307 224.933 74.364 225.243 74.524 225.488C74.684 225.733 74.8173 225.904 74.924 226H70.044C69.9693 225.925 69.852 225.771 69.692 225.536C69.5427 225.301 69.4147 225.029 69.308 224.72C69.18 224.347 69.084 223.973 69.02 223.6C68.9667 223.216 68.94 222.768 68.94 222.256L69.964 222.96C69.6653 223.664 69.18 224.272 68.508 224.784C67.8467 225.285 67.0573 225.675 66.14 225.952C65.2333 226.219 64.252 226.352 63.196 226.352ZM64.524 222.64C65.3027 222.64 66.028 222.501 66.7 222.224C67.3827 221.936 67.9373 221.488 68.364 220.88C68.7907 220.272 69.004 219.477 69.004 218.496V216.784L70.236 217.984C69.532 218.24 68.716 218.453 67.788 218.624C66.8707 218.784 65.9533 218.912 65.036 219.008C63.948 219.115 63.132 219.301 62.588 219.568C62.0547 219.824 61.788 220.261 61.788 220.88C61.788 221.467 62.0173 221.909 62.476 222.208C62.9347 222.496 63.6173 222.64 64.524 222.64ZM84.6337 226.384C83.2151 226.384 81.9084 226.048 80.7138 225.376C79.5191 224.693 78.5591 223.685 77.8338 222.352C77.1084 221.019 76.7458 219.376 76.7458 217.424C76.7458 215.557 77.1138 213.973 77.8498 212.672C78.5964 211.371 79.5671 210.384 80.7618 209.712C81.9671 209.029 83.2578 208.688 84.6337 208.688C85.9778 208.688 87.2044 209.029 88.3138 209.712C89.4338 210.395 90.3298 211.328 91.0018 212.512C91.6738 213.685 92.0098 215.04 92.0098 216.576C92.0098 216.629 92.0098 216.683 92.0098 216.736C92.0098 216.779 92.0098 216.827 92.0098 216.88L89.8658 216.912C89.8658 216.88 89.8658 216.848 89.8658 216.816C89.8658 216.773 89.8658 216.736 89.8658 216.704C89.8658 215.904 89.6738 215.216 89.2898 214.64C88.9058 214.064 88.4098 213.621 87.8018 213.312C87.1938 212.992 86.5591 212.832 85.8978 212.832C84.7991 212.832 83.8498 213.2 83.0498 213.936C82.2498 214.661 81.8498 215.824 81.8498 217.424C81.8498 219.024 82.2498 220.203 83.0498 220.96C83.8604 221.707 84.8098 222.08 85.8978 222.08C86.5804 222.08 87.2258 221.92 87.8338 221.6C88.4418 221.269 88.9324 220.805 89.3058 220.208C89.6791 219.611 89.8658 218.907 89.8658 218.096L92.0098 218.208C92.0098 219.733 91.6791 221.115 91.0178 222.352C90.3671 223.579 89.4818 224.56 88.3618 225.296C87.2524 226.021 86.0098 226.384 84.6337 226.384ZM89.8658 226V200.992H94.8418V226H89.8658ZM100.528 218.992V215.712H111.792L111.312 216.544C111.312 216.459 111.312 216.379 111.312 216.304C111.312 216.219 111.312 216.139 111.312 216.064C111.312 215.456 111.168 214.875 110.88 214.32C110.592 213.755 110.144 213.296 109.536 212.944C108.938 212.581 108.17 212.4 107.232 212.4C106.293 212.4 105.482 212.603 104.8 213.008C104.128 213.403 103.61 213.973 103.248 214.72C102.896 215.467 102.72 216.368 102.72 217.424C102.72 218.512 102.89 219.445 103.232 220.224C103.584 220.992 104.101 221.584 104.784 222C105.477 222.416 106.336 222.624 107.36 222.624C108.021 222.624 108.592 222.565 109.072 222.448C109.552 222.32 109.941 222.16 110.24 221.968C110.549 221.776 110.784 221.563 110.944 221.328C111.104 221.093 111.2 220.864 111.232 220.64H116.128C116.064 221.355 115.818 222.059 115.392 222.752C114.965 223.435 114.373 224.053 113.616 224.608C112.858 225.152 111.936 225.584 110.848 225.904C109.77 226.224 108.538 226.384 107.152 226.384C105.274 226.384 103.637 226.011 102.24 225.264C100.842 224.507 99.7595 223.467 98.9915 222.144C98.2235 220.811 97.8395 219.275 97.8395 217.536C97.8395 215.776 98.2288 214.235 99.0075 212.912C99.7968 211.579 100.89 210.544 102.288 209.808C103.696 209.061 105.322 208.688 107.168 208.688C109.056 208.688 110.688 209.067 112.064 209.824C113.44 210.571 114.501 211.621 115.248 212.976C115.994 214.32 116.368 215.888 116.368 217.68C116.368 217.947 116.362 218.203 116.352 218.448C116.341 218.693 116.325 218.875 116.304 218.992H100.528ZM130.075 226V219.424C130.075 218.795 130.075 218.251 130.075 217.792C130.075 217.323 130.075 216.933 130.075 216.624C130.075 216.187 130.049 215.755 129.995 215.328C129.953 214.901 129.846 214.507 129.675 214.144C129.515 213.771 129.265 213.477 128.923 213.264C128.582 213.04 128.118 212.928 127.531 212.928C126.987 212.928 126.518 213.045 126.123 213.28C125.729 213.504 125.403 213.819 125.147 214.224C124.902 214.619 124.721 215.077 124.603 215.6C124.486 216.112 124.427 216.651 124.427 217.216L123.067 216.096C123.067 214.656 123.329 213.381 123.851 212.272C124.374 211.152 125.115 210.277 126.075 209.648C127.046 209.008 128.193 208.688 129.515 208.688C130.934 208.688 132.038 208.992 132.827 209.6C133.627 210.197 134.187 210.997 134.507 212C134.838 212.992 135.003 214.091 135.003 215.296C135.003 215.755 135.003 216.373 135.003 217.152C135.003 217.931 135.003 218.864 135.003 219.952V226H130.075ZM119.467 226V209.008H124.427V226H119.467ZM140.635 226V219.44C140.635 218.789 140.635 218.229 140.635 217.76C140.635 217.291 140.635 216.901 140.635 216.592C140.635 216.123 140.609 215.675 140.555 215.248C140.502 214.811 140.39 214.416 140.219 214.064C140.049 213.712 139.793 213.435 139.451 213.232C139.11 213.029 138.646 212.928 138.059 212.928C137.515 212.928 137.046 213.045 136.651 213.28C136.267 213.504 135.953 213.813 135.707 214.208C135.462 214.603 135.281 215.051 135.163 215.552C135.057 216.053 135.003 216.576 135.003 217.12L133.643 216.016C133.643 214.597 133.899 213.339 134.411 212.24C134.934 211.141 135.67 210.277 136.619 209.648C137.579 209.008 138.726 208.688 140.059 208.688C141.446 208.688 142.539 208.981 143.339 209.568C144.15 210.155 144.726 210.939 145.067 211.92C145.419 212.891 145.595 213.979 145.595 215.184C145.595 215.664 145.595 216.283 145.595 217.04C145.595 217.797 145.595 218.72 145.595 219.808V226H140.635ZM149.119 226V209.008H154.031V226H149.119ZM151.567 206.24C150.799 206.24 150.127 206.037 149.551 205.632C148.986 205.227 148.703 204.656 148.703 203.92C148.703 203.173 148.986 202.597 149.551 202.192C150.127 201.787 150.799 201.584 151.567 201.584C152.346 201.584 153.018 201.787 153.583 202.192C154.159 202.597 154.447 203.173 154.447 203.92C154.447 204.667 154.159 205.243 153.583 205.648C153.018 206.043 152.346 206.24 151.567 206.24ZM183.238 202.4L176.39 217.872V226H171.446V217.872L164.63 202.4H169.878L174.918 215.392H172.934L177.974 202.4H183.238ZM189.227 226.352C187.99 226.352 186.886 226.155 185.915 225.76C184.955 225.365 184.203 224.795 183.659 224.048C183.115 223.301 182.843 222.395 182.843 221.328C182.843 220.123 183.174 219.141 183.835 218.384C184.497 217.627 185.371 217.051 186.459 216.656C187.558 216.251 188.747 215.984 190.027 215.856C191.894 215.675 193.179 215.509 193.883 215.36C194.598 215.211 194.955 214.949 194.955 214.576C194.955 214.565 194.955 214.555 194.955 214.544C194.955 213.915 194.651 213.419 194.043 213.056C193.446 212.693 192.609 212.512 191.531 212.512C190.39 212.512 189.515 212.72 188.907 213.136C188.31 213.541 188.011 214.165 188.011 215.008H183.131C183.131 213.643 183.499 212.491 184.235 211.552C184.982 210.613 185.99 209.904 187.259 209.424C188.529 208.933 189.963 208.688 191.563 208.688C193.057 208.688 194.438 208.917 195.707 209.376C196.977 209.824 197.995 210.501 198.763 211.408C199.542 212.315 199.931 213.467 199.931 214.864C199.931 215.088 199.931 215.312 199.931 215.536C199.931 215.749 199.931 215.968 199.931 216.192V222.208C199.931 222.645 199.942 223.067 199.963 223.472C199.995 223.867 200.059 224.229 200.155 224.56C200.262 224.933 200.395 225.243 200.555 225.488C200.715 225.733 200.849 225.904 200.955 226H196.075C196.001 225.925 195.883 225.771 195.723 225.536C195.574 225.301 195.446 225.029 195.339 224.72C195.211 224.347 195.115 223.973 195.051 223.6C194.998 223.216 194.971 222.768 194.971 222.256L195.995 222.96C195.697 223.664 195.211 224.272 194.539 224.784C193.878 225.285 193.089 225.675 192.171 225.952C191.265 226.219 190.283 226.352 189.227 226.352ZM190.555 222.64C191.334 222.64 192.059 222.501 192.731 222.224C193.414 221.936 193.969 221.488 194.395 220.88C194.822 220.272 195.035 219.477 195.035 218.496V216.784L196.267 217.984C195.563 218.24 194.747 218.453 193.819 218.624C192.902 218.784 191.985 218.912 191.067 219.008C189.979 219.115 189.163 219.301 188.619 219.568C188.086 219.824 187.819 220.261 187.819 220.88C187.819 221.467 188.049 221.909 188.507 222.208C188.966 222.496 189.649 222.64 190.555 222.64ZM204.438 233.344C203.904 233.344 203.424 233.323 202.998 233.28C202.582 233.248 202.32 233.211 202.214 233.168V229.408C202.352 229.472 202.592 229.52 202.934 229.552C203.286 229.595 203.659 229.616 204.054 229.616C204.576 229.616 205.046 229.509 205.462 229.296C205.888 229.093 206.251 228.8 206.55 228.416C206.859 228.043 207.099 227.6 207.27 227.088L207.558 226.224L201.702 209.008H206.87L210.566 222.944H209.99L213.542 209.008H218.646L212.806 226.848C212.368 228.192 211.83 229.349 211.19 230.32C210.55 231.291 209.696 232.037 208.63 232.56C207.563 233.083 206.166 233.344 204.438 233.344ZM220.807 226V209.008H225.719V226H220.807ZM241.373 226V218.784C241.373 218.379 241.373 218.011 241.373 217.68C241.373 217.349 241.373 217.051 241.373 216.784C241.373 216.08 241.282 215.44 241.101 214.864C240.919 214.277 240.594 213.808 240.125 213.456C239.655 213.104 238.978 212.928 238.093 212.928C237.325 212.928 236.658 213.104 236.093 213.456C235.538 213.808 235.111 214.299 234.813 214.928C234.514 215.557 234.365 216.283 234.365 217.104L232.989 216.112C232.989 214.64 233.309 213.349 233.949 212.24C234.589 211.131 235.453 210.261 236.541 209.632C237.639 209.003 238.855 208.688 240.189 208.688C241.586 208.688 242.733 208.971 243.629 209.536C244.535 210.091 245.207 210.869 245.645 211.872C246.093 212.864 246.317 214.027 246.317 215.36C246.317 215.904 246.317 216.512 246.317 217.184C246.317 217.856 246.317 218.544 246.317 219.248V226H241.373ZM229.405 226V209.008H234.365V226H229.405ZM257.134 226.384C255.715 226.384 254.408 226.048 253.214 225.376C252.019 224.693 251.059 223.685 250.334 222.352C249.608 221.019 249.246 219.376 249.246 217.424C249.246 215.557 249.614 213.973 250.35 212.672C251.096 211.371 252.067 210.384 253.262 209.712C254.467 209.029 255.758 208.688 257.134 208.688C258.478 208.688 259.704 209.029 260.814 209.712C261.934 210.395 262.83 211.328 263.502 212.512C264.174 213.685 264.51 215.04 264.51 216.576C264.51 216.629 264.51 216.683 264.51 216.736C264.51 216.779 264.51 216.827 264.51 216.88L262.366 216.912C262.366 216.88 262.366 216.848 262.366 216.816C262.366 216.773 262.366 216.736 262.366 216.704C262.366 215.904 262.174 215.216 261.79 214.64C261.406 214.064 260.91 213.621 260.302 213.312C259.694 212.992 259.059 212.832 258.398 212.832C257.299 212.832 256.35 213.2 255.55 213.936C254.75 214.661 254.35 215.824 254.35 217.424C254.35 219.024 254.75 220.203 255.55 220.96C256.36 221.707 257.31 222.08 258.398 222.08C259.08 222.08 259.726 221.92 260.334 221.6C260.942 221.269 261.432 220.805 261.806 220.208C262.179 219.611 262.366 218.907 262.366 218.096L264.51 218.208C264.51 219.733 264.179 221.115 263.518 222.352C262.867 223.579 261.982 224.56 260.862 225.296C259.752 226.021 258.51 226.384 257.134 226.384ZM262.366 226V200.992H267.342V226H262.366ZM276.884 226.352C275.646 226.352 274.542 226.155 273.572 225.76C272.612 225.365 271.86 224.795 271.316 224.048C270.772 223.301 270.5 222.395 270.5 221.328C270.5 220.123 270.83 219.141 271.492 218.384C272.153 217.627 273.028 217.051 274.116 216.656C275.214 216.251 276.404 215.984 277.684 215.856C279.55 215.675 280.836 215.509 281.54 215.36C282.254 215.211 282.612 214.949 282.612 214.576C282.612 214.565 282.612 214.555 282.612 214.544C282.612 213.915 282.308 213.419 281.7 213.056C281.102 212.693 280.265 212.512 279.188 212.512C278.046 212.512 277.172 212.72 276.564 213.136C275.966 213.541 275.668 214.165 275.668 215.008H270.788C270.788 213.643 271.156 212.491 271.892 211.552C272.638 210.613 273.646 209.904 274.916 209.424C276.185 208.933 277.62 208.688 279.22 208.688C280.713 208.688 282.094 208.917 283.364 209.376C284.633 209.824 285.652 210.501 286.42 211.408C287.198 212.315 287.588 213.467 287.588 214.864C287.588 215.088 287.588 215.312 287.588 215.536C287.588 215.749 287.588 215.968 287.588 216.192V222.208C287.588 222.645 287.598 223.067 287.62 223.472C287.652 223.867 287.716 224.229 287.812 224.56C287.918 224.933 288.052 225.243 288.212 225.488C288.372 225.733 288.505 225.904 288.612 226H283.732C283.657 225.925 283.54 225.771 283.38 225.536C283.23 225.301 283.102 225.029 282.996 224.72C282.868 224.347 282.772 223.973 282.708 223.6C282.654 223.216 282.628 222.768 282.628 222.256L283.652 222.96C283.353 223.664 282.868 224.272 282.196 224.784C281.534 225.285 280.745 225.675 279.828 225.952C278.921 226.219 277.94 226.352 276.884 226.352ZM278.212 222.64C278.99 222.64 279.716 222.501 280.388 222.224C281.07 221.936 281.625 221.488 282.052 220.88C282.478 220.272 282.692 219.477 282.692 218.496V216.784L283.924 217.984C283.22 218.24 282.404 218.453 281.476 218.624C280.558 218.784 279.641 218.912 278.724 219.008C277.636 219.115 276.82 219.301 276.276 219.568C275.742 219.824 275.476 220.261 275.476 220.88C275.476 221.467 275.705 221.909 276.164 222.208C276.622 222.496 277.305 222.64 278.212 222.64Z" fill="black"/>
<g clip-path="url(#clip1_631_4519)">
<path d="M125.664 278.176C124.747 278.176 123.912 277.941 123.16 277.472C122.413 277.003 121.819 276.317 121.376 275.416C120.933 274.515 120.712 273.419 120.712 272.128C120.712 270.832 120.941 269.731 121.4 268.824C121.859 267.917 122.477 267.227 123.256 266.752C124.04 266.272 124.915 266.032 125.88 266.032C126.68 266.032 127.357 266.165 127.912 266.432C128.472 266.693 128.925 267.032 129.272 267.448C129.624 267.864 129.877 268.301 130.032 268.76C130.192 269.219 130.272 269.645 130.272 270.04C130.272 270.056 130.272 270.072 130.272 270.088C130.272 270.104 130.272 270.12 130.272 270.136H128.224C128.224 270.12 128.224 270.104 128.224 270.088C128.224 270.072 128.224 270.056 128.224 270.04C128.224 269.763 128.176 269.491 128.08 269.224C127.984 268.957 127.837 268.715 127.64 268.496C127.443 268.277 127.197 268.104 126.904 267.976C126.611 267.848 126.269 267.784 125.88 267.784C125.352 267.784 124.856 267.931 124.392 268.224C123.933 268.517 123.56 268.984 123.272 269.624C122.989 270.259 122.848 271.093 122.848 272.128C122.848 272.912 122.928 273.579 123.088 274.128C123.248 274.677 123.464 275.123 123.736 275.464C124.013 275.805 124.328 276.056 124.68 276.216C125.037 276.371 125.413 276.448 125.808 276.448C126.341 276.448 126.784 276.357 127.136 276.176C127.493 275.995 127.771 275.768 127.968 275.496C128.171 275.224 128.299 274.957 128.352 274.696V273.776H125.832V272.192H130.24V278H129.024L128.848 276.688C128.811 276.784 128.723 276.915 128.584 277.08C128.451 277.245 128.259 277.413 128.008 277.584C127.757 277.749 127.437 277.888 127.048 278C126.664 278.117 126.203 278.176 125.664 278.176ZM136.529 278.168C135.633 278.168 134.844 277.981 134.161 277.608C133.478 277.229 132.942 276.707 132.553 276.04C132.169 275.373 131.977 274.611 131.977 273.752C131.977 272.888 132.169 272.128 132.553 271.472C132.942 270.811 133.478 270.293 134.161 269.92C134.844 269.547 135.633 269.36 136.529 269.36C137.425 269.36 138.214 269.547 138.897 269.92C139.58 270.293 140.113 270.811 140.497 271.472C140.886 272.128 141.081 272.888 141.081 273.752C141.081 274.611 140.886 275.373 140.497 276.04C140.113 276.707 139.58 277.229 138.897 277.608C138.214 277.981 137.425 278.168 136.529 278.168ZM136.529 276.448C137.014 276.448 137.438 276.336 137.801 276.112C138.164 275.888 138.446 275.576 138.649 275.176C138.852 274.771 138.953 274.296 138.953 273.752C138.953 273.208 138.852 272.739 138.649 272.344C138.446 271.944 138.164 271.635 137.801 271.416C137.438 271.197 137.014 271.088 136.529 271.088C136.049 271.088 135.625 271.197 135.257 271.416C134.894 271.635 134.612 271.944 134.409 272.344C134.206 272.739 134.105 273.208 134.105 273.752C134.105 274.296 134.206 274.771 134.409 275.176C134.612 275.576 134.894 275.888 135.257 276.112C135.625 276.336 136.049 276.448 136.529 276.448ZM134.721 267.968C134.412 267.968 134.14 267.885 133.905 267.72C133.676 267.549 133.561 267.312 133.561 267.008C133.561 266.704 133.676 266.469 133.905 266.304C134.14 266.139 134.412 266.056 134.721 266.056C135.036 266.056 135.308 266.139 135.537 266.304C135.772 266.469 135.889 266.704 135.889 267.008C135.889 267.317 135.772 267.555 135.537 267.72C135.308 267.885 135.036 267.968 134.721 267.968ZM138.337 267.968C138.022 267.968 137.75 267.885 137.521 267.72C137.292 267.549 137.177 267.312 137.177 267.008C137.177 266.704 137.292 266.469 137.521 266.304C137.75 266.139 138.022 266.056 138.337 266.056C138.646 266.056 138.916 266.139 139.145 266.304C139.38 266.469 139.497 266.704 139.497 267.008C139.497 267.317 139.38 267.555 139.145 267.72C138.916 267.885 138.646 267.968 138.337 267.968ZM144.245 276.288H149.005V278H141.973V276.376L146.637 271.144L146.677 271.216H142.149V269.504H148.917V271.128L144.285 276.344L144.245 276.288ZM157.531 278.176C156.896 278.176 156.339 278.077 155.859 277.88C155.379 277.677 155.003 277.387 154.731 277.008C154.459 276.629 154.323 276.173 154.323 275.64C154.323 275.059 154.48 274.581 154.795 274.208C155.115 273.829 155.544 273.539 156.083 273.336C156.621 273.128 157.219 272.995 157.875 272.936C158.845 272.84 159.523 272.749 159.907 272.664C160.296 272.573 160.491 272.429 160.491 272.232C160.491 272.227 160.491 272.224 160.491 272.224C160.491 272.219 160.491 272.216 160.491 272.216C160.491 271.843 160.323 271.555 159.987 271.352C159.651 271.149 159.176 271.048 158.562 271.048C157.917 271.048 157.421 271.163 157.075 271.392C156.733 271.616 156.563 271.973 156.563 272.464H154.483C154.483 271.797 154.659 271.235 155.011 270.776C155.368 270.312 155.856 269.96 156.475 269.72C157.093 269.48 157.795 269.36 158.579 269.36C159.309 269.36 159.979 269.469 160.587 269.688C161.195 269.907 161.683 270.237 162.051 270.68C162.419 271.123 162.602 271.675 162.602 272.336C162.602 272.448 162.602 272.56 162.602 272.672C162.602 272.784 162.602 272.896 162.602 273.008V276.208C162.602 276.411 162.608 276.611 162.619 276.808C162.635 277 162.664 277.173 162.707 277.328C162.76 277.499 162.824 277.643 162.899 277.76C162.973 277.877 163.032 277.957 163.075 278H160.995C160.957 277.963 160.904 277.891 160.835 277.784C160.771 277.672 160.712 277.544 160.659 277.4C160.605 277.24 160.565 277.069 160.539 276.888C160.512 276.701 160.499 276.496 160.499 276.272L160.915 276.56C160.755 276.885 160.509 277.171 160.179 277.416C159.853 277.656 159.464 277.843 159.011 277.976C158.557 278.109 158.064 278.176 157.531 278.176ZM158.043 276.52C158.48 276.52 158.885 276.445 159.259 276.296C159.632 276.147 159.933 275.917 160.163 275.608C160.392 275.293 160.507 274.891 160.507 274.4V273.264L161.019 273.84C160.677 273.968 160.267 274.075 159.787 274.16C159.307 274.24 158.821 274.304 158.331 274.352C157.701 274.411 157.227 274.52 156.907 274.68C156.592 274.84 156.435 275.101 156.435 275.464C156.435 275.816 156.568 276.08 156.835 276.256C157.101 276.432 157.504 276.52 158.043 276.52ZM168.257 278.16C167.953 278.16 167.644 278.131 167.329 278.072C167.014 278.013 166.726 277.904 166.465 277.744C166.204 277.584 165.993 277.349 165.833 277.04C165.673 276.731 165.593 276.323 165.593 275.816C165.593 275.699 165.593 275.581 165.593 275.464C165.593 275.341 165.593 275.216 165.593 275.088V271.184H163.585V269.504H164.401C164.678 269.504 164.897 269.493 165.057 269.472C165.217 269.445 165.334 269.387 165.409 269.296C165.484 269.205 165.532 269.064 165.553 268.872C165.58 268.675 165.593 268.403 165.593 268.056V266.704H167.705V269.504H170.233V271.184H167.705V274.592C167.705 274.693 167.705 274.795 167.705 274.896C167.705 274.992 167.705 275.085 167.705 275.176C167.705 275.571 167.753 275.888 167.849 276.128C167.945 276.368 168.172 276.488 168.529 276.488C168.7 276.488 168.86 276.472 169.009 276.44C169.164 276.408 169.278 276.376 169.353 276.344V277.992C169.252 278.029 169.105 278.067 168.913 278.104C168.721 278.141 168.502 278.16 168.257 278.16ZM171.782 278V269.504H173.862V278H171.782ZM181.939 278V274.232C181.939 274.019 181.939 273.832 181.939 273.672C181.939 273.507 181.939 273.357 181.939 273.224C181.939 272.84 181.883 272.496 181.771 272.192C181.664 271.883 181.478 271.64 181.211 271.464C180.95 271.288 180.587 271.2 180.123 271.2C179.718 271.2 179.358 271.299 179.043 271.496C178.728 271.688 178.48 271.955 178.299 272.296C178.123 272.632 178.035 273.021 178.035 273.464L177.323 273.024C177.323 272.315 177.483 271.685 177.803 271.136C178.128 270.581 178.563 270.147 179.107 269.832C179.651 269.517 180.254 269.36 180.915 269.36C181.598 269.36 182.171 269.493 182.635 269.76C183.104 270.027 183.456 270.405 183.691 270.896C183.931 271.387 184.051 271.963 184.051 272.624C184.051 272.88 184.051 273.168 184.051 273.488C184.051 273.808 184.051 274.123 184.051 274.432V278H181.939ZM175.931 278V269.504H178.035V278H175.931Z" fill="black"/>
</g>
<rect x="1" y="251" width="304" height="42" rx="7" stroke="black" stroke-opacity="0.08" stroke-width="2"/>
<path opacity="0.64" d="M97.6395 328V317.675H98.8155V328H97.6395ZM98.2485 317.003C98.0338 317.003 97.8448 316.942 97.6815 316.821C97.5228 316.695 97.4435 316.527 97.4435 316.317C97.4435 316.102 97.5228 315.934 97.6815 315.813C97.8448 315.692 98.0338 315.631 98.2485 315.631C98.4678 315.631 98.6568 315.692 98.8155 315.813C98.9742 315.934 99.0535 316.102 99.0535 316.317C99.0535 316.532 98.9742 316.7 98.8155 316.821C98.6568 316.942 98.4678 317.003 98.2485 317.003ZM102.209 317.059V328H101.033V317.059H102.209ZM109.133 327.545C109.535 327.578 109.887 327.652 110.19 327.769C110.498 327.881 110.739 328.047 110.911 328.266C111.084 328.49 111.17 328.782 111.17 329.141C111.17 329.538 111.035 329.888 110.764 330.191C110.494 330.499 110.083 330.739 109.532 330.912C108.982 331.085 108.289 331.171 107.453 331.171C106.273 331.171 105.381 330.998 104.779 330.653C104.177 330.312 103.876 329.846 103.876 329.253C103.876 329.066 103.897 328.901 103.939 328.756C103.986 328.616 104.037 328.502 104.093 328.413L105.227 328.581C105.19 328.632 105.153 328.709 105.115 328.812C105.083 328.919 105.066 329.043 105.066 329.183C105.066 329.556 105.279 329.818 105.703 329.967C106.128 330.121 106.73 330.198 107.509 330.198C108.093 330.198 108.571 330.158 108.944 330.079C109.318 330 109.595 329.885 109.777 329.736C109.959 329.587 110.05 329.412 110.05 329.211C110.05 328.908 109.922 328.719 109.665 328.644C109.413 328.574 109.101 328.525 108.727 328.497L105.899 328.287C105.428 328.25 105.043 328.105 104.744 327.853C104.45 327.596 104.303 327.286 104.303 326.922C104.303 326.698 104.357 326.486 104.464 326.285C104.576 326.084 104.705 325.916 104.849 325.781C104.999 325.641 105.132 325.557 105.248 325.529L106.186 325.956C106.07 325.975 105.925 326.056 105.752 326.201C105.584 326.341 105.5 326.507 105.5 326.698C105.5 326.871 105.568 327.013 105.703 327.125C105.839 327.232 106.107 327.302 106.508 327.335L109.133 327.545ZM110.162 320.566H111.282L110.82 323.492C110.736 324.038 110.561 324.533 110.295 324.976C110.029 325.415 109.665 325.765 109.203 326.026C108.746 326.283 108.179 326.411 107.502 326.411C106.798 326.411 106.196 326.283 105.696 326.026C105.197 325.769 104.814 325.419 104.548 324.976C104.282 324.528 104.149 324.024 104.149 323.464C104.149 322.895 104.287 322.384 104.562 321.931C104.842 321.474 105.23 321.114 105.724 320.853C106.219 320.587 106.786 320.454 107.425 320.454C107.999 320.454 108.501 320.554 108.93 320.755C109.36 320.951 109.698 321.198 109.945 321.497C110.197 321.796 110.337 322.097 110.365 322.4L109.917 322.428L110.162 320.566ZM107.495 325.347C107.948 325.347 108.335 325.272 108.657 325.123C108.984 324.974 109.234 324.757 109.406 324.472C109.584 324.187 109.672 323.842 109.672 323.436C109.672 323.044 109.584 322.706 109.406 322.421C109.234 322.132 108.984 321.91 108.657 321.756C108.335 321.597 107.95 321.518 107.502 321.518C107.073 321.518 106.693 321.6 106.361 321.763C106.035 321.922 105.778 322.146 105.591 322.435C105.409 322.724 105.318 323.065 105.318 323.457C105.318 323.854 105.405 324.194 105.577 324.479C105.755 324.759 106.004 324.974 106.326 325.123C106.653 325.272 107.043 325.347 107.495 325.347ZM112.989 328V320.566H114.165V328H112.989ZM113.584 318.858C113.364 318.858 113.173 318.797 113.01 318.676C112.851 318.55 112.772 318.38 112.772 318.165C112.772 317.955 112.851 317.789 113.01 317.668C113.173 317.542 113.364 317.479 113.584 317.479C113.803 317.479 113.992 317.542 114.151 317.668C114.309 317.789 114.389 317.955 114.389 318.165C114.389 318.38 114.309 318.55 114.151 318.676C113.992 318.797 113.803 318.858 113.584 318.858ZM117.659 317.059V328H116.483V317.059H117.659ZM120.222 324.759V323.695H125.969L125.759 324.045C125.759 324.017 125.759 323.991 125.759 323.968C125.759 323.94 125.759 323.914 125.759 323.891C125.759 323.462 125.668 323.07 125.486 322.715C125.308 322.356 125.042 322.069 124.688 321.854C124.333 321.639 123.894 321.532 123.372 321.532C122.844 321.532 122.38 321.644 121.979 321.868C121.577 322.092 121.265 322.409 121.041 322.82C120.817 323.226 120.705 323.711 120.705 324.276C120.705 324.85 120.812 325.345 121.027 325.76C121.246 326.175 121.556 326.495 121.958 326.719C122.359 326.943 122.835 327.055 123.386 327.055C123.778 327.055 124.118 327.015 124.408 326.936C124.697 326.852 124.935 326.742 125.122 326.607C125.313 326.467 125.458 326.315 125.556 326.152C125.654 325.989 125.712 325.825 125.731 325.662H126.921C126.897 325.961 126.804 326.257 126.641 326.551C126.477 326.845 126.246 327.113 125.948 327.356C125.649 327.594 125.283 327.785 124.849 327.93C124.415 328.075 123.915 328.147 123.351 328.147C122.604 328.147 121.946 327.984 121.377 327.657C120.807 327.33 120.359 326.878 120.033 326.299C119.711 325.72 119.55 325.055 119.55 324.304C119.55 323.543 119.713 322.876 120.04 322.302C120.366 321.723 120.817 321.271 121.391 320.944C121.965 320.617 122.62 320.454 123.358 320.454C124.109 320.454 124.76 320.617 125.311 320.944C125.861 321.271 126.286 321.719 126.585 322.288C126.883 322.853 127.033 323.497 127.033 324.22C127.033 324.295 127.03 324.393 127.026 324.514C127.021 324.635 127.014 324.717 127.005 324.759H120.222ZM134.207 328V324.437C134.207 324.222 134.207 324.047 134.207 323.912C134.207 323.772 134.207 323.639 134.207 323.513C134.207 323.126 134.142 322.787 134.011 322.498C133.881 322.209 133.675 321.985 133.395 321.826C133.115 321.667 132.749 321.588 132.296 321.588C131.9 321.588 131.531 321.691 131.19 321.896C130.854 322.097 130.584 322.37 130.378 322.715C130.178 323.056 130.077 323.438 130.077 323.863L129.398 323.604C129.398 323.021 129.541 322.491 129.825 322.015C130.115 321.539 130.497 321.161 130.973 320.881C131.454 320.596 131.977 320.454 132.541 320.454C133.115 320.454 133.617 320.564 134.046 320.783C134.476 321.002 134.807 321.317 135.04 321.728C135.278 322.134 135.397 322.624 135.397 323.198C135.397 323.403 135.397 323.627 135.397 323.87C135.397 324.113 135.397 324.339 135.397 324.549V328H134.207ZM128.887 328V320.566H130.077V328H128.887ZM137.543 328V320.566H138.719V328H137.543ZM138.138 318.858C137.919 318.858 137.728 318.797 137.564 318.676C137.406 318.55 137.326 318.38 137.326 318.165C137.326 317.955 137.406 317.789 137.564 317.668C137.728 317.542 137.919 317.479 138.138 317.479C138.358 317.479 138.547 317.542 138.705 317.668C138.864 317.789 138.943 317.955 138.943 318.165C138.943 318.38 138.864 318.55 138.705 318.676C138.547 318.797 138.358 318.858 138.138 318.858ZM140.932 328V320.566H142.122V322.848L141.73 322.708C141.758 322.433 141.828 322.162 141.94 321.896C142.052 321.625 142.206 321.383 142.402 321.168C142.603 320.949 142.853 320.776 143.151 320.65C143.45 320.519 143.8 320.454 144.201 320.454C144.5 320.454 144.743 320.48 144.929 320.531C145.121 320.578 145.24 320.615 145.286 320.643L144.978 321.812C144.932 321.779 144.836 321.737 144.691 321.686C144.551 321.635 144.351 321.609 144.089 321.609C143.702 321.609 143.38 321.679 143.123 321.819C142.871 321.959 142.671 322.146 142.521 322.379C142.377 322.608 142.274 322.857 142.213 323.128C142.153 323.399 142.122 323.667 142.122 323.933V328H140.932ZM157.226 317.675H159.284V328H158.15V318.627L158.185 318.641L155.553 328H153.845L151.199 318.634L151.234 318.62V328H150.1V317.675H152.158L154.692 327.041H154.678L157.226 317.675ZM161.537 328V320.566H162.713V328H161.537ZM162.132 318.858C161.913 318.858 161.722 318.797 161.558 318.676C161.4 318.55 161.32 318.38 161.32 318.165C161.32 317.955 161.4 317.789 161.558 317.668C161.722 317.542 161.913 317.479 162.132 317.479C162.352 317.479 162.541 317.542 162.699 317.668C162.858 317.789 162.937 317.955 162.937 318.165C162.937 318.38 162.858 318.55 162.699 318.676C162.541 318.797 162.352 318.858 162.132 318.858ZM165.014 331.136C164.827 331.136 164.657 331.124 164.503 331.101C164.349 331.082 164.253 331.064 164.216 331.045V330.009C164.276 330.037 164.377 330.06 164.517 330.079C164.657 330.098 164.797 330.107 164.937 330.107C165.235 330.107 165.487 330.044 165.693 329.918C165.898 329.797 166.071 329.629 166.211 329.414C166.351 329.204 166.465 328.966 166.554 328.7L166.778 328.042L164.216 320.566H165.462L167.52 326.971H167.352L169.368 320.566H170.593L167.87 328.637C167.716 329.09 167.529 329.505 167.31 329.883C167.095 330.261 166.806 330.564 166.442 330.793C166.082 331.022 165.606 331.136 165.014 331.136ZM174.719 328.14C174.108 328.14 173.548 327.993 173.039 327.699C172.53 327.4 172.124 326.964 171.821 326.39C171.518 325.811 171.366 325.107 171.366 324.276C171.366 323.459 171.52 322.766 171.828 322.197C172.136 321.628 172.544 321.196 173.053 320.902C173.562 320.603 174.117 320.454 174.719 320.454C175.293 320.454 175.83 320.592 176.329 320.867C176.833 321.138 177.239 321.516 177.547 322.001C177.855 322.486 178.009 323.049 178.009 323.688C178.009 323.702 178.009 323.716 178.009 323.73C178.009 323.744 178.009 323.758 178.009 323.772L177.155 323.807C177.155 323.793 177.155 323.779 177.155 323.765C177.155 323.746 177.155 323.73 177.155 323.716C177.155 323.31 177.048 322.944 176.833 322.617C176.623 322.29 176.345 322.031 176 321.84C175.655 321.644 175.284 321.546 174.887 321.546C174.224 321.546 173.676 321.77 173.242 322.218C172.808 322.661 172.591 323.347 172.591 324.276C172.591 325.2 172.808 325.888 173.242 326.341C173.681 326.789 174.229 327.013 174.887 327.013C175.302 327.013 175.68 326.913 176.021 326.712C176.366 326.511 176.642 326.243 176.847 325.907C177.052 325.566 177.155 325.186 177.155 324.766L178.009 324.787C178.009 325.422 177.862 325.993 177.568 326.502C177.274 327.006 176.877 327.405 176.378 327.699C175.883 327.993 175.33 328.14 174.719 328.14ZM177.155 328V317.059H178.352V328H177.155ZM180.514 328V320.566H181.69V328H180.514ZM181.109 318.858C180.89 318.858 180.698 318.797 180.535 318.676C180.376 318.55 180.297 318.38 180.297 318.165C180.297 317.955 180.376 317.789 180.535 317.668C180.698 317.542 180.89 317.479 181.109 317.479C181.328 317.479 181.517 317.542 181.676 317.668C181.835 317.789 181.914 317.955 181.914 318.165C181.914 318.38 181.835 318.55 181.676 318.676C181.517 318.797 181.328 318.858 181.109 318.858ZM189.223 328V324.437C189.223 324.222 189.223 324.047 189.223 323.912C189.223 323.772 189.223 323.639 189.223 323.513C189.223 323.126 189.158 322.787 189.027 322.498C188.896 322.209 188.691 321.985 188.411 321.826C188.131 321.667 187.765 321.588 187.312 321.588C186.915 321.588 186.547 321.691 186.206 321.896C185.87 322.097 185.599 322.37 185.394 322.715C185.193 323.056 185.093 323.438 185.093 323.863L184.414 323.604C184.414 323.021 184.556 322.491 184.841 322.015C185.13 321.539 185.513 321.161 185.989 320.881C186.47 320.596 186.992 320.454 187.557 320.454C188.131 320.454 188.633 320.564 189.062 320.783C189.491 321.002 189.823 321.317 190.056 321.728C190.294 322.134 190.413 322.624 190.413 323.198C190.413 323.403 190.413 323.627 190.413 323.87C190.413 324.113 190.413 324.339 190.413 324.549V328H189.223ZM183.903 328V320.566H185.093V328H183.903ZM192.559 328V320.566H193.735V328H192.559ZM193.154 318.858C192.935 318.858 192.743 318.797 192.58 318.676C192.421 318.55 192.342 318.38 192.342 318.165C192.342 317.955 192.421 317.789 192.58 317.668C192.743 317.542 192.935 317.479 193.154 317.479C193.373 317.479 193.562 317.542 193.721 317.668C193.88 317.789 193.959 317.955 193.959 318.165C193.959 318.38 193.88 318.55 193.721 318.676C193.562 318.797 193.373 318.858 193.154 318.858ZM196.732 326.908H201.142V328H195.402V326.95L199.763 321.63L199.77 321.658H195.577V320.566H201.079V321.616L196.739 326.922L196.732 326.908ZM204.738 325.592C204.738 325.172 204.804 324.799 204.934 324.472C205.065 324.145 205.231 323.847 205.431 323.576C205.632 323.305 205.84 323.046 206.054 322.799C206.25 322.575 206.435 322.349 206.607 322.12C206.78 321.887 206.92 321.637 207.027 321.371C207.135 321.105 207.188 320.806 207.188 320.475C207.188 319.84 207.032 319.367 206.719 319.054C206.411 318.737 205.952 318.578 205.34 318.578C204.715 318.578 204.239 318.755 203.912 319.11C203.586 319.465 203.422 319.997 203.422 320.706H202.351C202.351 320.011 202.48 319.434 202.736 318.977C202.993 318.515 203.345 318.17 203.793 317.941C204.241 317.712 204.755 317.598 205.333 317.598C205.912 317.598 206.418 317.71 206.852 317.934C207.291 318.158 207.634 318.489 207.881 318.928C208.129 319.362 208.252 319.899 208.252 320.538C208.252 320.967 208.185 321.348 208.049 321.679C207.914 322.006 207.741 322.3 207.531 322.561C207.321 322.822 207.104 323.072 206.88 323.31C206.572 323.641 206.297 323.982 206.054 324.332C205.812 324.677 205.69 325.097 205.69 325.592H204.738ZM205.284 328.182C205.056 328.182 204.862 328.105 204.703 327.951C204.545 327.792 204.465 327.599 204.465 327.37C204.465 327.146 204.545 326.955 204.703 326.796C204.862 326.637 205.056 326.558 205.284 326.558C205.508 326.558 205.7 326.637 205.858 326.796C206.017 326.955 206.096 327.146 206.096 327.37C206.096 327.599 206.017 327.792 205.858 327.951C205.7 328.105 205.508 328.182 205.284 328.182Z" fill="black"/>
<defs>
<linearGradient id="paint0_linear_631_4519" x1="35.9463" y1="38.1867" x2="66.7463" y2="66.84" gradientUnits="userSpaceOnUse">
<stop stop-color="#E9B8FF"/>
<stop offset="1" stop-color="#F9ECFF"/>
</linearGradient>
<clipPath id="clip0_631_4519">
<rect width="37.3333" height="37.3333" fill="white" transform="translate(33.333 33.3334)"/>
</clipPath>
<clipPath id="clip1_631_4519">
<rect y="250" width="306" height="44" rx="8" fill="white"/>
</clipPath>
</defs>
</svg>
