<svg width="48" height="48" viewBox="0 0 48 48" fill="none" xmlns="http://www.w3.org/2000/svg">
<rect width="48" height="48" rx="24" fill="white" fill-opacity="0.12"/>
<rect x="1" y="1" width="46" height="46" rx="23" stroke="white" stroke-opacity="0.12" stroke-width="2"/>
<path d="M19.0499 26.1209L16.9299 28.2429L19.7579 31.0709L31.0709 19.7569L28.2429 16.9299L26.1199 19.0499L27.5349 20.4639L26.1199 21.8799L24.7059 20.4649L23.2919 21.8799L24.7059 23.2939L23.2919 24.7079L21.8779 23.2939L20.4639 24.7079L21.8779 26.1219L20.4639 27.5369L19.0499 26.1209ZM28.9499 14.8079L33.1929 19.0499C33.3804 19.2375 33.4857 19.4918 33.4857 19.7569C33.4857 20.0221 33.3804 20.2764 33.1929 20.4639L20.4649 33.1919C20.3721 33.2849 20.2618 33.3587 20.1404 33.409C20.019 33.4593 19.8889 33.4852 19.7574 33.4852C19.626 33.4852 19.4959 33.4593 19.3745 33.409C19.2531 33.3587 19.1428 33.2849 19.0499 33.1919L14.8079 28.9499C14.6205 28.7624 14.5151 28.5081 14.5151 28.2429C14.5151 27.9778 14.6205 27.7235 14.8079 27.5359L27.5359 14.8079C27.7235 14.6205 27.9778 14.5152 28.2429 14.5152C28.5081 14.5152 28.7624 14.6205 28.9499 14.8079ZM26.1199 30.3629L27.5349 28.9489L29.7769 31.1919H31.1909V29.7779L28.9489 27.5349L30.3629 26.1209L32.9999 28.7559V32.9999H28.7579L26.1199 30.3629ZM17.6359 21.8779L14.8079 19.0499C14.715 18.9571 14.6412 18.8468 14.5909 18.7254C14.5406 18.604 14.5146 18.4739 14.5146 18.3424C14.5146 18.211 14.5406 18.0809 14.5909 17.9595C14.6412 17.8381 14.715 17.7278 14.8079 17.6349L17.6359 14.8069C17.8235 14.6195 18.0778 14.5142 18.3429 14.5142C18.6081 14.5142 18.8624 14.6195 19.0499 14.8069L21.8799 17.6349L20.4639 19.0499L18.3439 16.9279L16.9289 18.3429L19.0499 20.4629L17.6359 21.8779Z" fill="white"/>
</svg>
