<svg width="210" height="36" viewBox="0 0 210 36" fill="none" xmlns="http://www.w3.org/2000/svg">
<g clip-path="url(#clip0_343_2825)">
<path d="M23.1698 1.22402C21.7661 3.38005 21.0672 4.44253 20.15 5.81567C16.8245 10.8112 15.5204 14.0732 15.6639 17.0494C15.77 19.3048 16.7371 21.4111 18.5028 23.244C19.8131 24.6048 21.1046 25.4498 22.5398 25.8847C23.0452 26.04 23.1949 26.0525 24.0371 26.0525C24.8795 26.0525 25.0292 26.04 25.5346 25.8847C28.8602 24.8781 31.7615 21.467 32.2793 17.9565C32.4103 17.0369 32.373 15.6638 32.1857 14.7131C31.8176 12.8678 30.8942 10.7366 29.3594 8.17052C29.0286 7.62375 27.681 5.56093 26.3644 3.58508L23.9686 0L23.1698 1.22402Z" fill="#DA3D2F"/>
<path d="M13.5706 3.74663C13.4708 4.02623 12.928 6.35624 12.6971 7.48705C12.4413 8.74837 12.0732 11.0535 12.1168 11.0908C12.1293 11.097 12.5162 11.2896 12.9779 11.5133C13.4396 11.737 14.1322 12.1284 14.5128 12.3769L15.2053 12.8305L15.4112 12.2092C15.8605 10.8298 16.5094 9.3759 17.4328 7.67967C17.7634 7.07077 18.0255 6.56749 18.0193 6.56127C18.0069 6.54884 17.4827 6.21332 16.8463 5.80947C16.2099 5.4056 15.2178 4.75942 14.6438 4.37418C14.0198 3.95788 13.5831 3.70314 13.5706 3.74663Z" fill="#DA3D2F"/>
<path d="M33.4744 4.33692C32.9752 4.67244 32.008 5.30622 31.3216 5.74115C30.6353 6.18228 30.0614 6.55509 30.0427 6.56752C30.0239 6.58615 30.08 6.71042 30.1612 6.85332C31.1657 8.64897 32.0767 10.631 32.5446 12.029C32.6881 12.4702 32.8191 12.8368 32.8253 12.8492C32.8315 12.8616 33.0812 12.7001 33.387 12.495C33.9671 12.116 34.7471 11.6749 35.5208 11.3145C35.8951 11.1343 35.9638 11.0784 35.9388 10.9728C35.9263 10.8982 35.8514 10.4446 35.7829 9.95999C35.6143 8.73597 35.2713 7.05215 34.9094 5.63551C34.6036 4.43013 34.4102 3.72803 34.3852 3.72803C34.3789 3.72803 33.9671 4.0014 33.4744 4.33692Z" fill="#DA3D2F"/>
<path d="M3.34431 11.8798C4.28646 15.8191 5.49066 18.6337 7.2252 20.9574C7.7805 21.7032 8.99718 22.9582 9.68974 23.505C11.2683 24.7477 12.8905 25.512 14.7873 25.9157C15.6858 26.1022 17.8196 26.1519 18.7742 26.0089C19.1299 25.953 19.4357 25.8972 19.4543 25.8785C19.4732 25.8598 19.4044 25.7852 19.3046 25.7106C18.9552 25.4497 17.7073 24.1947 17.3268 23.7349C16.1288 22.2562 15.2553 20.4294 14.9121 18.6648C14.6563 17.3475 14.6251 16.3099 14.7936 14.8622C14.8622 14.2533 14.9308 14.3465 13.945 13.6817C11.6364 12.1222 8.64153 11.2896 4.55474 11.0597C3.91833 11.0286 3.33806 10.9976 3.26943 10.9976C3.13841 10.9976 3.13841 11.0038 3.34431 11.8798Z" fill="#DA3D2F"/>
<path d="M43.6756 11.041C42.7771 11.0845 41.6727 11.1964 40.7742 11.3455C37.9291 11.8115 35.739 12.6068 33.9109 13.8432L33.1935 14.3279L33.1997 14.5702C33.1997 14.7069 33.237 15.2164 33.2807 15.701C33.5616 18.8946 32.3386 22.1753 29.9115 24.6917C29.612 25.0023 29.2002 25.3938 28.9881 25.5678L28.6074 25.8785L29.0006 25.9592C29.2128 26.0027 29.9801 26.0525 30.6977 26.0773C31.7459 26.1022 32.1515 26.0897 32.7254 26.0089C34.903 25.6921 36.675 24.8905 38.5593 23.3807C41.0487 21.38 42.9019 18.2547 44.1373 13.9488C44.4056 13.0231 44.8299 11.2523 44.8299 11.0659C44.8299 10.9975 44.599 10.9975 43.6756 11.041Z" fill="#DA3D2F"/>
<path d="M5.08007 21.5974C3.76607 22.2348 1.6641 23.5304 0.546879 24.3887L-0.00906754 24.8214L0.650815 25.2492C3.20091 26.9235 5.87484 28.1944 8.03934 28.7632C11.0598 29.567 13.3056 29.4883 15.3139 28.5123C16.0681 28.1504 17.3963 27.3143 17.1506 27.3627C16.4916 27.4867 14.2806 27.1686 13.036 26.7809C10.3788 25.9448 8.22512 24.412 6.30438 21.9952L5.73395 21.2785L5.08007 21.5974Z" fill="#DA3D2F"/>
<path d="M41.301 22.5018C39.2726 24.9607 36.683 26.5667 33.7515 27.1873C32.5469 27.4421 30.7231 27.5734 30.1418 27.4524C29.9626 27.4128 30.6009 27.8779 31.3787 28.3613C32.8535 29.267 34.3343 29.6292 36.4623 29.601C39.2973 29.5635 42.6513 28.4296 46.3667 26.2579C47.5142 25.5902 47.4754 25.7122 46.7698 25.1286C45.7915 24.308 43.5926 22.8203 42.3988 22.1758L41.8313 21.8662L41.301 22.5018Z" fill="#DA3D2F"/>
<path d="M20.3558 25.9779C19.5885 26.3818 19.1393 26.8291 18.7898 27.5374C18.6026 27.9165 18.5652 28.0656 18.5403 28.5315C18.4966 29.1902 18.6026 29.6625 18.9521 30.3831C19.526 31.5823 21.4604 33.7757 23.4444 35.4967L24.0309 36L24.268 35.8137C26.2957 34.2168 28.4359 31.8557 29.1535 30.4329C29.534 29.6748 29.6651 28.7801 29.4966 28.0594C29.297 27.1894 28.5108 26.2886 27.6435 25.9469C27.45 25.866 27.4251 25.8723 27.0694 26.1207C26.2022 26.7297 25.2164 27.0218 24.0434 27.0093C22.8953 27.0031 22.0094 26.7297 21.0985 26.0959C20.88 25.9406 20.6929 25.8163 20.6803 25.8163C20.6678 25.8163 20.5244 25.8909 20.3558 25.9779Z" fill="#DA3D2F"/>
<path d="M17.5418 28.4915C17.467 28.6219 16.1817 29.4233 15.6825 29.6657C15.0898 29.9453 14.2912 30.2001 13.8357 30.2621L13.5112 30.3057L13.1805 30.809C12.7625 31.4489 12.1885 32.5176 12.2384 32.5673C12.3382 32.6668 14.5906 32.3188 15.9384 31.9956C16.6746 31.8155 18.3155 31.3308 18.4654 31.2439C18.484 31.2314 18.3842 30.9705 18.2281 30.6722C17.9225 30.0696 17.7165 29.3551 17.6917 28.7959C17.6729 28.4354 17.6292 28.3485 17.5418 28.4915Z" fill="#DA3D2F"/>
<path d="M30.3142 28.8549C30.2517 29.4887 30.1082 29.9608 29.8024 30.5946C29.6465 30.9177 29.5279 31.1848 29.5405 31.1973C29.5842 31.2409 31.2187 31.7317 31.8989 31.9057C33.1094 32.2225 35.5802 32.614 35.68 32.5146C35.7299 32.471 35.2495 31.5763 34.7752 30.8306L34.4259 30.2778L33.9268 30.1658C32.9222 29.9485 31.8053 29.4513 30.9506 28.8424C30.7009 28.6684 30.4639 28.5007 30.4264 28.4759C30.3765 28.451 30.3452 28.569 30.3142 28.8549Z" fill="#DA3D2F"/>
</g>
<path d="M205.37 28.0594L197.114 7.5H200.094L208.5 28.0594H205.37ZM188.559 28.0594L196.965 7.5H199.945L191.689 28.0594H188.559ZM192.523 22.5671V19.9825H204.536V22.5671H192.523Z" fill="black"/>
<path d="M179.737 28.0594V7.5H182.658V28.0594H179.737ZM165.579 28.0594V7.5H168.5V28.0594H165.579ZM168.023 18.8077V16.1643H180.661V18.8077H168.023Z" fill="black"/>
<path d="M145.133 28.0594V7.5H152.167C153.558 7.5 154.78 7.78392 155.834 8.35175C156.907 8.9 157.741 9.67343 158.337 10.672C158.953 11.651 159.261 12.7965 159.261 14.1084C159.261 15.3811 158.983 16.5168 158.427 17.5154C157.87 18.514 157.095 19.2972 156.102 19.865C155.128 20.4329 154.005 20.7168 152.734 20.7168H148.054V28.0594H145.133ZM148.054 18.0441H152.704C153.757 18.0441 154.621 17.6818 155.297 16.9573C155.973 16.2133 156.31 15.2636 156.31 14.1084C156.31 12.914 155.913 11.9545 155.118 11.2301C154.343 10.5056 153.35 10.1434 152.137 10.1434H148.054V18.0441Z" fill="black"/>
<path d="M133.914 28.0594V7.5H136.835V28.0594H133.914Z" fill="black"/>
<path d="M105.638 28.0594V7.5H108.738L115.653 17.5741L122.539 7.5H125.639V28.0594H122.718V12.1406L115.624 22.4496L108.559 12.1699V28.0594H105.638Z" fill="black"/>
<path d="M89.4215 28.5C87.8119 28.5 86.3911 28.1769 85.1591 27.5308C83.9469 26.865 83.003 25.9448 82.3274 24.7699C81.6518 23.5755 81.314 22.2049 81.314 20.658V7.5H84.2351V20.658C84.2351 21.6762 84.4537 22.5769 84.8908 23.3601C85.3479 24.1434 85.9639 24.7503 86.7389 25.1811C87.5337 25.6119 88.4478 25.8273 89.4811 25.8273C90.5144 25.8273 91.4285 25.6119 92.2234 25.1811C93.0182 24.7503 93.6343 24.1434 94.0714 23.3601C94.5086 22.5769 94.7272 21.6762 94.7272 20.658V7.5H97.6781V20.658C97.6781 22.2049 97.3303 23.5755 96.6348 24.7699C95.9592 25.9448 94.9955 26.865 93.7435 27.5308C92.5115 28.1769 91.0708 28.5 89.4215 28.5Z" fill="black"/>
<path d="M63 28.0594V7.5H65.9211V25.4161H75.6084V28.0594H63Z" fill="black"/>
<defs>
<clipPath id="clip0_343_2825">
<rect width="48" height="36" fill="white"/>
</clipPath>
</defs>
</svg>
