<svg width="187" height="32" viewBox="0 0 187 32" fill="none" xmlns="http://www.w3.org/2000/svg">
<g clip-path="url(#clip0_439_2411)">
<path d="M20.6322 1.08802C19.3822 3.00449 18.7599 3.94892 17.9431 5.16949C14.9818 9.60995 13.8206 12.5095 13.9484 15.155C14.0429 17.1598 14.904 19.0321 16.4763 20.6613C17.6432 21.8709 18.7932 22.622 20.0712 23.0086C20.5212 23.1467 20.6545 23.1578 21.4045 23.1578C22.1547 23.1578 22.288 23.1467 22.738 23.0086C25.6994 22.1138 28.2829 19.0818 28.744 15.9613C28.8607 15.1439 28.8275 13.9234 28.6607 13.0783C28.3329 11.438 27.5106 9.54366 26.1439 7.26268C25.8493 6.77666 24.6493 4.94305 23.4769 3.18674L21.3435 0L20.6322 1.08802Z" fill="white"/>
<path d="M12.0843 3.33045C11.9954 3.57898 11.5121 5.6501 11.3065 6.65526C11.0787 7.77644 10.7509 9.82544 10.7898 9.85859C10.8009 9.8641 11.1454 10.0353 11.5565 10.2341C11.9677 10.433 12.5844 10.7809 12.9233 11.0018L13.54 11.405L13.7234 10.8527C14.1234 9.62662 14.7012 8.33424 15.5235 6.82648C15.8179 6.28524 16.0513 5.83788 16.0458 5.83235C16.0347 5.8213 15.5679 5.52306 15.0012 5.16408C14.4345 4.80508 13.5511 4.2307 13.04 3.88827C12.4844 3.51823 12.0955 3.29179 12.0843 3.33045Z" fill="white"/>
<path d="M29.8081 3.85521C29.3636 4.15345 28.5023 4.7168 27.8911 5.1034C27.28 5.49553 26.7689 5.82691 26.7523 5.83796C26.7355 5.85452 26.7855 5.96498 26.8577 6.09201C27.7523 7.68814 28.5635 9.44996 28.9801 10.6926C29.1079 11.0848 29.2246 11.4106 29.2301 11.4217C29.2357 11.4327 29.458 11.2891 29.7303 11.1068C30.2469 10.7699 30.9414 10.3778 31.6303 10.0575C31.9637 9.89732 32.0249 9.84762 32.0026 9.75374C31.9915 9.68745 31.9248 9.28428 31.8637 8.85349C31.7137 7.76547 31.4082 6.26874 31.0859 5.00951C30.8136 3.93806 30.6414 3.31396 30.6191 3.31396C30.6136 3.31396 30.2469 3.55697 29.8081 3.85521Z" fill="white"/>
<path d="M2.97806 10.5601C3.81702 14.0617 4.88933 16.5636 6.4339 18.6291C6.92837 19.292 8.0118 20.4075 8.62851 20.8936C10.0342 21.9982 11.4788 22.6776 13.1678 23.0364C13.9678 23.2022 15.8679 23.2464 16.718 23.1193C17.0348 23.0696 17.307 23.02 17.3237 23.0034C17.3404 22.9867 17.2792 22.9205 17.1904 22.8542C16.8792 22.6222 15.768 21.5067 15.4291 21.098C14.3623 19.7835 13.5845 18.1598 13.2789 16.5912C13.0511 15.4203 13.0233 14.498 13.1733 13.2112C13.2345 12.6699 13.2956 12.7527 12.4177 12.1618C10.362 10.7755 7.6951 10.0355 4.05592 9.8311C3.4892 9.80349 2.97249 9.77588 2.91138 9.77588C2.79471 9.77588 2.79471 9.78139 2.97806 10.5601Z" fill="white"/>
<path d="M38.8922 9.8143C38.0921 9.85295 37.1087 9.95237 36.3086 10.0849C33.7751 10.4991 31.8249 11.2061 30.197 12.3051L29.5582 12.7359L29.5637 12.9513C29.5637 13.0728 29.5969 13.5257 29.6358 13.9565C29.886 16.7953 28.7969 19.7114 26.6357 21.9482C26.3689 22.2243 26.0022 22.5723 25.8134 22.727L25.4744 23.0031L25.8245 23.0749C26.0134 23.1136 26.6967 23.1578 27.3357 23.1799C28.2691 23.202 28.6303 23.1909 29.1413 23.1191C31.0804 22.8375 32.6584 22.125 34.3363 20.7829C36.5531 19.0045 38.2033 16.2264 39.3034 12.399C39.5423 11.5761 39.9201 10.0021 39.9201 9.83638C39.9201 9.77564 39.7145 9.77564 38.8922 9.8143Z" fill="white"/>
<path d="M4.52355 19.1977C3.35346 19.7642 1.48171 20.9159 0.486845 21.6788L-0.00821162 22.0634L0.579398 22.4437C2.85019 23.9319 5.23127 25.0616 7.15871 25.5672C9.84835 26.2817 11.8482 26.2118 13.6366 25.3442C14.3081 25.0225 15.4909 24.2793 15.272 24.3224C14.6852 24.4325 12.7164 24.1499 11.6081 23.8052C9.24195 23.062 7.32414 21.6995 5.61377 19.5513L5.10581 18.9142L4.52355 19.1977Z" fill="white"/>
<path d="M36.7775 20.0018C34.9713 22.1874 32.6653 23.615 30.0549 24.1666C28.9822 24.3931 27.3581 24.5098 26.8405 24.4023C26.681 24.3671 27.2493 24.7805 27.942 25.2102C29.2552 26.0153 30.5739 26.3372 32.4687 26.3121C34.9933 26.2788 37.9799 25.2709 41.2884 23.3405C42.3102 22.747 42.2756 22.8555 41.6473 22.3367C40.7762 21.6073 38.8181 20.2849 37.7551 19.712L37.2497 19.4368L36.7775 20.0018Z" fill="white"/>
<path d="M18.1264 23.0914C17.4432 23.4505 17.0431 23.848 16.7319 24.4777C16.5652 24.8146 16.5319 24.9471 16.5097 25.3613C16.4708 25.9468 16.5652 26.3666 16.8764 27.0072C17.3875 28.0731 19.11 30.0228 20.8767 31.5526L21.399 31.9999L21.6101 31.8343C23.4158 30.4149 25.3215 28.3161 25.9605 27.0514C26.2994 26.3775 26.4161 25.5823 26.266 24.9417C26.0883 24.1683 25.3883 23.3676 24.616 23.0639C24.4436 22.9919 24.4215 22.9976 24.1047 23.2184C23.3324 23.7596 22.4547 24.0193 21.4101 24.0082C20.3878 24.0027 19.5989 23.7596 18.7877 23.1963C18.5932 23.0582 18.4266 22.9478 18.4153 22.9478C18.4043 22.9478 18.2765 23.014 18.1264 23.0914Z" fill="white"/>
<path d="M15.6208 25.3257C15.5542 25.4417 14.4096 26.1541 13.9651 26.3695C13.4373 26.6181 12.7262 26.8445 12.3206 26.8997L12.0316 26.9384L11.7372 27.3858C11.3649 27.9546 10.8538 28.9046 10.8982 28.9487C10.9871 29.0371 12.9928 28.7278 14.1929 28.4406C14.8486 28.2804 16.3097 27.8496 16.4432 27.7724C16.4598 27.7612 16.3709 27.5293 16.2319 27.2642C15.9598 26.7286 15.7764 26.0934 15.7542 25.5964C15.7375 25.2759 15.6986 25.1987 15.6208 25.3257Z" fill="white"/>
<path d="M26.994 25.6489C26.9383 26.2122 26.8106 26.6319 26.5383 27.1952C26.3994 27.4825 26.2938 27.7199 26.305 27.731C26.3439 27.7697 27.7995 28.206 28.4051 28.3606C29.4831 28.6422 31.6832 28.9903 31.7721 28.9019C31.8165 28.8632 31.3888 28.0679 30.9665 27.4051L30.6554 26.9136L30.2109 26.8141C29.3164 26.6209 28.3218 26.179 27.5607 25.6377C27.3384 25.4831 27.1273 25.334 27.0939 25.312C27.0495 25.2899 27.0217 25.3947 26.994 25.6489Z" fill="white"/>
</g>
<path d="M182.877 24.9416L175.525 6.6665H178.179L185.664 24.9416H182.877ZM167.907 24.9416L175.392 6.6665H178.047L170.694 24.9416H167.907ZM171.438 20.0595V17.7621H182.134V20.0595H171.438Z" fill="white"/>
<path d="M160.052 24.9416V6.6665H162.653V24.9416H160.052ZM147.444 24.9416V6.6665H150.045V24.9416H147.444ZM149.62 16.7178V14.3681H160.874V16.7178H149.62Z" fill="white"/>
<path d="M129.237 24.9416V6.6665H135.501C136.74 6.6665 137.828 6.91887 138.766 7.42361C139.722 7.91095 140.465 8.59844 140.996 9.48609C141.544 10.3563 141.818 11.3745 141.818 12.5406C141.818 13.6719 141.571 14.6814 141.075 15.5691C140.58 16.4567 139.89 17.1529 139.005 17.6576C138.138 18.1624 137.138 18.4148 136.006 18.4148H131.838V24.9416H129.237ZM131.838 16.039H135.979C136.917 16.039 137.687 15.717 138.288 15.073C138.89 14.4116 139.191 13.5675 139.191 12.5406C139.191 11.4789 138.837 10.6261 138.129 9.98212C137.439 9.33814 136.554 9.01616 135.475 9.01616H131.838V16.039Z" fill="white"/>
<path d="M119.247 24.9416V6.6665H121.848V24.9416H119.247Z" fill="white"/>
<path d="M94.0684 24.9416V6.6665H96.8288L102.987 15.6213L109.118 6.6665H111.878V24.9416H109.277V10.7914L102.96 19.9551L96.6695 10.8176V24.9416H94.0684Z" fill="white"/>
<path d="M79.6275 25.3332C78.1942 25.3332 76.929 25.046 75.8319 24.4716C74.7526 23.8799 73.912 23.0618 73.3104 22.0176C72.7088 20.9559 72.408 19.7375 72.408 18.3625V6.6665H75.0091V18.3625C75.0091 19.2676 75.2038 20.0682 75.5931 20.7644C76.0001 21.4606 76.5486 22.0001 77.2387 22.3831C77.9465 22.766 78.7605 22.9574 79.6806 22.9574C80.6008 22.9574 81.4147 22.766 82.1225 22.3831C82.8303 22.0001 83.3789 21.4606 83.7682 20.7644C84.1575 20.0682 84.3521 19.2676 84.3521 18.3625V6.6665H86.9798V18.3625C86.9798 19.7375 86.6702 20.9559 86.0508 22.0176C85.4492 23.0618 84.591 23.8799 83.4762 24.4716C82.3791 25.046 81.0962 25.3332 79.6275 25.3332Z" fill="white"/>
<path d="M56.1001 24.9416V6.6665H58.7013V22.5919H67.3276V24.9416H56.1001Z" fill="white"/>
<defs>
<clipPath id="clip0_439_2411">
<rect width="42.7429" height="32" fill="white"/>
</clipPath>
</defs>
</svg>
