<svg width="48" height="48" viewBox="0 0 48 48" fill="none" xmlns="http://www.w3.org/2000/svg">
<rect x="1" y="1" width="46" height="46" rx="23" stroke="#DDDDDD" stroke-width="2"/>
<path d="M19.0509 26.1209L16.9309 28.2429L19.7589 31.0709L31.0719 19.7569L28.2439 16.9299L26.1209 19.0499L27.5359 20.4639L26.1209 21.8799L24.7069 20.4649L23.2929 21.8799L24.7069 23.2939L23.2929 24.7079L21.8789 23.2939L20.4649 24.7079L21.8789 26.1219L20.4649 27.5369L19.0509 26.1209ZM28.9509 14.8079L33.1939 19.0499C33.3814 19.2375 33.4867 19.4918 33.4867 19.7569C33.4867 20.0221 33.3814 20.2764 33.1939 20.4639L20.4659 33.1919C20.373 33.2849 20.2627 33.3587 20.1414 33.409C20.02 33.4593 19.8898 33.4852 19.7584 33.4852C19.627 33.4852 19.4969 33.4593 19.3755 33.409C19.2541 33.3587 19.1438 33.2849 19.0509 33.1919L14.8089 28.9499C14.6214 28.7624 14.5161 28.5081 14.5161 28.2429C14.5161 27.9778 14.6214 27.7235 14.8089 27.5359L27.5369 14.8079C27.7244 14.6205 27.9787 14.5152 28.2439 14.5152C28.5091 14.5152 28.7634 14.6205 28.9509 14.8079ZM26.1209 30.3629L27.5359 28.9489L29.7779 31.1919H31.1919V29.7779L28.9499 27.5349L30.3639 26.1209L33.0009 28.7559V32.9999H28.7589L26.1209 30.3629ZM17.6369 21.8779L14.8089 19.0499C14.7159 18.9571 14.6422 18.8468 14.5919 18.7254C14.5415 18.604 14.5156 18.4739 14.5156 18.3424C14.5156 18.211 14.5415 18.0809 14.5919 17.9595C14.6422 17.8381 14.7159 17.7278 14.8089 17.6349L17.6369 14.8069C17.8244 14.6195 18.0787 14.5142 18.3439 14.5142C18.6091 14.5142 18.8634 14.6195 19.0509 14.8069L21.8809 17.6349L20.4649 19.0499L18.3449 16.9279L16.9299 18.3429L19.0509 20.4629L17.6369 21.8779Z" fill="black"/>
</svg>
