<svg width="40" height="40" viewBox="0 0 40 40" fill="none" xmlns="http://www.w3.org/2000/svg">
<path d="M19.9997 36.6668C10.7947 36.6668 3.33301 29.2052 3.33301 20.0002C3.33301 10.7952 10.7947 3.3335 19.9997 3.3335C29.2047 3.3335 36.6663 10.7952 36.6663 20.0002C36.6663 29.2052 29.2047 36.6668 19.9997 36.6668ZM19.9997 33.3335C23.5359 33.3335 26.9273 31.9287 29.4278 29.4283C31.9282 26.9278 33.333 23.5364 33.333 20.0002C33.333 16.4639 31.9282 13.0726 29.4278 10.5721C26.9273 8.07159 23.5359 6.66683 19.9997 6.66683C16.4635 6.66683 13.0721 8.07159 10.5716 10.5721C8.0711 13.0726 6.66634 16.4639 6.66634 20.0002C6.66634 23.5364 8.0711 26.9278 10.5716 29.4283C13.0721 31.9287 16.4635 33.3335 19.9997 33.3335ZM18.333 11.6668H21.6663V15.0002H18.333V11.6668ZM18.333 18.3335H21.6663V28.3335H18.333V18.3335Z" fill="white"/>
</svg>
