<svg width="48" height="48" viewBox="0 0 48 48" fill="none" xmlns="http://www.w3.org/2000/svg">
<g clip-path="url(#clip0_91_2203)">
<path d="M24 14.5861L30.207 20.7931L28.793 22.2071L25 18.4141V28.0001H23V18.4141L19.207 22.2071L17.793 20.7931L24 14.5861ZM15 30.0001V26.0001H17V30.0001C17 30.2653 17.1054 30.5196 17.2929 30.7072C17.4804 30.8947 17.7348 31.0001 18 31.0001H30C30.2652 31.0001 30.5196 30.8947 30.7071 30.7072C30.8946 30.5196 31 30.2653 31 30.0001V26.0001H33V30.0001C33 30.7957 32.6839 31.5588 32.1213 32.1214C31.5587 32.684 30.7956 33.0001 30 33.0001H18C17.2044 33.0001 16.4413 32.684 15.8787 32.1214C15.3161 31.5588 15 30.7957 15 30.0001Z" fill="black"/>
</g>
<rect x="1" y="1" width="46" height="46" rx="23" stroke="#EEEEEE" stroke-width="2"/>
<defs>
<clipPath id="clip0_91_2203">
<rect width="48" height="48" rx="24" fill="white"/>
</clipPath>
</defs>
</svg>
