<svg width="48" height="36" viewBox="0 0 48 36" fill="none" xmlns="http://www.w3.org/2000/svg">
<g clip-path="url(#clip0_887_6688)">
<path d="M23.1698 1.22401C21.7661 3.38004 21.0672 4.44252 20.15 5.81566C16.8245 10.8112 15.5204 14.0732 15.6639 17.0493C15.77 19.3047 16.7371 21.4111 18.5028 23.244C19.8131 24.6048 21.1046 25.4498 22.5398 25.8847C23.0452 26.04 23.1949 26.0525 24.0371 26.0525C24.8795 26.0525 25.0292 26.04 25.5346 25.8847C28.8602 24.8781 31.7615 21.467 32.2793 17.9565C32.4103 17.0369 32.373 15.6638 32.1857 14.7131C31.8176 12.8678 30.8942 10.7366 29.3594 8.1705C29.0286 7.62373 27.681 5.56092 26.3644 3.58506L23.9686 -1.52588e-05L23.1698 1.22401Z" fill="#DA3D2F"/>
<path d="M13.5706 3.74663C13.4708 4.02623 12.928 6.35624 12.6971 7.48705C12.4413 8.74837 12.0732 11.0535 12.1168 11.0908C12.1293 11.097 12.5162 11.2896 12.9779 11.5133C13.4396 11.737 14.1322 12.1284 14.5128 12.3769L15.2053 12.8305L15.4112 12.2092C15.8605 10.8298 16.5094 9.3759 17.4328 7.67967C17.7634 7.07077 18.0255 6.56749 18.0193 6.56127C18.0069 6.54884 17.4827 6.21332 16.8463 5.80947C16.2099 5.4056 15.2178 4.75942 14.6438 4.37418C14.0198 3.95788 13.5831 3.70314 13.5706 3.74663Z" fill="#DA3D2F"/>
<path d="M33.4742 4.33689C32.9751 4.67241 32.0078 5.30619 31.3215 5.74112C30.6352 6.18225 30.0612 6.55506 30.0426 6.56749C30.0238 6.58612 30.0799 6.71039 30.161 6.85329C31.1656 8.64894 32.0765 10.631 32.5445 12.029C32.6879 12.4701 32.819 12.8367 32.8252 12.8492C32.8314 12.8616 33.0811 12.7 33.3869 12.495C33.967 12.116 34.7469 11.6748 35.5206 11.3145C35.895 11.1343 35.9637 11.0784 35.9387 10.9727C35.9262 10.8982 35.8513 10.4446 35.7827 9.95996C35.6142 8.73594 35.2711 7.05212 34.9092 5.63548C34.6035 4.4301 34.4101 3.728 34.385 3.728C34.3788 3.728 33.967 4.00137 33.4742 4.33689Z" fill="#DA3D2F"/>
<path d="M3.34431 11.8799C4.28646 15.8192 5.49066 18.6338 7.2252 20.9575C7.7805 21.7032 8.99718 22.9582 9.68974 23.5051C11.2683 24.7478 12.8905 25.512 14.7873 25.9157C15.6858 26.1022 17.8196 26.152 18.7742 26.009C19.1299 25.9531 19.4357 25.8972 19.4543 25.8785C19.4732 25.8598 19.4044 25.7853 19.3046 25.7107C18.9552 25.4498 17.7073 24.1948 17.3268 23.735C16.1288 22.2562 15.2553 20.4295 14.9121 18.6648C14.6563 17.3476 14.6251 16.31 14.7936 14.8623C14.8622 14.2534 14.9308 14.3466 13.945 13.6818C11.6364 12.1222 8.64153 11.2896 4.55474 11.0597C3.91833 11.0287 3.33806 10.9976 3.26943 10.9976C3.13841 10.9976 3.13841 11.0038 3.34431 11.8799Z" fill="#DA3D2F"/>
<path d="M43.6756 11.0411C42.7771 11.0846 41.6727 11.1964 40.7742 11.3455C37.9291 11.8115 35.739 12.6068 33.9109 13.8433L33.1935 14.3279L33.1997 14.5702C33.1997 14.7069 33.237 15.2164 33.2807 15.7011C33.5616 18.8947 32.3386 22.1753 29.9115 24.6917C29.612 25.0023 29.2002 25.3939 28.9881 25.5679L28.6074 25.8785L29.0006 25.9593C29.2128 26.0028 29.9801 26.0525 30.6977 26.0774C31.7459 26.1022 32.1515 26.0897 32.7254 26.009C34.903 25.6922 36.675 24.8906 38.5593 23.3808C41.0487 21.3801 42.9019 18.2547 44.1373 13.9489C44.4056 13.0231 44.8299 11.2523 44.8299 11.0659C44.8299 10.9976 44.599 10.9976 43.6756 11.0411Z" fill="#DA3D2F"/>
<path d="M5.08007 21.5975C3.76607 22.2348 1.6641 23.5305 0.546879 24.3887L-0.00906754 24.8214L0.650815 25.2492C3.20091 26.9235 5.87484 28.1944 8.03934 28.7632C11.0598 29.567 13.3056 29.4884 15.3139 28.5123C16.0681 28.1504 17.3963 27.3143 17.1506 27.3627C16.4916 27.4867 14.2806 27.1687 13.036 26.7809C10.3788 25.9448 8.22512 24.412 6.30438 21.9953L5.73395 21.2785L5.08007 21.5975Z" fill="#DA3D2F"/>
<path d="M41.301 22.5018C39.2726 24.9606 36.683 26.5667 33.7515 27.1872C32.5469 27.442 30.7231 27.5733 30.1418 27.4523C29.9626 27.4128 30.6009 27.8778 31.3787 28.3613C32.8535 29.267 34.3343 29.6291 36.4623 29.6009C39.2973 29.5634 42.6513 28.4295 46.3667 26.2578C47.5142 25.5901 47.4754 25.7122 46.7698 25.1285C45.7915 24.3079 43.5926 22.8203 42.3988 22.1758L41.8313 21.8662L41.301 22.5018Z" fill="#DA3D2F"/>
<path d="M20.3558 25.9779C19.5885 26.3818 19.1393 26.8291 18.7898 27.5374C18.6026 27.9165 18.5652 28.0656 18.5403 28.5315C18.4966 29.1902 18.6026 29.6625 18.9521 30.3831C19.526 31.5823 21.4604 33.7757 23.4444 35.4967L24.0309 36L24.268 35.8137C26.2957 34.2168 28.4359 31.8557 29.1535 30.4329C29.534 29.6748 29.6651 28.7801 29.4966 28.0594C29.297 27.1894 28.5108 26.2886 27.6435 25.9469C27.45 25.866 27.4251 25.8723 27.0694 26.1207C26.2022 26.7297 25.2164 27.0218 24.0434 27.0093C22.8953 27.0031 22.0094 26.7297 21.0985 26.0959C20.88 25.9406 20.6929 25.8163 20.6803 25.8163C20.6678 25.8163 20.5244 25.8909 20.3558 25.9779Z" fill="#DA3D2F"/>
<path d="M17.5419 28.4914C17.4672 28.6219 16.1818 29.4233 15.6827 29.6657C15.0899 29.9453 14.2913 30.2001 13.8358 30.2621L13.5113 30.3057L13.1807 30.809C12.7626 31.4489 12.1886 32.5176 12.2385 32.5673C12.3384 32.6667 14.5908 32.3187 15.9385 31.9956C16.6747 31.8154 18.3156 31.3308 18.4655 31.2439C18.4841 31.2314 18.3844 30.9705 18.2283 30.6722C17.9227 30.0696 17.7167 29.3551 17.6918 28.7959C17.673 28.4354 17.6293 28.3485 17.5419 28.4914Z" fill="#DA3D2F"/>
<path d="M30.314 28.8549C30.2515 29.4886 30.1081 29.9607 29.8023 30.5945C29.6464 30.9177 29.5277 31.1847 29.5403 31.1973C29.584 31.2408 31.2186 31.7316 31.8987 31.9056C33.1093 32.2224 35.5801 32.6139 35.6799 32.5145C35.7298 32.471 35.2494 31.5763 34.7751 30.8306L34.4258 30.2777L33.9267 30.1658C32.9221 29.9484 31.8052 29.4513 30.9505 28.8423C30.7008 28.6683 30.4637 28.5007 30.4263 28.4758C30.3764 28.451 30.3451 28.5689 30.314 28.8549Z" fill="#DA3D2F"/>
</g>
<defs>
<clipPath id="clip0_887_6688">
<rect width="48" height="36" fill="white"/>
</clipPath>
</defs>
</svg>
