<svg width="210" height="36" viewBox="0 0 210 36" fill="none" xmlns="http://www.w3.org/2000/svg">
<g clip-path="url(#clip0_779_5027)">
<path d="M23.1698 1.22402C21.7661 3.38005 21.0672 4.44253 20.15 5.81567C16.8245 10.8112 15.5204 14.0732 15.6639 17.0494C15.77 19.3048 16.7371 21.4111 18.5028 23.244C19.8131 24.6048 21.1046 25.4498 22.5398 25.8847C23.0452 26.04 23.1949 26.0525 24.0371 26.0525C24.8795 26.0525 25.0292 26.04 25.5346 25.8847C28.8602 24.8781 31.7615 21.467 32.2793 17.9565C32.4103 17.0369 32.373 15.6638 32.1857 14.7131C31.8176 12.8678 30.8942 10.7366 29.3594 8.17052C29.0286 7.62375 27.681 5.56093 26.3644 3.58508L23.9686 0L23.1698 1.22402Z" fill="white"/>
<path d="M13.5706 3.74663C13.4708 4.02623 12.928 6.35624 12.6971 7.48705C12.4413 8.74837 12.0732 11.0535 12.1168 11.0908C12.1293 11.097 12.5162 11.2896 12.9779 11.5133C13.4396 11.737 14.1322 12.1284 14.5128 12.3769L15.2053 12.8305L15.4112 12.2092C15.8605 10.8298 16.5094 9.3759 17.4328 7.67967C17.7634 7.07077 18.0255 6.56749 18.0193 6.56127C18.0069 6.54884 17.4827 6.21332 16.8463 5.80947C16.2099 5.4056 15.2178 4.75942 14.6438 4.37418C14.0198 3.95788 13.5831 3.70314 13.5706 3.74663Z" fill="white"/>
<path d="M33.4744 4.33692C32.9752 4.67244 32.008 5.30622 31.3216 5.74115C30.6353 6.18228 30.0614 6.55509 30.0427 6.56752C30.0239 6.58615 30.08 6.71042 30.1612 6.85332C31.1657 8.64897 32.0767 10.631 32.5446 12.029C32.6881 12.4702 32.8191 12.8368 32.8253 12.8492C32.8315 12.8616 33.0812 12.7001 33.387 12.495C33.9671 12.116 34.7471 11.6749 35.5208 11.3145C35.8951 11.1343 35.9638 11.0784 35.9388 10.9728C35.9263 10.8982 35.8514 10.4446 35.7829 9.95999C35.6143 8.73597 35.2713 7.05215 34.9094 5.63551C34.6036 4.43013 34.4102 3.72803 34.3852 3.72803C34.3789 3.72803 33.9671 4.0014 33.4744 4.33692Z" fill="white"/>
<path d="M3.34407 11.8798C4.28622 15.8191 5.49041 18.6337 7.22496 20.9574C7.78025 21.7032 8.99693 22.9582 9.6895 23.505C11.2681 24.7477 12.8903 25.512 14.7871 25.9157C15.6855 26.1022 17.8193 26.1519 18.774 26.0089C19.1297 25.953 19.4354 25.8972 19.4541 25.8785C19.4729 25.8598 19.4042 25.7852 19.3044 25.7106C18.9549 25.4497 17.7071 24.1947 17.3266 23.7349C16.1285 22.2562 15.255 20.4294 14.9119 18.6648C14.656 17.3475 14.6248 16.3099 14.7933 14.8622C14.8619 14.2533 14.9306 14.3465 13.9447 13.6817C11.6362 12.1222 8.64128 11.2896 4.5545 11.0597C3.91808 11.0286 3.33782 10.9976 3.26919 10.9976C3.13817 10.9976 3.13817 11.0038 3.34407 11.8798Z" fill="white"/>
<path d="M43.6756 11.041C42.7771 11.0845 41.6727 11.1964 40.7742 11.3455C37.9291 11.8115 35.739 12.6068 33.9109 13.8432L33.1935 14.3279L33.1997 14.5702C33.1997 14.7069 33.237 15.2164 33.2807 15.701C33.5616 18.8946 32.3386 22.1753 29.9115 24.6917C29.612 25.0023 29.2002 25.3938 28.9881 25.5678L28.6074 25.8785L29.0006 25.9592C29.2128 26.0027 29.9801 26.0525 30.6977 26.0773C31.7459 26.1022 32.1515 26.0897 32.7254 26.0089C34.903 25.6921 36.675 24.8905 38.5593 23.3807C41.0487 21.38 42.9019 18.2547 44.1373 13.9488C44.4056 13.0231 44.8299 11.2523 44.8299 11.0659C44.8299 10.9975 44.599 10.9975 43.6756 11.041Z" fill="white"/>
<path d="M5.07958 21.5974C3.76558 22.2348 1.66362 23.5304 0.54639 24.3887L-0.00955582 24.8214L0.650326 25.2492C3.20042 26.9235 5.87435 28.1944 8.03885 28.7632C11.0593 29.567 13.3051 29.4883 15.3135 28.5123C16.0676 28.1504 17.3959 27.3143 17.1501 27.3627C16.4911 27.4867 14.2801 27.1686 13.0355 26.7809C10.3783 25.9448 8.22463 24.412 6.30389 21.9952L5.73347 21.2785L5.07958 21.5974Z" fill="white"/>
<path d="M41.3012 22.5018C39.2729 24.9607 36.6832 26.5667 33.7517 27.1873C32.5471 27.4421 30.7233 27.5734 30.142 27.4524C29.9629 27.4128 30.6011 27.8779 31.379 28.3613C32.8537 29.267 34.3346 29.6292 36.4625 29.601C39.2976 29.5635 42.6515 28.4296 46.3669 26.2579C47.5144 25.5902 47.4756 25.7122 46.77 25.1286C45.7918 24.308 43.5929 22.8203 42.3991 22.1758L41.8315 21.8662L41.3012 22.5018Z" fill="white"/>
<path d="M20.3561 25.9779C19.5888 26.3818 19.1395 26.8291 18.79 27.5374C18.6029 27.9165 18.5654 28.0656 18.5405 28.5315C18.4969 29.1902 18.6029 29.6625 18.9523 30.3831C19.5263 31.5823 21.4606 33.7757 23.4447 35.4967L24.0312 36L24.2683 35.8137C26.296 34.2168 28.4361 31.8557 29.1537 30.4329C29.5343 29.6748 29.6653 28.7801 29.4968 28.0594C29.2972 27.1894 28.5111 26.2886 27.6438 25.9469C27.4502 25.866 27.4254 25.8723 27.0697 26.1207C26.2024 26.7297 25.2167 27.0218 24.0436 27.0093C22.8956 27.0031 22.0097 26.7297 21.0987 26.0959C20.8803 25.9406 20.6931 25.8163 20.6805 25.8163C20.6681 25.8163 20.5246 25.8909 20.3561 25.9779Z" fill="white"/>
<path d="M17.5418 28.4915C17.467 28.6219 16.1817 29.4233 15.6825 29.6657C15.0898 29.9453 14.2912 30.2001 13.8357 30.2621L13.5112 30.3057L13.1805 30.809C12.7625 31.4489 12.1885 32.5176 12.2384 32.5673C12.3382 32.6668 14.5906 32.3188 15.9384 31.9956C16.6746 31.8155 18.3155 31.3308 18.4654 31.2439C18.484 31.2314 18.3842 30.9705 18.2281 30.6722C17.9225 30.0696 17.7165 29.3551 17.6917 28.7959C17.6729 28.4354 17.6292 28.3485 17.5418 28.4915Z" fill="white"/>
<path d="M30.3137 28.8549C30.2512 29.4887 30.1077 29.9608 29.8019 30.5946C29.646 30.9177 29.5274 31.1848 29.54 31.1973C29.5837 31.2409 31.2183 31.7317 31.8984 31.9057C33.1089 32.2225 35.5797 32.614 35.6795 32.5146C35.7294 32.471 35.249 31.5763 34.7747 30.8306L34.4254 30.2778L33.9263 30.1658C32.9217 29.9485 31.8048 29.4513 30.9501 28.8424C30.7004 28.6684 30.4634 28.5007 30.4259 28.4759C30.376 28.451 30.3448 28.569 30.3137 28.8549Z" fill="white"/>
</g>
<path d="M205.37 28.0594L197.113 7.5H200.094L208.5 28.0594H205.37ZM188.559 28.0594L196.964 7.5H199.945L191.688 28.0594H188.559ZM192.523 22.5671V19.9825H204.535V22.5671H192.523Z" fill="white"/>
<path d="M179.737 28.0594V7.5H182.658V28.0594H179.737ZM165.578 28.0594V7.5H168.499V28.0594H165.578ZM168.022 18.8077V16.1643H180.661V18.8077H168.022Z" fill="white"/>
<path d="M145.133 28.0594V7.5H152.167C153.558 7.5 154.78 7.78392 155.834 8.35175C156.907 8.9 157.741 9.67343 158.337 10.672C158.953 11.651 159.261 12.7965 159.261 14.1084C159.261 15.3811 158.983 16.5168 158.427 17.5154C157.87 18.514 157.095 19.2972 156.102 19.865C155.128 20.4329 154.005 20.7168 152.734 20.7168H148.054V28.0594H145.133ZM148.054 18.0441H152.704C153.757 18.0441 154.621 17.6818 155.297 16.9573C155.973 16.2133 156.31 15.2636 156.31 14.1084C156.31 12.914 155.913 11.9545 155.118 11.2301C154.343 10.5056 153.35 10.1434 152.137 10.1434H148.054V18.0441Z" fill="white"/>
<path d="M133.914 28.0594V7.5H136.835V28.0594H133.914Z" fill="white"/>
<path d="M105.639 28.0594V7.5H108.739L115.654 17.5741L122.539 7.5H125.639V28.0594H122.718V12.1406L115.624 22.4496L108.56 12.1699V28.0594H105.639Z" fill="white"/>
<path d="M89.421 28.5C87.8114 28.5 86.3906 28.1769 85.1586 27.5308C83.9464 26.865 83.0025 25.9448 82.3269 24.7699C81.6513 23.5755 81.3135 22.2049 81.3135 20.658V7.5H84.2346V20.658C84.2346 21.6762 84.4532 22.5769 84.8903 23.3601C85.3474 24.1434 85.9634 24.7503 86.7384 25.1811C87.5332 25.6119 88.4473 25.8273 89.4806 25.8273C90.514 25.8273 91.428 25.6119 92.2229 25.1811C93.0178 24.7503 93.6338 24.1434 94.0709 23.3601C94.5081 22.5769 94.7267 21.6762 94.7267 20.658V7.5H97.6776V20.658C97.6776 22.2049 97.3299 23.5755 96.6344 24.7699C95.9587 25.9448 94.995 26.865 93.7431 27.5308C92.511 28.1769 91.0704 28.5 89.421 28.5Z" fill="white"/>
<path d="M63 28.0594V7.5H65.9211V25.4161H75.6084V28.0594H63Z" fill="white"/>
<defs>
<clipPath id="clip0_779_5027">
<rect width="48" height="36" fill="white"/>
</clipPath>
</defs>
</svg>
